%TF.GenerationSoftware,KiCad,Pcbnew,8.0.1*%
%TF.CreationDate,2024-09-08T05:47:06-06:00*%
%TF.ProjectId,USBHIDKey,55534248-4944-44b6-9579-2e6b69636164,rev?*%
%TF.SameCoordinates,Original*%
%TF.FileFunction,Legend,Top*%
%TF.FilePolarity,Positive*%
%FSLAX46Y46*%
G04 Gerber Fmt 4.6, Leading zero omitted, Abs format (unit mm)*
G04 Created by KiCad (PCBNEW 8.0.1) date 2024-09-08 05:47:06*
%MOMM*%
%LPD*%
G01*
G04 APERTURE LIST*
%ADD10C,0.100000*%
%ADD11C,0.127000*%
%ADD12C,0.375000*%
%ADD13C,0.254000*%
%ADD14C,0.200000*%
%ADD15C,0.203200*%
%ADD16C,0.152400*%
%ADD17C,0.150000*%
%ADD18C,0.120000*%
%ADD19C,0.000000*%
G04 APERTURE END LIST*
D10*
X202742800Y-54381400D02*
X208381600Y-54381400D01*
X208381600Y-56591200D01*
X202742800Y-56591200D01*
X202742800Y-54381400D01*
X194538600Y-54406800D02*
X200482200Y-54406800D01*
X200482200Y-56616600D01*
X194538600Y-56616600D01*
X194538600Y-54406800D01*
X228219000Y-76403200D02*
X231216200Y-76403200D01*
X231216200Y-78613000D01*
X228219000Y-78613000D01*
X228219000Y-76403200D01*
D11*
X193480798Y-71007419D02*
X193517084Y-70898562D01*
X193517084Y-70898562D02*
X193553370Y-70862276D01*
X193553370Y-70862276D02*
X193625941Y-70825990D01*
X193625941Y-70825990D02*
X193734798Y-70825990D01*
X193734798Y-70825990D02*
X193807370Y-70862276D01*
X193807370Y-70862276D02*
X193843656Y-70898562D01*
X193843656Y-70898562D02*
X193879941Y-70971133D01*
X193879941Y-70971133D02*
X193879941Y-71261419D01*
X193879941Y-71261419D02*
X193117941Y-71261419D01*
X193117941Y-71261419D02*
X193117941Y-71007419D01*
X193117941Y-71007419D02*
X193154227Y-70934848D01*
X193154227Y-70934848D02*
X193190513Y-70898562D01*
X193190513Y-70898562D02*
X193263084Y-70862276D01*
X193263084Y-70862276D02*
X193335656Y-70862276D01*
X193335656Y-70862276D02*
X193408227Y-70898562D01*
X193408227Y-70898562D02*
X193444513Y-70934848D01*
X193444513Y-70934848D02*
X193480798Y-71007419D01*
X193480798Y-71007419D02*
X193480798Y-71261419D01*
X193117941Y-70354276D02*
X193117941Y-70209133D01*
X193117941Y-70209133D02*
X193154227Y-70136562D01*
X193154227Y-70136562D02*
X193226798Y-70063990D01*
X193226798Y-70063990D02*
X193371941Y-70027705D01*
X193371941Y-70027705D02*
X193625941Y-70027705D01*
X193625941Y-70027705D02*
X193771084Y-70063990D01*
X193771084Y-70063990D02*
X193843656Y-70136562D01*
X193843656Y-70136562D02*
X193879941Y-70209133D01*
X193879941Y-70209133D02*
X193879941Y-70354276D01*
X193879941Y-70354276D02*
X193843656Y-70426848D01*
X193843656Y-70426848D02*
X193771084Y-70499419D01*
X193771084Y-70499419D02*
X193625941Y-70535705D01*
X193625941Y-70535705D02*
X193371941Y-70535705D01*
X193371941Y-70535705D02*
X193226798Y-70499419D01*
X193226798Y-70499419D02*
X193154227Y-70426848D01*
X193154227Y-70426848D02*
X193117941Y-70354276D01*
X193117941Y-69555990D02*
X193117941Y-69410847D01*
X193117941Y-69410847D02*
X193154227Y-69338276D01*
X193154227Y-69338276D02*
X193226798Y-69265704D01*
X193226798Y-69265704D02*
X193371941Y-69229419D01*
X193371941Y-69229419D02*
X193625941Y-69229419D01*
X193625941Y-69229419D02*
X193771084Y-69265704D01*
X193771084Y-69265704D02*
X193843656Y-69338276D01*
X193843656Y-69338276D02*
X193879941Y-69410847D01*
X193879941Y-69410847D02*
X193879941Y-69555990D01*
X193879941Y-69555990D02*
X193843656Y-69628562D01*
X193843656Y-69628562D02*
X193771084Y-69701133D01*
X193771084Y-69701133D02*
X193625941Y-69737419D01*
X193625941Y-69737419D02*
X193371941Y-69737419D01*
X193371941Y-69737419D02*
X193226798Y-69701133D01*
X193226798Y-69701133D02*
X193154227Y-69628562D01*
X193154227Y-69628562D02*
X193117941Y-69555990D01*
X193117941Y-69011704D02*
X193117941Y-68576276D01*
X193879941Y-68793990D02*
X193117941Y-68793990D01*
D12*
X214135195Y-63169928D02*
X213635195Y-62455642D01*
X213278052Y-63169928D02*
X213278052Y-61669928D01*
X213278052Y-61669928D02*
X213849481Y-61669928D01*
X213849481Y-61669928D02*
X213992338Y-61741357D01*
X213992338Y-61741357D02*
X214063767Y-61812785D01*
X214063767Y-61812785D02*
X214135195Y-61955642D01*
X214135195Y-61955642D02*
X214135195Y-62169928D01*
X214135195Y-62169928D02*
X214063767Y-62312785D01*
X214063767Y-62312785D02*
X213992338Y-62384214D01*
X213992338Y-62384214D02*
X213849481Y-62455642D01*
X213849481Y-62455642D02*
X213278052Y-62455642D01*
X215349481Y-63098500D02*
X215206624Y-63169928D01*
X215206624Y-63169928D02*
X214920910Y-63169928D01*
X214920910Y-63169928D02*
X214778052Y-63098500D01*
X214778052Y-63098500D02*
X214706624Y-62955642D01*
X214706624Y-62955642D02*
X214706624Y-62384214D01*
X214706624Y-62384214D02*
X214778052Y-62241357D01*
X214778052Y-62241357D02*
X214920910Y-62169928D01*
X214920910Y-62169928D02*
X215206624Y-62169928D01*
X215206624Y-62169928D02*
X215349481Y-62241357D01*
X215349481Y-62241357D02*
X215420910Y-62384214D01*
X215420910Y-62384214D02*
X215420910Y-62527071D01*
X215420910Y-62527071D02*
X214706624Y-62669928D01*
X216063766Y-63169928D02*
X216063766Y-62169928D01*
X216063766Y-62312785D02*
X216135195Y-62241357D01*
X216135195Y-62241357D02*
X216278052Y-62169928D01*
X216278052Y-62169928D02*
X216492338Y-62169928D01*
X216492338Y-62169928D02*
X216635195Y-62241357D01*
X216635195Y-62241357D02*
X216706624Y-62384214D01*
X216706624Y-62384214D02*
X216706624Y-63169928D01*
X216706624Y-62384214D02*
X216778052Y-62241357D01*
X216778052Y-62241357D02*
X216920909Y-62169928D01*
X216920909Y-62169928D02*
X217135195Y-62169928D01*
X217135195Y-62169928D02*
X217278052Y-62241357D01*
X217278052Y-62241357D02*
X217349481Y-62384214D01*
X217349481Y-62384214D02*
X217349481Y-63169928D01*
X218278052Y-63169928D02*
X218135195Y-63098500D01*
X218135195Y-63098500D02*
X218063766Y-63027071D01*
X218063766Y-63027071D02*
X217992338Y-62884214D01*
X217992338Y-62884214D02*
X217992338Y-62455642D01*
X217992338Y-62455642D02*
X218063766Y-62312785D01*
X218063766Y-62312785D02*
X218135195Y-62241357D01*
X218135195Y-62241357D02*
X218278052Y-62169928D01*
X218278052Y-62169928D02*
X218492338Y-62169928D01*
X218492338Y-62169928D02*
X218635195Y-62241357D01*
X218635195Y-62241357D02*
X218706624Y-62312785D01*
X218706624Y-62312785D02*
X218778052Y-62455642D01*
X218778052Y-62455642D02*
X218778052Y-62884214D01*
X218778052Y-62884214D02*
X218706624Y-63027071D01*
X218706624Y-63027071D02*
X218635195Y-63098500D01*
X218635195Y-63098500D02*
X218492338Y-63169928D01*
X218492338Y-63169928D02*
X218278052Y-63169928D01*
X219206624Y-62169928D02*
X219778052Y-62169928D01*
X219420909Y-61669928D02*
X219420909Y-62955642D01*
X219420909Y-62955642D02*
X219492338Y-63098500D01*
X219492338Y-63098500D02*
X219635195Y-63169928D01*
X219635195Y-63169928D02*
X219778052Y-63169928D01*
X220849481Y-63098500D02*
X220706624Y-63169928D01*
X220706624Y-63169928D02*
X220420910Y-63169928D01*
X220420910Y-63169928D02*
X220278052Y-63098500D01*
X220278052Y-63098500D02*
X220206624Y-62955642D01*
X220206624Y-62955642D02*
X220206624Y-62384214D01*
X220206624Y-62384214D02*
X220278052Y-62241357D01*
X220278052Y-62241357D02*
X220420910Y-62169928D01*
X220420910Y-62169928D02*
X220706624Y-62169928D01*
X220706624Y-62169928D02*
X220849481Y-62241357D01*
X220849481Y-62241357D02*
X220920910Y-62384214D01*
X220920910Y-62384214D02*
X220920910Y-62527071D01*
X220920910Y-62527071D02*
X220206624Y-62669928D01*
X222706623Y-61669928D02*
X222706623Y-62884214D01*
X222706623Y-62884214D02*
X222778052Y-63027071D01*
X222778052Y-63027071D02*
X222849481Y-63098500D01*
X222849481Y-63098500D02*
X222992338Y-63169928D01*
X222992338Y-63169928D02*
X223278052Y-63169928D01*
X223278052Y-63169928D02*
X223420909Y-63098500D01*
X223420909Y-63098500D02*
X223492338Y-63027071D01*
X223492338Y-63027071D02*
X223563766Y-62884214D01*
X223563766Y-62884214D02*
X223563766Y-61669928D01*
X224206624Y-63098500D02*
X224420910Y-63169928D01*
X224420910Y-63169928D02*
X224778052Y-63169928D01*
X224778052Y-63169928D02*
X224920910Y-63098500D01*
X224920910Y-63098500D02*
X224992338Y-63027071D01*
X224992338Y-63027071D02*
X225063767Y-62884214D01*
X225063767Y-62884214D02*
X225063767Y-62741357D01*
X225063767Y-62741357D02*
X224992338Y-62598500D01*
X224992338Y-62598500D02*
X224920910Y-62527071D01*
X224920910Y-62527071D02*
X224778052Y-62455642D01*
X224778052Y-62455642D02*
X224492338Y-62384214D01*
X224492338Y-62384214D02*
X224349481Y-62312785D01*
X224349481Y-62312785D02*
X224278052Y-62241357D01*
X224278052Y-62241357D02*
X224206624Y-62098500D01*
X224206624Y-62098500D02*
X224206624Y-61955642D01*
X224206624Y-61955642D02*
X224278052Y-61812785D01*
X224278052Y-61812785D02*
X224349481Y-61741357D01*
X224349481Y-61741357D02*
X224492338Y-61669928D01*
X224492338Y-61669928D02*
X224849481Y-61669928D01*
X224849481Y-61669928D02*
X225063767Y-61741357D01*
X226206623Y-62384214D02*
X226420909Y-62455642D01*
X226420909Y-62455642D02*
X226492338Y-62527071D01*
X226492338Y-62527071D02*
X226563766Y-62669928D01*
X226563766Y-62669928D02*
X226563766Y-62884214D01*
X226563766Y-62884214D02*
X226492338Y-63027071D01*
X226492338Y-63027071D02*
X226420909Y-63098500D01*
X226420909Y-63098500D02*
X226278052Y-63169928D01*
X226278052Y-63169928D02*
X225706623Y-63169928D01*
X225706623Y-63169928D02*
X225706623Y-61669928D01*
X225706623Y-61669928D02*
X226206623Y-61669928D01*
X226206623Y-61669928D02*
X226349481Y-61741357D01*
X226349481Y-61741357D02*
X226420909Y-61812785D01*
X226420909Y-61812785D02*
X226492338Y-61955642D01*
X226492338Y-61955642D02*
X226492338Y-62098500D01*
X226492338Y-62098500D02*
X226420909Y-62241357D01*
X226420909Y-62241357D02*
X226349481Y-62312785D01*
X226349481Y-62312785D02*
X226206623Y-62384214D01*
X226206623Y-62384214D02*
X225706623Y-62384214D01*
X228349480Y-63169928D02*
X228349480Y-61669928D01*
X229206623Y-63169928D02*
X228563766Y-62312785D01*
X229206623Y-61669928D02*
X228349480Y-62527071D01*
X230420909Y-63098500D02*
X230278052Y-63169928D01*
X230278052Y-63169928D02*
X229992338Y-63169928D01*
X229992338Y-63169928D02*
X229849480Y-63098500D01*
X229849480Y-63098500D02*
X229778052Y-62955642D01*
X229778052Y-62955642D02*
X229778052Y-62384214D01*
X229778052Y-62384214D02*
X229849480Y-62241357D01*
X229849480Y-62241357D02*
X229992338Y-62169928D01*
X229992338Y-62169928D02*
X230278052Y-62169928D01*
X230278052Y-62169928D02*
X230420909Y-62241357D01*
X230420909Y-62241357D02*
X230492338Y-62384214D01*
X230492338Y-62384214D02*
X230492338Y-62527071D01*
X230492338Y-62527071D02*
X229778052Y-62669928D01*
X230992337Y-62169928D02*
X231349480Y-63169928D01*
X231706623Y-62169928D02*
X231349480Y-63169928D01*
X231349480Y-63169928D02*
X231206623Y-63527071D01*
X231206623Y-63527071D02*
X231135194Y-63598500D01*
X231135194Y-63598500D02*
X230992337Y-63669928D01*
X232278051Y-63169928D02*
X232278051Y-61669928D01*
X232278051Y-62241357D02*
X232420909Y-62169928D01*
X232420909Y-62169928D02*
X232706623Y-62169928D01*
X232706623Y-62169928D02*
X232849480Y-62241357D01*
X232849480Y-62241357D02*
X232920909Y-62312785D01*
X232920909Y-62312785D02*
X232992337Y-62455642D01*
X232992337Y-62455642D02*
X232992337Y-62884214D01*
X232992337Y-62884214D02*
X232920909Y-63027071D01*
X232920909Y-63027071D02*
X232849480Y-63098500D01*
X232849480Y-63098500D02*
X232706623Y-63169928D01*
X232706623Y-63169928D02*
X232420909Y-63169928D01*
X232420909Y-63169928D02*
X232278051Y-63098500D01*
X233849480Y-63169928D02*
X233706623Y-63098500D01*
X233706623Y-63098500D02*
X233635194Y-63027071D01*
X233635194Y-63027071D02*
X233563766Y-62884214D01*
X233563766Y-62884214D02*
X233563766Y-62455642D01*
X233563766Y-62455642D02*
X233635194Y-62312785D01*
X233635194Y-62312785D02*
X233706623Y-62241357D01*
X233706623Y-62241357D02*
X233849480Y-62169928D01*
X233849480Y-62169928D02*
X234063766Y-62169928D01*
X234063766Y-62169928D02*
X234206623Y-62241357D01*
X234206623Y-62241357D02*
X234278052Y-62312785D01*
X234278052Y-62312785D02*
X234349480Y-62455642D01*
X234349480Y-62455642D02*
X234349480Y-62884214D01*
X234349480Y-62884214D02*
X234278052Y-63027071D01*
X234278052Y-63027071D02*
X234206623Y-63098500D01*
X234206623Y-63098500D02*
X234063766Y-63169928D01*
X234063766Y-63169928D02*
X233849480Y-63169928D01*
X235635195Y-63169928D02*
X235635195Y-62384214D01*
X235635195Y-62384214D02*
X235563766Y-62241357D01*
X235563766Y-62241357D02*
X235420909Y-62169928D01*
X235420909Y-62169928D02*
X235135195Y-62169928D01*
X235135195Y-62169928D02*
X234992337Y-62241357D01*
X235635195Y-63098500D02*
X235492337Y-63169928D01*
X235492337Y-63169928D02*
X235135195Y-63169928D01*
X235135195Y-63169928D02*
X234992337Y-63098500D01*
X234992337Y-63098500D02*
X234920909Y-62955642D01*
X234920909Y-62955642D02*
X234920909Y-62812785D01*
X234920909Y-62812785D02*
X234992337Y-62669928D01*
X234992337Y-62669928D02*
X235135195Y-62598500D01*
X235135195Y-62598500D02*
X235492337Y-62598500D01*
X235492337Y-62598500D02*
X235635195Y-62527071D01*
X236349480Y-63169928D02*
X236349480Y-62169928D01*
X236349480Y-62455642D02*
X236420909Y-62312785D01*
X236420909Y-62312785D02*
X236492338Y-62241357D01*
X236492338Y-62241357D02*
X236635195Y-62169928D01*
X236635195Y-62169928D02*
X236778052Y-62169928D01*
X237920909Y-63169928D02*
X237920909Y-61669928D01*
X237920909Y-63098500D02*
X237778051Y-63169928D01*
X237778051Y-63169928D02*
X237492337Y-63169928D01*
X237492337Y-63169928D02*
X237349480Y-63098500D01*
X237349480Y-63098500D02*
X237278051Y-63027071D01*
X237278051Y-63027071D02*
X237206623Y-62884214D01*
X237206623Y-62884214D02*
X237206623Y-62455642D01*
X237206623Y-62455642D02*
X237278051Y-62312785D01*
X237278051Y-62312785D02*
X237349480Y-62241357D01*
X237349480Y-62241357D02*
X237492337Y-62169928D01*
X237492337Y-62169928D02*
X237778051Y-62169928D01*
X237778051Y-62169928D02*
X237920909Y-62241357D01*
D13*
X204014200Y-55990768D02*
X203590866Y-55386006D01*
X203288485Y-55990768D02*
X203288485Y-54720768D01*
X203288485Y-54720768D02*
X203772295Y-54720768D01*
X203772295Y-54720768D02*
X203893247Y-54781244D01*
X203893247Y-54781244D02*
X203953724Y-54841720D01*
X203953724Y-54841720D02*
X204014200Y-54962672D01*
X204014200Y-54962672D02*
X204014200Y-55144101D01*
X204014200Y-55144101D02*
X203953724Y-55265053D01*
X203953724Y-55265053D02*
X203893247Y-55325530D01*
X203893247Y-55325530D02*
X203772295Y-55386006D01*
X203772295Y-55386006D02*
X203288485Y-55386006D01*
X205042295Y-55930292D02*
X204921343Y-55990768D01*
X204921343Y-55990768D02*
X204679438Y-55990768D01*
X204679438Y-55990768D02*
X204558485Y-55930292D01*
X204558485Y-55930292D02*
X204498009Y-55809339D01*
X204498009Y-55809339D02*
X204498009Y-55325530D01*
X204498009Y-55325530D02*
X204558485Y-55204577D01*
X204558485Y-55204577D02*
X204679438Y-55144101D01*
X204679438Y-55144101D02*
X204921343Y-55144101D01*
X204921343Y-55144101D02*
X205042295Y-55204577D01*
X205042295Y-55204577D02*
X205102771Y-55325530D01*
X205102771Y-55325530D02*
X205102771Y-55446482D01*
X205102771Y-55446482D02*
X204498009Y-55567434D01*
X205586580Y-55930292D02*
X205707533Y-55990768D01*
X205707533Y-55990768D02*
X205949437Y-55990768D01*
X205949437Y-55990768D02*
X206070390Y-55930292D01*
X206070390Y-55930292D02*
X206130866Y-55809339D01*
X206130866Y-55809339D02*
X206130866Y-55748863D01*
X206130866Y-55748863D02*
X206070390Y-55627911D01*
X206070390Y-55627911D02*
X205949437Y-55567434D01*
X205949437Y-55567434D02*
X205768009Y-55567434D01*
X205768009Y-55567434D02*
X205647056Y-55506958D01*
X205647056Y-55506958D02*
X205586580Y-55386006D01*
X205586580Y-55386006D02*
X205586580Y-55325530D01*
X205586580Y-55325530D02*
X205647056Y-55204577D01*
X205647056Y-55204577D02*
X205768009Y-55144101D01*
X205768009Y-55144101D02*
X205949437Y-55144101D01*
X205949437Y-55144101D02*
X206070390Y-55204577D01*
X207158961Y-55930292D02*
X207038009Y-55990768D01*
X207038009Y-55990768D02*
X206796104Y-55990768D01*
X206796104Y-55990768D02*
X206675151Y-55930292D01*
X206675151Y-55930292D02*
X206614675Y-55809339D01*
X206614675Y-55809339D02*
X206614675Y-55325530D01*
X206614675Y-55325530D02*
X206675151Y-55204577D01*
X206675151Y-55204577D02*
X206796104Y-55144101D01*
X206796104Y-55144101D02*
X207038009Y-55144101D01*
X207038009Y-55144101D02*
X207158961Y-55204577D01*
X207158961Y-55204577D02*
X207219437Y-55325530D01*
X207219437Y-55325530D02*
X207219437Y-55446482D01*
X207219437Y-55446482D02*
X206614675Y-55567434D01*
X207582294Y-55144101D02*
X208066103Y-55144101D01*
X207763722Y-54720768D02*
X207763722Y-55809339D01*
X207763722Y-55809339D02*
X207824199Y-55930292D01*
X207824199Y-55930292D02*
X207945151Y-55990768D01*
X207945151Y-55990768D02*
X208066103Y-55990768D01*
X194982685Y-56041568D02*
X194982685Y-54771568D01*
X194982685Y-54771568D02*
X195466495Y-54771568D01*
X195466495Y-54771568D02*
X195587447Y-54832044D01*
X195587447Y-54832044D02*
X195647924Y-54892520D01*
X195647924Y-54892520D02*
X195708400Y-55013472D01*
X195708400Y-55013472D02*
X195708400Y-55194901D01*
X195708400Y-55194901D02*
X195647924Y-55315853D01*
X195647924Y-55315853D02*
X195587447Y-55376330D01*
X195587447Y-55376330D02*
X195466495Y-55436806D01*
X195466495Y-55436806D02*
X194982685Y-55436806D01*
X196434114Y-56041568D02*
X196313162Y-55981092D01*
X196313162Y-55981092D02*
X196252685Y-55920615D01*
X196252685Y-55920615D02*
X196192209Y-55799663D01*
X196192209Y-55799663D02*
X196192209Y-55436806D01*
X196192209Y-55436806D02*
X196252685Y-55315853D01*
X196252685Y-55315853D02*
X196313162Y-55255377D01*
X196313162Y-55255377D02*
X196434114Y-55194901D01*
X196434114Y-55194901D02*
X196615543Y-55194901D01*
X196615543Y-55194901D02*
X196736495Y-55255377D01*
X196736495Y-55255377D02*
X196796971Y-55315853D01*
X196796971Y-55315853D02*
X196857447Y-55436806D01*
X196857447Y-55436806D02*
X196857447Y-55799663D01*
X196857447Y-55799663D02*
X196796971Y-55920615D01*
X196796971Y-55920615D02*
X196736495Y-55981092D01*
X196736495Y-55981092D02*
X196615543Y-56041568D01*
X196615543Y-56041568D02*
X196434114Y-56041568D01*
X197280781Y-55194901D02*
X197522686Y-56041568D01*
X197522686Y-56041568D02*
X197764591Y-55436806D01*
X197764591Y-55436806D02*
X198006495Y-56041568D01*
X198006495Y-56041568D02*
X198248400Y-55194901D01*
X199216019Y-55981092D02*
X199095067Y-56041568D01*
X199095067Y-56041568D02*
X198853162Y-56041568D01*
X198853162Y-56041568D02*
X198732209Y-55981092D01*
X198732209Y-55981092D02*
X198671733Y-55860139D01*
X198671733Y-55860139D02*
X198671733Y-55376330D01*
X198671733Y-55376330D02*
X198732209Y-55255377D01*
X198732209Y-55255377D02*
X198853162Y-55194901D01*
X198853162Y-55194901D02*
X199095067Y-55194901D01*
X199095067Y-55194901D02*
X199216019Y-55255377D01*
X199216019Y-55255377D02*
X199276495Y-55376330D01*
X199276495Y-55376330D02*
X199276495Y-55497282D01*
X199276495Y-55497282D02*
X198671733Y-55618234D01*
X199820780Y-56041568D02*
X199820780Y-55194901D01*
X199820780Y-55436806D02*
X199881257Y-55315853D01*
X199881257Y-55315853D02*
X199941733Y-55255377D01*
X199941733Y-55255377D02*
X200062685Y-55194901D01*
X200062685Y-55194901D02*
X200183638Y-55194901D01*
D14*
X213742301Y-65100331D02*
X213408968Y-64624140D01*
X213170873Y-65100331D02*
X213170873Y-64100331D01*
X213170873Y-64100331D02*
X213551825Y-64100331D01*
X213551825Y-64100331D02*
X213647063Y-64147950D01*
X213647063Y-64147950D02*
X213694682Y-64195569D01*
X213694682Y-64195569D02*
X213742301Y-64290807D01*
X213742301Y-64290807D02*
X213742301Y-64433664D01*
X213742301Y-64433664D02*
X213694682Y-64528902D01*
X213694682Y-64528902D02*
X213647063Y-64576521D01*
X213647063Y-64576521D02*
X213551825Y-64624140D01*
X213551825Y-64624140D02*
X213170873Y-64624140D01*
X214551825Y-65052712D02*
X214456587Y-65100331D01*
X214456587Y-65100331D02*
X214266111Y-65100331D01*
X214266111Y-65100331D02*
X214170873Y-65052712D01*
X214170873Y-65052712D02*
X214123254Y-64957473D01*
X214123254Y-64957473D02*
X214123254Y-64576521D01*
X214123254Y-64576521D02*
X214170873Y-64481283D01*
X214170873Y-64481283D02*
X214266111Y-64433664D01*
X214266111Y-64433664D02*
X214456587Y-64433664D01*
X214456587Y-64433664D02*
X214551825Y-64481283D01*
X214551825Y-64481283D02*
X214599444Y-64576521D01*
X214599444Y-64576521D02*
X214599444Y-64671759D01*
X214599444Y-64671759D02*
X214123254Y-64766997D01*
X214932778Y-64433664D02*
X215170873Y-65100331D01*
X215170873Y-65100331D02*
X215408968Y-64433664D01*
X216742302Y-64100331D02*
X216837540Y-64100331D01*
X216837540Y-64100331D02*
X216932778Y-64147950D01*
X216932778Y-64147950D02*
X216980397Y-64195569D01*
X216980397Y-64195569D02*
X217028016Y-64290807D01*
X217028016Y-64290807D02*
X217075635Y-64481283D01*
X217075635Y-64481283D02*
X217075635Y-64719378D01*
X217075635Y-64719378D02*
X217028016Y-64909854D01*
X217028016Y-64909854D02*
X216980397Y-65005092D01*
X216980397Y-65005092D02*
X216932778Y-65052712D01*
X216932778Y-65052712D02*
X216837540Y-65100331D01*
X216837540Y-65100331D02*
X216742302Y-65100331D01*
X216742302Y-65100331D02*
X216647064Y-65052712D01*
X216647064Y-65052712D02*
X216599445Y-65005092D01*
X216599445Y-65005092D02*
X216551826Y-64909854D01*
X216551826Y-64909854D02*
X216504207Y-64719378D01*
X216504207Y-64719378D02*
X216504207Y-64481283D01*
X216504207Y-64481283D02*
X216551826Y-64290807D01*
X216551826Y-64290807D02*
X216599445Y-64195569D01*
X216599445Y-64195569D02*
X216647064Y-64147950D01*
X216647064Y-64147950D02*
X216742302Y-64100331D01*
X217504207Y-65005092D02*
X217551826Y-65052712D01*
X217551826Y-65052712D02*
X217504207Y-65100331D01*
X217504207Y-65100331D02*
X217456588Y-65052712D01*
X217456588Y-65052712D02*
X217504207Y-65005092D01*
X217504207Y-65005092D02*
X217504207Y-65100331D01*
X218504206Y-65100331D02*
X217932778Y-65100331D01*
X218218492Y-65100331D02*
X218218492Y-64100331D01*
X218218492Y-64100331D02*
X218123254Y-64243188D01*
X218123254Y-64243188D02*
X218028016Y-64338426D01*
X218028016Y-64338426D02*
X217932778Y-64386045D01*
X213170873Y-66710275D02*
X213170873Y-65710275D01*
X213170873Y-65710275D02*
X213504206Y-66424560D01*
X213504206Y-66424560D02*
X213837539Y-65710275D01*
X213837539Y-65710275D02*
X213837539Y-66710275D01*
X214313730Y-66710275D02*
X214313730Y-66043608D01*
X214313730Y-65710275D02*
X214266111Y-65757894D01*
X214266111Y-65757894D02*
X214313730Y-65805513D01*
X214313730Y-65805513D02*
X214361349Y-65757894D01*
X214361349Y-65757894D02*
X214313730Y-65710275D01*
X214313730Y-65710275D02*
X214313730Y-65805513D01*
X214789920Y-66710275D02*
X214789920Y-65710275D01*
X214885158Y-66329322D02*
X215170872Y-66710275D01*
X215170872Y-66043608D02*
X214789920Y-66424560D01*
X215980396Y-66662656D02*
X215885158Y-66710275D01*
X215885158Y-66710275D02*
X215694682Y-66710275D01*
X215694682Y-66710275D02*
X215599444Y-66662656D01*
X215599444Y-66662656D02*
X215551825Y-66567417D01*
X215551825Y-66567417D02*
X215551825Y-66186465D01*
X215551825Y-66186465D02*
X215599444Y-66091227D01*
X215599444Y-66091227D02*
X215694682Y-66043608D01*
X215694682Y-66043608D02*
X215885158Y-66043608D01*
X215885158Y-66043608D02*
X215980396Y-66091227D01*
X215980396Y-66091227D02*
X216028015Y-66186465D01*
X216028015Y-66186465D02*
X216028015Y-66281703D01*
X216028015Y-66281703D02*
X215551825Y-66376941D01*
X217742301Y-65757894D02*
X217647063Y-65710275D01*
X217647063Y-65710275D02*
X217504206Y-65710275D01*
X217504206Y-65710275D02*
X217361349Y-65757894D01*
X217361349Y-65757894D02*
X217266111Y-65853132D01*
X217266111Y-65853132D02*
X217218492Y-65948370D01*
X217218492Y-65948370D02*
X217170873Y-66138846D01*
X217170873Y-66138846D02*
X217170873Y-66281703D01*
X217170873Y-66281703D02*
X217218492Y-66472179D01*
X217218492Y-66472179D02*
X217266111Y-66567417D01*
X217266111Y-66567417D02*
X217361349Y-66662656D01*
X217361349Y-66662656D02*
X217504206Y-66710275D01*
X217504206Y-66710275D02*
X217599444Y-66710275D01*
X217599444Y-66710275D02*
X217742301Y-66662656D01*
X217742301Y-66662656D02*
X217789920Y-66615036D01*
X217789920Y-66615036D02*
X217789920Y-66281703D01*
X217789920Y-66281703D02*
X217599444Y-66281703D01*
X218361349Y-66710275D02*
X218266111Y-66662656D01*
X218266111Y-66662656D02*
X218218492Y-66615036D01*
X218218492Y-66615036D02*
X218170873Y-66519798D01*
X218170873Y-66519798D02*
X218170873Y-66234084D01*
X218170873Y-66234084D02*
X218218492Y-66138846D01*
X218218492Y-66138846D02*
X218266111Y-66091227D01*
X218266111Y-66091227D02*
X218361349Y-66043608D01*
X218361349Y-66043608D02*
X218504206Y-66043608D01*
X218504206Y-66043608D02*
X218599444Y-66091227D01*
X218599444Y-66091227D02*
X218647063Y-66138846D01*
X218647063Y-66138846D02*
X218694682Y-66234084D01*
X218694682Y-66234084D02*
X218694682Y-66519798D01*
X218694682Y-66519798D02*
X218647063Y-66615036D01*
X218647063Y-66615036D02*
X218599444Y-66662656D01*
X218599444Y-66662656D02*
X218504206Y-66710275D01*
X218504206Y-66710275D02*
X218361349Y-66710275D01*
X219504206Y-66662656D02*
X219408968Y-66710275D01*
X219408968Y-66710275D02*
X219218492Y-66710275D01*
X219218492Y-66710275D02*
X219123254Y-66662656D01*
X219123254Y-66662656D02*
X219075635Y-66567417D01*
X219075635Y-66567417D02*
X219075635Y-66186465D01*
X219075635Y-66186465D02*
X219123254Y-66091227D01*
X219123254Y-66091227D02*
X219218492Y-66043608D01*
X219218492Y-66043608D02*
X219408968Y-66043608D01*
X219408968Y-66043608D02*
X219504206Y-66091227D01*
X219504206Y-66091227D02*
X219551825Y-66186465D01*
X219551825Y-66186465D02*
X219551825Y-66281703D01*
X219551825Y-66281703D02*
X219075635Y-66376941D01*
X220123254Y-66710275D02*
X220028016Y-66662656D01*
X220028016Y-66662656D02*
X219980397Y-66567417D01*
X219980397Y-66567417D02*
X219980397Y-65710275D01*
X220408969Y-66043608D02*
X220932778Y-66043608D01*
X220932778Y-66043608D02*
X220408969Y-66710275D01*
X220408969Y-66710275D02*
X220932778Y-66710275D01*
X221694683Y-66662656D02*
X221599445Y-66710275D01*
X221599445Y-66710275D02*
X221408969Y-66710275D01*
X221408969Y-66710275D02*
X221313731Y-66662656D01*
X221313731Y-66662656D02*
X221266112Y-66567417D01*
X221266112Y-66567417D02*
X221266112Y-66186465D01*
X221266112Y-66186465D02*
X221313731Y-66091227D01*
X221313731Y-66091227D02*
X221408969Y-66043608D01*
X221408969Y-66043608D02*
X221599445Y-66043608D01*
X221599445Y-66043608D02*
X221694683Y-66091227D01*
X221694683Y-66091227D02*
X221742302Y-66186465D01*
X221742302Y-66186465D02*
X221742302Y-66281703D01*
X221742302Y-66281703D02*
X221266112Y-66376941D01*
X222170874Y-66710275D02*
X222170874Y-66043608D01*
X222170874Y-66234084D02*
X222218493Y-66138846D01*
X222218493Y-66138846D02*
X222266112Y-66091227D01*
X222266112Y-66091227D02*
X222361350Y-66043608D01*
X222361350Y-66043608D02*
X222456588Y-66043608D01*
X213456587Y-67320219D02*
X213456587Y-68034504D01*
X213456587Y-68034504D02*
X213408968Y-68177361D01*
X213408968Y-68177361D02*
X213313730Y-68272600D01*
X213313730Y-68272600D02*
X213170873Y-68320219D01*
X213170873Y-68320219D02*
X213075635Y-68320219D01*
X214361349Y-67653552D02*
X214361349Y-68320219D01*
X213932778Y-67653552D02*
X213932778Y-68177361D01*
X213932778Y-68177361D02*
X213980397Y-68272600D01*
X213980397Y-68272600D02*
X214075635Y-68320219D01*
X214075635Y-68320219D02*
X214218492Y-68320219D01*
X214218492Y-68320219D02*
X214313730Y-68272600D01*
X214313730Y-68272600D02*
X214361349Y-68224980D01*
X214980397Y-68320219D02*
X214885159Y-68272600D01*
X214885159Y-68272600D02*
X214837540Y-68177361D01*
X214837540Y-68177361D02*
X214837540Y-67320219D01*
X215266112Y-67653552D02*
X215504207Y-68320219D01*
X215742302Y-67653552D02*
X215504207Y-68320219D01*
X215504207Y-68320219D02*
X215408969Y-68558314D01*
X215408969Y-68558314D02*
X215361350Y-68605933D01*
X215361350Y-68605933D02*
X215266112Y-68653552D01*
X216837541Y-67415457D02*
X216885160Y-67367838D01*
X216885160Y-67367838D02*
X216980398Y-67320219D01*
X216980398Y-67320219D02*
X217218493Y-67320219D01*
X217218493Y-67320219D02*
X217313731Y-67367838D01*
X217313731Y-67367838D02*
X217361350Y-67415457D01*
X217361350Y-67415457D02*
X217408969Y-67510695D01*
X217408969Y-67510695D02*
X217408969Y-67605933D01*
X217408969Y-67605933D02*
X217361350Y-67748790D01*
X217361350Y-67748790D02*
X216789922Y-68320219D01*
X216789922Y-68320219D02*
X217408969Y-68320219D01*
X218028017Y-67320219D02*
X218123255Y-67320219D01*
X218123255Y-67320219D02*
X218218493Y-67367838D01*
X218218493Y-67367838D02*
X218266112Y-67415457D01*
X218266112Y-67415457D02*
X218313731Y-67510695D01*
X218313731Y-67510695D02*
X218361350Y-67701171D01*
X218361350Y-67701171D02*
X218361350Y-67939266D01*
X218361350Y-67939266D02*
X218313731Y-68129742D01*
X218313731Y-68129742D02*
X218266112Y-68224980D01*
X218266112Y-68224980D02*
X218218493Y-68272600D01*
X218218493Y-68272600D02*
X218123255Y-68320219D01*
X218123255Y-68320219D02*
X218028017Y-68320219D01*
X218028017Y-68320219D02*
X217932779Y-68272600D01*
X217932779Y-68272600D02*
X217885160Y-68224980D01*
X217885160Y-68224980D02*
X217837541Y-68129742D01*
X217837541Y-68129742D02*
X217789922Y-67939266D01*
X217789922Y-67939266D02*
X217789922Y-67701171D01*
X217789922Y-67701171D02*
X217837541Y-67510695D01*
X217837541Y-67510695D02*
X217885160Y-67415457D01*
X217885160Y-67415457D02*
X217932779Y-67367838D01*
X217932779Y-67367838D02*
X218028017Y-67320219D01*
X218742303Y-67415457D02*
X218789922Y-67367838D01*
X218789922Y-67367838D02*
X218885160Y-67320219D01*
X218885160Y-67320219D02*
X219123255Y-67320219D01*
X219123255Y-67320219D02*
X219218493Y-67367838D01*
X219218493Y-67367838D02*
X219266112Y-67415457D01*
X219266112Y-67415457D02*
X219313731Y-67510695D01*
X219313731Y-67510695D02*
X219313731Y-67605933D01*
X219313731Y-67605933D02*
X219266112Y-67748790D01*
X219266112Y-67748790D02*
X218694684Y-68320219D01*
X218694684Y-68320219D02*
X219313731Y-68320219D01*
X220170874Y-67653552D02*
X220170874Y-68320219D01*
X219932779Y-67272600D02*
X219694684Y-67986885D01*
X219694684Y-67986885D02*
X220313731Y-67986885D01*
D11*
X193803741Y-62189990D02*
X193440884Y-62443990D01*
X193803741Y-62625419D02*
X193041741Y-62625419D01*
X193041741Y-62625419D02*
X193041741Y-62335133D01*
X193041741Y-62335133D02*
X193078027Y-62262562D01*
X193078027Y-62262562D02*
X193114313Y-62226276D01*
X193114313Y-62226276D02*
X193186884Y-62189990D01*
X193186884Y-62189990D02*
X193295741Y-62189990D01*
X193295741Y-62189990D02*
X193368313Y-62226276D01*
X193368313Y-62226276D02*
X193404598Y-62262562D01*
X193404598Y-62262562D02*
X193440884Y-62335133D01*
X193440884Y-62335133D02*
X193440884Y-62625419D01*
X193767456Y-61899705D02*
X193803741Y-61790848D01*
X193803741Y-61790848D02*
X193803741Y-61609419D01*
X193803741Y-61609419D02*
X193767456Y-61536848D01*
X193767456Y-61536848D02*
X193731170Y-61500562D01*
X193731170Y-61500562D02*
X193658598Y-61464276D01*
X193658598Y-61464276D02*
X193586027Y-61464276D01*
X193586027Y-61464276D02*
X193513456Y-61500562D01*
X193513456Y-61500562D02*
X193477170Y-61536848D01*
X193477170Y-61536848D02*
X193440884Y-61609419D01*
X193440884Y-61609419D02*
X193404598Y-61754562D01*
X193404598Y-61754562D02*
X193368313Y-61827133D01*
X193368313Y-61827133D02*
X193332027Y-61863419D01*
X193332027Y-61863419D02*
X193259456Y-61899705D01*
X193259456Y-61899705D02*
X193186884Y-61899705D01*
X193186884Y-61899705D02*
X193114313Y-61863419D01*
X193114313Y-61863419D02*
X193078027Y-61827133D01*
X193078027Y-61827133D02*
X193041741Y-61754562D01*
X193041741Y-61754562D02*
X193041741Y-61573133D01*
X193041741Y-61573133D02*
X193078027Y-61464276D01*
X193041741Y-61246562D02*
X193041741Y-60811134D01*
X193803741Y-61028848D02*
X193041741Y-61028848D01*
D15*
X229118312Y-77004893D02*
X229311836Y-77004893D01*
X229311836Y-77004893D02*
X229408598Y-77053274D01*
X229408598Y-77053274D02*
X229505360Y-77150036D01*
X229505360Y-77150036D02*
X229553741Y-77343560D01*
X229553741Y-77343560D02*
X229553741Y-77682227D01*
X229553741Y-77682227D02*
X229505360Y-77875751D01*
X229505360Y-77875751D02*
X229408598Y-77972513D01*
X229408598Y-77972513D02*
X229311836Y-78020893D01*
X229311836Y-78020893D02*
X229118312Y-78020893D01*
X229118312Y-78020893D02*
X229021550Y-77972513D01*
X229021550Y-77972513D02*
X228924788Y-77875751D01*
X228924788Y-77875751D02*
X228876407Y-77682227D01*
X228876407Y-77682227D02*
X228876407Y-77343560D01*
X228876407Y-77343560D02*
X228924788Y-77150036D01*
X228924788Y-77150036D02*
X229021550Y-77053274D01*
X229021550Y-77053274D02*
X229118312Y-77004893D01*
X229989169Y-78020893D02*
X229989169Y-77004893D01*
X230569741Y-78020893D02*
X230134312Y-77440322D01*
X230569741Y-77004893D02*
X229989169Y-77585465D01*
D16*
X201334790Y-59896828D02*
X200572790Y-59896828D01*
X200572790Y-59896828D02*
X200572790Y-59715399D01*
X200572790Y-59715399D02*
X200609076Y-59606542D01*
X200609076Y-59606542D02*
X200681647Y-59533971D01*
X200681647Y-59533971D02*
X200754219Y-59497685D01*
X200754219Y-59497685D02*
X200899362Y-59461399D01*
X200899362Y-59461399D02*
X201008219Y-59461399D01*
X201008219Y-59461399D02*
X201153362Y-59497685D01*
X201153362Y-59497685D02*
X201225933Y-59533971D01*
X201225933Y-59533971D02*
X201298505Y-59606542D01*
X201298505Y-59606542D02*
X201334790Y-59715399D01*
X201334790Y-59715399D02*
X201334790Y-59896828D01*
X201334790Y-59098542D02*
X201334790Y-58953399D01*
X201334790Y-58953399D02*
X201298505Y-58880828D01*
X201298505Y-58880828D02*
X201262219Y-58844542D01*
X201262219Y-58844542D02*
X201153362Y-58771971D01*
X201153362Y-58771971D02*
X201008219Y-58735685D01*
X201008219Y-58735685D02*
X200717933Y-58735685D01*
X200717933Y-58735685D02*
X200645362Y-58771971D01*
X200645362Y-58771971D02*
X200609076Y-58808257D01*
X200609076Y-58808257D02*
X200572790Y-58880828D01*
X200572790Y-58880828D02*
X200572790Y-59025971D01*
X200572790Y-59025971D02*
X200609076Y-59098542D01*
X200609076Y-59098542D02*
X200645362Y-59134828D01*
X200645362Y-59134828D02*
X200717933Y-59171114D01*
X200717933Y-59171114D02*
X200899362Y-59171114D01*
X200899362Y-59171114D02*
X200971933Y-59134828D01*
X200971933Y-59134828D02*
X201008219Y-59098542D01*
X201008219Y-59098542D02*
X201044505Y-59025971D01*
X201044505Y-59025971D02*
X201044505Y-58880828D01*
X201044505Y-58880828D02*
X201008219Y-58808257D01*
X201008219Y-58808257D02*
X200971933Y-58771971D01*
X200971933Y-58771971D02*
X200899362Y-58735685D01*
D17*
X248510466Y-53887019D02*
X248510466Y-54601304D01*
X248510466Y-54601304D02*
X248462847Y-54744161D01*
X248462847Y-54744161D02*
X248367609Y-54839400D01*
X248367609Y-54839400D02*
X248224752Y-54887019D01*
X248224752Y-54887019D02*
X248129514Y-54887019D01*
X248939038Y-53982257D02*
X248986657Y-53934638D01*
X248986657Y-53934638D02*
X249081895Y-53887019D01*
X249081895Y-53887019D02*
X249319990Y-53887019D01*
X249319990Y-53887019D02*
X249415228Y-53934638D01*
X249415228Y-53934638D02*
X249462847Y-53982257D01*
X249462847Y-53982257D02*
X249510466Y-54077495D01*
X249510466Y-54077495D02*
X249510466Y-54172733D01*
X249510466Y-54172733D02*
X249462847Y-54315590D01*
X249462847Y-54315590D02*
X248891419Y-54887019D01*
X248891419Y-54887019D02*
X249510466Y-54887019D01*
X242866057Y-71901038D02*
X242818438Y-71996276D01*
X242818438Y-71996276D02*
X242723200Y-72091514D01*
X242723200Y-72091514D02*
X242580342Y-72234371D01*
X242580342Y-72234371D02*
X242532723Y-72329609D01*
X242532723Y-72329609D02*
X242532723Y-72424847D01*
X242770819Y-72377228D02*
X242723200Y-72472466D01*
X242723200Y-72472466D02*
X242627961Y-72567704D01*
X242627961Y-72567704D02*
X242437485Y-72615323D01*
X242437485Y-72615323D02*
X242104152Y-72615323D01*
X242104152Y-72615323D02*
X241913676Y-72567704D01*
X241913676Y-72567704D02*
X241818438Y-72472466D01*
X241818438Y-72472466D02*
X241770819Y-72377228D01*
X241770819Y-72377228D02*
X241770819Y-72186752D01*
X241770819Y-72186752D02*
X241818438Y-72091514D01*
X241818438Y-72091514D02*
X241913676Y-71996276D01*
X241913676Y-71996276D02*
X242104152Y-71948657D01*
X242104152Y-71948657D02*
X242437485Y-71948657D01*
X242437485Y-71948657D02*
X242627961Y-71996276D01*
X242627961Y-71996276D02*
X242723200Y-72091514D01*
X242723200Y-72091514D02*
X242770819Y-72186752D01*
X242770819Y-72186752D02*
X242770819Y-72377228D01*
X242770819Y-70996276D02*
X242770819Y-71567704D01*
X242770819Y-71281990D02*
X241770819Y-71281990D01*
X241770819Y-71281990D02*
X241913676Y-71377228D01*
X241913676Y-71377228D02*
X242008914Y-71472466D01*
X242008914Y-71472466D02*
X242056533Y-71567704D01*
D16*
X192992705Y-66950771D02*
X193028990Y-66841914D01*
X193028990Y-66841914D02*
X193028990Y-66660485D01*
X193028990Y-66660485D02*
X192992705Y-66587914D01*
X192992705Y-66587914D02*
X192956419Y-66551628D01*
X192956419Y-66551628D02*
X192883847Y-66515342D01*
X192883847Y-66515342D02*
X192811276Y-66515342D01*
X192811276Y-66515342D02*
X192738705Y-66551628D01*
X192738705Y-66551628D02*
X192702419Y-66587914D01*
X192702419Y-66587914D02*
X192666133Y-66660485D01*
X192666133Y-66660485D02*
X192629847Y-66805628D01*
X192629847Y-66805628D02*
X192593562Y-66878199D01*
X192593562Y-66878199D02*
X192557276Y-66914485D01*
X192557276Y-66914485D02*
X192484705Y-66950771D01*
X192484705Y-66950771D02*
X192412133Y-66950771D01*
X192412133Y-66950771D02*
X192339562Y-66914485D01*
X192339562Y-66914485D02*
X192303276Y-66878199D01*
X192303276Y-66878199D02*
X192266990Y-66805628D01*
X192266990Y-66805628D02*
X192266990Y-66624199D01*
X192266990Y-66624199D02*
X192303276Y-66515342D01*
X192339562Y-66225057D02*
X192303276Y-66188771D01*
X192303276Y-66188771D02*
X192266990Y-66116200D01*
X192266990Y-66116200D02*
X192266990Y-65934771D01*
X192266990Y-65934771D02*
X192303276Y-65862200D01*
X192303276Y-65862200D02*
X192339562Y-65825914D01*
X192339562Y-65825914D02*
X192412133Y-65789628D01*
X192412133Y-65789628D02*
X192484705Y-65789628D01*
X192484705Y-65789628D02*
X192593562Y-65825914D01*
X192593562Y-65825914D02*
X193028990Y-66261342D01*
X193028990Y-66261342D02*
X193028990Y-65789628D01*
X196026190Y-59973028D02*
X195264190Y-59973028D01*
X195264190Y-59973028D02*
X195264190Y-59791599D01*
X195264190Y-59791599D02*
X195300476Y-59682742D01*
X195300476Y-59682742D02*
X195373047Y-59610171D01*
X195373047Y-59610171D02*
X195445619Y-59573885D01*
X195445619Y-59573885D02*
X195590762Y-59537599D01*
X195590762Y-59537599D02*
X195699619Y-59537599D01*
X195699619Y-59537599D02*
X195844762Y-59573885D01*
X195844762Y-59573885D02*
X195917333Y-59610171D01*
X195917333Y-59610171D02*
X195989905Y-59682742D01*
X195989905Y-59682742D02*
X196026190Y-59791599D01*
X196026190Y-59791599D02*
X196026190Y-59973028D01*
X195590762Y-59102171D02*
X195554476Y-59174742D01*
X195554476Y-59174742D02*
X195518190Y-59211028D01*
X195518190Y-59211028D02*
X195445619Y-59247314D01*
X195445619Y-59247314D02*
X195409333Y-59247314D01*
X195409333Y-59247314D02*
X195336762Y-59211028D01*
X195336762Y-59211028D02*
X195300476Y-59174742D01*
X195300476Y-59174742D02*
X195264190Y-59102171D01*
X195264190Y-59102171D02*
X195264190Y-58957028D01*
X195264190Y-58957028D02*
X195300476Y-58884457D01*
X195300476Y-58884457D02*
X195336762Y-58848171D01*
X195336762Y-58848171D02*
X195409333Y-58811885D01*
X195409333Y-58811885D02*
X195445619Y-58811885D01*
X195445619Y-58811885D02*
X195518190Y-58848171D01*
X195518190Y-58848171D02*
X195554476Y-58884457D01*
X195554476Y-58884457D02*
X195590762Y-58957028D01*
X195590762Y-58957028D02*
X195590762Y-59102171D01*
X195590762Y-59102171D02*
X195627047Y-59174742D01*
X195627047Y-59174742D02*
X195663333Y-59211028D01*
X195663333Y-59211028D02*
X195735905Y-59247314D01*
X195735905Y-59247314D02*
X195881047Y-59247314D01*
X195881047Y-59247314D02*
X195953619Y-59211028D01*
X195953619Y-59211028D02*
X195989905Y-59174742D01*
X195989905Y-59174742D02*
X196026190Y-59102171D01*
X196026190Y-59102171D02*
X196026190Y-58957028D01*
X196026190Y-58957028D02*
X195989905Y-58884457D01*
X195989905Y-58884457D02*
X195953619Y-58848171D01*
X195953619Y-58848171D02*
X195881047Y-58811885D01*
X195881047Y-58811885D02*
X195735905Y-58811885D01*
X195735905Y-58811885D02*
X195663333Y-58848171D01*
X195663333Y-58848171D02*
X195627047Y-58884457D01*
X195627047Y-58884457D02*
X195590762Y-58957028D01*
X235788200Y-75731790D02*
X235534200Y-75368933D01*
X235352771Y-75731790D02*
X235352771Y-74969790D01*
X235352771Y-74969790D02*
X235643057Y-74969790D01*
X235643057Y-74969790D02*
X235715628Y-75006076D01*
X235715628Y-75006076D02*
X235751914Y-75042362D01*
X235751914Y-75042362D02*
X235788200Y-75114933D01*
X235788200Y-75114933D02*
X235788200Y-75223790D01*
X235788200Y-75223790D02*
X235751914Y-75296362D01*
X235751914Y-75296362D02*
X235715628Y-75332647D01*
X235715628Y-75332647D02*
X235643057Y-75368933D01*
X235643057Y-75368933D02*
X235352771Y-75368933D01*
X236078485Y-75042362D02*
X236114771Y-75006076D01*
X236114771Y-75006076D02*
X236187343Y-74969790D01*
X236187343Y-74969790D02*
X236368771Y-74969790D01*
X236368771Y-74969790D02*
X236441343Y-75006076D01*
X236441343Y-75006076D02*
X236477628Y-75042362D01*
X236477628Y-75042362D02*
X236513914Y-75114933D01*
X236513914Y-75114933D02*
X236513914Y-75187505D01*
X236513914Y-75187505D02*
X236477628Y-75296362D01*
X236477628Y-75296362D02*
X236042200Y-75731790D01*
X236042200Y-75731790D02*
X236513914Y-75731790D01*
X215061800Y-74944390D02*
X214807800Y-74581533D01*
X214626371Y-74944390D02*
X214626371Y-74182390D01*
X214626371Y-74182390D02*
X214916657Y-74182390D01*
X214916657Y-74182390D02*
X214989228Y-74218676D01*
X214989228Y-74218676D02*
X215025514Y-74254962D01*
X215025514Y-74254962D02*
X215061800Y-74327533D01*
X215061800Y-74327533D02*
X215061800Y-74436390D01*
X215061800Y-74436390D02*
X215025514Y-74508962D01*
X215025514Y-74508962D02*
X214989228Y-74545247D01*
X214989228Y-74545247D02*
X214916657Y-74581533D01*
X214916657Y-74581533D02*
X214626371Y-74581533D01*
X215714943Y-74436390D02*
X215714943Y-74944390D01*
X215533514Y-74146105D02*
X215352085Y-74690390D01*
X215352085Y-74690390D02*
X215823800Y-74690390D01*
X208918628Y-54207105D02*
X209027486Y-54243390D01*
X209027486Y-54243390D02*
X209208914Y-54243390D01*
X209208914Y-54243390D02*
X209281486Y-54207105D01*
X209281486Y-54207105D02*
X209317771Y-54170819D01*
X209317771Y-54170819D02*
X209354057Y-54098247D01*
X209354057Y-54098247D02*
X209354057Y-54025676D01*
X209354057Y-54025676D02*
X209317771Y-53953105D01*
X209317771Y-53953105D02*
X209281486Y-53916819D01*
X209281486Y-53916819D02*
X209208914Y-53880533D01*
X209208914Y-53880533D02*
X209063771Y-53844247D01*
X209063771Y-53844247D02*
X208991200Y-53807962D01*
X208991200Y-53807962D02*
X208954914Y-53771676D01*
X208954914Y-53771676D02*
X208918628Y-53699105D01*
X208918628Y-53699105D02*
X208918628Y-53626533D01*
X208918628Y-53626533D02*
X208954914Y-53553962D01*
X208954914Y-53553962D02*
X208991200Y-53517676D01*
X208991200Y-53517676D02*
X209063771Y-53481390D01*
X209063771Y-53481390D02*
X209245200Y-53481390D01*
X209245200Y-53481390D02*
X209354057Y-53517676D01*
X210007200Y-53735390D02*
X210007200Y-54243390D01*
X209825771Y-53445105D02*
X209644342Y-53989390D01*
X209644342Y-53989390D02*
X210116057Y-53989390D01*
X235625571Y-58526009D02*
X235625571Y-57909152D01*
X235625571Y-57909152D02*
X235589285Y-57836580D01*
X235589285Y-57836580D02*
X235553000Y-57800295D01*
X235553000Y-57800295D02*
X235480428Y-57764009D01*
X235480428Y-57764009D02*
X235335285Y-57764009D01*
X235335285Y-57764009D02*
X235262714Y-57800295D01*
X235262714Y-57800295D02*
X235226428Y-57836580D01*
X235226428Y-57836580D02*
X235190142Y-57909152D01*
X235190142Y-57909152D02*
X235190142Y-58526009D01*
X234500714Y-58526009D02*
X234645856Y-58526009D01*
X234645856Y-58526009D02*
X234718428Y-58489723D01*
X234718428Y-58489723D02*
X234754714Y-58453437D01*
X234754714Y-58453437D02*
X234827285Y-58344580D01*
X234827285Y-58344580D02*
X234863571Y-58199437D01*
X234863571Y-58199437D02*
X234863571Y-57909152D01*
X234863571Y-57909152D02*
X234827285Y-57836580D01*
X234827285Y-57836580D02*
X234790999Y-57800295D01*
X234790999Y-57800295D02*
X234718428Y-57764009D01*
X234718428Y-57764009D02*
X234573285Y-57764009D01*
X234573285Y-57764009D02*
X234500714Y-57800295D01*
X234500714Y-57800295D02*
X234464428Y-57836580D01*
X234464428Y-57836580D02*
X234428142Y-57909152D01*
X234428142Y-57909152D02*
X234428142Y-58090580D01*
X234428142Y-58090580D02*
X234464428Y-58163152D01*
X234464428Y-58163152D02*
X234500714Y-58199437D01*
X234500714Y-58199437D02*
X234573285Y-58235723D01*
X234573285Y-58235723D02*
X234718428Y-58235723D01*
X234718428Y-58235723D02*
X234790999Y-58199437D01*
X234790999Y-58199437D02*
X234827285Y-58163152D01*
X234827285Y-58163152D02*
X234863571Y-58090580D01*
D11*
X217709572Y-54911923D02*
X217745858Y-54839352D01*
X217745858Y-54839352D02*
X217745858Y-54730494D01*
X217745858Y-54730494D02*
X217709572Y-54621637D01*
X217709572Y-54621637D02*
X217637001Y-54549066D01*
X217637001Y-54549066D02*
X217564429Y-54512780D01*
X217564429Y-54512780D02*
X217419286Y-54476494D01*
X217419286Y-54476494D02*
X217310429Y-54476494D01*
X217310429Y-54476494D02*
X217165286Y-54512780D01*
X217165286Y-54512780D02*
X217092715Y-54549066D01*
X217092715Y-54549066D02*
X217020144Y-54621637D01*
X217020144Y-54621637D02*
X216983858Y-54730494D01*
X216983858Y-54730494D02*
X216983858Y-54803066D01*
X216983858Y-54803066D02*
X217020144Y-54911923D01*
X217020144Y-54911923D02*
X217056429Y-54948209D01*
X217056429Y-54948209D02*
X217310429Y-54948209D01*
X217310429Y-54948209D02*
X217310429Y-54803066D01*
X216983858Y-55274780D02*
X217745858Y-55274780D01*
X217745858Y-55274780D02*
X216983858Y-55710209D01*
X216983858Y-55710209D02*
X217745858Y-55710209D01*
X216983858Y-56073066D02*
X217745858Y-56073066D01*
X217745858Y-56073066D02*
X217745858Y-56254495D01*
X217745858Y-56254495D02*
X217709572Y-56363352D01*
X217709572Y-56363352D02*
X217637001Y-56435923D01*
X217637001Y-56435923D02*
X217564429Y-56472209D01*
X217564429Y-56472209D02*
X217419286Y-56508495D01*
X217419286Y-56508495D02*
X217310429Y-56508495D01*
X217310429Y-56508495D02*
X217165286Y-56472209D01*
X217165286Y-56472209D02*
X217092715Y-56435923D01*
X217092715Y-56435923D02*
X217020144Y-56363352D01*
X217020144Y-56363352D02*
X216983858Y-56254495D01*
X216983858Y-56254495D02*
X216983858Y-56073066D01*
X232245629Y-55049809D02*
X232209344Y-55013523D01*
X232209344Y-55013523D02*
X232173058Y-54904666D01*
X232173058Y-54904666D02*
X232173058Y-54832094D01*
X232173058Y-54832094D02*
X232209344Y-54723237D01*
X232209344Y-54723237D02*
X232281915Y-54650666D01*
X232281915Y-54650666D02*
X232354486Y-54614380D01*
X232354486Y-54614380D02*
X232499629Y-54578094D01*
X232499629Y-54578094D02*
X232608486Y-54578094D01*
X232608486Y-54578094D02*
X232753629Y-54614380D01*
X232753629Y-54614380D02*
X232826201Y-54650666D01*
X232826201Y-54650666D02*
X232898772Y-54723237D01*
X232898772Y-54723237D02*
X232935058Y-54832094D01*
X232935058Y-54832094D02*
X232935058Y-54904666D01*
X232935058Y-54904666D02*
X232898772Y-55013523D01*
X232898772Y-55013523D02*
X232862486Y-55049809D01*
X232209344Y-55340094D02*
X232173058Y-55448952D01*
X232173058Y-55448952D02*
X232173058Y-55630380D01*
X232173058Y-55630380D02*
X232209344Y-55702952D01*
X232209344Y-55702952D02*
X232245629Y-55739237D01*
X232245629Y-55739237D02*
X232318201Y-55775523D01*
X232318201Y-55775523D02*
X232390772Y-55775523D01*
X232390772Y-55775523D02*
X232463344Y-55739237D01*
X232463344Y-55739237D02*
X232499629Y-55702952D01*
X232499629Y-55702952D02*
X232535915Y-55630380D01*
X232535915Y-55630380D02*
X232572201Y-55485237D01*
X232572201Y-55485237D02*
X232608486Y-55412666D01*
X232608486Y-55412666D02*
X232644772Y-55376380D01*
X232644772Y-55376380D02*
X232717344Y-55340094D01*
X232717344Y-55340094D02*
X232789915Y-55340094D01*
X232789915Y-55340094D02*
X232862486Y-55376380D01*
X232862486Y-55376380D02*
X232898772Y-55412666D01*
X232898772Y-55412666D02*
X232935058Y-55485237D01*
X232935058Y-55485237D02*
X232935058Y-55666666D01*
X232935058Y-55666666D02*
X232898772Y-55775523D01*
X227220058Y-54872009D02*
X227582915Y-54618009D01*
X227220058Y-54436580D02*
X227982058Y-54436580D01*
X227982058Y-54436580D02*
X227982058Y-54726866D01*
X227982058Y-54726866D02*
X227945772Y-54799437D01*
X227945772Y-54799437D02*
X227909486Y-54835723D01*
X227909486Y-54835723D02*
X227836915Y-54872009D01*
X227836915Y-54872009D02*
X227728058Y-54872009D01*
X227728058Y-54872009D02*
X227655486Y-54835723D01*
X227655486Y-54835723D02*
X227619201Y-54799437D01*
X227619201Y-54799437D02*
X227582915Y-54726866D01*
X227582915Y-54726866D02*
X227582915Y-54436580D01*
X227619201Y-55198580D02*
X227619201Y-55452580D01*
X227220058Y-55561437D02*
X227220058Y-55198580D01*
X227220058Y-55198580D02*
X227982058Y-55198580D01*
X227982058Y-55198580D02*
X227982058Y-55561437D01*
X227256344Y-55851723D02*
X227220058Y-55960581D01*
X227220058Y-55960581D02*
X227220058Y-56142009D01*
X227220058Y-56142009D02*
X227256344Y-56214581D01*
X227256344Y-56214581D02*
X227292629Y-56250866D01*
X227292629Y-56250866D02*
X227365201Y-56287152D01*
X227365201Y-56287152D02*
X227437772Y-56287152D01*
X227437772Y-56287152D02*
X227510344Y-56250866D01*
X227510344Y-56250866D02*
X227546629Y-56214581D01*
X227546629Y-56214581D02*
X227582915Y-56142009D01*
X227582915Y-56142009D02*
X227619201Y-55996866D01*
X227619201Y-55996866D02*
X227655486Y-55924295D01*
X227655486Y-55924295D02*
X227691772Y-55888009D01*
X227691772Y-55888009D02*
X227764344Y-55851723D01*
X227764344Y-55851723D02*
X227836915Y-55851723D01*
X227836915Y-55851723D02*
X227909486Y-55888009D01*
X227909486Y-55888009D02*
X227945772Y-55924295D01*
X227945772Y-55924295D02*
X227982058Y-55996866D01*
X227982058Y-55996866D02*
X227982058Y-56178295D01*
X227982058Y-56178295D02*
X227945772Y-56287152D01*
X220336658Y-54440209D02*
X220336658Y-54911923D01*
X220336658Y-54911923D02*
X220046372Y-54657923D01*
X220046372Y-54657923D02*
X220046372Y-54766780D01*
X220046372Y-54766780D02*
X220010086Y-54839352D01*
X220010086Y-54839352D02*
X219973801Y-54875637D01*
X219973801Y-54875637D02*
X219901229Y-54911923D01*
X219901229Y-54911923D02*
X219719801Y-54911923D01*
X219719801Y-54911923D02*
X219647229Y-54875637D01*
X219647229Y-54875637D02*
X219610944Y-54839352D01*
X219610944Y-54839352D02*
X219574658Y-54766780D01*
X219574658Y-54766780D02*
X219574658Y-54549066D01*
X219574658Y-54549066D02*
X219610944Y-54476494D01*
X219610944Y-54476494D02*
X219647229Y-54440209D01*
X220336658Y-55129637D02*
X219574658Y-55383637D01*
X219574658Y-55383637D02*
X220336658Y-55637637D01*
X220336658Y-55819066D02*
X220336658Y-56290780D01*
X220336658Y-56290780D02*
X220046372Y-56036780D01*
X220046372Y-56036780D02*
X220046372Y-56145637D01*
X220046372Y-56145637D02*
X220010086Y-56218209D01*
X220010086Y-56218209D02*
X219973801Y-56254494D01*
X219973801Y-56254494D02*
X219901229Y-56290780D01*
X219901229Y-56290780D02*
X219719801Y-56290780D01*
X219719801Y-56290780D02*
X219647229Y-56254494D01*
X219647229Y-56254494D02*
X219610944Y-56218209D01*
X219610944Y-56218209D02*
X219574658Y-56145637D01*
X219574658Y-56145637D02*
X219574658Y-55927923D01*
X219574658Y-55927923D02*
X219610944Y-55855351D01*
X219610944Y-55855351D02*
X219647229Y-55819066D01*
X222150944Y-54476494D02*
X222114658Y-54585352D01*
X222114658Y-54585352D02*
X222114658Y-54766780D01*
X222114658Y-54766780D02*
X222150944Y-54839352D01*
X222150944Y-54839352D02*
X222187229Y-54875637D01*
X222187229Y-54875637D02*
X222259801Y-54911923D01*
X222259801Y-54911923D02*
X222332372Y-54911923D01*
X222332372Y-54911923D02*
X222404944Y-54875637D01*
X222404944Y-54875637D02*
X222441229Y-54839352D01*
X222441229Y-54839352D02*
X222477515Y-54766780D01*
X222477515Y-54766780D02*
X222513801Y-54621637D01*
X222513801Y-54621637D02*
X222550086Y-54549066D01*
X222550086Y-54549066D02*
X222586372Y-54512780D01*
X222586372Y-54512780D02*
X222658944Y-54476494D01*
X222658944Y-54476494D02*
X222731515Y-54476494D01*
X222731515Y-54476494D02*
X222804086Y-54512780D01*
X222804086Y-54512780D02*
X222840372Y-54549066D01*
X222840372Y-54549066D02*
X222876658Y-54621637D01*
X222876658Y-54621637D02*
X222876658Y-54803066D01*
X222876658Y-54803066D02*
X222840372Y-54911923D01*
X222187229Y-55673923D02*
X222150944Y-55637637D01*
X222150944Y-55637637D02*
X222114658Y-55528780D01*
X222114658Y-55528780D02*
X222114658Y-55456208D01*
X222114658Y-55456208D02*
X222150944Y-55347351D01*
X222150944Y-55347351D02*
X222223515Y-55274780D01*
X222223515Y-55274780D02*
X222296086Y-55238494D01*
X222296086Y-55238494D02*
X222441229Y-55202208D01*
X222441229Y-55202208D02*
X222550086Y-55202208D01*
X222550086Y-55202208D02*
X222695229Y-55238494D01*
X222695229Y-55238494D02*
X222767801Y-55274780D01*
X222767801Y-55274780D02*
X222840372Y-55347351D01*
X222840372Y-55347351D02*
X222876658Y-55456208D01*
X222876658Y-55456208D02*
X222876658Y-55528780D01*
X222876658Y-55528780D02*
X222840372Y-55637637D01*
X222840372Y-55637637D02*
X222804086Y-55673923D01*
X222114658Y-56363351D02*
X222114658Y-56000494D01*
X222114658Y-56000494D02*
X222876658Y-56000494D01*
X229760058Y-54512780D02*
X230522058Y-54512780D01*
X230522058Y-54512780D02*
X230522058Y-54694209D01*
X230522058Y-54694209D02*
X230485772Y-54803066D01*
X230485772Y-54803066D02*
X230413201Y-54875637D01*
X230413201Y-54875637D02*
X230340629Y-54911923D01*
X230340629Y-54911923D02*
X230195486Y-54948209D01*
X230195486Y-54948209D02*
X230086629Y-54948209D01*
X230086629Y-54948209D02*
X229941486Y-54911923D01*
X229941486Y-54911923D02*
X229868915Y-54875637D01*
X229868915Y-54875637D02*
X229796344Y-54803066D01*
X229796344Y-54803066D02*
X229760058Y-54694209D01*
X229760058Y-54694209D02*
X229760058Y-54512780D01*
X229832629Y-55710209D02*
X229796344Y-55673923D01*
X229796344Y-55673923D02*
X229760058Y-55565066D01*
X229760058Y-55565066D02*
X229760058Y-55492494D01*
X229760058Y-55492494D02*
X229796344Y-55383637D01*
X229796344Y-55383637D02*
X229868915Y-55311066D01*
X229868915Y-55311066D02*
X229941486Y-55274780D01*
X229941486Y-55274780D02*
X230086629Y-55238494D01*
X230086629Y-55238494D02*
X230195486Y-55238494D01*
X230195486Y-55238494D02*
X230340629Y-55274780D01*
X230340629Y-55274780D02*
X230413201Y-55311066D01*
X230413201Y-55311066D02*
X230485772Y-55383637D01*
X230485772Y-55383637D02*
X230522058Y-55492494D01*
X230522058Y-55492494D02*
X230522058Y-55565066D01*
X230522058Y-55565066D02*
X230485772Y-55673923D01*
X230485772Y-55673923D02*
X230449486Y-55710209D01*
X224741744Y-54476494D02*
X224705458Y-54585352D01*
X224705458Y-54585352D02*
X224705458Y-54766780D01*
X224705458Y-54766780D02*
X224741744Y-54839352D01*
X224741744Y-54839352D02*
X224778029Y-54875637D01*
X224778029Y-54875637D02*
X224850601Y-54911923D01*
X224850601Y-54911923D02*
X224923172Y-54911923D01*
X224923172Y-54911923D02*
X224995744Y-54875637D01*
X224995744Y-54875637D02*
X225032029Y-54839352D01*
X225032029Y-54839352D02*
X225068315Y-54766780D01*
X225068315Y-54766780D02*
X225104601Y-54621637D01*
X225104601Y-54621637D02*
X225140886Y-54549066D01*
X225140886Y-54549066D02*
X225177172Y-54512780D01*
X225177172Y-54512780D02*
X225249744Y-54476494D01*
X225249744Y-54476494D02*
X225322315Y-54476494D01*
X225322315Y-54476494D02*
X225394886Y-54512780D01*
X225394886Y-54512780D02*
X225431172Y-54549066D01*
X225431172Y-54549066D02*
X225467458Y-54621637D01*
X225467458Y-54621637D02*
X225467458Y-54803066D01*
X225467458Y-54803066D02*
X225431172Y-54911923D01*
X224705458Y-55238494D02*
X225467458Y-55238494D01*
X225467458Y-55238494D02*
X225467458Y-55419923D01*
X225467458Y-55419923D02*
X225431172Y-55528780D01*
X225431172Y-55528780D02*
X225358601Y-55601351D01*
X225358601Y-55601351D02*
X225286029Y-55637637D01*
X225286029Y-55637637D02*
X225140886Y-55673923D01*
X225140886Y-55673923D02*
X225032029Y-55673923D01*
X225032029Y-55673923D02*
X224886886Y-55637637D01*
X224886886Y-55637637D02*
X224814315Y-55601351D01*
X224814315Y-55601351D02*
X224741744Y-55528780D01*
X224741744Y-55528780D02*
X224705458Y-55419923D01*
X224705458Y-55419923D02*
X224705458Y-55238494D01*
X224923172Y-55964208D02*
X224923172Y-56327066D01*
X224705458Y-55891637D02*
X225467458Y-56145637D01*
X225467458Y-56145637D02*
X224705458Y-56399637D01*
D17*
X252701466Y-65647219D02*
X252701466Y-66361504D01*
X252701466Y-66361504D02*
X252653847Y-66504361D01*
X252653847Y-66504361D02*
X252558609Y-66599600D01*
X252558609Y-66599600D02*
X252415752Y-66647219D01*
X252415752Y-66647219D02*
X252320514Y-66647219D01*
X253701466Y-66647219D02*
X253130038Y-66647219D01*
X253415752Y-66647219D02*
X253415752Y-65647219D01*
X253415752Y-65647219D02*
X253320514Y-65790076D01*
X253320514Y-65790076D02*
X253225276Y-65885314D01*
X253225276Y-65885314D02*
X253130038Y-65932933D01*
D16*
X200612828Y-54257905D02*
X200721686Y-54294190D01*
X200721686Y-54294190D02*
X200903114Y-54294190D01*
X200903114Y-54294190D02*
X200975686Y-54257905D01*
X200975686Y-54257905D02*
X201011971Y-54221619D01*
X201011971Y-54221619D02*
X201048257Y-54149047D01*
X201048257Y-54149047D02*
X201048257Y-54076476D01*
X201048257Y-54076476D02*
X201011971Y-54003905D01*
X201011971Y-54003905D02*
X200975686Y-53967619D01*
X200975686Y-53967619D02*
X200903114Y-53931333D01*
X200903114Y-53931333D02*
X200757971Y-53895047D01*
X200757971Y-53895047D02*
X200685400Y-53858762D01*
X200685400Y-53858762D02*
X200649114Y-53822476D01*
X200649114Y-53822476D02*
X200612828Y-53749905D01*
X200612828Y-53749905D02*
X200612828Y-53677333D01*
X200612828Y-53677333D02*
X200649114Y-53604762D01*
X200649114Y-53604762D02*
X200685400Y-53568476D01*
X200685400Y-53568476D02*
X200757971Y-53532190D01*
X200757971Y-53532190D02*
X200939400Y-53532190D01*
X200939400Y-53532190D02*
X201048257Y-53568476D01*
X201302257Y-53532190D02*
X201773971Y-53532190D01*
X201773971Y-53532190D02*
X201519971Y-53822476D01*
X201519971Y-53822476D02*
X201628828Y-53822476D01*
X201628828Y-53822476D02*
X201701400Y-53858762D01*
X201701400Y-53858762D02*
X201737685Y-53895047D01*
X201737685Y-53895047D02*
X201773971Y-53967619D01*
X201773971Y-53967619D02*
X201773971Y-54149047D01*
X201773971Y-54149047D02*
X201737685Y-54221619D01*
X201737685Y-54221619D02*
X201701400Y-54257905D01*
X201701400Y-54257905D02*
X201628828Y-54294190D01*
X201628828Y-54294190D02*
X201411114Y-54294190D01*
X201411114Y-54294190D02*
X201338542Y-54257905D01*
X201338542Y-54257905D02*
X201302257Y-54221619D01*
X203747790Y-58554256D02*
X203384933Y-58808256D01*
X203747790Y-58989685D02*
X202985790Y-58989685D01*
X202985790Y-58989685D02*
X202985790Y-58699399D01*
X202985790Y-58699399D02*
X203022076Y-58626828D01*
X203022076Y-58626828D02*
X203058362Y-58590542D01*
X203058362Y-58590542D02*
X203130933Y-58554256D01*
X203130933Y-58554256D02*
X203239790Y-58554256D01*
X203239790Y-58554256D02*
X203312362Y-58590542D01*
X203312362Y-58590542D02*
X203348647Y-58626828D01*
X203348647Y-58626828D02*
X203384933Y-58699399D01*
X203384933Y-58699399D02*
X203384933Y-58989685D01*
X203747790Y-57828542D02*
X203747790Y-58263971D01*
X203747790Y-58046256D02*
X202985790Y-58046256D01*
X202985790Y-58046256D02*
X203094647Y-58118828D01*
X203094647Y-58118828D02*
X203167219Y-58191399D01*
X203167219Y-58191399D02*
X203203505Y-58263971D01*
X202985790Y-57175400D02*
X202985790Y-57320542D01*
X202985790Y-57320542D02*
X203022076Y-57393114D01*
X203022076Y-57393114D02*
X203058362Y-57429400D01*
X203058362Y-57429400D02*
X203167219Y-57501971D01*
X203167219Y-57501971D02*
X203312362Y-57538257D01*
X203312362Y-57538257D02*
X203602647Y-57538257D01*
X203602647Y-57538257D02*
X203675219Y-57501971D01*
X203675219Y-57501971D02*
X203711505Y-57465685D01*
X203711505Y-57465685D02*
X203747790Y-57393114D01*
X203747790Y-57393114D02*
X203747790Y-57247971D01*
X203747790Y-57247971D02*
X203711505Y-57175400D01*
X203711505Y-57175400D02*
X203675219Y-57139114D01*
X203675219Y-57139114D02*
X203602647Y-57102828D01*
X203602647Y-57102828D02*
X203421219Y-57102828D01*
X203421219Y-57102828D02*
X203348647Y-57139114D01*
X203348647Y-57139114D02*
X203312362Y-57175400D01*
X203312362Y-57175400D02*
X203276076Y-57247971D01*
X203276076Y-57247971D02*
X203276076Y-57393114D01*
X203276076Y-57393114D02*
X203312362Y-57465685D01*
X203312362Y-57465685D02*
X203348647Y-57501971D01*
X203348647Y-57501971D02*
X203421219Y-57538257D01*
X235788200Y-74563390D02*
X235534200Y-74200533D01*
X235352771Y-74563390D02*
X235352771Y-73801390D01*
X235352771Y-73801390D02*
X235643057Y-73801390D01*
X235643057Y-73801390D02*
X235715628Y-73837676D01*
X235715628Y-73837676D02*
X235751914Y-73873962D01*
X235751914Y-73873962D02*
X235788200Y-73946533D01*
X235788200Y-73946533D02*
X235788200Y-74055390D01*
X235788200Y-74055390D02*
X235751914Y-74127962D01*
X235751914Y-74127962D02*
X235715628Y-74164247D01*
X235715628Y-74164247D02*
X235643057Y-74200533D01*
X235643057Y-74200533D02*
X235352771Y-74200533D01*
X236513914Y-74563390D02*
X236078485Y-74563390D01*
X236296200Y-74563390D02*
X236296200Y-73801390D01*
X236296200Y-73801390D02*
X236223628Y-73910247D01*
X236223628Y-73910247D02*
X236151057Y-73982819D01*
X236151057Y-73982819D02*
X236078485Y-74019105D01*
X242849400Y-67531219D02*
X242813114Y-67567505D01*
X242813114Y-67567505D02*
X242704257Y-67603790D01*
X242704257Y-67603790D02*
X242631685Y-67603790D01*
X242631685Y-67603790D02*
X242522828Y-67567505D01*
X242522828Y-67567505D02*
X242450257Y-67494933D01*
X242450257Y-67494933D02*
X242413971Y-67422362D01*
X242413971Y-67422362D02*
X242377685Y-67277219D01*
X242377685Y-67277219D02*
X242377685Y-67168362D01*
X242377685Y-67168362D02*
X242413971Y-67023219D01*
X242413971Y-67023219D02*
X242450257Y-66950647D01*
X242450257Y-66950647D02*
X242522828Y-66878076D01*
X242522828Y-66878076D02*
X242631685Y-66841790D01*
X242631685Y-66841790D02*
X242704257Y-66841790D01*
X242704257Y-66841790D02*
X242813114Y-66878076D01*
X242813114Y-66878076D02*
X242849400Y-66914362D01*
X243103400Y-66841790D02*
X243611400Y-66841790D01*
X243611400Y-66841790D02*
X243284828Y-67603790D01*
D17*
X209617504Y-60870180D02*
X209617504Y-60060657D01*
X209617504Y-60060657D02*
X209569885Y-59965419D01*
X209569885Y-59965419D02*
X209522266Y-59917800D01*
X209522266Y-59917800D02*
X209427028Y-59870180D01*
X209427028Y-59870180D02*
X209236552Y-59870180D01*
X209236552Y-59870180D02*
X209141314Y-59917800D01*
X209141314Y-59917800D02*
X209093695Y-59965419D01*
X209093695Y-59965419D02*
X209046076Y-60060657D01*
X209046076Y-60060657D02*
X209046076Y-60870180D01*
X208046076Y-59870180D02*
X208617504Y-59870180D01*
X208331790Y-59870180D02*
X208331790Y-60870180D01*
X208331790Y-60870180D02*
X208427028Y-60727323D01*
X208427028Y-60727323D02*
X208522266Y-60632085D01*
X208522266Y-60632085D02*
X208617504Y-60584466D01*
X246371257Y-71951838D02*
X246323638Y-72047076D01*
X246323638Y-72047076D02*
X246228400Y-72142314D01*
X246228400Y-72142314D02*
X246085542Y-72285171D01*
X246085542Y-72285171D02*
X246037923Y-72380409D01*
X246037923Y-72380409D02*
X246037923Y-72475647D01*
X246276019Y-72428028D02*
X246228400Y-72523266D01*
X246228400Y-72523266D02*
X246133161Y-72618504D01*
X246133161Y-72618504D02*
X245942685Y-72666123D01*
X245942685Y-72666123D02*
X245609352Y-72666123D01*
X245609352Y-72666123D02*
X245418876Y-72618504D01*
X245418876Y-72618504D02*
X245323638Y-72523266D01*
X245323638Y-72523266D02*
X245276019Y-72428028D01*
X245276019Y-72428028D02*
X245276019Y-72237552D01*
X245276019Y-72237552D02*
X245323638Y-72142314D01*
X245323638Y-72142314D02*
X245418876Y-72047076D01*
X245418876Y-72047076D02*
X245609352Y-71999457D01*
X245609352Y-71999457D02*
X245942685Y-71999457D01*
X245942685Y-71999457D02*
X246133161Y-72047076D01*
X246133161Y-72047076D02*
X246228400Y-72142314D01*
X246228400Y-72142314D02*
X246276019Y-72237552D01*
X246276019Y-72237552D02*
X246276019Y-72428028D01*
X245371257Y-71618504D02*
X245323638Y-71570885D01*
X245323638Y-71570885D02*
X245276019Y-71475647D01*
X245276019Y-71475647D02*
X245276019Y-71237552D01*
X245276019Y-71237552D02*
X245323638Y-71142314D01*
X245323638Y-71142314D02*
X245371257Y-71094695D01*
X245371257Y-71094695D02*
X245466495Y-71047076D01*
X245466495Y-71047076D02*
X245561733Y-71047076D01*
X245561733Y-71047076D02*
X245704590Y-71094695D01*
X245704590Y-71094695D02*
X246276019Y-71666123D01*
X246276019Y-71666123D02*
X246276019Y-71047076D01*
D16*
X192992705Y-58695771D02*
X193028990Y-58586914D01*
X193028990Y-58586914D02*
X193028990Y-58405485D01*
X193028990Y-58405485D02*
X192992705Y-58332914D01*
X192992705Y-58332914D02*
X192956419Y-58296628D01*
X192956419Y-58296628D02*
X192883847Y-58260342D01*
X192883847Y-58260342D02*
X192811276Y-58260342D01*
X192811276Y-58260342D02*
X192738705Y-58296628D01*
X192738705Y-58296628D02*
X192702419Y-58332914D01*
X192702419Y-58332914D02*
X192666133Y-58405485D01*
X192666133Y-58405485D02*
X192629847Y-58550628D01*
X192629847Y-58550628D02*
X192593562Y-58623199D01*
X192593562Y-58623199D02*
X192557276Y-58659485D01*
X192557276Y-58659485D02*
X192484705Y-58695771D01*
X192484705Y-58695771D02*
X192412133Y-58695771D01*
X192412133Y-58695771D02*
X192339562Y-58659485D01*
X192339562Y-58659485D02*
X192303276Y-58623199D01*
X192303276Y-58623199D02*
X192266990Y-58550628D01*
X192266990Y-58550628D02*
X192266990Y-58369199D01*
X192266990Y-58369199D02*
X192303276Y-58260342D01*
X193028990Y-57534628D02*
X193028990Y-57970057D01*
X193028990Y-57752342D02*
X192266990Y-57752342D01*
X192266990Y-57752342D02*
X192375847Y-57824914D01*
X192375847Y-57824914D02*
X192448419Y-57897485D01*
X192448419Y-57897485D02*
X192484705Y-57970057D01*
X225784228Y-78768905D02*
X225893086Y-78805190D01*
X225893086Y-78805190D02*
X226074514Y-78805190D01*
X226074514Y-78805190D02*
X226147086Y-78768905D01*
X226147086Y-78768905D02*
X226183371Y-78732619D01*
X226183371Y-78732619D02*
X226219657Y-78660047D01*
X226219657Y-78660047D02*
X226219657Y-78587476D01*
X226219657Y-78587476D02*
X226183371Y-78514905D01*
X226183371Y-78514905D02*
X226147086Y-78478619D01*
X226147086Y-78478619D02*
X226074514Y-78442333D01*
X226074514Y-78442333D02*
X225929371Y-78406047D01*
X225929371Y-78406047D02*
X225856800Y-78369762D01*
X225856800Y-78369762D02*
X225820514Y-78333476D01*
X225820514Y-78333476D02*
X225784228Y-78260905D01*
X225784228Y-78260905D02*
X225784228Y-78188333D01*
X225784228Y-78188333D02*
X225820514Y-78115762D01*
X225820514Y-78115762D02*
X225856800Y-78079476D01*
X225856800Y-78079476D02*
X225929371Y-78043190D01*
X225929371Y-78043190D02*
X226110800Y-78043190D01*
X226110800Y-78043190D02*
X226219657Y-78079476D01*
X226909085Y-78043190D02*
X226546228Y-78043190D01*
X226546228Y-78043190D02*
X226509942Y-78406047D01*
X226509942Y-78406047D02*
X226546228Y-78369762D01*
X226546228Y-78369762D02*
X226618800Y-78333476D01*
X226618800Y-78333476D02*
X226800228Y-78333476D01*
X226800228Y-78333476D02*
X226872800Y-78369762D01*
X226872800Y-78369762D02*
X226909085Y-78406047D01*
X226909085Y-78406047D02*
X226945371Y-78478619D01*
X226945371Y-78478619D02*
X226945371Y-78660047D01*
X226945371Y-78660047D02*
X226909085Y-78732619D01*
X226909085Y-78732619D02*
X226872800Y-78768905D01*
X226872800Y-78768905D02*
X226800228Y-78805190D01*
X226800228Y-78805190D02*
X226618800Y-78805190D01*
X226618800Y-78805190D02*
X226546228Y-78768905D01*
X226546228Y-78768905D02*
X226509942Y-78732619D01*
X204916190Y-58478056D02*
X204553333Y-58732056D01*
X204916190Y-58913485D02*
X204154190Y-58913485D01*
X204154190Y-58913485D02*
X204154190Y-58623199D01*
X204154190Y-58623199D02*
X204190476Y-58550628D01*
X204190476Y-58550628D02*
X204226762Y-58514342D01*
X204226762Y-58514342D02*
X204299333Y-58478056D01*
X204299333Y-58478056D02*
X204408190Y-58478056D01*
X204408190Y-58478056D02*
X204480762Y-58514342D01*
X204480762Y-58514342D02*
X204517047Y-58550628D01*
X204517047Y-58550628D02*
X204553333Y-58623199D01*
X204553333Y-58623199D02*
X204553333Y-58913485D01*
X204916190Y-57752342D02*
X204916190Y-58187771D01*
X204916190Y-57970056D02*
X204154190Y-57970056D01*
X204154190Y-57970056D02*
X204263047Y-58042628D01*
X204263047Y-58042628D02*
X204335619Y-58115199D01*
X204335619Y-58115199D02*
X204371905Y-58187771D01*
X204154190Y-57498342D02*
X204154190Y-56990342D01*
X204154190Y-56990342D02*
X204916190Y-57316914D01*
X242849400Y-66032619D02*
X242813114Y-66068905D01*
X242813114Y-66068905D02*
X242704257Y-66105190D01*
X242704257Y-66105190D02*
X242631685Y-66105190D01*
X242631685Y-66105190D02*
X242522828Y-66068905D01*
X242522828Y-66068905D02*
X242450257Y-65996333D01*
X242450257Y-65996333D02*
X242413971Y-65923762D01*
X242413971Y-65923762D02*
X242377685Y-65778619D01*
X242377685Y-65778619D02*
X242377685Y-65669762D01*
X242377685Y-65669762D02*
X242413971Y-65524619D01*
X242413971Y-65524619D02*
X242450257Y-65452047D01*
X242450257Y-65452047D02*
X242522828Y-65379476D01*
X242522828Y-65379476D02*
X242631685Y-65343190D01*
X242631685Y-65343190D02*
X242704257Y-65343190D01*
X242704257Y-65343190D02*
X242813114Y-65379476D01*
X242813114Y-65379476D02*
X242849400Y-65415762D01*
X243284828Y-65669762D02*
X243212257Y-65633476D01*
X243212257Y-65633476D02*
X243175971Y-65597190D01*
X243175971Y-65597190D02*
X243139685Y-65524619D01*
X243139685Y-65524619D02*
X243139685Y-65488333D01*
X243139685Y-65488333D02*
X243175971Y-65415762D01*
X243175971Y-65415762D02*
X243212257Y-65379476D01*
X243212257Y-65379476D02*
X243284828Y-65343190D01*
X243284828Y-65343190D02*
X243429971Y-65343190D01*
X243429971Y-65343190D02*
X243502543Y-65379476D01*
X243502543Y-65379476D02*
X243538828Y-65415762D01*
X243538828Y-65415762D02*
X243575114Y-65488333D01*
X243575114Y-65488333D02*
X243575114Y-65524619D01*
X243575114Y-65524619D02*
X243538828Y-65597190D01*
X243538828Y-65597190D02*
X243502543Y-65633476D01*
X243502543Y-65633476D02*
X243429971Y-65669762D01*
X243429971Y-65669762D02*
X243284828Y-65669762D01*
X243284828Y-65669762D02*
X243212257Y-65706047D01*
X243212257Y-65706047D02*
X243175971Y-65742333D01*
X243175971Y-65742333D02*
X243139685Y-65814905D01*
X243139685Y-65814905D02*
X243139685Y-65960047D01*
X243139685Y-65960047D02*
X243175971Y-66032619D01*
X243175971Y-66032619D02*
X243212257Y-66068905D01*
X243212257Y-66068905D02*
X243284828Y-66105190D01*
X243284828Y-66105190D02*
X243429971Y-66105190D01*
X243429971Y-66105190D02*
X243502543Y-66068905D01*
X243502543Y-66068905D02*
X243538828Y-66032619D01*
X243538828Y-66032619D02*
X243575114Y-65960047D01*
X243575114Y-65960047D02*
X243575114Y-65814905D01*
X243575114Y-65814905D02*
X243538828Y-65742333D01*
X243538828Y-65742333D02*
X243502543Y-65706047D01*
X243502543Y-65706047D02*
X243429971Y-65669762D01*
D13*
X248293467Y-78018918D02*
X248293467Y-78926061D01*
X248293467Y-78926061D02*
X248232990Y-79107489D01*
X248232990Y-79107489D02*
X248112038Y-79228442D01*
X248112038Y-79228442D02*
X247930609Y-79288918D01*
X247930609Y-79288918D02*
X247809657Y-79288918D01*
X248777276Y-78018918D02*
X249563467Y-78018918D01*
X249563467Y-78018918D02*
X249140133Y-78502727D01*
X249140133Y-78502727D02*
X249321562Y-78502727D01*
X249321562Y-78502727D02*
X249442514Y-78563203D01*
X249442514Y-78563203D02*
X249502990Y-78623680D01*
X249502990Y-78623680D02*
X249563467Y-78744632D01*
X249563467Y-78744632D02*
X249563467Y-79047013D01*
X249563467Y-79047013D02*
X249502990Y-79167965D01*
X249502990Y-79167965D02*
X249442514Y-79228442D01*
X249442514Y-79228442D02*
X249321562Y-79288918D01*
X249321562Y-79288918D02*
X248958705Y-79288918D01*
X248958705Y-79288918D02*
X248837752Y-79228442D01*
X248837752Y-79228442D02*
X248777276Y-79167965D01*
D18*
%TO.C,D9*%
X198832800Y-58610700D02*
X198832800Y-60895700D01*
X198832800Y-60895700D02*
X200302800Y-60895700D01*
X200302800Y-60895700D02*
X200302800Y-58610700D01*
%TO.C,J2*%
X239302600Y-56115000D02*
X239302600Y-51755000D01*
X241802600Y-56115000D02*
X239302600Y-56115000D01*
X244662600Y-56315000D02*
X245322600Y-56315000D01*
X245322600Y-56115000D02*
X245322600Y-56315000D01*
X247822600Y-56115000D02*
X245322600Y-56115000D01*
X247822600Y-56115000D02*
X247822600Y-51755000D01*
%TO.C,Q1*%
X240348400Y-72968200D02*
X240348400Y-76568200D01*
X240348400Y-76568200D02*
X243948400Y-76568200D01*
X243948400Y-72968200D02*
X240348400Y-72968200D01*
X243948400Y-76568200D02*
X243948400Y-72968200D01*
D11*
%TO.C,S2*%
X188933400Y-69228600D02*
X188933400Y-70928600D01*
X188933400Y-70928600D02*
X189433400Y-70928600D01*
X189433400Y-68328600D02*
X189433400Y-69228600D01*
X189433400Y-69228600D02*
X188933400Y-69228600D01*
X189433400Y-70928600D02*
X189433400Y-71828600D01*
X192603400Y-68328600D02*
X192603400Y-71828600D01*
D14*
X191933400Y-66578600D02*
G75*
G02*
X191733400Y-66578600I-100000J0D01*
G01*
X191733400Y-66578600D02*
G75*
G02*
X191933400Y-66578600I100000J0D01*
G01*
D18*
%TO.C,D8*%
X196242000Y-58610700D02*
X196242000Y-60895700D01*
X196242000Y-60895700D02*
X197712000Y-60895700D01*
X197712000Y-60895700D02*
X197712000Y-58610700D01*
D10*
%TO.C,R2*%
X237284000Y-74936400D02*
X237284000Y-75736400D01*
X237284000Y-75736400D02*
X238784000Y-75736400D01*
X238784000Y-74936400D02*
X237284000Y-74936400D01*
X238784000Y-75736400D02*
X238784000Y-74936400D01*
%TO.C,R4*%
X214438800Y-75317400D02*
X214438800Y-76117400D01*
X214438800Y-76117400D02*
X215938800Y-76117400D01*
X215938800Y-75317400D02*
X214438800Y-75317400D01*
X215938800Y-76117400D02*
X215938800Y-75317400D01*
D11*
%TO.C,S4*%
X204690200Y-50161600D02*
X204690200Y-50661600D01*
X204690200Y-50661600D02*
X203790200Y-50661600D01*
X206390200Y-50161600D02*
X204690200Y-50161600D01*
X206390200Y-50661600D02*
X206390200Y-50161600D01*
X207290200Y-50661600D02*
X206390200Y-50661600D01*
X207290200Y-53831600D02*
X203790200Y-53831600D01*
D14*
X209140200Y-53061600D02*
G75*
G02*
X208940200Y-53061600I-100000J0D01*
G01*
X208940200Y-53061600D02*
G75*
G02*
X209140200Y-53061600I100000J0D01*
G01*
D18*
%TO.C,U6*%
X211250000Y-51335400D02*
X211245200Y-57270400D01*
X211275400Y-51335400D02*
X238728000Y-51335400D01*
D10*
X238829600Y-57194200D02*
X211245200Y-57270400D01*
D18*
X238829600Y-57194200D02*
X238855000Y-51335400D01*
%TO.C,J1*%
X247599000Y-62264200D02*
X247599000Y-62724200D01*
X247599000Y-62264200D02*
X249699000Y-62264200D01*
X248079000Y-70984200D02*
X249699000Y-70984200D01*
X249699000Y-61224200D02*
X249699000Y-62264200D01*
X249699000Y-70984200D02*
X249699000Y-72024200D01*
X253484000Y-60514200D02*
X253754000Y-60514200D01*
X253484000Y-72734200D02*
X253754000Y-72734200D01*
D11*
%TO.C,S3*%
X196663800Y-50134000D02*
X196663800Y-50634000D01*
X196663800Y-50634000D02*
X195763800Y-50634000D01*
X198363800Y-50134000D02*
X196663800Y-50134000D01*
X198363800Y-50634000D02*
X198363800Y-50134000D01*
X199263800Y-50634000D02*
X198363800Y-50634000D01*
X199263800Y-53804000D02*
X195763800Y-53804000D01*
D14*
X201113800Y-53034000D02*
G75*
G02*
X200913800Y-53034000I-100000J0D01*
G01*
X200913800Y-53034000D02*
G75*
G02*
X201113800Y-53034000I100000J0D01*
G01*
D10*
%TO.C,R16*%
X202977800Y-59397200D02*
X202977800Y-60897200D01*
X202977800Y-60897200D02*
X203777800Y-60897200D01*
X203777800Y-59397200D02*
X202977800Y-59397200D01*
X203777800Y-60897200D02*
X203777800Y-59397200D01*
D19*
%TO.C,G\u002A\u002A\u002A*%
G36*
X234343364Y-67263185D02*
G01*
X234343431Y-67311846D01*
X234343488Y-67356838D01*
X234343540Y-67398312D01*
X234343591Y-67436421D01*
X234343647Y-67471316D01*
X234343712Y-67503150D01*
X234343792Y-67532072D01*
X234343891Y-67558237D01*
X234344015Y-67581794D01*
X234344168Y-67602896D01*
X234344356Y-67621694D01*
X234344583Y-67638341D01*
X234344855Y-67652988D01*
X234345176Y-67665786D01*
X234345551Y-67676888D01*
X234345985Y-67686444D01*
X234346484Y-67694608D01*
X234347051Y-67701530D01*
X234347693Y-67707362D01*
X234348414Y-67712257D01*
X234349219Y-67716365D01*
X234350113Y-67719838D01*
X234351101Y-67722828D01*
X234352189Y-67725488D01*
X234353380Y-67727967D01*
X234354680Y-67730419D01*
X234356093Y-67732995D01*
X234357626Y-67735847D01*
X234358919Y-67738384D01*
X234363401Y-67746837D01*
X234368219Y-67754946D01*
X234372595Y-67761435D01*
X234374244Y-67763523D01*
X234378042Y-67768300D01*
X234380519Y-67772097D01*
X234381068Y-67773552D01*
X234379788Y-67773926D01*
X234375873Y-67774260D01*
X234369208Y-67774554D01*
X234359677Y-67774810D01*
X234347167Y-67775029D01*
X234331562Y-67775212D01*
X234312747Y-67775360D01*
X234290607Y-67775475D01*
X234265028Y-67775559D01*
X234235894Y-67775611D01*
X234203092Y-67775635D01*
X234191830Y-67775636D01*
X234159703Y-67775628D01*
X234131210Y-67775600D01*
X234106162Y-67775552D01*
X234084373Y-67775480D01*
X234065656Y-67775382D01*
X234049823Y-67775255D01*
X234036687Y-67775098D01*
X234026060Y-67774908D01*
X234017756Y-67774683D01*
X234011588Y-67774420D01*
X234007367Y-67774116D01*
X234004906Y-67773770D01*
X234004019Y-67773379D01*
X234004035Y-67773248D01*
X234005928Y-67770560D01*
X234009406Y-67765966D01*
X234013046Y-67761308D01*
X234020783Y-67749779D01*
X234027979Y-67735786D01*
X234034022Y-67720684D01*
X234038301Y-67705829D01*
X234038493Y-67704953D01*
X234038902Y-67702915D01*
X234039278Y-67700662D01*
X234039622Y-67698031D01*
X234039936Y-67694861D01*
X234040220Y-67690991D01*
X234040477Y-67686259D01*
X234040708Y-67680504D01*
X234040914Y-67673563D01*
X234041097Y-67665276D01*
X234041257Y-67655481D01*
X234041397Y-67644016D01*
X234041518Y-67630719D01*
X234041621Y-67615430D01*
X234041708Y-67597986D01*
X234041779Y-67578226D01*
X234041837Y-67555989D01*
X234041883Y-67531112D01*
X234041918Y-67503435D01*
X234041944Y-67472795D01*
X234041962Y-67439031D01*
X234041973Y-67401982D01*
X234041979Y-67361486D01*
X234041981Y-67317381D01*
X234041981Y-67302825D01*
X234041980Y-67257558D01*
X234041975Y-67215951D01*
X234041966Y-67177842D01*
X234041950Y-67143068D01*
X234041927Y-67111469D01*
X234041895Y-67082883D01*
X234041853Y-67057148D01*
X234041799Y-67034102D01*
X234041732Y-67013585D01*
X234041650Y-66995435D01*
X234041552Y-66979489D01*
X234041437Y-66965587D01*
X234041303Y-66953566D01*
X234041149Y-66943266D01*
X234040974Y-66934525D01*
X234040775Y-66927181D01*
X234040552Y-66921072D01*
X234040304Y-66916038D01*
X234040028Y-66911916D01*
X234039723Y-66908544D01*
X234039389Y-66905762D01*
X234039023Y-66903408D01*
X234038625Y-66901320D01*
X234038493Y-66900696D01*
X234034171Y-66885375D01*
X234027955Y-66869822D01*
X234020468Y-66855405D01*
X234012673Y-66843920D01*
X234008649Y-66838728D01*
X234005791Y-66834773D01*
X234004729Y-66832935D01*
X234006594Y-66832785D01*
X234012008Y-66832642D01*
X234020698Y-66832507D01*
X234032394Y-66832382D01*
X234046823Y-66832269D01*
X234063712Y-66832169D01*
X234082791Y-66832084D01*
X234103787Y-66832015D01*
X234126429Y-66831964D01*
X234150444Y-66831933D01*
X234173732Y-66831924D01*
X234342734Y-66831924D01*
X234343364Y-67263185D01*
G37*
G36*
X235173863Y-66473408D02*
G01*
X235209367Y-66475581D01*
X235244034Y-66479873D01*
X235278336Y-66486419D01*
X235312744Y-66495352D01*
X235347730Y-66506807D01*
X235383766Y-66520918D01*
X235421324Y-66537820D01*
X235449908Y-66551964D01*
X235462796Y-66558472D01*
X235475252Y-66564596D01*
X235486669Y-66570050D01*
X235496440Y-66574548D01*
X235503959Y-66577804D01*
X235508174Y-66579397D01*
X235515345Y-66581679D01*
X235521721Y-66583699D01*
X235525534Y-66584900D01*
X235526476Y-66585275D01*
X235527082Y-66585889D01*
X235527208Y-66586970D01*
X235526709Y-66588747D01*
X235525442Y-66591449D01*
X235523261Y-66595305D01*
X235520024Y-66600542D01*
X235515585Y-66607390D01*
X235509801Y-66616077D01*
X235502526Y-66626832D01*
X235493618Y-66639883D01*
X235482932Y-66655460D01*
X235470323Y-66673790D01*
X235460093Y-66688648D01*
X235447766Y-66706544D01*
X235435950Y-66723697D01*
X235424844Y-66739815D01*
X235414648Y-66754609D01*
X235405562Y-66767788D01*
X235397786Y-66779061D01*
X235391520Y-66788140D01*
X235386965Y-66794733D01*
X235384320Y-66798551D01*
X235383949Y-66799083D01*
X235378190Y-66807315D01*
X235358649Y-66787450D01*
X235335944Y-66766658D01*
X235312144Y-66749436D01*
X235286923Y-66735610D01*
X235259953Y-66725006D01*
X235230908Y-66717452D01*
X235224487Y-66716232D01*
X235210675Y-66714383D01*
X235194592Y-66713230D01*
X235177383Y-66712772D01*
X235160192Y-66713011D01*
X235144162Y-66713948D01*
X235130437Y-66715585D01*
X235127300Y-66716142D01*
X235098013Y-66723498D01*
X235070927Y-66733831D01*
X235045955Y-66747212D01*
X235023010Y-66763713D01*
X235002004Y-66783405D01*
X234982852Y-66806358D01*
X234965465Y-66832645D01*
X234950595Y-66860579D01*
X234935409Y-66896032D01*
X234922794Y-66933807D01*
X234912726Y-66974025D01*
X234905179Y-67016809D01*
X234900127Y-67062280D01*
X234897544Y-67110560D01*
X234897463Y-67113700D01*
X234897454Y-67163423D01*
X234899885Y-67210340D01*
X234904750Y-67254433D01*
X234912045Y-67295681D01*
X234921763Y-67334064D01*
X234933898Y-67369562D01*
X234948444Y-67402156D01*
X234965397Y-67431826D01*
X234984749Y-67458551D01*
X235003748Y-67479606D01*
X235027514Y-67500939D01*
X235052507Y-67518703D01*
X235078657Y-67532870D01*
X235105897Y-67543413D01*
X235134158Y-67550303D01*
X235163370Y-67553513D01*
X235185839Y-67553489D01*
X235217479Y-67550434D01*
X235247724Y-67544245D01*
X235276815Y-67534809D01*
X235304994Y-67522016D01*
X235332502Y-67505752D01*
X235359582Y-67485907D01*
X235386475Y-67462369D01*
X235389955Y-67459047D01*
X235406415Y-67443182D01*
X235477212Y-67559192D01*
X235548009Y-67675201D01*
X235538121Y-67678298D01*
X235534020Y-67679656D01*
X235529814Y-67681248D01*
X235525076Y-67683286D01*
X235519379Y-67685984D01*
X235512296Y-67689554D01*
X235503400Y-67694210D01*
X235492264Y-67700164D01*
X235478461Y-67707630D01*
X235469000Y-67712771D01*
X235433070Y-67731349D01*
X235398613Y-67747073D01*
X235364868Y-67760188D01*
X235331074Y-67770938D01*
X235296472Y-67779570D01*
X235260299Y-67786328D01*
X235226397Y-67790939D01*
X235219339Y-67791549D01*
X235209387Y-67792131D01*
X235197284Y-67792667D01*
X235183775Y-67793139D01*
X235169601Y-67793530D01*
X235155505Y-67793821D01*
X235142232Y-67793995D01*
X235130523Y-67794034D01*
X235121123Y-67793920D01*
X235114774Y-67793635D01*
X235114642Y-67793624D01*
X235077088Y-67789718D01*
X235042605Y-67784615D01*
X235010588Y-67778156D01*
X234980430Y-67770186D01*
X234951527Y-67760546D01*
X234923272Y-67749079D01*
X234898866Y-67737554D01*
X234866178Y-67719644D01*
X234835574Y-67699650D01*
X234806289Y-67677020D01*
X234777554Y-67651203D01*
X234773949Y-67647710D01*
X234740217Y-67612154D01*
X234709623Y-67574419D01*
X234682169Y-67534515D01*
X234657862Y-67492453D01*
X234636705Y-67448241D01*
X234618703Y-67401890D01*
X234603862Y-67353408D01*
X234592185Y-67302807D01*
X234583677Y-67250095D01*
X234583585Y-67249378D01*
X234578477Y-67197623D01*
X234576319Y-67145787D01*
X234577065Y-67094244D01*
X234580671Y-67043366D01*
X234587092Y-66993525D01*
X234596283Y-66945094D01*
X234608199Y-66898445D01*
X234622795Y-66853952D01*
X234634995Y-66823327D01*
X234654695Y-66782307D01*
X234677728Y-66742791D01*
X234703850Y-66705030D01*
X234732821Y-66669278D01*
X234764399Y-66635787D01*
X234798343Y-66604807D01*
X234834411Y-66576593D01*
X234872361Y-66551394D01*
X234911952Y-66529465D01*
X234920741Y-66525160D01*
X234962021Y-66507506D01*
X235004462Y-66493489D01*
X235048043Y-66483115D01*
X235092741Y-66476386D01*
X235138534Y-66473308D01*
X235173863Y-66473408D01*
G37*
G36*
X237384136Y-67035278D02*
G01*
X237384135Y-67094204D01*
X237384133Y-67149434D01*
X237384132Y-67201096D01*
X237384135Y-67249315D01*
X237384142Y-67294218D01*
X237384156Y-67335929D01*
X237384179Y-67374575D01*
X237384213Y-67410283D01*
X237384260Y-67443177D01*
X237384322Y-67473384D01*
X237384400Y-67501030D01*
X237384497Y-67526241D01*
X237384615Y-67549142D01*
X237384755Y-67569861D01*
X237384920Y-67588521D01*
X237385112Y-67605251D01*
X237385332Y-67620175D01*
X237385583Y-67633419D01*
X237385866Y-67645110D01*
X237386183Y-67655374D01*
X237386537Y-67664335D01*
X237386929Y-67672121D01*
X237387361Y-67678858D01*
X237387836Y-67684670D01*
X237388354Y-67689685D01*
X237388919Y-67694028D01*
X237389532Y-67697824D01*
X237390195Y-67701201D01*
X237390910Y-67704284D01*
X237391679Y-67707199D01*
X237392504Y-67710072D01*
X237393387Y-67713029D01*
X237394330Y-67716195D01*
X237394747Y-67717629D01*
X237400333Y-67734806D01*
X237406424Y-67749032D01*
X237413408Y-67761172D01*
X237415677Y-67764456D01*
X237422337Y-67773726D01*
X237261871Y-67773726D01*
X237101405Y-67773726D01*
X237101405Y-67737237D01*
X237101405Y-67700749D01*
X237090967Y-67710289D01*
X237065377Y-67731122D01*
X237037355Y-67749172D01*
X237007249Y-67764276D01*
X236975412Y-67776269D01*
X236942193Y-67784986D01*
X236925444Y-67788023D01*
X236914293Y-67789378D01*
X236900509Y-67790479D01*
X236885070Y-67791301D01*
X236868954Y-67791816D01*
X236853139Y-67792001D01*
X236838605Y-67791828D01*
X236826328Y-67791273D01*
X236820687Y-67790772D01*
X236785507Y-67784943D01*
X236751731Y-67775605D01*
X236719482Y-67762848D01*
X236688886Y-67746763D01*
X236660067Y-67727441D01*
X236633149Y-67704973D01*
X236608257Y-67679449D01*
X236585517Y-67650960D01*
X236565051Y-67619598D01*
X236551396Y-67594496D01*
X236535789Y-67560025D01*
X236522867Y-67524072D01*
X236512591Y-67486407D01*
X236504920Y-67446799D01*
X236499811Y-67405020D01*
X236497225Y-67360839D01*
X236497119Y-67314026D01*
X236497328Y-67307687D01*
X236805990Y-67307687D01*
X236806074Y-67341646D01*
X236807609Y-67373977D01*
X236810575Y-67404172D01*
X236814948Y-67431722D01*
X236819529Y-67451832D01*
X236827516Y-67476679D01*
X236837478Y-67498611D01*
X236849333Y-67517506D01*
X236862997Y-67533239D01*
X236878384Y-67545689D01*
X236887087Y-67550849D01*
X236896707Y-67555548D01*
X236905589Y-67558938D01*
X236914645Y-67561191D01*
X236924787Y-67562476D01*
X236936926Y-67562962D01*
X236951442Y-67562833D01*
X236963710Y-67562451D01*
X236973213Y-67561863D01*
X236981008Y-67560937D01*
X236988150Y-67559539D01*
X236995696Y-67557537D01*
X236997291Y-67557069D01*
X237015174Y-67550748D01*
X237034057Y-67542301D01*
X237052419Y-67532470D01*
X237068437Y-67522217D01*
X237084183Y-67511053D01*
X237084197Y-67295025D01*
X237084212Y-67078997D01*
X237070361Y-67068960D01*
X237056338Y-67059857D01*
X237040365Y-67051229D01*
X237023949Y-67043819D01*
X237008597Y-67038368D01*
X237007798Y-67038135D01*
X236996616Y-67035702D01*
X236983106Y-67033962D01*
X236968422Y-67032958D01*
X236953721Y-67032731D01*
X236940161Y-67033323D01*
X236928898Y-67034775D01*
X236926824Y-67035219D01*
X236907468Y-67041680D01*
X236889745Y-67051570D01*
X236873675Y-67064858D01*
X236859276Y-67081511D01*
X236846568Y-67101495D01*
X236835569Y-67124778D01*
X236826299Y-67151327D01*
X236818776Y-67181109D01*
X236813019Y-67214092D01*
X236810264Y-67236918D01*
X236807379Y-67272608D01*
X236805990Y-67307687D01*
X236497328Y-67307687D01*
X236497767Y-67294413D01*
X236500421Y-67249360D01*
X236504458Y-67207535D01*
X236509954Y-67168574D01*
X236516989Y-67132113D01*
X236525641Y-67097788D01*
X236535988Y-67065235D01*
X236548109Y-67034091D01*
X236558845Y-67010541D01*
X236572727Y-66983990D01*
X236587325Y-66960325D01*
X236603313Y-66938611D01*
X236621366Y-66917912D01*
X236637094Y-66902083D01*
X236663537Y-66879197D01*
X236691499Y-66859776D01*
X236721022Y-66843805D01*
X236752150Y-66831270D01*
X236784926Y-66822157D01*
X236819391Y-66816449D01*
X236855589Y-66814133D01*
X236888203Y-66814845D01*
X236923005Y-66818119D01*
X236955036Y-66823735D01*
X236984626Y-66831809D01*
X237012110Y-66842453D01*
X237037819Y-66855785D01*
X237062085Y-66871917D01*
X237069148Y-66877333D01*
X237084375Y-66889373D01*
X237083753Y-66688239D01*
X237083650Y-66655947D01*
X237083548Y-66627249D01*
X237083444Y-66601918D01*
X237083333Y-66579730D01*
X237083211Y-66560458D01*
X237083073Y-66543875D01*
X237082916Y-66529755D01*
X237082735Y-66517872D01*
X237082526Y-66508000D01*
X237082285Y-66499913D01*
X237082007Y-66493383D01*
X237081688Y-66488186D01*
X237081325Y-66484094D01*
X237080912Y-66480882D01*
X237080445Y-66478323D01*
X237079921Y-66476191D01*
X237079765Y-66475644D01*
X237073594Y-66458456D01*
X237065527Y-66441747D01*
X237056334Y-66427088D01*
X237055158Y-66425497D01*
X237046158Y-66413557D01*
X237215147Y-66413557D01*
X237384136Y-66413557D01*
X237384136Y-67035278D01*
G37*
G36*
X236050787Y-66815179D02*
G01*
X236089184Y-66818654D01*
X236125680Y-66824261D01*
X236159969Y-66831946D01*
X236191741Y-66841656D01*
X236220691Y-66853336D01*
X236237334Y-66861679D01*
X236261589Y-66876506D01*
X236283398Y-66893296D01*
X236302861Y-66912225D01*
X236320081Y-66933466D01*
X236335159Y-66957195D01*
X236348197Y-66983586D01*
X236359296Y-67012815D01*
X236368558Y-67045055D01*
X236376085Y-67080483D01*
X236380473Y-67107969D01*
X236380919Y-67111462D01*
X236381327Y-67115422D01*
X236381698Y-67120042D01*
X236382037Y-67125518D01*
X236382347Y-67132042D01*
X236382629Y-67139810D01*
X236382887Y-67149015D01*
X236383123Y-67159852D01*
X236383342Y-67172514D01*
X236383545Y-67187196D01*
X236383736Y-67204093D01*
X236383917Y-67223397D01*
X236384091Y-67245304D01*
X236384262Y-67270008D01*
X236384432Y-67297702D01*
X236384604Y-67328581D01*
X236384781Y-67362839D01*
X236384965Y-67400670D01*
X236385018Y-67411715D01*
X236385203Y-67450288D01*
X236385379Y-67485230D01*
X236385547Y-67516730D01*
X236385711Y-67544978D01*
X236385873Y-67570162D01*
X236386037Y-67592472D01*
X236386206Y-67612097D01*
X236386382Y-67629227D01*
X236386569Y-67644051D01*
X236386769Y-67656759D01*
X236386985Y-67667539D01*
X236387221Y-67676581D01*
X236387479Y-67684075D01*
X236387762Y-67690209D01*
X236388073Y-67695173D01*
X236388415Y-67699157D01*
X236388791Y-67702350D01*
X236389204Y-67704940D01*
X236389598Y-67706864D01*
X236393210Y-67719202D01*
X236398460Y-67732553D01*
X236404708Y-67745508D01*
X236411313Y-67756660D01*
X236413952Y-67760353D01*
X236417849Y-67765525D01*
X236420875Y-67769686D01*
X236421995Y-67771338D01*
X236421578Y-67771777D01*
X236419621Y-67772162D01*
X236415919Y-67772497D01*
X236410271Y-67772783D01*
X236402472Y-67773025D01*
X236392319Y-67773226D01*
X236379610Y-67773388D01*
X236364141Y-67773514D01*
X236345709Y-67773608D01*
X236324110Y-67773672D01*
X236299142Y-67773710D01*
X236270600Y-67773725D01*
X236263829Y-67773726D01*
X236104202Y-67773726D01*
X236104202Y-67737017D01*
X236104202Y-67700308D01*
X236094173Y-67710118D01*
X236077166Y-67724988D01*
X236057329Y-67739346D01*
X236035656Y-67752600D01*
X236013137Y-67764157D01*
X235990763Y-67773424D01*
X235984806Y-67775480D01*
X235956391Y-67783260D01*
X235925848Y-67788759D01*
X235894180Y-67791885D01*
X235862388Y-67792545D01*
X235831475Y-67790647D01*
X235826247Y-67790047D01*
X235790495Y-67783978D01*
X235756554Y-67774867D01*
X235724583Y-67762827D01*
X235694742Y-67747972D01*
X235667190Y-67730416D01*
X235642088Y-67710273D01*
X235619595Y-67687656D01*
X235599872Y-67662679D01*
X235583077Y-67635456D01*
X235569990Y-67607642D01*
X235560856Y-67582598D01*
X235554053Y-67557932D01*
X235549403Y-67532683D01*
X235546729Y-67505893D01*
X235545854Y-67476667D01*
X235545906Y-67474881D01*
X235829296Y-67474881D01*
X235829342Y-67486598D01*
X235830062Y-67497287D01*
X235831186Y-67504367D01*
X235836925Y-67520994D01*
X235845990Y-67536326D01*
X235858018Y-67550061D01*
X235872645Y-67561900D01*
X235889508Y-67571541D01*
X235908244Y-67578684D01*
X235925653Y-67582610D01*
X235936551Y-67583629D01*
X235949840Y-67583816D01*
X235964200Y-67583240D01*
X235978309Y-67581972D01*
X235990846Y-67580081D01*
X235996279Y-67578881D01*
X236019016Y-67571250D01*
X236039525Y-67560537D01*
X236057733Y-67546791D01*
X236073571Y-67530061D01*
X236081938Y-67518566D01*
X236087054Y-67510797D01*
X236086554Y-67435466D01*
X236086054Y-67360135D01*
X236069816Y-67357891D01*
X236058628Y-67356760D01*
X236044821Y-67356003D01*
X236029406Y-67355616D01*
X236013395Y-67355597D01*
X235997799Y-67355942D01*
X235983631Y-67356650D01*
X235971902Y-67357717D01*
X235968568Y-67358174D01*
X235941687Y-67363534D01*
X235917290Y-67370904D01*
X235895535Y-67380173D01*
X235876581Y-67391230D01*
X235860588Y-67403963D01*
X235847713Y-67418263D01*
X235838115Y-67434016D01*
X235831953Y-67451114D01*
X235831223Y-67454314D01*
X235829924Y-67463624D01*
X235829296Y-67474881D01*
X235545906Y-67474881D01*
X235546683Y-67448442D01*
X235549343Y-67422815D01*
X235553988Y-67398950D01*
X235560770Y-67376014D01*
X235567557Y-67358436D01*
X235580649Y-67332351D01*
X235597168Y-67307560D01*
X235616887Y-67284237D01*
X235639581Y-67262560D01*
X235665022Y-67242704D01*
X235692984Y-67224845D01*
X235723240Y-67209157D01*
X235755565Y-67195818D01*
X235789732Y-67185003D01*
X235791735Y-67184465D01*
X235808345Y-67180460D01*
X235827801Y-67176473D01*
X235849131Y-67172679D01*
X235871366Y-67169251D01*
X235889288Y-67166875D01*
X235897014Y-67165999D01*
X235904843Y-67165277D01*
X235913228Y-67164695D01*
X235922624Y-67164239D01*
X235933486Y-67163895D01*
X235946269Y-67163650D01*
X235961427Y-67163490D01*
X235979415Y-67163402D01*
X236000688Y-67163370D01*
X236004864Y-67163369D01*
X236091785Y-67163369D01*
X236090466Y-67142355D01*
X236087484Y-67117362D01*
X236081860Y-67095031D01*
X236073621Y-67075404D01*
X236062796Y-67058520D01*
X236049414Y-67044420D01*
X236033504Y-67033146D01*
X236015092Y-67024736D01*
X236005820Y-67021848D01*
X235995340Y-67019801D01*
X235982015Y-67018409D01*
X235966769Y-67017693D01*
X235950524Y-67017674D01*
X235934202Y-67018370D01*
X235918727Y-67019803D01*
X235917693Y-67019932D01*
X235884848Y-67025198D01*
X235852867Y-67032620D01*
X235820960Y-67042438D01*
X235788338Y-67054893D01*
X235757021Y-67068883D01*
X235748431Y-67072847D01*
X235741145Y-67075991D01*
X235735811Y-67078053D01*
X235733080Y-67078768D01*
X235732872Y-67078693D01*
X235731831Y-67076421D01*
X235729532Y-67071059D01*
X235726133Y-67062991D01*
X235721790Y-67052599D01*
X235716660Y-67040264D01*
X235710901Y-67026370D01*
X235704670Y-67011298D01*
X235698125Y-66995430D01*
X235691421Y-66979150D01*
X235684717Y-66962838D01*
X235678170Y-66946878D01*
X235671937Y-66931651D01*
X235666175Y-66917540D01*
X235661042Y-66904927D01*
X235656693Y-66894194D01*
X235653288Y-66885723D01*
X235650982Y-66879897D01*
X235649933Y-66877098D01*
X235649888Y-66876905D01*
X235651904Y-66876450D01*
X235656932Y-66875579D01*
X235664200Y-66874420D01*
X235672464Y-66873169D01*
X235682670Y-66871515D01*
X235694474Y-66869321D01*
X235708164Y-66866521D01*
X235724027Y-66863051D01*
X235742351Y-66858846D01*
X235763423Y-66853840D01*
X235787533Y-66847969D01*
X235814966Y-66841168D01*
X235822426Y-66839303D01*
X235845503Y-66833625D01*
X235865593Y-66828935D01*
X235883366Y-66825122D01*
X235899496Y-66822074D01*
X235914653Y-66819679D01*
X235929509Y-66817826D01*
X235944736Y-66816403D01*
X235961005Y-66815298D01*
X235969523Y-66814841D01*
X236010798Y-66813890D01*
X236050787Y-66815179D01*
G37*
G36*
X234214476Y-66127277D02*
G01*
X234238735Y-66132177D01*
X234262068Y-66140489D01*
X234284113Y-66152120D01*
X234304508Y-66166977D01*
X234318143Y-66179804D01*
X234331347Y-66194867D01*
X234341809Y-66209884D01*
X234350258Y-66226081D01*
X234357425Y-66244684D01*
X234358304Y-66247357D01*
X234363561Y-66263595D01*
X234408133Y-66264550D01*
X234422477Y-66264880D01*
X234433544Y-66265213D01*
X234441877Y-66265601D01*
X234448020Y-66266099D01*
X234452516Y-66266760D01*
X234455909Y-66267637D01*
X234458742Y-66268783D01*
X234460528Y-66269691D01*
X234469565Y-66276155D01*
X234477778Y-66284944D01*
X234483814Y-66294600D01*
X234483988Y-66294977D01*
X234484242Y-66295741D01*
X234484483Y-66296955D01*
X234484709Y-66298725D01*
X234484923Y-66301157D01*
X234485123Y-66304358D01*
X234485310Y-66308434D01*
X234485486Y-66313492D01*
X234485649Y-66319638D01*
X234485802Y-66326978D01*
X234485943Y-66335621D01*
X234486074Y-66345670D01*
X234486194Y-66357234D01*
X234486305Y-66370419D01*
X234486407Y-66385332D01*
X234486499Y-66402078D01*
X234486583Y-66420764D01*
X234486659Y-66441497D01*
X234486727Y-66464384D01*
X234486787Y-66489530D01*
X234486841Y-66517042D01*
X234486888Y-66547028D01*
X234486929Y-66579593D01*
X234486965Y-66614843D01*
X234486995Y-66652886D01*
X234487020Y-66693828D01*
X234487041Y-66737775D01*
X234487057Y-66784834D01*
X234487070Y-66835112D01*
X234487079Y-66888714D01*
X234487086Y-66945747D01*
X234487090Y-67006319D01*
X234487092Y-67070535D01*
X234487092Y-67114655D01*
X234487092Y-67927509D01*
X234483103Y-67936127D01*
X234476387Y-67946826D01*
X234467344Y-67955746D01*
X234458479Y-67961186D01*
X234457772Y-67961466D01*
X234456844Y-67961730D01*
X234455590Y-67961979D01*
X234453904Y-67962214D01*
X234451682Y-67962435D01*
X234448817Y-67962642D01*
X234445204Y-67962836D01*
X234440737Y-67963017D01*
X234435312Y-67963186D01*
X234428821Y-67963343D01*
X234421161Y-67963489D01*
X234412225Y-67963623D01*
X234401908Y-67963747D01*
X234390105Y-67963860D01*
X234376709Y-67963964D01*
X234361616Y-67964059D01*
X234344719Y-67964144D01*
X234325914Y-67964221D01*
X234305094Y-67964290D01*
X234282155Y-67964352D01*
X234256991Y-67964406D01*
X234229496Y-67964453D01*
X234199564Y-67964494D01*
X234167091Y-67964529D01*
X234131970Y-67964558D01*
X234094097Y-67964583D01*
X234053366Y-67964603D01*
X234009670Y-67964618D01*
X233962905Y-67964630D01*
X233912966Y-67964638D01*
X233859746Y-67964644D01*
X233803140Y-67964646D01*
X233743042Y-67964647D01*
X233679348Y-67964646D01*
X233611951Y-67964644D01*
X233603556Y-67964644D01*
X233534214Y-67964640D01*
X233468597Y-67964632D01*
X233406607Y-67964622D01*
X233348147Y-67964607D01*
X233293120Y-67964589D01*
X233241431Y-67964566D01*
X233192982Y-67964539D01*
X233147675Y-67964507D01*
X233105416Y-67964470D01*
X233066106Y-67964427D01*
X233029649Y-67964378D01*
X232995948Y-67964324D01*
X232964907Y-67964263D01*
X232936428Y-67964196D01*
X232910415Y-67964121D01*
X232886772Y-67964040D01*
X232865400Y-67963950D01*
X232846204Y-67963853D01*
X232829087Y-67963748D01*
X232813952Y-67963635D01*
X232800702Y-67963513D01*
X232789241Y-67963382D01*
X232779471Y-67963241D01*
X232771296Y-67963091D01*
X232764619Y-67962931D01*
X232759344Y-67962761D01*
X232755373Y-67962581D01*
X232752610Y-67962390D01*
X232750958Y-67962187D01*
X232750436Y-67962051D01*
X232741285Y-67956416D01*
X232732836Y-67948262D01*
X232726348Y-67938848D01*
X232725466Y-67937075D01*
X232721012Y-67927509D01*
X232720993Y-67114553D01*
X232720975Y-66335227D01*
X232789747Y-66335227D01*
X232789747Y-67114334D01*
X232789750Y-67168688D01*
X232789759Y-67222071D01*
X232789774Y-67274358D01*
X232789795Y-67325420D01*
X232789821Y-67375132D01*
X232789852Y-67423366D01*
X232789888Y-67469996D01*
X232789929Y-67514894D01*
X232789975Y-67557934D01*
X232790025Y-67598988D01*
X232790079Y-67637930D01*
X232790137Y-67674632D01*
X232790199Y-67708969D01*
X232790265Y-67740812D01*
X232790333Y-67770035D01*
X232790405Y-67796512D01*
X232790480Y-67820114D01*
X232790558Y-67840716D01*
X232790638Y-67858190D01*
X232790720Y-67872409D01*
X232790805Y-67883247D01*
X232790891Y-67890577D01*
X232790980Y-67894271D01*
X232791021Y-67894715D01*
X232792998Y-67894802D01*
X232798672Y-67894887D01*
X232807918Y-67894971D01*
X232820611Y-67895053D01*
X232836629Y-67895132D01*
X232855846Y-67895210D01*
X232878137Y-67895285D01*
X232903380Y-67895357D01*
X232931449Y-67895426D01*
X232962221Y-67895493D01*
X232995570Y-67895556D01*
X233031373Y-67895615D01*
X233069505Y-67895671D01*
X233109843Y-67895723D01*
X233152262Y-67895771D01*
X233196637Y-67895815D01*
X233242844Y-67895854D01*
X233290760Y-67895889D01*
X233340259Y-67895918D01*
X233391218Y-67895943D01*
X233443512Y-67895963D01*
X233497017Y-67895977D01*
X233551609Y-67895985D01*
X233604829Y-67895988D01*
X234417364Y-67895988D01*
X234417364Y-67115611D01*
X234417364Y-66335233D01*
X234390806Y-66335233D01*
X234364247Y-66335233D01*
X234360117Y-66348829D01*
X234351432Y-66372217D01*
X234340215Y-66393098D01*
X234326074Y-66412131D01*
X234315551Y-66423406D01*
X234296047Y-66440113D01*
X234274711Y-66453572D01*
X234251843Y-66463703D01*
X234227744Y-66470429D01*
X234202713Y-66473671D01*
X234177052Y-66473350D01*
X234151060Y-66469388D01*
X234145035Y-66467945D01*
X234134043Y-66464372D01*
X234121389Y-66459055D01*
X234108399Y-66452630D01*
X234096397Y-66445737D01*
X234089876Y-66441395D01*
X234080375Y-66433781D01*
X234070026Y-66424169D01*
X234059940Y-66413688D01*
X234051227Y-66403470D01*
X234046924Y-66397650D01*
X234041448Y-66388657D01*
X234035729Y-66377675D01*
X234030375Y-66366022D01*
X234025998Y-66355018D01*
X234023380Y-66346695D01*
X234020728Y-66336188D01*
X233405238Y-66335708D01*
X232789747Y-66335227D01*
X232720975Y-66335227D01*
X232720974Y-66301597D01*
X232725923Y-66291667D01*
X232733509Y-66280455D01*
X232743574Y-66272017D01*
X232753206Y-66267469D01*
X232754297Y-66267197D01*
X232756002Y-66266942D01*
X232758441Y-66266704D01*
X232761734Y-66266481D01*
X232766001Y-66266275D01*
X232771362Y-66266083D01*
X232777937Y-66265906D01*
X232785846Y-66265743D01*
X232795209Y-66265593D01*
X232806146Y-66265456D01*
X232818777Y-66265331D01*
X232833223Y-66265217D01*
X232849602Y-66265115D01*
X232868037Y-66265024D01*
X232888645Y-66264943D01*
X232911548Y-66264871D01*
X232936865Y-66264808D01*
X232964716Y-66264753D01*
X232995222Y-66264707D01*
X233028503Y-66264667D01*
X233064678Y-66264635D01*
X233103868Y-66264608D01*
X233146192Y-66264588D01*
X233191771Y-66264572D01*
X233240725Y-66264561D01*
X233293173Y-66264554D01*
X233349236Y-66264551D01*
X233391635Y-66264550D01*
X234021497Y-66264550D01*
X234022818Y-66257386D01*
X234024181Y-66252093D01*
X234026553Y-66244759D01*
X234029454Y-66236861D01*
X234029835Y-66235895D01*
X234040940Y-66213024D01*
X234055132Y-66192202D01*
X234072108Y-66173706D01*
X234091569Y-66157816D01*
X234113215Y-66144810D01*
X234136743Y-66134966D01*
X234139768Y-66133982D01*
X234164630Y-66128087D01*
X234189654Y-66125882D01*
X234214476Y-66127277D01*
G37*
G36*
X233224916Y-66504776D02*
G01*
X233216881Y-66516493D01*
X233210121Y-66529056D01*
X233204110Y-66543540D01*
X233199717Y-66556506D01*
X233197877Y-66562367D01*
X233196245Y-66567742D01*
X233194808Y-66572886D01*
X233193552Y-66578057D01*
X233192464Y-66583510D01*
X233191531Y-66589503D01*
X233190740Y-66596290D01*
X233190077Y-66604130D01*
X233189529Y-66613278D01*
X233189082Y-66623991D01*
X233188723Y-66636526D01*
X233188439Y-66651138D01*
X233188217Y-66668084D01*
X233188043Y-66687621D01*
X233187904Y-66710005D01*
X233187786Y-66735492D01*
X233187677Y-66764339D01*
X233187587Y-66789896D01*
X233187484Y-66820703D01*
X233187408Y-66847900D01*
X233187360Y-66871700D01*
X233187343Y-66892312D01*
X233187361Y-66909949D01*
X233187414Y-66924821D01*
X233187505Y-66937140D01*
X233187638Y-66947117D01*
X233187814Y-66954963D01*
X233188036Y-66960890D01*
X233188306Y-66965108D01*
X233188627Y-66967830D01*
X233189001Y-66969266D01*
X233189431Y-66969627D01*
X233189669Y-66969469D01*
X233191252Y-66967554D01*
X233195009Y-66962878D01*
X233200753Y-66955682D01*
X233208292Y-66946206D01*
X233217436Y-66934690D01*
X233227997Y-66921373D01*
X233239784Y-66906497D01*
X233252607Y-66890302D01*
X233266277Y-66873027D01*
X233280604Y-66854913D01*
X233295398Y-66836201D01*
X233310469Y-66817129D01*
X233325628Y-66797939D01*
X233340685Y-66778871D01*
X233355449Y-66760165D01*
X233369733Y-66742061D01*
X233383344Y-66724799D01*
X233396094Y-66708619D01*
X233407794Y-66693763D01*
X233418252Y-66680469D01*
X233427280Y-66668978D01*
X233434687Y-66659531D01*
X233440285Y-66652367D01*
X233443882Y-66647726D01*
X233444324Y-66647149D01*
X233462937Y-66621542D01*
X233478555Y-66597408D01*
X233491094Y-66574888D01*
X233500471Y-66554126D01*
X233503469Y-66545896D01*
X233506077Y-66537413D01*
X233507457Y-66530418D01*
X233507847Y-66523085D01*
X233507558Y-66514806D01*
X233506981Y-66506934D01*
X233506237Y-66500260D01*
X233505460Y-66495920D01*
X233505234Y-66495225D01*
X233505157Y-66494709D01*
X233505527Y-66494249D01*
X233506548Y-66493841D01*
X233508426Y-66493484D01*
X233511366Y-66493172D01*
X233515572Y-66492903D01*
X233521249Y-66492675D01*
X233528602Y-66492483D01*
X233537837Y-66492324D01*
X233549156Y-66492196D01*
X233562767Y-66492096D01*
X233578873Y-66492019D01*
X233597679Y-66491962D01*
X233619391Y-66491924D01*
X233644212Y-66491900D01*
X233672348Y-66491887D01*
X233704004Y-66491882D01*
X233720127Y-66491882D01*
X233936445Y-66491882D01*
X233919485Y-66503757D01*
X233910029Y-66511027D01*
X233898615Y-66520881D01*
X233885652Y-66532904D01*
X233871550Y-66546682D01*
X233856718Y-66561800D01*
X233841566Y-66577843D01*
X233826503Y-66594397D01*
X233811940Y-66611047D01*
X233802885Y-66621785D01*
X233797749Y-66628024D01*
X233790394Y-66637031D01*
X233780991Y-66648593D01*
X233769713Y-66662499D01*
X233756731Y-66678536D01*
X233742215Y-66696492D01*
X233726338Y-66716154D01*
X233709271Y-66737310D01*
X233691185Y-66759747D01*
X233672253Y-66783253D01*
X233652644Y-66807616D01*
X233632532Y-66832623D01*
X233612087Y-66858062D01*
X233601625Y-66871086D01*
X233581613Y-66896005D01*
X233562189Y-66920189D01*
X233543495Y-66943464D01*
X233525673Y-66965653D01*
X233508864Y-66986579D01*
X233493210Y-67006067D01*
X233478852Y-67023940D01*
X233465932Y-67040022D01*
X233454591Y-67054137D01*
X233444971Y-67066109D01*
X233437214Y-67075762D01*
X233431460Y-67082919D01*
X233427852Y-67087404D01*
X233426643Y-67088904D01*
X233420422Y-67096583D01*
X233616051Y-67365904D01*
X233637216Y-67395025D01*
X233658005Y-67423599D01*
X233678288Y-67451446D01*
X233697932Y-67478386D01*
X233716805Y-67504238D01*
X233734775Y-67528824D01*
X233751711Y-67551963D01*
X233767480Y-67573475D01*
X233781950Y-67593180D01*
X233794990Y-67610897D01*
X233806468Y-67626448D01*
X233816250Y-67639652D01*
X233824207Y-67650329D01*
X233830205Y-67658299D01*
X233834112Y-67663382D01*
X233834507Y-67663881D01*
X233852114Y-67685585D01*
X233868742Y-67705288D01*
X233884168Y-67722743D01*
X233898171Y-67737704D01*
X233910526Y-67749925D01*
X233920133Y-67758443D01*
X233926951Y-67764158D01*
X233932545Y-67769044D01*
X233936327Y-67772574D01*
X233937705Y-67774203D01*
X233935856Y-67774389D01*
X233930423Y-67774568D01*
X233921643Y-67774738D01*
X233909754Y-67774898D01*
X233894993Y-67775047D01*
X233877597Y-67775182D01*
X233857802Y-67775303D01*
X233835847Y-67775408D01*
X233811968Y-67775494D01*
X233786403Y-67775562D01*
X233759388Y-67775608D01*
X233731160Y-67775633D01*
X233716043Y-67775636D01*
X233494220Y-67775636D01*
X233495448Y-67771338D01*
X233496292Y-67767440D01*
X233497415Y-67761008D01*
X233498601Y-67753296D01*
X233498832Y-67751670D01*
X233499868Y-67742588D01*
X233499953Y-67735343D01*
X233499026Y-67728055D01*
X233497866Y-67722475D01*
X233492276Y-67703248D01*
X233483862Y-67682742D01*
X233472516Y-67660736D01*
X233458127Y-67637009D01*
X233448473Y-67622557D01*
X233445443Y-67618257D01*
X233440318Y-67611108D01*
X233433268Y-67601341D01*
X233424459Y-67589186D01*
X233414059Y-67574874D01*
X233402236Y-67558634D01*
X233389159Y-67540698D01*
X233374994Y-67521295D01*
X233359910Y-67500656D01*
X233344074Y-67479012D01*
X233327655Y-67456592D01*
X233311272Y-67434243D01*
X233188055Y-67266240D01*
X233187468Y-67447867D01*
X233187373Y-67483522D01*
X233187331Y-67515478D01*
X233187343Y-67543855D01*
X233187410Y-67568775D01*
X233187533Y-67590358D01*
X233187713Y-67608727D01*
X233187951Y-67624001D01*
X233188248Y-67636302D01*
X233188605Y-67645751D01*
X233189022Y-67652468D01*
X233189102Y-67653374D01*
X233192029Y-67675556D01*
X233196516Y-67696983D01*
X233202360Y-67717063D01*
X233209361Y-67735202D01*
X233217314Y-67750810D01*
X233226018Y-67763291D01*
X233227030Y-67764467D01*
X233231129Y-67769292D01*
X233233963Y-67772953D01*
X233234858Y-67774496D01*
X233232989Y-67774651D01*
X233227548Y-67774799D01*
X233218783Y-67774940D01*
X233206943Y-67775072D01*
X233192275Y-67775194D01*
X233175029Y-67775303D01*
X233155452Y-67775400D01*
X233133794Y-67775482D01*
X233110303Y-67775548D01*
X233085226Y-67775596D01*
X233058813Y-67775626D01*
X233032361Y-67775636D01*
X233004896Y-67775626D01*
X232978529Y-67775596D01*
X232953508Y-67775547D01*
X232930080Y-67775481D01*
X232908496Y-67775400D01*
X232889003Y-67775304D01*
X232871849Y-67775195D01*
X232857283Y-67775075D01*
X232845553Y-67774944D01*
X232836909Y-67774805D01*
X232831597Y-67774658D01*
X232829864Y-67774512D01*
X232831029Y-67772605D01*
X232834074Y-67768719D01*
X232838090Y-67763984D01*
X232851332Y-67746524D01*
X232861586Y-67727671D01*
X232869024Y-67706984D01*
X232873819Y-67684021D01*
X232875596Y-67667701D01*
X232875797Y-67663091D01*
X232875987Y-67654857D01*
X232876167Y-67643196D01*
X232876337Y-67628304D01*
X232876497Y-67610378D01*
X232876646Y-67589615D01*
X232876785Y-67566211D01*
X232876914Y-67540364D01*
X232877033Y-67512271D01*
X232877141Y-67482126D01*
X232877239Y-67450129D01*
X232877326Y-67416474D01*
X232877403Y-67381360D01*
X232877470Y-67344982D01*
X232877526Y-67307537D01*
X232877572Y-67269222D01*
X232877607Y-67230234D01*
X232877632Y-67190770D01*
X232877646Y-67151026D01*
X232877650Y-67111199D01*
X232877643Y-67071485D01*
X232877625Y-67032082D01*
X232877597Y-66993186D01*
X232877558Y-66954993D01*
X232877508Y-66917701D01*
X232877448Y-66881507D01*
X232877377Y-66846606D01*
X232877296Y-66813196D01*
X232877203Y-66781473D01*
X232877100Y-66751634D01*
X232876986Y-66723876D01*
X232876861Y-66698396D01*
X232876725Y-66675390D01*
X232876579Y-66655054D01*
X232876421Y-66637587D01*
X232876253Y-66623183D01*
X232876073Y-66612041D01*
X232875883Y-66604357D01*
X232875718Y-66600771D01*
X232873208Y-66578384D01*
X232868965Y-66558739D01*
X232862694Y-66541038D01*
X232854099Y-66524483D01*
X232842883Y-66508277D01*
X232840114Y-66504776D01*
X232829700Y-66491882D01*
X233032202Y-66491882D01*
X233234705Y-66491882D01*
X233224916Y-66504776D01*
G37*
G36*
X229583211Y-68235042D02*
G01*
X229623748Y-68250555D01*
X229591544Y-68276778D01*
X229555028Y-68296251D01*
X229521387Y-68303001D01*
X229496945Y-68306013D01*
X229481030Y-68318152D01*
X229471885Y-68344067D01*
X229467755Y-68388409D01*
X229466873Y-68447349D01*
X229466437Y-68499041D01*
X229463830Y-68529229D01*
X229457104Y-68543691D01*
X229444314Y-68548206D01*
X229432770Y-68548543D01*
X229398667Y-68548543D01*
X229398667Y-68389964D01*
X229398667Y-68231384D01*
X229439665Y-68239584D01*
X229480085Y-68241013D01*
X229511668Y-68233656D01*
X229551663Y-68226940D01*
X229583211Y-68235042D01*
G37*
G36*
X230919172Y-67743522D02*
G01*
X230944756Y-67755050D01*
X230947683Y-67766620D01*
X230933852Y-67784032D01*
X230902368Y-67803576D01*
X230872631Y-67808948D01*
X230841117Y-67810353D01*
X230820961Y-67819947D01*
X230809671Y-67842553D01*
X230804754Y-67882995D01*
X230803716Y-67942313D01*
X230803397Y-67998225D01*
X230801371Y-68032276D01*
X230796033Y-68049885D01*
X230785776Y-68056472D01*
X230769612Y-68057458D01*
X230735509Y-68057458D01*
X230735509Y-67898994D01*
X230735509Y-67740529D01*
X230771802Y-67747467D01*
X230813206Y-67748167D01*
X230844535Y-67741702D01*
X230896643Y-67737431D01*
X230919172Y-67743522D01*
G37*
G36*
X230830697Y-68231756D02*
G01*
X230834672Y-68233254D01*
X230859975Y-68245865D01*
X230863288Y-68260248D01*
X230855263Y-68275481D01*
X230825481Y-68298487D01*
X230796342Y-68303001D01*
X230762295Y-68306644D01*
X230740299Y-68320636D01*
X230727897Y-68349568D01*
X230722630Y-68398034D01*
X230721868Y-68442141D01*
X230721482Y-68495439D01*
X230719118Y-68527091D01*
X230712970Y-68542734D01*
X230701231Y-68548006D01*
X230687765Y-68548543D01*
X230653662Y-68548543D01*
X230653662Y-68391669D01*
X230653662Y-68234794D01*
X230687765Y-68234794D01*
X230713404Y-68239248D01*
X230721868Y-68247801D01*
X230731938Y-68250974D01*
X230756472Y-68241278D01*
X230759382Y-68239678D01*
X230795378Y-68226101D01*
X230830697Y-68231756D01*
G37*
G36*
X228664170Y-67749110D02*
G01*
X228706470Y-67782851D01*
X228731898Y-67837140D01*
X228736142Y-67858247D01*
X228737196Y-67930372D01*
X228718972Y-67988872D01*
X228684476Y-68030883D01*
X228636711Y-68053543D01*
X228578683Y-68053989D01*
X228542073Y-68043168D01*
X228510799Y-68017351D01*
X228487378Y-67972653D01*
X228474877Y-67917051D01*
X228474911Y-67895332D01*
X228541038Y-67895332D01*
X228546911Y-67937791D01*
X228568141Y-67973280D01*
X228599156Y-67989243D01*
X228632491Y-67983027D01*
X228645670Y-67972882D01*
X228655432Y-67950212D01*
X228661288Y-67911696D01*
X228662040Y-67891515D01*
X228659254Y-67847967D01*
X228649033Y-67823156D01*
X228634757Y-67811916D01*
X228600626Y-67805838D01*
X228571028Y-67821444D01*
X228549864Y-67853139D01*
X228541038Y-67895332D01*
X228474911Y-67895332D01*
X228474952Y-67868697D01*
X228492607Y-67806388D01*
X228527973Y-67762724D01*
X228578599Y-67740144D01*
X228606706Y-67737509D01*
X228664170Y-67749110D01*
G37*
G36*
X229573290Y-67745104D02*
G01*
X229602280Y-67761301D01*
X229621830Y-67793869D01*
X229633998Y-67846326D01*
X229640846Y-67922189D01*
X229641086Y-67926673D01*
X229647927Y-68057458D01*
X229611965Y-68057458D01*
X229593678Y-68056383D01*
X229582959Y-68049322D01*
X229577788Y-68030525D01*
X229576141Y-67994241D01*
X229576003Y-67955149D01*
X229574730Y-67899180D01*
X229569830Y-67862940D01*
X229559682Y-67838947D01*
X229547721Y-67824557D01*
X229524980Y-67805864D01*
X229505895Y-67806508D01*
X229489746Y-67815940D01*
X229474608Y-67829312D01*
X229465148Y-67849230D01*
X229459683Y-67882223D01*
X229456530Y-67934823D01*
X229456091Y-67946531D01*
X229453731Y-68001209D01*
X229450224Y-68034127D01*
X229443704Y-68050797D01*
X229432308Y-68056733D01*
X229418577Y-68057458D01*
X229385026Y-68057458D01*
X229385026Y-67900897D01*
X229385026Y-67744335D01*
X229436181Y-67743974D01*
X229485257Y-67743185D01*
X229532216Y-67741785D01*
X229532800Y-67741761D01*
X229573290Y-67745104D01*
G37*
G36*
X230471048Y-67744858D02*
G01*
X230481735Y-67751977D01*
X230487688Y-67770581D01*
X230490850Y-67806183D01*
X230492826Y-67854812D01*
X230496158Y-67913663D01*
X230501893Y-67950948D01*
X230511285Y-67972361D01*
X230520660Y-67980924D01*
X230550107Y-67988625D01*
X230568404Y-67980924D01*
X230581088Y-67967205D01*
X230589239Y-67941581D01*
X230594112Y-67898359D01*
X230596238Y-67854812D01*
X230598595Y-67800082D01*
X230602095Y-67767116D01*
X230608598Y-67750407D01*
X230619965Y-67744444D01*
X230633752Y-67743710D01*
X230667303Y-67743710D01*
X230667303Y-67900584D01*
X230667303Y-68057458D01*
X230633200Y-68057458D01*
X230607566Y-68052626D01*
X230599097Y-68043337D01*
X230590746Y-68036183D01*
X230572711Y-68043337D01*
X230523725Y-68056668D01*
X230476948Y-68042828D01*
X230461494Y-68031954D01*
X230446570Y-68017158D01*
X230436739Y-67997752D01*
X230430542Y-67967590D01*
X230426519Y-67920525D01*
X230424252Y-67875080D01*
X230418506Y-67743710D01*
X230453685Y-67743710D01*
X230471048Y-67744858D01*
G37*
G36*
X230303494Y-67754297D02*
G01*
X230341404Y-67790363D01*
X230358202Y-67829469D01*
X230364438Y-67885534D01*
X230360052Y-67943016D01*
X230346572Y-67992341D01*
X230327364Y-68022367D01*
X230289280Y-68042648D01*
X230239679Y-68052165D01*
X230192970Y-68048656D01*
X230182565Y-68045113D01*
X230147929Y-68023715D01*
X230126874Y-67991847D01*
X230116782Y-67943659D01*
X230115126Y-67901266D01*
X230176427Y-67901266D01*
X230182860Y-67952038D01*
X230203532Y-67980710D01*
X230237604Y-67989252D01*
X230268908Y-67981865D01*
X230282620Y-67972882D01*
X230293234Y-67948137D01*
X230298137Y-67908564D01*
X230296995Y-67866084D01*
X230289474Y-67832617D01*
X230286691Y-67827262D01*
X230265273Y-67813249D01*
X230237604Y-67808505D01*
X230204030Y-67815181D01*
X230184754Y-67838054D01*
X230176960Y-67881392D01*
X230176427Y-67901266D01*
X230115126Y-67901266D01*
X230114833Y-67893763D01*
X230117715Y-67832348D01*
X230128680Y-67791523D01*
X230151204Y-67764991D01*
X230188764Y-67746450D01*
X230197852Y-67743323D01*
X230253409Y-67737416D01*
X230303494Y-67754297D01*
G37*
G36*
X231145868Y-67751944D02*
G01*
X231164020Y-67762138D01*
X231188493Y-67780265D01*
X231192266Y-67793983D01*
X231179194Y-67811536D01*
X231161139Y-67827287D01*
X231142044Y-67827431D01*
X231116166Y-67816044D01*
X231085222Y-67803555D01*
X231062265Y-67806163D01*
X231041944Y-67817805D01*
X231018116Y-67840863D01*
X231008989Y-67874460D01*
X231008334Y-67893103D01*
X231013877Y-67935039D01*
X231027814Y-67965658D01*
X231029770Y-67967816D01*
X231063297Y-67986004D01*
X231101648Y-67986726D01*
X231128475Y-67972785D01*
X231145869Y-67964476D01*
X231166789Y-67978181D01*
X231168229Y-67979606D01*
X231183775Y-67999237D01*
X231178728Y-68015063D01*
X231170009Y-68024401D01*
X231138692Y-68041409D01*
X231093169Y-68051232D01*
X231045952Y-68052197D01*
X231014681Y-68045176D01*
X230979132Y-68022733D01*
X230957895Y-67989058D01*
X230948272Y-67938320D01*
X230946949Y-67898797D01*
X230948437Y-67848738D01*
X230954846Y-67816267D01*
X230969090Y-67791764D01*
X230984462Y-67775022D01*
X231032145Y-67745246D01*
X231088679Y-67737357D01*
X231145868Y-67751944D01*
G37*
G36*
X229862470Y-68323463D02*
G01*
X229862470Y-68548543D01*
X229769588Y-68548543D01*
X229714893Y-68545925D01*
X229672334Y-68538910D01*
X229652869Y-68531112D01*
X229629461Y-68499324D01*
X229614803Y-68450193D01*
X229609124Y-68392297D01*
X229609702Y-68382781D01*
X229682043Y-68382781D01*
X229683326Y-68424943D01*
X229688231Y-68457691D01*
X229691516Y-68465987D01*
X229712683Y-68478174D01*
X229744576Y-68478653D01*
X229773436Y-68467745D01*
X229777894Y-68463967D01*
X229788598Y-68439275D01*
X229793792Y-68399520D01*
X229792793Y-68356491D01*
X229785983Y-68324578D01*
X229767581Y-68309101D01*
X229736473Y-68303196D01*
X229705785Y-68307662D01*
X229690631Y-68318783D01*
X229684453Y-68343347D01*
X229682043Y-68382781D01*
X229609702Y-68382781D01*
X229612654Y-68334211D01*
X229625622Y-68284512D01*
X229645452Y-68254132D01*
X229684121Y-68234938D01*
X229732722Y-68231190D01*
X229770391Y-68240606D01*
X229783967Y-68243727D01*
X229791160Y-68233821D01*
X229793921Y-68205513D01*
X229794263Y-68174868D01*
X229795110Y-68131379D01*
X229799615Y-68108547D01*
X229810730Y-68099757D01*
X229828366Y-68098382D01*
X229862470Y-68098382D01*
X229862470Y-68323463D01*
G37*
G36*
X231056242Y-68241533D02*
G01*
X231096500Y-68276335D01*
X231122078Y-68330460D01*
X231127199Y-68356225D01*
X231134698Y-68412131D01*
X231037413Y-68412131D01*
X230979590Y-68414573D01*
X230947108Y-68422566D01*
X230938404Y-68437110D01*
X230951918Y-68459204D01*
X230956498Y-68463967D01*
X230983931Y-68476891D01*
X231020567Y-68479628D01*
X231051418Y-68471634D01*
X231056761Y-68467614D01*
X231077453Y-68464734D01*
X231097002Y-68475319D01*
X231114840Y-68490630D01*
X231113595Y-68502835D01*
X231092203Y-68522045D01*
X231092081Y-68522145D01*
X231046215Y-68543844D01*
X230991675Y-68547140D01*
X230939848Y-68532116D01*
X230922285Y-68520883D01*
X230892702Y-68481560D01*
X230877234Y-68425345D01*
X230877198Y-68359440D01*
X230881150Y-68338956D01*
X230939752Y-68338956D01*
X230959450Y-68352380D01*
X231001514Y-68357566D01*
X231038128Y-68355275D01*
X231060087Y-68349481D01*
X231062899Y-68346039D01*
X231053777Y-68329206D01*
X231035561Y-68309771D01*
X231009737Y-68293242D01*
X230982414Y-68297019D01*
X230974176Y-68300544D01*
X230944135Y-68320581D01*
X230939752Y-68338956D01*
X230881150Y-68338956D01*
X230885184Y-68318050D01*
X230900702Y-68276811D01*
X230924348Y-68252265D01*
X230947867Y-68240352D01*
X231005349Y-68228667D01*
X231056242Y-68241533D01*
G37*
G36*
X229268086Y-67750084D02*
G01*
X229308102Y-67787086D01*
X229333832Y-67842147D01*
X229338343Y-67863224D01*
X229347589Y-67921046D01*
X229243964Y-67921046D01*
X229191581Y-67921659D01*
X229161448Y-67924343D01*
X229148544Y-67930361D01*
X229147849Y-67940978D01*
X229149148Y-67944918D01*
X229164165Y-67970677D01*
X229172592Y-67978812D01*
X229201664Y-67987774D01*
X229238306Y-67987368D01*
X229267244Y-67978142D01*
X229270762Y-67975288D01*
X229289333Y-67971886D01*
X229307937Y-67986974D01*
X229323176Y-68007808D01*
X229318725Y-68022240D01*
X229310336Y-68029896D01*
X229278450Y-68044015D01*
X229232254Y-68051556D01*
X229184127Y-68051596D01*
X229146451Y-68043214D01*
X229144456Y-68042253D01*
X229106677Y-68007991D01*
X229085007Y-67952647D01*
X229079672Y-67894778D01*
X229086829Y-67844071D01*
X229155535Y-67844071D01*
X229158171Y-67858629D01*
X229177574Y-67865238D01*
X229207690Y-67866481D01*
X229244006Y-67864301D01*
X229259075Y-67856099D01*
X229259845Y-67844071D01*
X229245272Y-67818446D01*
X229231562Y-67806627D01*
X229200373Y-67800623D01*
X229171395Y-67815316D01*
X229155535Y-67844071D01*
X229086829Y-67844071D01*
X229089280Y-67826704D01*
X229116919Y-67775163D01*
X229160807Y-67743409D01*
X229163029Y-67742537D01*
X229218242Y-67734212D01*
X229268086Y-67750084D01*
G37*
G36*
X231396028Y-67750401D02*
G01*
X231436745Y-67786531D01*
X231462899Y-67839476D01*
X231468230Y-67865140D01*
X231475729Y-67921046D01*
X231378444Y-67921046D01*
X231327537Y-67921823D01*
X231298170Y-67925167D01*
X231284622Y-67932597D01*
X231281171Y-67945632D01*
X231281159Y-67946869D01*
X231292877Y-67970232D01*
X231321362Y-67985786D01*
X231356614Y-67990986D01*
X231388631Y-67983289D01*
X231397792Y-67976529D01*
X231418621Y-67973483D01*
X231437413Y-67983483D01*
X231455475Y-68000193D01*
X231451626Y-68014904D01*
X231442229Y-68025006D01*
X231411406Y-68041399D01*
X231365711Y-68050875D01*
X231316948Y-68052235D01*
X231276922Y-68044279D01*
X231272491Y-68042253D01*
X231234680Y-68007998D01*
X231213479Y-67952783D01*
X231208780Y-67893229D01*
X231215418Y-67848747D01*
X231281159Y-67848747D01*
X231293760Y-67861258D01*
X231331960Y-67866341D01*
X231342545Y-67866481D01*
X231379164Y-67864661D01*
X231401122Y-67860057D01*
X231403930Y-67857324D01*
X231393444Y-67836285D01*
X231369549Y-67813690D01*
X231343593Y-67799451D01*
X231336338Y-67798275D01*
X231305255Y-67808991D01*
X231284277Y-67834151D01*
X231281159Y-67848747D01*
X231215418Y-67848747D01*
X231219148Y-67823748D01*
X231247174Y-67772765D01*
X231291063Y-67742537D01*
X231345788Y-67734574D01*
X231396028Y-67750401D01*
G37*
G36*
X229997418Y-67743315D02*
G01*
X230043285Y-67760022D01*
X230062695Y-67778793D01*
X230056454Y-67800564D01*
X230051454Y-67806114D01*
X230032657Y-67817309D01*
X230005044Y-67815725D01*
X229982178Y-67809503D01*
X229944261Y-67801020D01*
X229919813Y-67805479D01*
X229909526Y-67812487D01*
X229894783Y-67828421D01*
X229902400Y-67841657D01*
X229911589Y-67848712D01*
X229943448Y-67862137D01*
X229974827Y-67866481D01*
X230013246Y-67876874D01*
X230049532Y-67902741D01*
X230074642Y-67936111D01*
X230080730Y-67959838D01*
X230068247Y-68001181D01*
X230033536Y-68032002D01*
X229980703Y-68048908D01*
X229971600Y-68050021D01*
X229927605Y-68051731D01*
X229891254Y-68048672D01*
X229882931Y-68046560D01*
X229848012Y-68031314D01*
X229828366Y-68020717D01*
X229809665Y-68006395D01*
X229813915Y-67992029D01*
X229823365Y-67981872D01*
X229847189Y-67966927D01*
X229873623Y-67974279D01*
X229909680Y-67986054D01*
X229950058Y-67988953D01*
X229984677Y-67983367D01*
X230003461Y-67969687D01*
X230003647Y-67969227D01*
X230006758Y-67952852D01*
X229996981Y-67942060D01*
X229969005Y-67933489D01*
X229937393Y-67927309D01*
X229883796Y-67914655D01*
X229851390Y-67898150D01*
X229834086Y-67874037D01*
X229829913Y-67860967D01*
X229828839Y-67811316D01*
X229849861Y-67771982D01*
X229888813Y-67745892D01*
X229941529Y-67735970D01*
X229997418Y-67743315D01*
G37*
G36*
X229240899Y-68231904D02*
G01*
X229282453Y-68241957D01*
X229299758Y-68252810D01*
X229311173Y-68273861D01*
X229319507Y-68313119D01*
X229325402Y-68374247D01*
X229327497Y-68411240D01*
X229334109Y-68548543D01*
X229238307Y-68548543D01*
X229179349Y-68546369D01*
X229140022Y-68538871D01*
X229112952Y-68524586D01*
X229111439Y-68523386D01*
X229087482Y-68488822D01*
X229081651Y-68452499D01*
X229143139Y-68452499D01*
X229145025Y-68464626D01*
X229163798Y-68474689D01*
X229198282Y-68480060D01*
X229208495Y-68480337D01*
X229243320Y-68478409D01*
X229258665Y-68469365D01*
X229262245Y-68448312D01*
X229262255Y-68446234D01*
X229257435Y-68421289D01*
X229237473Y-68412660D01*
X229223938Y-68412131D01*
X229187121Y-68418258D01*
X229157719Y-68433357D01*
X229143139Y-68452499D01*
X229081651Y-68452499D01*
X229080453Y-68445035D01*
X229091172Y-68403793D01*
X229102088Y-68389115D01*
X229127938Y-68375154D01*
X229169197Y-68364120D01*
X229193030Y-68360746D01*
X229235207Y-68354764D01*
X229256234Y-68345465D01*
X229262238Y-68330020D01*
X229262255Y-68328807D01*
X229250623Y-68307014D01*
X229222677Y-68293749D01*
X229188840Y-68292118D01*
X229166199Y-68300189D01*
X229139369Y-68307252D01*
X229117103Y-68296198D01*
X229099863Y-68280409D01*
X229103636Y-68266101D01*
X229115298Y-68253480D01*
X229146148Y-68237706D01*
X229191739Y-68230500D01*
X229240899Y-68231904D01*
G37*
G36*
X230494409Y-68230230D02*
G01*
X230532799Y-68239928D01*
X230559493Y-68257494D01*
X230576995Y-68287584D01*
X230587808Y-68334852D01*
X230594438Y-68403953D01*
X230595302Y-68417744D01*
X230603105Y-68548543D01*
X230501399Y-68548543D01*
X230433294Y-68545417D01*
X230387515Y-68536329D01*
X230373523Y-68529408D01*
X230356098Y-68502621D01*
X230347499Y-68461867D01*
X230347685Y-68454514D01*
X230408119Y-68454514D01*
X230413254Y-68471521D01*
X230433259Y-68479006D01*
X230462684Y-68480337D01*
X230497840Y-68478475D01*
X230513465Y-68469696D01*
X230517230Y-68449204D01*
X230517249Y-68446234D01*
X230511534Y-68420192D01*
X230489434Y-68412238D01*
X230484262Y-68412131D01*
X230435979Y-68418716D01*
X230411490Y-68438512D01*
X230408119Y-68454514D01*
X230347685Y-68454514D01*
X230348574Y-68419265D01*
X230360172Y-68386938D01*
X230363292Y-68383295D01*
X230385445Y-68372804D01*
X230424050Y-68363896D01*
X230448240Y-68360725D01*
X230490155Y-68354833D01*
X230511054Y-68345658D01*
X230517204Y-68330240D01*
X230517249Y-68328119D01*
X230506430Y-68301687D01*
X230477647Y-68291136D01*
X230436409Y-68298448D01*
X230435563Y-68298764D01*
X230401245Y-68303242D01*
X230370725Y-68294308D01*
X230354270Y-68275552D01*
X230353554Y-68270108D01*
X230365673Y-68255929D01*
X230396042Y-68242640D01*
X230435677Y-68232782D01*
X230475597Y-68228899D01*
X230494409Y-68230230D01*
G37*
G36*
X229948011Y-68236581D02*
G01*
X229961562Y-68245570D01*
X229972726Y-68267204D01*
X229984884Y-68306928D01*
X229993309Y-68338800D01*
X230020297Y-68442806D01*
X230052915Y-68338800D01*
X230070703Y-68285684D01*
X230084974Y-68254010D01*
X230098735Y-68238730D01*
X230114833Y-68234794D01*
X230131026Y-68238794D01*
X230144763Y-68254153D01*
X230159039Y-68285913D01*
X230176849Y-68339114D01*
X230176874Y-68339195D01*
X230209616Y-68443597D01*
X230235369Y-68339195D01*
X230248859Y-68286950D01*
X230259674Y-68255853D01*
X230271166Y-68240445D01*
X230286688Y-68235265D01*
X230299462Y-68234794D01*
X230337801Y-68234794D01*
X230304730Y-68340514D01*
X230286682Y-68398301D01*
X230269660Y-68452957D01*
X230257015Y-68493721D01*
X230255883Y-68497388D01*
X230240942Y-68532632D01*
X230221644Y-68547090D01*
X230208880Y-68548543D01*
X230192185Y-68545307D01*
X230178794Y-68532145D01*
X230165612Y-68503881D01*
X230149543Y-68455336D01*
X230145785Y-68442983D01*
X230113917Y-68337422D01*
X230082579Y-68442983D01*
X230065753Y-68496292D01*
X230052288Y-68528217D01*
X230039181Y-68543902D01*
X230023426Y-68548493D01*
X230020926Y-68548543D01*
X230003926Y-68544680D01*
X229989803Y-68529624D01*
X229975274Y-68498172D01*
X229958519Y-68449644D01*
X229939885Y-68391742D01*
X229921970Y-68335279D01*
X229908742Y-68292770D01*
X229891057Y-68234794D01*
X229928689Y-68234794D01*
X229948011Y-68236581D01*
G37*
G36*
X228980143Y-67749917D02*
G01*
X229013880Y-67780014D01*
X229033827Y-67833030D01*
X229037069Y-67852077D01*
X229040024Y-67928757D01*
X229026746Y-67988873D01*
X228998783Y-68030273D01*
X228957683Y-68050809D01*
X228904994Y-68048329D01*
X228897351Y-68046198D01*
X228853017Y-68032729D01*
X228853017Y-68142042D01*
X228853551Y-68196067D01*
X228855933Y-68227657D01*
X228861335Y-68241655D01*
X228870931Y-68242899D01*
X228876890Y-68240606D01*
X228925694Y-68230523D01*
X228974663Y-68239235D01*
X229006040Y-68258983D01*
X229019866Y-68277271D01*
X229029247Y-68303224D01*
X229035526Y-68342966D01*
X229040046Y-68402620D01*
X229040871Y-68417758D01*
X229047712Y-68548543D01*
X229011750Y-68548543D01*
X228993463Y-68547467D01*
X228982745Y-68540407D01*
X228977573Y-68521610D01*
X228975926Y-68485326D01*
X228975789Y-68446234D01*
X228974430Y-68389724D01*
X228969341Y-68353123D01*
X228959001Y-68329147D01*
X228948816Y-68316951D01*
X228915446Y-68298852D01*
X228881868Y-68304968D01*
X228863457Y-68322468D01*
X228858644Y-68342385D01*
X228855034Y-68381755D01*
X228853291Y-68432753D01*
X228853226Y-68442823D01*
X228852726Y-68495914D01*
X228850263Y-68527376D01*
X228844001Y-68542865D01*
X228832104Y-68548035D01*
X228818914Y-68548543D01*
X228784811Y-68548543D01*
X228784811Y-68146439D01*
X228784811Y-67891250D01*
X228853226Y-67891250D01*
X228860508Y-67945658D01*
X228882324Y-67978805D01*
X228915221Y-67989252D01*
X228945578Y-67979912D01*
X228963390Y-67951881D01*
X228972631Y-67904711D01*
X228966771Y-67860891D01*
X228948805Y-67826584D01*
X228921727Y-67807950D01*
X228893941Y-67808984D01*
X228867641Y-67826528D01*
X228855261Y-67859764D01*
X228853226Y-67891250D01*
X228784811Y-67891250D01*
X228784811Y-67744335D01*
X228835966Y-67743974D01*
X228884636Y-67743174D01*
X228930877Y-67741745D01*
X228931638Y-67741713D01*
X228980143Y-67749917D01*
G37*
G36*
X230163906Y-65570385D02*
G01*
X230196680Y-65729714D01*
X230290832Y-65768183D01*
X230339738Y-65787001D01*
X230380800Y-65800709D01*
X230405828Y-65806598D01*
X230407145Y-65806653D01*
X230427371Y-65799162D01*
X230463545Y-65779034D01*
X230509629Y-65749789D01*
X230538074Y-65730349D01*
X230586772Y-65696711D01*
X230628336Y-65668962D01*
X230656893Y-65650977D01*
X230665076Y-65646588D01*
X230680284Y-65652994D01*
X230709370Y-65674567D01*
X230747402Y-65706710D01*
X230789451Y-65744828D01*
X230830585Y-65784324D01*
X230865874Y-65820602D01*
X230890386Y-65849066D01*
X230899204Y-65864831D01*
X230892014Y-65880050D01*
X230872560Y-65912614D01*
X230844016Y-65957375D01*
X230817357Y-65997630D01*
X230783881Y-66048507D01*
X230757024Y-66091402D01*
X230739965Y-66121103D01*
X230735509Y-66131757D01*
X230740845Y-66149731D01*
X230755659Y-66188165D01*
X230778160Y-66242672D01*
X230806559Y-66308865D01*
X230823830Y-66348179D01*
X230836835Y-66351696D01*
X230871271Y-66359224D01*
X230921777Y-66369629D01*
X230978065Y-66380813D01*
X231131105Y-66410750D01*
X231131105Y-66571420D01*
X231131105Y-66732090D01*
X231093592Y-66739220D01*
X231062634Y-66745318D01*
X231014240Y-66755083D01*
X230957687Y-66766639D01*
X230944347Y-66769385D01*
X230832615Y-66792420D01*
X230788609Y-66901587D01*
X230768646Y-66952858D01*
X230753480Y-66995137D01*
X230745516Y-67021584D01*
X230744876Y-67025970D01*
X230752354Y-67043075D01*
X230772261Y-67076795D01*
X230801179Y-67121539D01*
X230822176Y-67152424D01*
X230854872Y-67200769D01*
X230880678Y-67241072D01*
X230896213Y-67267930D01*
X230899204Y-67275516D01*
X230890046Y-67289442D01*
X230865818Y-67317102D01*
X230831390Y-67353612D01*
X230791631Y-67394093D01*
X230751411Y-67433661D01*
X230715599Y-67467437D01*
X230689065Y-67490537D01*
X230677098Y-67498167D01*
X230662194Y-67491045D01*
X230629978Y-67471830D01*
X230585713Y-67443744D01*
X230550636Y-67420705D01*
X230434237Y-67343243D01*
X230373641Y-67372683D01*
X230313044Y-67402123D01*
X230293939Y-67364887D01*
X230280479Y-67336202D01*
X230260533Y-67290619D01*
X230236009Y-67232821D01*
X230208815Y-67167491D01*
X230180857Y-67099313D01*
X230154042Y-67032969D01*
X230130278Y-66973143D01*
X230111471Y-66924517D01*
X230099530Y-66891775D01*
X230096315Y-66879618D01*
X230108759Y-66870143D01*
X230136062Y-66848708D01*
X230164703Y-66825999D01*
X230227733Y-66762698D01*
X230266833Y-66690301D01*
X230284085Y-66604374D01*
X230285348Y-66569062D01*
X230283014Y-66513419D01*
X230273450Y-66470781D01*
X230252810Y-66427081D01*
X230241014Y-66406857D01*
X230185409Y-66338150D01*
X230116593Y-66290057D01*
X230039229Y-66262575D01*
X229957980Y-66255706D01*
X229877508Y-66269449D01*
X229802476Y-66303805D01*
X229737548Y-66358772D01*
X229702185Y-66406857D01*
X229676221Y-66454748D01*
X229662821Y-66496128D01*
X229658142Y-66545064D01*
X229657851Y-66569062D01*
X229667705Y-66660981D01*
X229698653Y-66737766D01*
X229752778Y-66803849D01*
X229778496Y-66825999D01*
X229813111Y-66853420D01*
X229838111Y-66872992D01*
X229846884Y-66879618D01*
X229843460Y-66892393D01*
X229831313Y-66925612D01*
X229812352Y-66974592D01*
X229788483Y-67034650D01*
X229761614Y-67101101D01*
X229733651Y-67169265D01*
X229706503Y-67234456D01*
X229682075Y-67291993D01*
X229662275Y-67337192D01*
X229649260Y-67364887D01*
X229630155Y-67402123D01*
X229569559Y-67372683D01*
X229508962Y-67343243D01*
X229392563Y-67420705D01*
X229342949Y-67453068D01*
X229301637Y-67478796D01*
X229273922Y-67494660D01*
X229265479Y-67498167D01*
X229252089Y-67489047D01*
X229224043Y-67464340D01*
X229185695Y-67428023D01*
X229149394Y-67392146D01*
X229106735Y-67348268D01*
X229072361Y-67311072D01*
X229050229Y-67284961D01*
X229043995Y-67274894D01*
X229051317Y-67259555D01*
X229071031Y-67227323D01*
X229099761Y-67183568D01*
X229121023Y-67152424D01*
X229153817Y-67103649D01*
X229179724Y-67062423D01*
X229195325Y-67034339D01*
X229198323Y-67025970D01*
X229193612Y-67007063D01*
X229180815Y-66969810D01*
X229162335Y-66921050D01*
X229154590Y-66901587D01*
X229110584Y-66792420D01*
X228998852Y-66769385D01*
X228941731Y-66757681D01*
X228890610Y-66747332D01*
X228854766Y-66740213D01*
X228849607Y-66739220D01*
X228812094Y-66732090D01*
X228812094Y-66571420D01*
X228812094Y-66410750D01*
X228965134Y-66380813D01*
X229025720Y-66368760D01*
X229075189Y-66358535D01*
X229108179Y-66351272D01*
X229119369Y-66348179D01*
X229150222Y-66277475D01*
X229176151Y-66216073D01*
X229195365Y-66168360D01*
X229206074Y-66138723D01*
X229207690Y-66131757D01*
X229200488Y-66115974D01*
X229181005Y-66082928D01*
X229152421Y-66037833D01*
X229125842Y-65997630D01*
X229092393Y-65946910D01*
X229065547Y-65904353D01*
X229048479Y-65875107D01*
X229043995Y-65864831D01*
X229053409Y-65848286D01*
X229078364Y-65819484D01*
X229113929Y-65783023D01*
X229155174Y-65743499D01*
X229197168Y-65705507D01*
X229234980Y-65673644D01*
X229263679Y-65652507D01*
X229278123Y-65646588D01*
X229296686Y-65657310D01*
X229331590Y-65679994D01*
X229376961Y-65710766D01*
X229405125Y-65730349D01*
X229454162Y-65763223D01*
X229496735Y-65788989D01*
X229526808Y-65804127D01*
X229536054Y-65806653D01*
X229559007Y-65801703D01*
X229598822Y-65788662D01*
X229647308Y-65770237D01*
X229652367Y-65768183D01*
X229746519Y-65729714D01*
X229779293Y-65570385D01*
X229812066Y-65411057D01*
X229971600Y-65411057D01*
X230131133Y-65411057D01*
X230163906Y-65570385D01*
G37*
D10*
%TO.C,R1*%
X237284000Y-73920400D02*
X237284000Y-74720400D01*
X237284000Y-74720400D02*
X238784000Y-74720400D01*
X238784000Y-73920400D02*
X237284000Y-73920400D01*
X238784000Y-74720400D02*
X238784000Y-73920400D01*
D18*
%TO.C,C7*%
X245223420Y-66850800D02*
X245504580Y-66850800D01*
X245223420Y-67870800D02*
X245504580Y-67870800D01*
%TO.C,U1*%
X195105600Y-61825000D02*
X210705600Y-61825000D01*
X195105600Y-82525000D02*
X195105600Y-61825000D01*
X210705600Y-61825000D02*
X210705600Y-82525000D01*
X210705600Y-82525000D02*
X195105600Y-82525000D01*
X210980600Y-82775000D02*
X208530600Y-82775000D01*
X210980600Y-82775000D02*
X210980600Y-80325000D01*
X211216600Y-75815000D02*
X210880600Y-75575000D01*
X211216600Y-75335000D01*
X211216600Y-75815000D01*
G36*
X211216600Y-75815000D02*
G01*
X210880600Y-75575000D01*
X211216600Y-75335000D01*
X211216600Y-75815000D01*
G37*
%TO.C,Q2*%
X244107600Y-72968200D02*
X244107600Y-76568200D01*
X244107600Y-76568200D02*
X247707600Y-76568200D01*
X247707600Y-72968200D02*
X244107600Y-72968200D01*
X247707600Y-76568200D02*
X247707600Y-72968200D01*
D11*
%TO.C,S1*%
X188933400Y-61024400D02*
X188933400Y-62724400D01*
X188933400Y-62724400D02*
X189433400Y-62724400D01*
X189433400Y-60124400D02*
X189433400Y-61024400D01*
X189433400Y-61024400D02*
X188933400Y-61024400D01*
X189433400Y-62724400D02*
X189433400Y-63624400D01*
X192603400Y-60124400D02*
X192603400Y-63624400D01*
D14*
X191933400Y-58374400D02*
G75*
G02*
X191733400Y-58374400I-100000J0D01*
G01*
X191733400Y-58374400D02*
G75*
G02*
X191933400Y-58374400I100000J0D01*
G01*
D11*
%TO.C,S5*%
X227920200Y-79162800D02*
X231420200Y-79162800D01*
X227920200Y-82332800D02*
X228820200Y-82332800D01*
X228820200Y-82332800D02*
X228820200Y-82832800D01*
X228820200Y-82832800D02*
X230520200Y-82832800D01*
X230520200Y-82332800D02*
X231420200Y-82332800D01*
X230520200Y-82832800D02*
X230520200Y-82332800D01*
D14*
X226270200Y-79932800D02*
G75*
G02*
X226070200Y-79932800I-100000J0D01*
G01*
X226070200Y-79932800D02*
G75*
G02*
X226270200Y-79932800I100000J0D01*
G01*
D10*
%TO.C,R17*%
X204146200Y-59397200D02*
X204146200Y-60897200D01*
X204146200Y-60897200D02*
X204946200Y-60897200D01*
X204946200Y-59397200D02*
X204146200Y-59397200D01*
X204946200Y-60897200D02*
X204946200Y-59397200D01*
D18*
%TO.C,C8*%
X245223420Y-65301400D02*
X245504580Y-65301400D01*
X245223420Y-66321400D02*
X245504580Y-66321400D01*
D13*
%TO.C,J3*%
X241016400Y-78785200D02*
X241016400Y-79894200D01*
X241016400Y-78785200D02*
X242061400Y-78785200D01*
X245903400Y-81685200D02*
X242115400Y-81685200D01*
X247016400Y-78785200D02*
X246029400Y-78785200D01*
X247016400Y-78885200D02*
X247016400Y-79813200D01*
X246390400Y-77666200D02*
G75*
G02*
X246264400Y-77666200I-63000J0D01*
G01*
X246264400Y-77666200D02*
G75*
G02*
X246390400Y-77666200I63000J0D01*
G01*
%TD*%
M02*
