%TF.GenerationSoftware,KiCad,Pcbnew,8.0.1*%
%TF.CreationDate,2024-09-08T05:47:06-06:00*%
%TF.ProjectId,USBHIDKey,55534248-4944-44b6-9579-2e6b69636164,rev?*%
%TF.SameCoordinates,Original*%
%TF.FileFunction,Copper,L1,Top*%
%TF.FilePolarity,Positive*%
%FSLAX46Y46*%
G04 Gerber Fmt 4.6, Leading zero omitted, Abs format (unit mm)*
G04 Created by KiCad (PCBNEW 8.0.1) date 2024-09-08 05:47:06*
%MOMM*%
%LPD*%
G01*
G04 APERTURE LIST*
G04 Aperture macros list*
%AMRoundRect*
0 Rectangle with rounded corners*
0 $1 Rounding radius*
0 $2 $3 $4 $5 $6 $7 $8 $9 X,Y pos of 4 corners*
0 Add a 4 corners polygon primitive as box body*
4,1,4,$2,$3,$4,$5,$6,$7,$8,$9,$2,$3,0*
0 Add four circle primitives for the rounded corners*
1,1,$1+$1,$2,$3*
1,1,$1+$1,$4,$5*
1,1,$1+$1,$6,$7*
1,1,$1+$1,$8,$9*
0 Add four rect primitives between the rounded corners*
20,1,$1+$1,$2,$3,$4,$5,0*
20,1,$1+$1,$4,$5,$6,$7,0*
20,1,$1+$1,$6,$7,$8,$9,0*
20,1,$1+$1,$8,$9,$2,$3,0*%
%AMOutline5P*
0 Free polygon, 5 corners , with rotation*
0 The origin of the aperture is its center*
0 number of corners: always 5*
0 $1 to $10 corner X, Y*
0 $11 Rotation angle, in degrees counterclockwise*
0 create outline with 5 corners*
4,1,5,$1,$2,$3,$4,$5,$6,$7,$8,$9,$10,$1,$2,$11*%
%AMOutline6P*
0 Free polygon, 6 corners , with rotation*
0 The origin of the aperture is its center*
0 number of corners: always 6*
0 $1 to $12 corner X, Y*
0 $13 Rotation angle, in degrees counterclockwise*
0 create outline with 6 corners*
4,1,6,$1,$2,$3,$4,$5,$6,$7,$8,$9,$10,$11,$12,$1,$2,$13*%
%AMOutline7P*
0 Free polygon, 7 corners , with rotation*
0 The origin of the aperture is its center*
0 number of corners: always 7*
0 $1 to $14 corner X, Y*
0 $15 Rotation angle, in degrees counterclockwise*
0 create outline with 7 corners*
4,1,7,$1,$2,$3,$4,$5,$6,$7,$8,$9,$10,$11,$12,$13,$14,$1,$2,$15*%
%AMOutline8P*
0 Free polygon, 8 corners , with rotation*
0 The origin of the aperture is its center*
0 number of corners: always 8*
0 $1 to $16 corner X, Y*
0 $17 Rotation angle, in degrees counterclockwise*
0 create outline with 8 corners*
4,1,8,$1,$2,$3,$4,$5,$6,$7,$8,$9,$10,$11,$12,$13,$14,$15,$16,$1,$2,$17*%
G04 Aperture macros list end*
%TA.AperFunction,SMDPad,CuDef*%
%ADD10RoundRect,0.218750X0.256250X-0.218750X0.256250X0.218750X-0.256250X0.218750X-0.256250X-0.218750X0*%
%TD*%
%TA.AperFunction,SMDPad,CuDef*%
%ADD11RoundRect,0.100000X0.100000X0.575000X-0.100000X0.575000X-0.100000X-0.575000X0.100000X-0.575000X0*%
%TD*%
%TA.AperFunction,ComponentPad*%
%ADD12O,0.900000X1.600000*%
%TD*%
%TA.AperFunction,SMDPad,CuDef*%
%ADD13RoundRect,0.250000X0.550000X0.450000X-0.550000X0.450000X-0.550000X-0.450000X0.550000X-0.450000X0*%
%TD*%
%TA.AperFunction,SMDPad,CuDef*%
%ADD14RoundRect,0.250000X0.700000X0.700000X-0.700000X0.700000X-0.700000X-0.700000X0.700000X-0.700000X0*%
%TD*%
%TA.AperFunction,SMDPad,CuDef*%
%ADD15RoundRect,0.200000X0.200000X-0.250000X0.200000X0.250000X-0.200000X0.250000X-0.200000X-0.250000X0*%
%TD*%
%TA.AperFunction,SMDPad,CuDef*%
%ADD16R,1.050000X1.400000*%
%TD*%
%TA.AperFunction,SMDPad,CuDef*%
%ADD17RoundRect,0.100000X-0.130000X-0.100000X0.130000X-0.100000X0.130000X0.100000X-0.130000X0.100000X0*%
%TD*%
%TA.AperFunction,SMDPad,CuDef*%
%ADD18R,1.400000X1.050000*%
%TD*%
%TA.AperFunction,WasherPad*%
%ADD19C,3.240000*%
%TD*%
%TA.AperFunction,ComponentPad*%
%ADD20O,1.727200X1.727200*%
%TD*%
%TA.AperFunction,SMDPad,CuDef*%
%ADD21RoundRect,0.300000X-0.700000X-0.300000X0.700000X-0.300000X0.700000X0.300000X-0.700000X0.300000X0*%
%TD*%
%TA.AperFunction,ComponentPad*%
%ADD22O,3.200000X1.300000*%
%TD*%
%TA.AperFunction,SMDPad,CuDef*%
%ADD23RoundRect,0.100000X-0.100000X0.130000X-0.100000X-0.130000X0.100000X-0.130000X0.100000X0.130000X0*%
%TD*%
%TA.AperFunction,SMDPad,CuDef*%
%ADD24RoundRect,0.225000X-0.225000X-0.250000X0.225000X-0.250000X0.225000X0.250000X-0.225000X0.250000X0*%
%TD*%
%TA.AperFunction,SMDPad,CuDef*%
%ADD25R,0.800000X0.400000*%
%TD*%
%TA.AperFunction,SMDPad,CuDef*%
%ADD26R,0.400000X0.800000*%
%TD*%
%TA.AperFunction,SMDPad,CuDef*%
%ADD27Outline5P,-0.600000X0.204000X-0.204000X0.600000X0.600000X0.600000X0.600000X-0.600000X-0.600000X-0.600000X180.000000*%
%TD*%
%TA.AperFunction,SMDPad,CuDef*%
%ADD28R,1.200000X1.200000*%
%TD*%
%TA.AperFunction,SMDPad,CuDef*%
%ADD29R,0.800000X0.800000*%
%TD*%
%TA.AperFunction,SMDPad,CuDef*%
%ADD30R,0.600000X1.550000*%
%TD*%
%TA.AperFunction,SMDPad,CuDef*%
%ADD31R,1.200000X1.800000*%
%TD*%
%TA.AperFunction,ViaPad*%
%ADD32C,0.457200*%
%TD*%
%TA.AperFunction,ViaPad*%
%ADD33C,0.711200*%
%TD*%
%TA.AperFunction,Conductor*%
%ADD34C,0.101600*%
%TD*%
%TA.AperFunction,Conductor*%
%ADD35C,0.304800*%
%TD*%
%TA.AperFunction,Conductor*%
%ADD36C,0.200000*%
%TD*%
G04 APERTURE END LIST*
D10*
%TO.P,D9,1,K*%
%TO.N,GND*%
X199567800Y-60198200D03*
%TO.P,D9,2,A*%
%TO.N,Net-(D9-A)*%
X199567800Y-58623200D03*
%TD*%
D11*
%TO.P,J2,1,VBUS*%
%TO.N,VBUS_UART*%
X244862600Y-55380000D03*
%TO.P,J2,2,D-*%
%TO.N,/USB + UART/USB_UART_D-*%
X244212600Y-55380000D03*
%TO.P,J2,3,D+*%
%TO.N,/USB + UART/USB_UART_D+*%
X243562600Y-55380000D03*
%TO.P,J2,4,ID*%
%TO.N,unconnected-(J2-ID-Pad4)*%
X242912600Y-55380000D03*
%TO.P,J2,5,GND*%
%TO.N,GND*%
X242262600Y-55380000D03*
D12*
%TO.P,J2,6,Shield*%
X246862600Y-52705000D03*
D13*
X246762600Y-55155000D03*
D14*
X244762600Y-52705000D03*
X242362600Y-52705000D03*
D13*
X240362600Y-55155000D03*
D12*
X240262600Y-52705000D03*
%TD*%
D15*
%TO.P,Q1,1,B*%
%TO.N,Net-(Q1-B)*%
X241198400Y-75768200D03*
%TO.P,Q1,2,E*%
%TO.N,Net-(Q1-E)*%
X243098400Y-75768200D03*
%TO.P,Q1,3,C*%
%TO.N,EN*%
X242148400Y-73768200D03*
%TD*%
D16*
%TO.P,S2,1*%
%TO.N,GND*%
X191758400Y-68278600D03*
X191758400Y-71878600D03*
%TO.P,S2,2*%
%TO.N,GPIO0*%
X190308400Y-68278600D03*
X190308400Y-71878600D03*
%TD*%
D10*
%TO.P,D8,1,K*%
%TO.N,GND*%
X196977000Y-60198200D03*
%TO.P,D8,2,A*%
%TO.N,Net-(D8-A)*%
X196977000Y-58623200D03*
%TD*%
D17*
%TO.P,R2,1*%
%TO.N,Net-(U2-~{RTS})*%
X237714000Y-75336400D03*
%TO.P,R2,2*%
%TO.N,Net-(Q1-E)*%
X238354000Y-75336400D03*
%TD*%
%TO.P,R4,1*%
%TO.N,+3V3*%
X214868800Y-75717400D03*
%TO.P,R4,2*%
%TO.N,EN*%
X215508800Y-75717400D03*
%TD*%
D18*
%TO.P,S4,1*%
%TO.N,GND*%
X207340200Y-52986600D03*
X203740200Y-52986600D03*
%TO.P,S4,2*%
%TO.N,/ESP32/BTN_RESET*%
X207340200Y-51536600D03*
X203740200Y-51536600D03*
%TD*%
D19*
%TO.P,U6,*%
%TO.N,*%
X236626400Y-80162400D03*
X213452400Y-80162400D03*
D20*
%TO.P,U6,1,CS*%
%TO.N,/ESP32/OLED_CS*%
X232632000Y-52979400D03*
%TO.P,U6,2,DC*%
%TO.N,/ESP32/OLED_DC*%
X230092000Y-52979400D03*
%TO.P,U6,3,RES*%
%TO.N,/ESP32/OLED_RST*%
X227552000Y-52979400D03*
%TO.P,U6,4,SDA*%
%TO.N,/ESP32/OLED_SDA*%
X225012000Y-52979400D03*
%TO.P,U6,5,SCL*%
%TO.N,/ESP32/OLED_SCK*%
X222472000Y-52979400D03*
%TO.P,U6,6,VCC_3V3*%
%TO.N,+3V3*%
X219932000Y-52979400D03*
%TO.P,U6,7,GND*%
%TO.N,GND*%
X217392000Y-52979400D03*
%TD*%
D21*
%TO.P,J1,1,VBUS*%
%TO.N,VBUS*%
X249024000Y-63124200D03*
%TO.P,J1,2,D-*%
%TO.N,USB_D-*%
X249024000Y-65624200D03*
%TO.P,J1,3,D+*%
%TO.N,USB_D+*%
X249024000Y-67624200D03*
%TO.P,J1,4,GND*%
%TO.N,GND*%
X249024000Y-70124200D03*
D22*
%TO.P,J1,5,Shield*%
X251624000Y-60774200D03*
X251624000Y-72474200D03*
%TD*%
D18*
%TO.P,S3,1*%
%TO.N,GND*%
X199313800Y-52959000D03*
X195713800Y-52959000D03*
%TO.P,S3,2*%
%TO.N,/ESP32/BTN_POWER*%
X199313800Y-51509000D03*
X195713800Y-51509000D03*
%TD*%
D23*
%TO.P,R16,1*%
%TO.N,Net-(D8-A)*%
X203377800Y-59827200D03*
%TO.P,R16,2*%
%TO.N,/ESP32/LED_GRN*%
X203377800Y-60467200D03*
%TD*%
D17*
%TO.P,R1,1*%
%TO.N,Net-(Q2-E)*%
X237714000Y-74320400D03*
%TO.P,R1,2*%
%TO.N,Net-(Q1-B)*%
X238354000Y-74320400D03*
%TD*%
D24*
%TO.P,C7,1*%
%TO.N,+3V3*%
X244589000Y-67360800D03*
%TO.P,C7,2*%
%TO.N,GND*%
X246139000Y-67360800D03*
%TD*%
D25*
%TO.P,U1,1,GND*%
%TO.N,GND*%
X209905600Y-75575000D03*
%TO.P,U1,2,GND*%
X209905600Y-74725000D03*
%TO.P,U1,3,3V3*%
%TO.N,+3V3*%
X209905600Y-73875000D03*
%TO.P,U1,4,IO0*%
%TO.N,GPIO0*%
X209905600Y-73025000D03*
%TO.P,U1,5,IO1*%
%TO.N,/ESP32/F_PANEL_HD+*%
X209905600Y-72175000D03*
%TO.P,U1,6,IO2*%
%TO.N,/ESP32/F_PANEL_RST+*%
X209905600Y-71325000D03*
%TO.P,U1,7,IO3*%
%TO.N,/ESP32/F_PANEL_PWR+*%
X209905600Y-70475000D03*
%TO.P,U1,8,IO4*%
%TO.N,/ESP32/OLED_DC*%
X209905600Y-69625000D03*
%TO.P,U1,9,IO5*%
%TO.N,/ESP32/OLED_CS*%
X209905600Y-68775000D03*
%TO.P,U1,10,IO6*%
%TO.N,/ESP32/OLED_SCK*%
X209905600Y-67925000D03*
%TO.P,U1,11,IO7*%
%TO.N,/ESP32/OLED_SDA*%
X209905600Y-67075000D03*
%TO.P,U1,12,IO8*%
%TO.N,/ESP32/OLED_RST*%
X209905600Y-66225000D03*
%TO.P,U1,13,IO9*%
%TO.N,unconnected-(U1-IO9-Pad13)*%
X209905600Y-65375000D03*
%TO.P,U1,14,IO10*%
%TO.N,/ESP32/BTN_RESET*%
X209905600Y-64525000D03*
%TO.P,U1,15,IO11*%
%TO.N,/ESP32/BTN_POWER*%
X209905600Y-63675000D03*
D26*
%TO.P,U1,16,IO12*%
%TO.N,unconnected-(U1-IO12-Pad16)*%
X208855600Y-62625000D03*
%TO.P,U1,17,IO13*%
%TO.N,unconnected-(U1-IO13-Pad17)*%
X208005600Y-62625000D03*
%TO.P,U1,18,IO14*%
%TO.N,/ESP32/BTN_OK*%
X207155600Y-62625000D03*
%TO.P,U1,19,IO15*%
%TO.N,/ESP32/LED_AMBER*%
X206305600Y-62625000D03*
%TO.P,U1,20,IO16*%
%TO.N,/ESP32/LED_GRN*%
X205455600Y-62625000D03*
%TO.P,U1,21,IO17*%
%TO.N,unconnected-(U1-IO17-Pad21)*%
X204605600Y-62625000D03*
%TO.P,U1,22,IO18*%
%TO.N,unconnected-(U1-IO18-Pad22)*%
X203755600Y-62625000D03*
%TO.P,U1,23,IO19*%
%TO.N,USB_D-*%
X202905600Y-62625000D03*
%TO.P,U1,24,IO20*%
%TO.N,USB_D+*%
X202055600Y-62625000D03*
%TO.P,U1,25,IO21*%
%TO.N,unconnected-(U1-IO21-Pad25)*%
X201205600Y-62625000D03*
%TO.P,U1,26,IO26*%
%TO.N,unconnected-(U1-IO26-Pad26)*%
X200355600Y-62625000D03*
%TO.P,U1,27,IO47*%
%TO.N,unconnected-(U1-IO47-Pad27)*%
X199505600Y-62625000D03*
%TO.P,U1,28,IO33*%
%TO.N,unconnected-(U1-IO33-Pad28)*%
X198655600Y-62625000D03*
%TO.P,U1,29,IO34*%
%TO.N,unconnected-(U1-IO34-Pad29)*%
X197805600Y-62625000D03*
%TO.P,U1,30,IO48*%
%TO.N,unconnected-(U1-IO48-Pad30)*%
X196955600Y-62625000D03*
D25*
%TO.P,U1,31,IO35*%
%TO.N,unconnected-(U1-IO35-Pad31)*%
X195905600Y-63675000D03*
%TO.P,U1,32,IO36*%
%TO.N,unconnected-(U1-IO36-Pad32)*%
X195905600Y-64525000D03*
%TO.P,U1,33,IO37*%
%TO.N,unconnected-(U1-IO37-Pad33)*%
X195905600Y-65375000D03*
%TO.P,U1,34,IO38*%
%TO.N,unconnected-(U1-IO38-Pad34)*%
X195905600Y-66225000D03*
%TO.P,U1,35,IO39*%
%TO.N,unconnected-(U1-IO39-Pad35)*%
X195905600Y-67075000D03*
%TO.P,U1,36,IO40*%
%TO.N,unconnected-(U1-IO40-Pad36)*%
X195905600Y-67925000D03*
%TO.P,U1,37,IO41*%
%TO.N,unconnected-(U1-IO41-Pad37)*%
X195905600Y-68775000D03*
%TO.P,U1,38,IO42*%
%TO.N,unconnected-(U1-IO42-Pad38)*%
X195905600Y-69625000D03*
%TO.P,U1,39,TXD0*%
%TO.N,TXD*%
X195905600Y-70475000D03*
%TO.P,U1,40,RXD0*%
%TO.N,RXD*%
X195905600Y-71325000D03*
%TO.P,U1,41,IO45*%
%TO.N,unconnected-(U1-IO45-Pad41)*%
X195905600Y-72175000D03*
%TO.P,U1,42,GND*%
%TO.N,GND*%
X195905600Y-73025000D03*
%TO.P,U1,43,GND*%
X195905600Y-73875000D03*
%TO.P,U1,44,IO46*%
%TO.N,unconnected-(U1-IO46-Pad44)*%
X195905600Y-74725000D03*
%TO.P,U1,45,EN*%
%TO.N,EN*%
X195905600Y-75575000D03*
D26*
%TO.P,U1,46,GND*%
%TO.N,GND*%
X196955600Y-76625000D03*
%TO.P,U1,47,GND*%
X197805600Y-76625000D03*
%TO.P,U1,48,GND*%
X198655600Y-76625000D03*
%TO.P,U1,49,GND*%
X199505600Y-76625000D03*
%TO.P,U1,50,GND*%
X200355600Y-76625000D03*
%TO.P,U1,51,GND*%
X201205600Y-76625000D03*
%TO.P,U1,52,GND*%
X202055600Y-76625000D03*
%TO.P,U1,53,GND*%
X202905600Y-76625000D03*
%TO.P,U1,54,GND*%
X203755600Y-76625000D03*
%TO.P,U1,55,GND*%
X204605600Y-76625000D03*
%TO.P,U1,56,GND*%
X205455600Y-76625000D03*
%TO.P,U1,57,GND*%
X206305600Y-76625000D03*
%TO.P,U1,58,GND*%
X207155600Y-76625000D03*
%TO.P,U1,59,GND*%
X208005600Y-76625000D03*
%TO.P,U1,60,GND*%
X208855600Y-76625000D03*
D27*
%TO.P,U1,61,GND*%
X204555600Y-71275000D03*
D28*
X204555600Y-69625000D03*
X204555600Y-67975000D03*
X202905600Y-71275000D03*
X202905600Y-69625000D03*
X202905600Y-67975000D03*
X201255600Y-71275000D03*
X201255600Y-69625000D03*
X201255600Y-67975000D03*
D29*
%TO.P,U1,62,GND*%
X209905600Y-76625000D03*
%TO.P,U1,63,GND*%
X209905600Y-62625000D03*
%TO.P,U1,64,GND*%
X195905600Y-62625000D03*
%TO.P,U1,65,GND*%
X195905600Y-76625000D03*
%TD*%
D15*
%TO.P,Q2,1,B*%
%TO.N,Net-(Q1-E)*%
X244957600Y-75768200D03*
%TO.P,Q2,2,E*%
%TO.N,Net-(Q2-E)*%
X246857600Y-75768200D03*
%TO.P,Q2,3,C*%
%TO.N,GPIO0*%
X245907600Y-73768200D03*
%TD*%
D16*
%TO.P,S1,1*%
%TO.N,GND*%
X191758400Y-60074400D03*
X191758400Y-63674400D03*
%TO.P,S1,2*%
%TO.N,EN*%
X190308400Y-60074400D03*
X190308400Y-63674400D03*
%TD*%
D18*
%TO.P,S5,1*%
%TO.N,GND*%
X227870200Y-80007800D03*
X231470200Y-80007800D03*
%TO.P,S5,2*%
%TO.N,/ESP32/BTN_OK*%
X227870200Y-81457800D03*
X231470200Y-81457800D03*
%TD*%
D23*
%TO.P,R17,1*%
%TO.N,Net-(D9-A)*%
X204546200Y-59827200D03*
%TO.P,R17,2*%
%TO.N,/ESP32/LED_AMBER*%
X204546200Y-60467200D03*
%TD*%
D24*
%TO.P,C8,1*%
%TO.N,+3V3*%
X244589000Y-65811400D03*
%TO.P,C8,2*%
%TO.N,GND*%
X246139000Y-65811400D03*
%TD*%
D30*
%TO.P,J3,1,1*%
%TO.N,/ESP32/F_PANEL_PWR+*%
X245516400Y-78435200D03*
%TO.P,J3,2,2*%
%TO.N,/ESP32/F_PANEL_RST+*%
X244516400Y-78435200D03*
%TO.P,J3,3,3*%
%TO.N,/ESP32/F_PANEL_HD+*%
X243516400Y-78435200D03*
%TO.P,J3,4,4*%
%TO.N,unconnected-(J3-Pad4)*%
X242516400Y-78435200D03*
D31*
%TO.P,J3,5*%
%TO.N,N/C*%
X246816400Y-80960200D03*
%TO.P,J3,6*%
X241216400Y-80960200D03*
%TD*%
D32*
%TO.N,GND*%
X236321600Y-65614600D03*
X245668800Y-64770000D03*
X235000800Y-65862200D03*
X208584800Y-53035200D03*
X236829600Y-65614600D03*
X235813600Y-65614600D03*
X201015600Y-52425600D03*
X235000800Y-65252600D03*
X234315000Y-66522600D03*
X247751600Y-72212200D03*
X233146600Y-80035400D03*
X234975400Y-66522600D03*
%TO.N,+3V3*%
X235051600Y-68580000D03*
X245567200Y-58191400D03*
D33*
X217855800Y-63754000D03*
X229514400Y-63754000D03*
D32*
X248412000Y-73075800D03*
X244944900Y-64528700D03*
D33*
X213842600Y-74803000D03*
D32*
X231851200Y-63703200D03*
%TO.N,+5V*%
X238633000Y-67945000D03*
X238633000Y-64109600D03*
%TO.N,VBUS*%
X248996200Y-61747400D03*
%TO.N,VBUS_UART*%
X247446800Y-57937400D03*
X244856529Y-63728600D03*
%TO.N,USB_D+*%
X202057000Y-63627000D03*
X250596400Y-67640200D03*
X214858600Y-70916800D03*
%TO.N,USB_D-*%
X214833200Y-70332600D03*
X250850400Y-65608200D03*
X202920600Y-63652400D03*
%TO.N,/USB + UART/USB_UART_D+*%
X243560600Y-57886600D03*
X243560600Y-64338200D03*
%TO.N,/USB + UART/USB_UART_D-*%
X244221000Y-57886600D03*
X244195600Y-64363600D03*
%TO.N,EN*%
X194691000Y-75514200D03*
X240182400Y-78689200D03*
X242112800Y-74752200D03*
X190296800Y-65074800D03*
%TO.N,GPIO0*%
X208838800Y-73025000D03*
X240715800Y-78155800D03*
X244627400Y-74726800D03*
X190347600Y-73558400D03*
%TO.N,Net-(Q2-E)*%
X248208800Y-76174600D03*
X236956600Y-74320400D03*
X239725200Y-69316600D03*
%TO.N,Net-(U2-~{RTS})*%
X236956600Y-75336400D03*
X239395000Y-71399400D03*
%TO.N,/ESP32/OLED_SDA*%
X223012000Y-55803800D03*
X221894400Y-55803800D03*
%TO.N,/ESP32/OLED_RST*%
X220903800Y-55803800D03*
X224790000Y-55803800D03*
%TO.N,/ESP32/OLED_CS*%
X228193600Y-55803800D03*
X226288600Y-55803800D03*
%TO.N,/Power/PG*%
X237845600Y-64897000D03*
X229489000Y-65303400D03*
%TO.N,/ESP32/BTN_OK*%
X212039200Y-75615800D03*
X207695800Y-66929000D03*
X207695800Y-74853800D03*
%TO.N,TXD*%
X197154800Y-70459600D03*
X214884000Y-71958200D03*
X238734600Y-71958200D03*
%TO.N,RXD*%
X197180200Y-71348600D03*
X238099600Y-72644000D03*
X214884000Y-72644000D03*
%TD*%
D34*
%TO.N,GND*%
X199313800Y-52959000D02*
X200380600Y-52959000D01*
X200380600Y-52959000D02*
X201015600Y-52425600D01*
X231470200Y-80007800D02*
X231142800Y-80335200D01*
X233119000Y-80007800D02*
X233146600Y-80035400D01*
X201015600Y-52425600D02*
X200939400Y-52400200D01*
X207340200Y-52986600D02*
X207012800Y-52659200D01*
X228197600Y-80335200D02*
X227870200Y-80007800D01*
X231470200Y-80007800D02*
X233119000Y-80007800D01*
X231142800Y-80335200D02*
X228197600Y-80335200D01*
X208536200Y-52986600D02*
X208584800Y-53035200D01*
X207340200Y-52986600D02*
X208536200Y-52986600D01*
D35*
X242262600Y-56446800D02*
X242262600Y-53871800D01*
X242262600Y-53871800D02*
X242362600Y-53771800D01*
D34*
X204067600Y-52659200D02*
X203740200Y-52986600D01*
X207012800Y-52659200D02*
X204067600Y-52659200D01*
%TO.N,+3V3*%
X244589000Y-64884600D02*
X244589000Y-67360800D01*
D35*
X212914600Y-73875000D02*
X209905600Y-73875000D01*
D34*
X214868800Y-75717400D02*
X214757000Y-75717400D01*
X217855800Y-63754000D02*
X217855800Y-56311800D01*
X245287800Y-58470800D02*
X245287800Y-64185800D01*
X245287800Y-64185800D02*
X244944900Y-64528700D01*
X245567200Y-58191400D02*
X245287800Y-58470800D01*
X214757000Y-75717400D02*
X213842600Y-74803000D01*
X244944900Y-64528700D02*
X244589000Y-64884600D01*
X244982400Y-65811400D02*
X244982400Y-65456400D01*
D35*
X213842600Y-74803000D02*
X212914600Y-73875000D01*
D34*
X217855800Y-56311800D02*
X219932000Y-54235600D01*
X219932000Y-54235600D02*
X219932000Y-52979400D01*
%TO.N,+5V*%
X238633000Y-67945000D02*
X238633000Y-64109600D01*
D35*
%TO.N,VBUS*%
X249026564Y-61747400D02*
X248996200Y-61747400D01*
X248996200Y-61717036D02*
X249001164Y-61722000D01*
X248996200Y-61747400D02*
X248996200Y-61717036D01*
X249024000Y-61744836D02*
X249026564Y-61747400D01*
X249024000Y-63124200D02*
X249024000Y-61744836D01*
D34*
%TO.N,VBUS_UART*%
X244856529Y-63728600D02*
X244862600Y-63734671D01*
D35*
X247446800Y-57937400D02*
X247472200Y-57912000D01*
D34*
X244862600Y-55380000D02*
X244862600Y-63722529D01*
D35*
X247420000Y-57937400D02*
X247446800Y-57937400D01*
D34*
X244862600Y-63722529D02*
X244856529Y-63728600D01*
D35*
X244862600Y-55380000D02*
X247420000Y-57937400D01*
D34*
%TO.N,USB_D+*%
X202055600Y-63625600D02*
X202055600Y-63498600D01*
D36*
X250545600Y-67640200D02*
X250596400Y-67640200D01*
X249024000Y-67624200D02*
X250561600Y-67624200D01*
D34*
X202057000Y-63627000D02*
X202055600Y-63625600D01*
D36*
X214858600Y-70916800D02*
X214985600Y-70916800D01*
D34*
X202055600Y-62625000D02*
X202055600Y-63625600D01*
D36*
X250561600Y-67624200D02*
X250545600Y-67640200D01*
X249024000Y-67624200D02*
X245731400Y-70916800D01*
X245731400Y-70916800D02*
X214858600Y-70916800D01*
X250596400Y-67640200D02*
X250596400Y-67589400D01*
%TO.N,USB_D-*%
X214807800Y-70332600D02*
X214782400Y-70307200D01*
X249024000Y-65624200D02*
X244290200Y-70358000D01*
X214833200Y-70358000D02*
X214833200Y-70332600D01*
X214833200Y-70332600D02*
X214807800Y-70332600D01*
D34*
X202920600Y-63652400D02*
X202895200Y-63627000D01*
X202920600Y-63530000D02*
X202905600Y-63515000D01*
D36*
X244290200Y-70358000D02*
X243459000Y-70358000D01*
X249024000Y-65624200D02*
X250748800Y-65624200D01*
X214833200Y-70358000D02*
X214833200Y-70358000D01*
X250850400Y-65608200D02*
X250850400Y-65532000D01*
X250926600Y-65608200D02*
X250850400Y-65608200D01*
X250942600Y-65624200D02*
X250926600Y-65608200D01*
X243459000Y-70358000D02*
X214833200Y-70358000D01*
D34*
X202905600Y-63515000D02*
X202905600Y-62625000D01*
X202895200Y-63627000D02*
X202895200Y-63525400D01*
X202920600Y-63652400D02*
X202920600Y-63530000D01*
%TO.N,Net-(D8-A)*%
X199974200Y-59385200D02*
X197739000Y-59385200D01*
X203327000Y-59152000D02*
X203377800Y-59202800D01*
X203327000Y-59152000D02*
X200207400Y-59152000D01*
X203327000Y-59156200D02*
X203327000Y-59152000D01*
X200207400Y-59152000D02*
X199974200Y-59385200D01*
X197739000Y-59385200D02*
X196977000Y-58623200D01*
X203377800Y-59202800D02*
X203377800Y-59827200D01*
%TO.N,Net-(D9-A)*%
X204546200Y-59334400D02*
X203606400Y-58394600D01*
X204546200Y-59827200D02*
X204546200Y-59334400D01*
X203606400Y-58394600D02*
X199821700Y-58394600D01*
X199821700Y-58394600D02*
X199567800Y-58648500D01*
%TO.N,/USB + UART/USB_UART_D+*%
X243562600Y-55380000D02*
X243560600Y-55382000D01*
X243560600Y-57886600D02*
X243560600Y-64338200D01*
X243560600Y-55382000D02*
X243560600Y-57886600D01*
X243560600Y-64338200D02*
X243562600Y-64234600D01*
%TO.N,/USB + UART/USB_UART_D-*%
X244221000Y-57886600D02*
X244195600Y-64363600D01*
X244195600Y-64363600D02*
X244212600Y-64253600D01*
X244212600Y-55380000D02*
X244221000Y-55388400D01*
X244221000Y-55388400D02*
X244221000Y-57886600D01*
%TO.N,/ESP32/F_PANEL_RST+*%
X230124000Y-75666600D02*
X230911400Y-76454000D01*
X239310832Y-77063600D02*
X243619800Y-77063600D01*
X230911400Y-76454000D02*
X238701232Y-76454000D01*
X243619800Y-77063600D02*
X244516400Y-77960200D01*
X214299800Y-73025000D02*
X216941400Y-75666600D01*
X244516400Y-77960200D02*
X244516400Y-78435200D01*
X216941400Y-75666600D02*
X230124000Y-75666600D01*
X211605600Y-73025000D02*
X214299800Y-73025000D01*
X209905600Y-71325000D02*
X211605600Y-73025000D01*
X238701232Y-76454000D02*
X239310832Y-77063600D01*
%TO.N,/ESP32/F_PANEL_HD+*%
X216941400Y-76047600D02*
X229971600Y-76047600D01*
X242848400Y-77292200D02*
X243516400Y-77960200D01*
X230708200Y-76784200D02*
X238599632Y-76784200D01*
X214249000Y-73355200D02*
X216941400Y-76047600D01*
X238599632Y-76784200D02*
X239107632Y-77292200D01*
X239107632Y-77292200D02*
X242848400Y-77292200D01*
X229971600Y-76047600D02*
X230708200Y-76784200D01*
X243516400Y-77960200D02*
X243516400Y-78435200D01*
X209905600Y-72175000D02*
X211085800Y-73355200D01*
X211085800Y-73355200D02*
X214249000Y-73355200D01*
%TO.N,EN*%
X197236400Y-74244200D02*
X212064600Y-74244200D01*
X212064600Y-74244200D02*
X214604600Y-76784200D01*
X242148400Y-73768200D02*
X242148400Y-74716600D01*
X230276400Y-77470000D02*
X238379000Y-77470000D01*
X238709200Y-77800200D02*
X239877600Y-77800200D01*
X215508800Y-76108600D02*
X214833200Y-76784200D01*
X214833200Y-76784200D02*
X214731600Y-76784200D01*
X190308400Y-63674400D02*
X190308400Y-65063200D01*
X195905600Y-75575000D02*
X197236400Y-74244200D01*
X190635800Y-63347000D02*
X190308400Y-63674400D01*
X240182400Y-78689200D02*
X240182400Y-78562200D01*
X242148400Y-74716600D02*
X242112800Y-74752200D01*
X190635800Y-60401800D02*
X190635800Y-63347000D01*
X194751800Y-75575000D02*
X194691000Y-75514200D01*
X190308400Y-65063200D02*
X190296800Y-65074800D01*
X214731600Y-76784200D02*
X229590600Y-76784200D01*
X229590600Y-76784200D02*
X230276400Y-77470000D01*
X195905600Y-75575000D02*
X194751800Y-75575000D01*
X190308400Y-60074400D02*
X190635800Y-60401800D01*
X238379000Y-77470000D02*
X238709200Y-77800200D01*
X239877600Y-77800200D02*
X240182400Y-78105000D01*
X214604600Y-76784200D02*
X214731600Y-76784200D01*
X240182400Y-78105000D02*
X240182400Y-78689200D01*
X215508800Y-75717400D02*
X215508800Y-76108600D01*
%TO.N,Net-(Q1-B)*%
X238354000Y-74320400D02*
X239750600Y-74320400D01*
X239750600Y-74320400D02*
X241198400Y-75768200D01*
%TO.N,GPIO0*%
X238887000Y-77546200D02*
X240106200Y-77546200D01*
X209981800Y-73025000D02*
X210515200Y-73558400D01*
X245586000Y-73768200D02*
X244627400Y-74726800D01*
X229743000Y-76403200D02*
X230479600Y-77139800D01*
X209905600Y-73025000D02*
X209981800Y-73025000D01*
X190635800Y-71551200D02*
X190308400Y-71878600D01*
X190308400Y-68278600D02*
X190635800Y-68606000D01*
X214083900Y-73558400D02*
X216928700Y-76403200D01*
X208838800Y-73025000D02*
X208864200Y-73025000D01*
X245907600Y-73768200D02*
X245586000Y-73768200D01*
X216928700Y-76403200D02*
X229743000Y-76403200D01*
X230479600Y-77139800D02*
X238480600Y-77139800D01*
X210515200Y-73558400D02*
X214083900Y-73558400D01*
X190308400Y-73519200D02*
X190347600Y-73558400D01*
X240106200Y-77546200D02*
X240715800Y-78155800D01*
X238480600Y-77139800D02*
X238887000Y-77546200D01*
X190308400Y-71878600D02*
X190308400Y-73519200D01*
X240715800Y-78155800D02*
X240715800Y-78105000D01*
X190635800Y-68606000D02*
X190635800Y-71551200D01*
X209905600Y-73025000D02*
X208838800Y-73025000D01*
%TO.N,Net-(Q2-E)*%
X236956600Y-74320400D02*
X237714000Y-74320400D01*
X246857600Y-75768200D02*
X247802400Y-75768200D01*
X247802400Y-75768200D02*
X248208800Y-76174600D01*
%TO.N,Net-(U2-~{RTS})*%
X236956600Y-75336400D02*
X237032800Y-75336400D01*
X237714000Y-75336400D02*
X236956600Y-75336400D01*
%TO.N,/ESP32/F_PANEL_PWR+*%
X231114600Y-76149200D02*
X230225600Y-75260200D01*
X238810800Y-76149200D02*
X231114600Y-76149200D01*
X244391200Y-76835000D02*
X239496600Y-76835000D01*
X214274400Y-72644000D02*
X212064600Y-72644000D01*
X209905600Y-70485000D02*
X209905600Y-70475000D01*
X239496600Y-76835000D02*
X238810800Y-76149200D01*
X230225600Y-75260200D02*
X216890600Y-75260200D01*
X216890600Y-75260200D02*
X214274400Y-72644000D01*
X212064600Y-72644000D02*
X209905600Y-70485000D01*
X245516400Y-77960200D02*
X244391200Y-76835000D01*
X245516400Y-78435200D02*
X245516400Y-77960200D01*
%TO.N,Net-(Q1-E)*%
X238354000Y-75336400D02*
X239388200Y-76370600D01*
X243098400Y-75768200D02*
X244957600Y-75768200D01*
X239388200Y-76370600D02*
X242496000Y-76370600D01*
X242496000Y-76370600D02*
X243098400Y-75768200D01*
%TO.N,/ESP32/LED_GRN*%
X203885800Y-61518800D02*
X204349400Y-61518800D01*
X203377800Y-61010800D02*
X203885800Y-61518800D01*
X204349400Y-61518800D02*
X205455600Y-62625000D01*
X203377800Y-60467200D02*
X203377800Y-61010800D01*
%TO.N,/ESP32/LED_AMBER*%
X204546200Y-60467200D02*
X206305600Y-62226600D01*
X206305600Y-62226600D02*
X206305600Y-62625000D01*
%TO.N,/ESP32/BTN_POWER*%
X202666600Y-54686200D02*
X210896200Y-54686200D01*
X199313800Y-51509000D02*
X201470600Y-51509000D01*
X211150200Y-63500000D02*
X210975200Y-63675000D01*
X195713800Y-51509000D02*
X196041200Y-51836400D01*
X202031600Y-54051200D02*
X202666600Y-54686200D01*
X210975200Y-63675000D02*
X209905600Y-63675000D01*
X201470600Y-51509000D02*
X202031600Y-52070000D01*
X198986400Y-51836400D02*
X199313800Y-51509000D01*
X196041200Y-51836400D02*
X198986400Y-51836400D01*
X211150200Y-54940200D02*
X211150200Y-63500000D01*
X210896200Y-54686200D02*
X211150200Y-54940200D01*
X202031600Y-52070000D02*
X202031600Y-54051200D01*
%TO.N,/ESP32/BTN_RESET*%
X210988800Y-64525000D02*
X209905600Y-64525000D01*
X210388200Y-51536600D02*
X211632800Y-52781200D01*
X211632800Y-52781200D02*
X211632800Y-63881000D01*
X207340200Y-51536600D02*
X210388200Y-51536600D01*
X204067600Y-51864000D02*
X207012800Y-51864000D01*
X203740200Y-51536600D02*
X204067600Y-51864000D01*
X211632800Y-63881000D02*
X210988800Y-64525000D01*
X207012800Y-51864000D02*
X207340200Y-51536600D01*
%TO.N,/ESP32/OLED_SDA*%
X223520000Y-55803800D02*
X225012000Y-54311800D01*
X221615000Y-65049400D02*
X221615000Y-56083200D01*
X209905600Y-67075000D02*
X219589400Y-67075000D01*
X223012000Y-55803800D02*
X223520000Y-55803800D01*
X221615000Y-56083200D02*
X221894400Y-55803800D01*
X225012000Y-54311800D02*
X225012000Y-52979400D01*
X219589400Y-67075000D02*
X221615000Y-65049400D01*
%TO.N,/ESP32/OLED_RST*%
X220573600Y-64719200D02*
X220573600Y-56108600D01*
X219031400Y-66225000D02*
X219049600Y-66243200D01*
X224790000Y-55803800D02*
X225171000Y-55803800D01*
X225171000Y-55803800D02*
X227552000Y-53422800D01*
X220878400Y-55803800D02*
X220903800Y-55803800D01*
X220903800Y-55778400D02*
X220853000Y-55829200D01*
X219125800Y-66167000D02*
X220573600Y-64719200D01*
X220903800Y-55803800D02*
X220903800Y-55778400D01*
X220573600Y-56108600D02*
X220878400Y-55803800D01*
X209905600Y-66225000D02*
X219031400Y-66225000D01*
X219049600Y-66243200D02*
X219125800Y-66167000D01*
X227552000Y-53422800D02*
X227552000Y-52979400D01*
%TO.N,/ESP32/OLED_CS*%
X232632000Y-52979400D02*
X229782200Y-55829200D01*
X223240600Y-58826400D02*
X226263200Y-55803800D01*
X226288600Y-55778400D02*
X226263200Y-55803800D01*
X226263200Y-55803800D02*
X226288600Y-55803800D01*
X223240600Y-66471800D02*
X223240600Y-63068200D01*
X220937400Y-68775000D02*
X223164400Y-66548000D01*
X228244400Y-55829200D02*
X228193600Y-55778400D01*
X223240600Y-63068200D02*
X223240600Y-58826400D01*
X223164400Y-66548000D02*
X223240600Y-66471800D01*
X226288600Y-55803800D02*
X226288600Y-55778400D01*
X209905600Y-68775000D02*
X220937400Y-68775000D01*
X229782200Y-55829200D02*
X228244400Y-55829200D01*
%TO.N,/ESP32/OLED_DC*%
X229031800Y-54039600D02*
X230092000Y-52979400D01*
X221382800Y-69625000D02*
X224104200Y-66903600D01*
X229031800Y-54076600D02*
X229031800Y-54039600D01*
X224104200Y-59004200D02*
X229031800Y-54076600D01*
X224104200Y-66903600D02*
X224104200Y-59004200D01*
X209905600Y-69625000D02*
X221382800Y-69625000D01*
%TO.N,/ESP32/OLED_SCK*%
X222472000Y-65741800D02*
X222472000Y-52979400D01*
X209905600Y-67925000D02*
X220288800Y-67925000D01*
X220288800Y-67925000D02*
X222472000Y-65741800D01*
%TO.N,/ESP32/BTN_OK*%
X231142800Y-81130400D02*
X231470200Y-81457800D01*
X227870200Y-81457800D02*
X228197600Y-81130400D01*
X227870200Y-81457800D02*
X226745800Y-81457800D01*
X207155600Y-66388800D02*
X207155600Y-62625000D01*
X207695800Y-66929000D02*
X207155600Y-66388800D01*
X225907600Y-77292200D02*
X225729800Y-77114400D01*
X226745800Y-81457800D02*
X225907600Y-80619600D01*
X225907600Y-80619600D02*
X225907600Y-77292200D01*
X228197600Y-81130400D02*
X231142800Y-81130400D01*
X213537800Y-77114400D02*
X212039200Y-75615800D01*
X225729800Y-77114400D02*
X213537800Y-77114400D01*
%TO.N,TXD*%
X214884000Y-71958200D02*
X214909400Y-71958200D01*
X195905600Y-70475000D02*
X197139400Y-70475000D01*
X238734600Y-71958200D02*
X214884000Y-71958200D01*
X197139400Y-70475000D02*
X197154800Y-70459600D01*
%TO.N,RXD*%
X214960200Y-72644000D02*
X214909400Y-72593200D01*
X195905600Y-71325000D02*
X197156600Y-71325000D01*
X197156600Y-71325000D02*
X197180200Y-71348600D01*
X238099600Y-72644000D02*
X214960200Y-72644000D01*
%TD*%
%TA.AperFunction,Conductor*%
%TO.N,GND*%
G36*
X229377921Y-77355185D02*
G01*
X229398563Y-77371819D01*
X229937894Y-77911150D01*
X230063606Y-77983730D01*
X230203820Y-78021300D01*
X230348981Y-78021300D01*
X235636459Y-78021300D01*
X235703498Y-78040985D01*
X235749253Y-78093789D01*
X235759197Y-78162947D01*
X235730172Y-78226503D01*
X235685861Y-78259034D01*
X235648553Y-78275238D01*
X235400695Y-78425964D01*
X235175671Y-78609034D01*
X235175665Y-78609039D01*
X235175664Y-78609041D01*
X234977661Y-78821051D01*
X234928457Y-78890756D01*
X234810370Y-79058047D01*
X234676908Y-79315617D01*
X234579764Y-79588953D01*
X234579759Y-79588969D01*
X234520742Y-79872981D01*
X234520741Y-79872983D01*
X234500945Y-80162400D01*
X234520741Y-80451816D01*
X234520742Y-80451818D01*
X234579759Y-80735830D01*
X234579764Y-80735846D01*
X234676908Y-81009182D01*
X234676909Y-81009184D01*
X234810370Y-81266752D01*
X234977661Y-81503749D01*
X235175664Y-81715759D01*
X235400692Y-81898833D01*
X235400694Y-81898834D01*
X235400695Y-81898835D01*
X235542966Y-81985352D01*
X235590018Y-82037003D01*
X235601676Y-82105894D01*
X235574239Y-82170151D01*
X235516417Y-82209373D01*
X235478538Y-82215300D01*
X232788896Y-82215300D01*
X232721857Y-82195615D01*
X232676102Y-82142811D01*
X232665607Y-82078045D01*
X232666603Y-82068774D01*
X232670700Y-82030673D01*
X232670699Y-80884928D01*
X232664291Y-80825317D01*
X232645680Y-80775418D01*
X232640695Y-80705727D01*
X232645680Y-80688749D01*
X232663797Y-80640175D01*
X232663798Y-80640172D01*
X232670199Y-80580644D01*
X232670200Y-80580627D01*
X232670200Y-80257800D01*
X231344200Y-80257800D01*
X231277161Y-80238115D01*
X231231406Y-80185311D01*
X231220200Y-80133800D01*
X231220200Y-78982800D01*
X231720200Y-78982800D01*
X231720200Y-79757800D01*
X232670200Y-79757800D01*
X232670200Y-79434972D01*
X232670199Y-79434955D01*
X232663798Y-79375427D01*
X232663796Y-79375420D01*
X232613554Y-79240713D01*
X232613550Y-79240706D01*
X232527390Y-79125612D01*
X232527387Y-79125609D01*
X232412293Y-79039449D01*
X232412286Y-79039445D01*
X232277579Y-78989203D01*
X232277572Y-78989201D01*
X232218044Y-78982800D01*
X231720200Y-78982800D01*
X231220200Y-78982800D01*
X230722355Y-78982800D01*
X230662827Y-78989201D01*
X230662820Y-78989203D01*
X230528113Y-79039445D01*
X230528106Y-79039449D01*
X230413012Y-79125609D01*
X230413009Y-79125612D01*
X230326849Y-79240706D01*
X230326845Y-79240713D01*
X230276603Y-79375420D01*
X230276601Y-79375427D01*
X230270200Y-79434955D01*
X230270200Y-79505055D01*
X230250515Y-79572094D01*
X230197711Y-79617849D01*
X230128553Y-79627793D01*
X230064997Y-79598768D01*
X230038814Y-79567057D01*
X230031972Y-79555207D01*
X230031968Y-79555202D01*
X229947797Y-79471031D01*
X229947792Y-79471027D01*
X229844706Y-79411511D01*
X229844705Y-79411510D01*
X229815958Y-79403807D01*
X229729720Y-79380700D01*
X229610680Y-79380700D01*
X229541689Y-79399186D01*
X229495694Y-79411510D01*
X229495693Y-79411511D01*
X229392607Y-79471027D01*
X229392602Y-79471031D01*
X229308431Y-79555202D01*
X229308427Y-79555207D01*
X229301586Y-79567057D01*
X229251018Y-79615272D01*
X229182411Y-79628493D01*
X229117547Y-79602524D01*
X229077019Y-79545609D01*
X229070200Y-79505055D01*
X229070200Y-79434972D01*
X229070199Y-79434955D01*
X229063798Y-79375427D01*
X229063796Y-79375420D01*
X229013554Y-79240713D01*
X229013550Y-79240706D01*
X228927390Y-79125612D01*
X228927387Y-79125609D01*
X228812293Y-79039449D01*
X228812286Y-79039445D01*
X228677579Y-78989203D01*
X228677572Y-78989201D01*
X228618044Y-78982800D01*
X228120200Y-78982800D01*
X228120200Y-80133800D01*
X228100515Y-80200839D01*
X228047711Y-80246594D01*
X227996200Y-80257800D01*
X227744200Y-80257800D01*
X227677161Y-80238115D01*
X227631406Y-80185311D01*
X227620200Y-80133800D01*
X227620200Y-78982800D01*
X227122355Y-78982800D01*
X227062827Y-78989201D01*
X227062820Y-78989203D01*
X226928113Y-79039445D01*
X226928106Y-79039449D01*
X226813012Y-79125609D01*
X226813009Y-79125612D01*
X226726849Y-79240706D01*
X226726845Y-79240713D01*
X226699082Y-79315151D01*
X226657211Y-79371085D01*
X226591746Y-79395502D01*
X226523473Y-79380650D01*
X226474068Y-79331245D01*
X226458900Y-79271818D01*
X226458900Y-77459500D01*
X226478585Y-77392461D01*
X226531389Y-77346706D01*
X226582900Y-77335500D01*
X229310882Y-77335500D01*
X229377921Y-77355185D01*
G37*
%TD.AperFunction*%
%TA.AperFunction,Conductor*%
G36*
X251476066Y-50997985D02*
G01*
X251521821Y-51050789D01*
X251531765Y-51119947D01*
X251502740Y-51183503D01*
X251496708Y-51189981D01*
X251355589Y-51331099D01*
X251355589Y-51331100D01*
X251355587Y-51331102D01*
X251311301Y-51392056D01*
X251207361Y-51535116D01*
X251092877Y-51759802D01*
X251014949Y-51999640D01*
X251002555Y-52077894D01*
X250975500Y-52248712D01*
X250975500Y-52500888D01*
X251010237Y-52720206D01*
X251014949Y-52749959D01*
X251092877Y-52989797D01*
X251196680Y-53193520D01*
X251207361Y-53214483D01*
X251355587Y-53418498D01*
X251533902Y-53596813D01*
X251737917Y-53745039D01*
X251808705Y-53781107D01*
X251962602Y-53859522D01*
X251962604Y-53859522D01*
X251962607Y-53859524D01*
X252202441Y-53937451D01*
X252451512Y-53976900D01*
X252451513Y-53976900D01*
X252703687Y-53976900D01*
X252703688Y-53976900D01*
X252952759Y-53937451D01*
X253192593Y-53859524D01*
X253417283Y-53745039D01*
X253621298Y-53596813D01*
X253787819Y-53430292D01*
X253849142Y-53396807D01*
X253918834Y-53401791D01*
X253974767Y-53443663D01*
X253999184Y-53509127D01*
X253999500Y-53517973D01*
X253999500Y-79679627D01*
X253979815Y-79746666D01*
X253927011Y-79792421D01*
X253857853Y-79802365D01*
X253794297Y-79773340D01*
X253787819Y-79767308D01*
X253621300Y-79600789D01*
X253621298Y-79600787D01*
X253417283Y-79452561D01*
X253382763Y-79434972D01*
X253192597Y-79338077D01*
X252952759Y-79260149D01*
X252830045Y-79240713D01*
X252703688Y-79220700D01*
X252451512Y-79220700D01*
X252326976Y-79240424D01*
X252202440Y-79260149D01*
X251962602Y-79338077D01*
X251737916Y-79452561D01*
X251621518Y-79537129D01*
X251533902Y-79600787D01*
X251533900Y-79600789D01*
X251533899Y-79600789D01*
X251355589Y-79779099D01*
X251355589Y-79779100D01*
X251355587Y-79779102D01*
X251327425Y-79817864D01*
X251207361Y-79983116D01*
X251092877Y-80207802D01*
X251014949Y-80447640D01*
X250975500Y-80696712D01*
X250975500Y-80948887D01*
X251014949Y-81197959D01*
X251092877Y-81437797D01*
X251161063Y-81571618D01*
X251207361Y-81662483D01*
X251355587Y-81866498D01*
X251355589Y-81866500D01*
X251492708Y-82003619D01*
X251526193Y-82064942D01*
X251521209Y-82134634D01*
X251479337Y-82190567D01*
X251413873Y-82214984D01*
X251405027Y-82215300D01*
X247996729Y-82215300D01*
X247929690Y-82195615D01*
X247883935Y-82142811D01*
X247873991Y-82073653D01*
X247880547Y-82047967D01*
X247884636Y-82037003D01*
X247910491Y-81967683D01*
X247916900Y-81908073D01*
X247916899Y-80012328D01*
X247910491Y-79952717D01*
X247910490Y-79952715D01*
X247860197Y-79817871D01*
X247860193Y-79817864D01*
X247773947Y-79702655D01*
X247773944Y-79702652D01*
X247658735Y-79616406D01*
X247658728Y-79616402D01*
X247523882Y-79566108D01*
X247523883Y-79566108D01*
X247464283Y-79559701D01*
X247464281Y-79559700D01*
X247464273Y-79559700D01*
X247464265Y-79559700D01*
X246398818Y-79559700D01*
X246331779Y-79540015D01*
X246286024Y-79487211D01*
X246276080Y-79418053D01*
X246282636Y-79392367D01*
X246298343Y-79350253D01*
X246310491Y-79317683D01*
X246316900Y-79258073D01*
X246316899Y-77612328D01*
X246310491Y-77552717D01*
X246275723Y-77459500D01*
X246260197Y-77417871D01*
X246260193Y-77417864D01*
X246173947Y-77302655D01*
X246173944Y-77302652D01*
X246058735Y-77216406D01*
X246058728Y-77216402D01*
X245923882Y-77166108D01*
X245923883Y-77166108D01*
X245864283Y-77159701D01*
X245864281Y-77159700D01*
X245864273Y-77159700D01*
X245864265Y-77159700D01*
X245546918Y-77159700D01*
X245479879Y-77140015D01*
X245459237Y-77123381D01*
X245249408Y-76913552D01*
X245215923Y-76852229D01*
X245220907Y-76782537D01*
X245262779Y-76726604D01*
X245300194Y-76707487D01*
X245447206Y-76661678D01*
X245592785Y-76573672D01*
X245713072Y-76453385D01*
X245801078Y-76307806D01*
X245801078Y-76307803D01*
X245801483Y-76307135D01*
X245853011Y-76259947D01*
X245921870Y-76248109D01*
X245986199Y-76275378D01*
X246013717Y-76307135D01*
X246014121Y-76307803D01*
X246014122Y-76307806D01*
X246084969Y-76425000D01*
X246102130Y-76453388D01*
X246222411Y-76573669D01*
X246222413Y-76573670D01*
X246222415Y-76573672D01*
X246367994Y-76661678D01*
X246530404Y-76712286D01*
X246600984Y-76718700D01*
X246600987Y-76718700D01*
X247114213Y-76718700D01*
X247114216Y-76718700D01*
X247184796Y-76712286D01*
X247347206Y-76661678D01*
X247465076Y-76590422D01*
X247532629Y-76572586D01*
X247599103Y-76594103D01*
X247630587Y-76626793D01*
X247630813Y-76626613D01*
X247632737Y-76629025D01*
X247634215Y-76630560D01*
X247635158Y-76632061D01*
X247635160Y-76632063D01*
X247751337Y-76748240D01*
X247890454Y-76835653D01*
X248045533Y-76889917D01*
X248045534Y-76889917D01*
X248045538Y-76889918D01*
X248208796Y-76908313D01*
X248208800Y-76908313D01*
X248208804Y-76908313D01*
X248372061Y-76889918D01*
X248372063Y-76889917D01*
X248372067Y-76889917D01*
X248527146Y-76835653D01*
X248666263Y-76748240D01*
X248782440Y-76632063D01*
X248869853Y-76492946D01*
X248924117Y-76337867D01*
X248931144Y-76275500D01*
X248942513Y-76174603D01*
X248942513Y-76174596D01*
X248924118Y-76011338D01*
X248924117Y-76011334D01*
X248897108Y-75934147D01*
X248869853Y-75856254D01*
X248848849Y-75822827D01*
X248831092Y-75794567D01*
X248782440Y-75717137D01*
X248666263Y-75600960D01*
X248644862Y-75587513D01*
X248527147Y-75513547D01*
X248443694Y-75484346D01*
X248372067Y-75459283D01*
X248343871Y-75456105D01*
X248303690Y-75451578D01*
X248239277Y-75424510D01*
X248229895Y-75416039D01*
X248140908Y-75327052D01*
X248140902Y-75327047D01*
X248015196Y-75254471D01*
X248015195Y-75254470D01*
X248015194Y-75254470D01*
X247874980Y-75216900D01*
X247874979Y-75216900D01*
X247763945Y-75216900D01*
X247696906Y-75197215D01*
X247657829Y-75157051D01*
X247627371Y-75106668D01*
X247613072Y-75083015D01*
X247613071Y-75083014D01*
X247613068Y-75083010D01*
X247492788Y-74962730D01*
X247421277Y-74919500D01*
X247347206Y-74874722D01*
X247184796Y-74824114D01*
X247184794Y-74824113D01*
X247184792Y-74824113D01*
X247129038Y-74819047D01*
X247114216Y-74817700D01*
X246600984Y-74817700D01*
X246599876Y-74817800D01*
X246593110Y-74818415D01*
X246524565Y-74804873D01*
X246474223Y-74756422D01*
X246458067Y-74688446D01*
X246481227Y-74622526D01*
X246517746Y-74588808D01*
X246542785Y-74573672D01*
X246663072Y-74453385D01*
X246751078Y-74307806D01*
X246801686Y-74145396D01*
X246808100Y-74074816D01*
X246808100Y-73461584D01*
X246801686Y-73391004D01*
X246751078Y-73228594D01*
X246663072Y-73083015D01*
X246663070Y-73083013D01*
X246663069Y-73083011D01*
X246655861Y-73075803D01*
X247678287Y-73075803D01*
X247696681Y-73239061D01*
X247696682Y-73239065D01*
X247750947Y-73394147D01*
X247790921Y-73457765D01*
X247838360Y-73533263D01*
X247954537Y-73649440D01*
X247984341Y-73668167D01*
X248083495Y-73730470D01*
X248093654Y-73736853D01*
X248248733Y-73791117D01*
X248248734Y-73791117D01*
X248248738Y-73791118D01*
X248411996Y-73809513D01*
X248412000Y-73809513D01*
X248412004Y-73809513D01*
X248575261Y-73791118D01*
X248575263Y-73791117D01*
X248575267Y-73791117D01*
X248730346Y-73736853D01*
X248869463Y-73649440D01*
X248985640Y-73533263D01*
X249073053Y-73394146D01*
X249127317Y-73239067D01*
X249129462Y-73220033D01*
X249145713Y-73075803D01*
X249145713Y-73075796D01*
X249127318Y-72912538D01*
X249127317Y-72912534D01*
X249114358Y-72875500D01*
X249073053Y-72757454D01*
X249071052Y-72754270D01*
X249052158Y-72724200D01*
X249549261Y-72724200D01*
X249552315Y-72743485D01*
X249552318Y-72743495D01*
X249608250Y-72915641D01*
X249608252Y-72915647D01*
X249690434Y-73076934D01*
X249796823Y-73223369D01*
X249924830Y-73351376D01*
X250071265Y-73457765D01*
X250232552Y-73539947D01*
X250232555Y-73539948D01*
X250404706Y-73595882D01*
X250583494Y-73624200D01*
X251374000Y-73624200D01*
X251374000Y-72824200D01*
X251874000Y-72824200D01*
X251874000Y-73624200D01*
X252664506Y-73624200D01*
X252843293Y-73595882D01*
X253015444Y-73539948D01*
X253015447Y-73539947D01*
X253176734Y-73457765D01*
X253323169Y-73351376D01*
X253451176Y-73223369D01*
X253557565Y-73076934D01*
X253639747Y-72915647D01*
X253639749Y-72915641D01*
X253695681Y-72743495D01*
X253695684Y-72743485D01*
X253698739Y-72724200D01*
X252768975Y-72724200D01*
X252804070Y-72689105D01*
X252850148Y-72609295D01*
X252874000Y-72520278D01*
X252874000Y-72428122D01*
X252850148Y-72339105D01*
X252804070Y-72259295D01*
X252768975Y-72224200D01*
X253698739Y-72224200D01*
X253695684Y-72204914D01*
X253695681Y-72204904D01*
X253639749Y-72032758D01*
X253639747Y-72032752D01*
X253557565Y-71871465D01*
X253451176Y-71725030D01*
X253323169Y-71597023D01*
X253176734Y-71490634D01*
X253015447Y-71408452D01*
X253015444Y-71408451D01*
X252843293Y-71352517D01*
X252664506Y-71324200D01*
X251874000Y-71324200D01*
X251874000Y-72124200D01*
X251374000Y-72124200D01*
X251374000Y-71324200D01*
X250583494Y-71324200D01*
X250404706Y-71352517D01*
X250232555Y-71408451D01*
X250232552Y-71408452D01*
X250071265Y-71490634D01*
X249924830Y-71597023D01*
X249796823Y-71725030D01*
X249690434Y-71871465D01*
X249608252Y-72032752D01*
X249608250Y-72032758D01*
X249552318Y-72204904D01*
X249552315Y-72204914D01*
X249549261Y-72224200D01*
X250479025Y-72224200D01*
X250443930Y-72259295D01*
X250397852Y-72339105D01*
X250374000Y-72428122D01*
X250374000Y-72520278D01*
X250397852Y-72609295D01*
X250443930Y-72689105D01*
X250479025Y-72724200D01*
X249549261Y-72724200D01*
X249052158Y-72724200D01*
X249019679Y-72672510D01*
X248985640Y-72618337D01*
X248869463Y-72502160D01*
X248730347Y-72414747D01*
X248575265Y-72360482D01*
X248575261Y-72360481D01*
X248412004Y-72342087D01*
X248411996Y-72342087D01*
X248248738Y-72360481D01*
X248248734Y-72360482D01*
X248093652Y-72414747D01*
X247954536Y-72502160D01*
X247838360Y-72618336D01*
X247750947Y-72757452D01*
X247696682Y-72912534D01*
X247696681Y-72912538D01*
X247678287Y-73075796D01*
X247678287Y-73075803D01*
X246655861Y-73075803D01*
X246542788Y-72962730D01*
X246542154Y-72962347D01*
X246397206Y-72874722D01*
X246234796Y-72824114D01*
X246234794Y-72824113D01*
X246234792Y-72824113D01*
X246185378Y-72819623D01*
X246164216Y-72817700D01*
X245650984Y-72817700D01*
X245631745Y-72819448D01*
X245580407Y-72824113D01*
X245417993Y-72874722D01*
X245272411Y-72962730D01*
X245152130Y-73083011D01*
X245064122Y-73228593D01*
X245013513Y-73391007D01*
X245007100Y-73461586D01*
X245007100Y-73516081D01*
X244987415Y-73583120D01*
X244970781Y-73603762D01*
X244606303Y-73968239D01*
X244544980Y-74001724D01*
X244532508Y-74003778D01*
X244464133Y-74011483D01*
X244309052Y-74065747D01*
X244169936Y-74153160D01*
X244053760Y-74269336D01*
X243966347Y-74408452D01*
X243912082Y-74563534D01*
X243912081Y-74563538D01*
X243893687Y-74726796D01*
X243893687Y-74726803D01*
X243905710Y-74833512D01*
X243893655Y-74902333D01*
X243846306Y-74953713D01*
X243778696Y-74971337D01*
X243718340Y-74953512D01*
X243588006Y-74874722D01*
X243566399Y-74867989D01*
X243425596Y-74824114D01*
X243425594Y-74824113D01*
X243425592Y-74824113D01*
X243369838Y-74819047D01*
X243355016Y-74817700D01*
X242964706Y-74817700D01*
X242897667Y-74798015D01*
X242851912Y-74745211D01*
X242841486Y-74707584D01*
X242828748Y-74594534D01*
X242840802Y-74525712D01*
X242864287Y-74492969D01*
X242903872Y-74453385D01*
X242991878Y-74307806D01*
X243042486Y-74145396D01*
X243048900Y-74074816D01*
X243048900Y-73461584D01*
X243042486Y-73391004D01*
X242991878Y-73228594D01*
X242903872Y-73083015D01*
X242903870Y-73083013D01*
X242903869Y-73083011D01*
X242783588Y-72962730D01*
X242782954Y-72962347D01*
X242638006Y-72874722D01*
X242475596Y-72824114D01*
X242475594Y-72824113D01*
X242475592Y-72824113D01*
X242426178Y-72819623D01*
X242405016Y-72817700D01*
X241891784Y-72817700D01*
X241872545Y-72819448D01*
X241821207Y-72824113D01*
X241658793Y-72874722D01*
X241513211Y-72962730D01*
X241392930Y-73083011D01*
X241304922Y-73228593D01*
X241254313Y-73391007D01*
X241247900Y-73461586D01*
X241247900Y-74074813D01*
X241254313Y-74145392D01*
X241254313Y-74145394D01*
X241254314Y-74145396D01*
X241262357Y-74171208D01*
X241304922Y-74307806D01*
X241395640Y-74457871D01*
X241413476Y-74525426D01*
X241406566Y-74562972D01*
X241397482Y-74588934D01*
X241384114Y-74707583D01*
X241357048Y-74771997D01*
X241299453Y-74811552D01*
X241260894Y-74817700D01*
X241078917Y-74817700D01*
X241011878Y-74798015D01*
X240991236Y-74781381D01*
X240552473Y-74342618D01*
X240089106Y-73879250D01*
X240089104Y-73879249D01*
X240089102Y-73879247D01*
X239963396Y-73806671D01*
X239963395Y-73806670D01*
X239963394Y-73806670D01*
X239823180Y-73769100D01*
X239823179Y-73769100D01*
X238924376Y-73769100D01*
X238857337Y-73749415D01*
X238848902Y-73743485D01*
X238786841Y-73695864D01*
X238786838Y-73695863D01*
X238786836Y-73695861D01*
X238640765Y-73635357D01*
X238640760Y-73635355D01*
X238523361Y-73619900D01*
X238184636Y-73619900D01*
X238067234Y-73635355D01*
X238066083Y-73635664D01*
X238064891Y-73635664D01*
X238059179Y-73636416D01*
X238059080Y-73635664D01*
X238008919Y-73635664D01*
X238008820Y-73636417D01*
X238003107Y-73635664D01*
X238001917Y-73635665D01*
X238000765Y-73635356D01*
X237883361Y-73619900D01*
X237544636Y-73619900D01*
X237427241Y-73635354D01*
X237427235Y-73635356D01*
X237369832Y-73659133D01*
X237300362Y-73666602D01*
X237281426Y-73661614D01*
X237119866Y-73605082D01*
X237119861Y-73605081D01*
X236956604Y-73586687D01*
X236956596Y-73586687D01*
X236793338Y-73605081D01*
X236793334Y-73605082D01*
X236638252Y-73659347D01*
X236499136Y-73746760D01*
X236382960Y-73862936D01*
X236295547Y-74002052D01*
X236241282Y-74157134D01*
X236241281Y-74157138D01*
X236222887Y-74320396D01*
X236222887Y-74320403D01*
X236241281Y-74483661D01*
X236241282Y-74483665D01*
X236295547Y-74638747D01*
X236373261Y-74762428D01*
X236392261Y-74829665D01*
X236373261Y-74894372D01*
X236295547Y-75018052D01*
X236241282Y-75173134D01*
X236241281Y-75173138D01*
X236222887Y-75336396D01*
X236222887Y-75336402D01*
X236236815Y-75460016D01*
X236224761Y-75528838D01*
X236177412Y-75580218D01*
X236113595Y-75597900D01*
X231394318Y-75597900D01*
X231327279Y-75578215D01*
X231306637Y-75561581D01*
X230564108Y-74819052D01*
X230564102Y-74819047D01*
X230438396Y-74746471D01*
X230438395Y-74746470D01*
X230438394Y-74746470D01*
X230298180Y-74708900D01*
X230298179Y-74708900D01*
X217170318Y-74708900D01*
X217103279Y-74689215D01*
X217082637Y-74672581D01*
X215817037Y-73406981D01*
X215783552Y-73345658D01*
X215788536Y-73275966D01*
X215830408Y-73220033D01*
X215895872Y-73195616D01*
X215904718Y-73195300D01*
X237570859Y-73195300D01*
X237636831Y-73214306D01*
X237729993Y-73272844D01*
X237781254Y-73305053D01*
X237936333Y-73359317D01*
X237936334Y-73359317D01*
X237936338Y-73359318D01*
X238099596Y-73377713D01*
X238099600Y-73377713D01*
X238099604Y-73377713D01*
X238262861Y-73359318D01*
X238262863Y-73359317D01*
X238262867Y-73359317D01*
X238417946Y-73305053D01*
X238557063Y-73217640D01*
X238673240Y-73101463D01*
X238760653Y-72962346D01*
X238814917Y-72807267D01*
X238818477Y-72775667D01*
X238845542Y-72711257D01*
X238900741Y-72672511D01*
X239052946Y-72619253D01*
X239192063Y-72531840D01*
X239308240Y-72415663D01*
X239395653Y-72276546D01*
X239422194Y-72200691D01*
X239462914Y-72143916D01*
X239525352Y-72118425D01*
X239558267Y-72114717D01*
X239713346Y-72060453D01*
X239852463Y-71973040D01*
X239968640Y-71856863D01*
X240056053Y-71717746D01*
X240097133Y-71600344D01*
X240137853Y-71543570D01*
X240202806Y-71517822D01*
X240214174Y-71517300D01*
X245644731Y-71517300D01*
X245644747Y-71517301D01*
X245652343Y-71517301D01*
X245810454Y-71517301D01*
X245810457Y-71517301D01*
X245963185Y-71476377D01*
X246031360Y-71437016D01*
X246100116Y-71397320D01*
X246211920Y-71285516D01*
X246211920Y-71285514D01*
X246222124Y-71275311D01*
X246222127Y-71275306D01*
X247312320Y-70185113D01*
X247373642Y-70151630D01*
X247443334Y-70156614D01*
X247499267Y-70198486D01*
X247523684Y-70263950D01*
X247524000Y-70272796D01*
X247524000Y-70469130D01*
X247539122Y-70603341D01*
X247598663Y-70773501D01*
X247694577Y-70926148D01*
X247822051Y-71053622D01*
X247974698Y-71149536D01*
X248144858Y-71209077D01*
X248279069Y-71224199D01*
X248279070Y-71224200D01*
X248774000Y-71224200D01*
X248774000Y-70374200D01*
X249274000Y-70374200D01*
X249274000Y-71224200D01*
X249768930Y-71224200D01*
X249768930Y-71224199D01*
X249903141Y-71209077D01*
X250073301Y-71149536D01*
X250225948Y-71053622D01*
X250353422Y-70926148D01*
X250449336Y-70773501D01*
X250508877Y-70603341D01*
X250523999Y-70469130D01*
X250524000Y-70469130D01*
X250524000Y-70374200D01*
X249274000Y-70374200D01*
X248774000Y-70374200D01*
X248774000Y-69024200D01*
X249274000Y-69024200D01*
X249274000Y-69874200D01*
X250524000Y-69874200D01*
X250524000Y-69779270D01*
X250523999Y-69779269D01*
X250508877Y-69645058D01*
X250449336Y-69474898D01*
X250353422Y-69322251D01*
X250225948Y-69194777D01*
X250073301Y-69098863D01*
X249903141Y-69039322D01*
X249768930Y-69024200D01*
X249274000Y-69024200D01*
X248774000Y-69024200D01*
X248772598Y-69024200D01*
X248705559Y-69004515D01*
X248659804Y-68951711D01*
X248649860Y-68882553D01*
X248678885Y-68818997D01*
X248684917Y-68812519D01*
X248736417Y-68761019D01*
X248797740Y-68727534D01*
X248824098Y-68724700D01*
X249768957Y-68724700D01*
X249768958Y-68724699D01*
X249836104Y-68717134D01*
X249903249Y-68709569D01*
X249903252Y-68709568D01*
X249903255Y-68709568D01*
X250073522Y-68649989D01*
X250226262Y-68554016D01*
X250353816Y-68426462D01*
X250359237Y-68417833D01*
X250411568Y-68371544D01*
X250478113Y-68360585D01*
X250541090Y-68367681D01*
X250596398Y-68373913D01*
X250596400Y-68373913D01*
X250596404Y-68373913D01*
X250759661Y-68355518D01*
X250759663Y-68355517D01*
X250759667Y-68355517D01*
X250914746Y-68301253D01*
X250914748Y-68301251D01*
X250914750Y-68301251D01*
X250941660Y-68284341D01*
X250954474Y-68276289D01*
X251021710Y-68257288D01*
X251088546Y-68277654D01*
X251133761Y-68330921D01*
X251143000Y-68400178D01*
X251119591Y-68452595D01*
X251120865Y-68453446D01*
X251046120Y-68565308D01*
X251046115Y-68565317D01*
X250996960Y-68683989D01*
X250996958Y-68683995D01*
X250971900Y-68809971D01*
X250971900Y-68809974D01*
X250971900Y-68938426D01*
X250971900Y-68938428D01*
X250971899Y-68938428D01*
X250996958Y-69064404D01*
X250996960Y-69064410D01*
X251046115Y-69183082D01*
X251046120Y-69183091D01*
X251117480Y-69289888D01*
X251117483Y-69289892D01*
X251208307Y-69380716D01*
X251208311Y-69380719D01*
X251315108Y-69452079D01*
X251315114Y-69452082D01*
X251315115Y-69452083D01*
X251433790Y-69501240D01*
X251433794Y-69501240D01*
X251433795Y-69501241D01*
X251559771Y-69526300D01*
X251559774Y-69526300D01*
X251688228Y-69526300D01*
X251772983Y-69509440D01*
X251814210Y-69501240D01*
X251932885Y-69452083D01*
X252039689Y-69380719D01*
X252130519Y-69289889D01*
X252201883Y-69183085D01*
X252251040Y-69064410D01*
X252268396Y-68977155D01*
X252276100Y-68938428D01*
X252276100Y-68809971D01*
X252251041Y-68683995D01*
X252251040Y-68683994D01*
X252251040Y-68683990D01*
X252201883Y-68565315D01*
X252201882Y-68565314D01*
X252201879Y-68565308D01*
X252130519Y-68458511D01*
X252130516Y-68458507D01*
X252039692Y-68367683D01*
X252039688Y-68367680D01*
X251932891Y-68296320D01*
X251932882Y-68296315D01*
X251814210Y-68247160D01*
X251814204Y-68247158D01*
X251688228Y-68222100D01*
X251688226Y-68222100D01*
X251559774Y-68222100D01*
X251559772Y-68222100D01*
X251433795Y-68247158D01*
X251433789Y-68247160D01*
X251315108Y-68296319D01*
X251313908Y-68296961D01*
X251313208Y-68297106D01*
X251309487Y-68298648D01*
X251309194Y-68297941D01*
X251245504Y-68311194D01*
X251180263Y-68286185D01*
X251138900Y-68229875D01*
X251134546Y-68160141D01*
X251165927Y-68103288D01*
X251165699Y-68103106D01*
X251166770Y-68101762D01*
X251167792Y-68099910D01*
X251170040Y-68097663D01*
X251257453Y-67958546D01*
X251311717Y-67803467D01*
X251311718Y-67803461D01*
X251330113Y-67640203D01*
X251330113Y-67640196D01*
X251311718Y-67476938D01*
X251311717Y-67476934D01*
X251304625Y-67456667D01*
X251257453Y-67321854D01*
X251170040Y-67182737D01*
X251053863Y-67066560D01*
X251040900Y-67058415D01*
X250914747Y-66979147D01*
X250759665Y-66924882D01*
X250759661Y-66924881D01*
X250596404Y-66906487D01*
X250596396Y-66906487D01*
X250496891Y-66917698D01*
X250428069Y-66905643D01*
X250378014Y-66860449D01*
X250353818Y-66821940D01*
X250243759Y-66711881D01*
X250210274Y-66650558D01*
X250215258Y-66580866D01*
X250243759Y-66536519D01*
X250265834Y-66514444D01*
X250353816Y-66426462D01*
X250414308Y-66330188D01*
X250466640Y-66283899D01*
X250535693Y-66273250D01*
X250560255Y-66279121D01*
X250687128Y-66323516D01*
X250687138Y-66323518D01*
X250850396Y-66341913D01*
X250850400Y-66341913D01*
X250850404Y-66341913D01*
X251013661Y-66323518D01*
X251013663Y-66323517D01*
X251013667Y-66323517D01*
X251168746Y-66269253D01*
X251307863Y-66181840D01*
X251424040Y-66065663D01*
X251511453Y-65926546D01*
X251565717Y-65771467D01*
X251567385Y-65756666D01*
X251584113Y-65608203D01*
X251584113Y-65608196D01*
X251565718Y-65444938D01*
X251565717Y-65444934D01*
X251554784Y-65413690D01*
X251511453Y-65289854D01*
X251465219Y-65216273D01*
X251446218Y-65149036D01*
X251466585Y-65082201D01*
X251519853Y-65036986D01*
X251570212Y-65026300D01*
X251688228Y-65026300D01*
X251776616Y-65008718D01*
X251814210Y-65001240D01*
X251932885Y-64952083D01*
X252039689Y-64880719D01*
X252130519Y-64789889D01*
X252201883Y-64683085D01*
X252251040Y-64564410D01*
X252263561Y-64501465D01*
X252276100Y-64438428D01*
X252276100Y-64309971D01*
X252251041Y-64183995D01*
X252251040Y-64183994D01*
X252251040Y-64183990D01*
X252201883Y-64065315D01*
X252201882Y-64065314D01*
X252201879Y-64065308D01*
X252130519Y-63958511D01*
X252130516Y-63958507D01*
X252039692Y-63867683D01*
X252039688Y-63867680D01*
X251932891Y-63796320D01*
X251932882Y-63796315D01*
X251814210Y-63747160D01*
X251814204Y-63747158D01*
X251688228Y-63722100D01*
X251688226Y-63722100D01*
X251559774Y-63722100D01*
X251559772Y-63722100D01*
X251433795Y-63747158D01*
X251433789Y-63747160D01*
X251315117Y-63796315D01*
X251315108Y-63796320D01*
X251208311Y-63867680D01*
X251208307Y-63867683D01*
X251117483Y-63958507D01*
X251117480Y-63958511D01*
X251046120Y-64065308D01*
X251046115Y-64065317D01*
X250996960Y-64183989D01*
X250996958Y-64183995D01*
X250971900Y-64309971D01*
X250971900Y-64309974D01*
X250971900Y-64438426D01*
X250971900Y-64438428D01*
X250971899Y-64438428D01*
X250996958Y-64564404D01*
X250996960Y-64564410D01*
X251046115Y-64683082D01*
X251046120Y-64683091D01*
X251052013Y-64691910D01*
X251072891Y-64758588D01*
X251054406Y-64825968D01*
X251002428Y-64872658D01*
X250935029Y-64884021D01*
X250850405Y-64874487D01*
X250850396Y-64874487D01*
X250687138Y-64892881D01*
X250687133Y-64892882D01*
X250543772Y-64943046D01*
X250473993Y-64946607D01*
X250413366Y-64911878D01*
X250397825Y-64891976D01*
X250353820Y-64821943D01*
X250353815Y-64821937D01*
X250226262Y-64694384D01*
X250073523Y-64598411D01*
X249903254Y-64538831D01*
X249903249Y-64538830D01*
X249768960Y-64523700D01*
X249768954Y-64523700D01*
X248279046Y-64523700D01*
X248279039Y-64523700D01*
X248144750Y-64538830D01*
X248144745Y-64538831D01*
X247974476Y-64598411D01*
X247821737Y-64694384D01*
X247694184Y-64821937D01*
X247598211Y-64974676D01*
X247538631Y-65144945D01*
X247538630Y-65144950D01*
X247523500Y-65279239D01*
X247523500Y-65969160D01*
X247538631Y-66103452D01*
X247553563Y-66146126D01*
X247557124Y-66215905D01*
X247524202Y-66274761D01*
X247126152Y-66672811D01*
X247064829Y-66706296D01*
X246995137Y-66701312D01*
X246939204Y-66659440D01*
X246914787Y-66593976D01*
X246929639Y-66525703D01*
X246932933Y-66520032D01*
X247025544Y-66369888D01*
X247025547Y-66369881D01*
X247078855Y-66209006D01*
X247088999Y-66109722D01*
X247089000Y-66109709D01*
X247089000Y-66061400D01*
X246389000Y-66061400D01*
X246389000Y-67358602D01*
X246369315Y-67425641D01*
X246352681Y-67446283D01*
X246224483Y-67574481D01*
X246163160Y-67607966D01*
X246136802Y-67610800D01*
X246013000Y-67610800D01*
X245945961Y-67591115D01*
X245900206Y-67538311D01*
X245889000Y-67486800D01*
X245889000Y-64836400D01*
X246389000Y-64836400D01*
X246389000Y-65561400D01*
X247088999Y-65561400D01*
X247088999Y-65513092D01*
X247088998Y-65513077D01*
X247078855Y-65413792D01*
X247025547Y-65252918D01*
X247025542Y-65252907D01*
X246936575Y-65108671D01*
X246936572Y-65108667D01*
X246816732Y-64988827D01*
X246816728Y-64988824D01*
X246672492Y-64899857D01*
X246672481Y-64899852D01*
X246511606Y-64846544D01*
X246412322Y-64836400D01*
X246389000Y-64836400D01*
X245889000Y-64836400D01*
X245889000Y-64836399D01*
X245865693Y-64836400D01*
X245865671Y-64836401D01*
X245793514Y-64843773D01*
X245724821Y-64831003D01*
X245673937Y-64783122D01*
X245657017Y-64715332D01*
X245660022Y-64692821D01*
X245660215Y-64691971D01*
X245660217Y-64691967D01*
X245660224Y-64691910D01*
X245667921Y-64623593D01*
X245694987Y-64559179D01*
X245703457Y-64549797D01*
X245728950Y-64524306D01*
X245801530Y-64398594D01*
X245839100Y-64258380D01*
X245839100Y-64113220D01*
X245839100Y-63469160D01*
X247523500Y-63469160D01*
X247538630Y-63603449D01*
X247538631Y-63603454D01*
X247598211Y-63773723D01*
X247662119Y-63875431D01*
X247694184Y-63926462D01*
X247821738Y-64054016D01*
X247885049Y-64093797D01*
X247963886Y-64143334D01*
X247974478Y-64149989D01*
X248119230Y-64200640D01*
X248144745Y-64209568D01*
X248144750Y-64209569D01*
X248232912Y-64219502D01*
X248279040Y-64224699D01*
X248279043Y-64224700D01*
X248279046Y-64224700D01*
X249768957Y-64224700D01*
X249768958Y-64224699D01*
X249836104Y-64217134D01*
X249903249Y-64209569D01*
X249903252Y-64209568D01*
X249903255Y-64209568D01*
X250073522Y-64149989D01*
X250226262Y-64054016D01*
X250353816Y-63926462D01*
X250449789Y-63773722D01*
X250509368Y-63603455D01*
X250512572Y-63575024D01*
X250521991Y-63491422D01*
X250524500Y-63469154D01*
X250524500Y-62779246D01*
X250509368Y-62644945D01*
X250449789Y-62474678D01*
X250449614Y-62474400D01*
X250387157Y-62375000D01*
X250353816Y-62321938D01*
X250226262Y-62194384D01*
X250158796Y-62151992D01*
X250073523Y-62098411D01*
X249903254Y-62038831D01*
X249903250Y-62038830D01*
X249822881Y-62029775D01*
X249758467Y-62002708D01*
X249718912Y-61945113D01*
X249713545Y-61892671D01*
X249730693Y-61740480D01*
X249733531Y-61740799D01*
X249749598Y-61686084D01*
X249802402Y-61640329D01*
X249871560Y-61630385D01*
X249926798Y-61652805D01*
X250071265Y-61757765D01*
X250232552Y-61839947D01*
X250232555Y-61839948D01*
X250404706Y-61895882D01*
X250583494Y-61924200D01*
X251374000Y-61924200D01*
X251374000Y-61124200D01*
X251874000Y-61124200D01*
X251874000Y-61924200D01*
X252664506Y-61924200D01*
X252843293Y-61895882D01*
X253015444Y-61839948D01*
X253015447Y-61839947D01*
X253176734Y-61757765D01*
X253323169Y-61651376D01*
X253451176Y-61523369D01*
X253557565Y-61376934D01*
X253639747Y-61215647D01*
X253639749Y-61215641D01*
X253695681Y-61043495D01*
X253695684Y-61043485D01*
X253698739Y-61024200D01*
X252768975Y-61024200D01*
X252804070Y-60989105D01*
X252850148Y-60909295D01*
X252874000Y-60820278D01*
X252874000Y-60728122D01*
X252850148Y-60639105D01*
X252804070Y-60559295D01*
X252768975Y-60524200D01*
X253698739Y-60524200D01*
X253695684Y-60504914D01*
X253695681Y-60504904D01*
X253639749Y-60332758D01*
X253639747Y-60332752D01*
X253557565Y-60171465D01*
X253451176Y-60025030D01*
X253323169Y-59897023D01*
X253176734Y-59790634D01*
X253015447Y-59708452D01*
X253015444Y-59708451D01*
X252843293Y-59652517D01*
X252664506Y-59624200D01*
X251874000Y-59624200D01*
X251874000Y-60424200D01*
X251374000Y-60424200D01*
X251374000Y-59624200D01*
X250583494Y-59624200D01*
X250404706Y-59652517D01*
X250232555Y-59708451D01*
X250232552Y-59708452D01*
X250071265Y-59790634D01*
X249924830Y-59897023D01*
X249796823Y-60025030D01*
X249690434Y-60171465D01*
X249608252Y-60332752D01*
X249608250Y-60332758D01*
X249552318Y-60504904D01*
X249552315Y-60504914D01*
X249549261Y-60524200D01*
X250479025Y-60524200D01*
X250443930Y-60559295D01*
X250397852Y-60639105D01*
X250374000Y-60728122D01*
X250374000Y-60820278D01*
X250397852Y-60909295D01*
X250443930Y-60989105D01*
X250479025Y-61024200D01*
X249549260Y-61024200D01*
X249536773Y-61038820D01*
X249534468Y-61056657D01*
X249489471Y-61110108D01*
X249422719Y-61130746D01*
X249355405Y-61112019D01*
X249354978Y-61111752D01*
X249314548Y-61086348D01*
X249314547Y-61086347D01*
X249159465Y-61032082D01*
X249159461Y-61032081D01*
X248996204Y-61013687D01*
X248996196Y-61013687D01*
X248832938Y-61032081D01*
X248832934Y-61032082D01*
X248677852Y-61086347D01*
X248538736Y-61173760D01*
X248422560Y-61289936D01*
X248335147Y-61429052D01*
X248280882Y-61584134D01*
X248280881Y-61584138D01*
X248262487Y-61747396D01*
X248262487Y-61747404D01*
X248279551Y-61898858D01*
X248267496Y-61967680D01*
X248220147Y-62019059D01*
X248170217Y-62035961D01*
X248144748Y-62038831D01*
X248144745Y-62038831D01*
X247974476Y-62098411D01*
X247821737Y-62194384D01*
X247694184Y-62321937D01*
X247598211Y-62474676D01*
X247538631Y-62644945D01*
X247538630Y-62644950D01*
X247523500Y-62779239D01*
X247523500Y-63469160D01*
X245839100Y-63469160D01*
X245839100Y-58950169D01*
X245858785Y-58883130D01*
X245897126Y-58845176D01*
X246024663Y-58765040D01*
X246140840Y-58648863D01*
X246228253Y-58509746D01*
X246282517Y-58354667D01*
X246293407Y-58258016D01*
X246300913Y-58191403D01*
X246300913Y-58191397D01*
X246283481Y-58036687D01*
X246295535Y-57967865D01*
X246342884Y-57916485D01*
X246410495Y-57898861D01*
X246476900Y-57920587D01*
X246494382Y-57935122D01*
X246749983Y-58190723D01*
X246779343Y-58237447D01*
X246785746Y-58255745D01*
X246847899Y-58354661D01*
X246873160Y-58394863D01*
X246989337Y-58511040D01*
X247128454Y-58598453D01*
X247283533Y-58652717D01*
X247283534Y-58652717D01*
X247283538Y-58652718D01*
X247446796Y-58671113D01*
X247446800Y-58671113D01*
X247446804Y-58671113D01*
X247610061Y-58652718D01*
X247610063Y-58652717D01*
X247610067Y-58652717D01*
X247765146Y-58598453D01*
X247904263Y-58511040D01*
X248020440Y-58394863D01*
X248107853Y-58255746D01*
X248162117Y-58100667D01*
X248163787Y-58085847D01*
X248180513Y-57937403D01*
X248180513Y-57937396D01*
X248162118Y-57774138D01*
X248162117Y-57774134D01*
X248153025Y-57748151D01*
X248107853Y-57619054D01*
X248020440Y-57479937D01*
X247904263Y-57363760D01*
X247765146Y-57276347D01*
X247765144Y-57276346D01*
X247664401Y-57241094D01*
X247617675Y-57211734D01*
X246972621Y-56566680D01*
X246939136Y-56505357D01*
X246944120Y-56435665D01*
X246985992Y-56379732D01*
X247051456Y-56355315D01*
X247060302Y-56354999D01*
X247362572Y-56354999D01*
X247362586Y-56354998D01*
X247465297Y-56344505D01*
X247631719Y-56289358D01*
X247631724Y-56289356D01*
X247780945Y-56197315D01*
X247904915Y-56073345D01*
X247996956Y-55924124D01*
X247996958Y-55924119D01*
X248052105Y-55757697D01*
X248052106Y-55757690D01*
X248062599Y-55654986D01*
X248062600Y-55654973D01*
X248062600Y-55405000D01*
X246636600Y-55405000D01*
X246569561Y-55385315D01*
X246523806Y-55332511D01*
X246512600Y-55281000D01*
X246512600Y-54036000D01*
X246532285Y-53968961D01*
X246585089Y-53923206D01*
X246605927Y-53918672D01*
X246612600Y-53912000D01*
X246612600Y-53104728D01*
X246650660Y-53196614D01*
X246720986Y-53266940D01*
X246812872Y-53305000D01*
X246912328Y-53305000D01*
X247004214Y-53266940D01*
X247074540Y-53196614D01*
X247112600Y-53104728D01*
X247112600Y-53924000D01*
X247092915Y-53991039D01*
X247040111Y-54036794D01*
X247019272Y-54041327D01*
X247012600Y-54048000D01*
X247012600Y-54905000D01*
X248062599Y-54905000D01*
X248062599Y-54655028D01*
X248062598Y-54655013D01*
X248052105Y-54552302D01*
X247996958Y-54385880D01*
X247996956Y-54385875D01*
X247904915Y-54236654D01*
X247780945Y-54112684D01*
X247631724Y-54020643D01*
X247631719Y-54020641D01*
X247528672Y-53986495D01*
X247471227Y-53946722D01*
X247444404Y-53882207D01*
X247456719Y-53813431D01*
X247479995Y-53781107D01*
X247600514Y-53660588D01*
X247704475Y-53505000D01*
X247704480Y-53504991D01*
X247776091Y-53332105D01*
X247776093Y-53332097D01*
X247812599Y-53148571D01*
X247812600Y-53148569D01*
X247812600Y-52955000D01*
X247112600Y-52955000D01*
X247112600Y-52455000D01*
X247812600Y-52455000D01*
X247812600Y-52261430D01*
X247812599Y-52261428D01*
X247776093Y-52077902D01*
X247776091Y-52077894D01*
X247704480Y-51905008D01*
X247704475Y-51904999D01*
X247600513Y-51749410D01*
X247600510Y-51749406D01*
X247468193Y-51617089D01*
X247468189Y-51617086D01*
X247312600Y-51513124D01*
X247312591Y-51513119D01*
X247139703Y-51441507D01*
X247139700Y-51441506D01*
X247112600Y-51436115D01*
X247112600Y-52305272D01*
X247074540Y-52213386D01*
X247004214Y-52143060D01*
X246912328Y-52105000D01*
X246812872Y-52105000D01*
X246720986Y-52143060D01*
X246650660Y-52213386D01*
X246612600Y-52305272D01*
X246612600Y-51436116D01*
X246612599Y-51436115D01*
X246585499Y-51441506D01*
X246585496Y-51441507D01*
X246412608Y-51513119D01*
X246412599Y-51513124D01*
X246255951Y-51617794D01*
X246189273Y-51638672D01*
X246121893Y-51620187D01*
X246081521Y-51579789D01*
X246054915Y-51536654D01*
X245930945Y-51412684D01*
X245781724Y-51320643D01*
X245781719Y-51320641D01*
X245615297Y-51265494D01*
X245615290Y-51265493D01*
X245512586Y-51255000D01*
X245012600Y-51255000D01*
X245012600Y-52455000D01*
X246612600Y-52455000D01*
X246612600Y-52955000D01*
X242612600Y-52955000D01*
X242612600Y-54091341D01*
X242592915Y-54158380D01*
X242540111Y-54204135D01*
X242472414Y-54214280D01*
X242462600Y-54212987D01*
X242462600Y-54255499D01*
X242442915Y-54322538D01*
X242414089Y-54353873D01*
X242384319Y-54376716D01*
X242332107Y-54444760D01*
X242323782Y-54455611D01*
X242284976Y-54506184D01*
X242228548Y-54547386D01*
X242158802Y-54551541D01*
X242097881Y-54517329D01*
X242065129Y-54455611D01*
X242062600Y-54430697D01*
X242062600Y-54256361D01*
X242082285Y-54189322D01*
X242098919Y-54168680D01*
X242112600Y-54154999D01*
X242112600Y-52955000D01*
X240512600Y-52955000D01*
X240512600Y-52455000D01*
X242112600Y-52455000D01*
X242112600Y-51255000D01*
X242612600Y-51255000D01*
X242612600Y-52455000D01*
X244512600Y-52455000D01*
X244512600Y-51255000D01*
X244012628Y-51255000D01*
X244012612Y-51255001D01*
X243909902Y-51265494D01*
X243743480Y-51320641D01*
X243743471Y-51320645D01*
X243627696Y-51392056D01*
X243560304Y-51410496D01*
X243497504Y-51392056D01*
X243381728Y-51320645D01*
X243381719Y-51320641D01*
X243215297Y-51265494D01*
X243215290Y-51265493D01*
X243112586Y-51255000D01*
X242612600Y-51255000D01*
X242112600Y-51255000D01*
X241612628Y-51255000D01*
X241612612Y-51255001D01*
X241509902Y-51265494D01*
X241343480Y-51320641D01*
X241343475Y-51320643D01*
X241194254Y-51412684D01*
X241070282Y-51536656D01*
X241043677Y-51579790D01*
X240991728Y-51626514D01*
X240922766Y-51637735D01*
X240869248Y-51617794D01*
X240712600Y-51513124D01*
X240712591Y-51513119D01*
X240539703Y-51441507D01*
X240539700Y-51441506D01*
X240512600Y-51436115D01*
X240512600Y-52305272D01*
X240474540Y-52213386D01*
X240404214Y-52143060D01*
X240312328Y-52105000D01*
X240212872Y-52105000D01*
X240120986Y-52143060D01*
X240050660Y-52213386D01*
X240012600Y-52305272D01*
X240012600Y-51436116D01*
X240012599Y-51436115D01*
X239985499Y-51441506D01*
X239985496Y-51441507D01*
X239812608Y-51513119D01*
X239812599Y-51513124D01*
X239657010Y-51617086D01*
X239657006Y-51617089D01*
X239524689Y-51749406D01*
X239524686Y-51749410D01*
X239420724Y-51904999D01*
X239420719Y-51905008D01*
X239349108Y-52077894D01*
X239349106Y-52077902D01*
X239312600Y-52261428D01*
X239312600Y-52455000D01*
X240012600Y-52455000D01*
X240012600Y-52955000D01*
X239312600Y-52955000D01*
X239312600Y-53148571D01*
X239349106Y-53332097D01*
X239349108Y-53332105D01*
X239420719Y-53504991D01*
X239420724Y-53505000D01*
X239524686Y-53660589D01*
X239524689Y-53660593D01*
X239645204Y-53781108D01*
X239678689Y-53842431D01*
X239673705Y-53912123D01*
X239631833Y-53968056D01*
X239596527Y-53986495D01*
X239493480Y-54020641D01*
X239493475Y-54020643D01*
X239344254Y-54112684D01*
X239220284Y-54236654D01*
X239128243Y-54385875D01*
X239128241Y-54385880D01*
X239073094Y-54552302D01*
X239073093Y-54552309D01*
X239062600Y-54655013D01*
X239062600Y-54905000D01*
X240112600Y-54905000D01*
X240112600Y-54048000D01*
X240102623Y-54038023D01*
X240069561Y-54028315D01*
X240023806Y-53975511D01*
X240012600Y-53924000D01*
X240012600Y-53104728D01*
X240050660Y-53196614D01*
X240120986Y-53266940D01*
X240212872Y-53305000D01*
X240312328Y-53305000D01*
X240404214Y-53266940D01*
X240474540Y-53196614D01*
X240512600Y-53104728D01*
X240512600Y-53912000D01*
X240522576Y-53921976D01*
X240555639Y-53931685D01*
X240601394Y-53984489D01*
X240612600Y-54036000D01*
X240612600Y-56354999D01*
X240962572Y-56354999D01*
X240962586Y-56354998D01*
X241065297Y-56344505D01*
X241231719Y-56289358D01*
X241231724Y-56289356D01*
X241380944Y-56197315D01*
X241414186Y-56164074D01*
X241475508Y-56130588D01*
X241545200Y-56135572D01*
X241601134Y-56177442D01*
X241616429Y-56204302D01*
X241638499Y-56257586D01*
X241734675Y-56382924D01*
X241860013Y-56479100D01*
X241860012Y-56479100D01*
X242005966Y-56539555D01*
X242005972Y-56539557D01*
X242062598Y-56547011D01*
X242062600Y-56547010D01*
X242062600Y-56329302D01*
X242082285Y-56262263D01*
X242135089Y-56216508D01*
X242204247Y-56206564D01*
X242267803Y-56235589D01*
X242284976Y-56253816D01*
X242288063Y-56257839D01*
X242288064Y-56257841D01*
X242384318Y-56383282D01*
X242414085Y-56406123D01*
X242455288Y-56462548D01*
X242462600Y-56504499D01*
X242462600Y-56547010D01*
X242519231Y-56539555D01*
X242539487Y-56531165D01*
X242608956Y-56523693D01*
X242634397Y-56531163D01*
X242639158Y-56533135D01*
X242655838Y-56540044D01*
X242773239Y-56555500D01*
X242885300Y-56555499D01*
X242952339Y-56575183D01*
X242998094Y-56627987D01*
X243009300Y-56679499D01*
X243009300Y-57357859D01*
X242990294Y-57423831D01*
X242899547Y-57568252D01*
X242845282Y-57723334D01*
X242845281Y-57723338D01*
X242826887Y-57886596D01*
X242826887Y-57886603D01*
X242845281Y-58049861D01*
X242845282Y-58049865D01*
X242899547Y-58204947D01*
X242931466Y-58255745D01*
X242986960Y-58344063D01*
X242986961Y-58344064D01*
X242990294Y-58349368D01*
X243009300Y-58415340D01*
X243009300Y-63809459D01*
X242990294Y-63875431D01*
X242899547Y-64019852D01*
X242845282Y-64174934D01*
X242845281Y-64174938D01*
X242826887Y-64338196D01*
X242826887Y-64338203D01*
X242845281Y-64501461D01*
X242845282Y-64501465D01*
X242899547Y-64656547D01*
X242938323Y-64718258D01*
X242986960Y-64795663D01*
X243103137Y-64911840D01*
X243167185Y-64952084D01*
X243234662Y-64994483D01*
X243242254Y-64999253D01*
X243397333Y-65053517D01*
X243397334Y-65053517D01*
X243397338Y-65053518D01*
X243560596Y-65071913D01*
X243560598Y-65071913D01*
X243560598Y-65071912D01*
X243560600Y-65071913D01*
X243579225Y-65069814D01*
X243648045Y-65081867D01*
X243699426Y-65129215D01*
X243717052Y-65196825D01*
X243702599Y-65245011D01*
X243705051Y-65246155D01*
X243701996Y-65252705D01*
X243648651Y-65413690D01*
X243638500Y-65513047D01*
X243638500Y-66109737D01*
X243638501Y-66109755D01*
X243648650Y-66209107D01*
X243648651Y-66209110D01*
X243701996Y-66370094D01*
X243702001Y-66370105D01*
X243794823Y-66520591D01*
X243792164Y-66522230D01*
X243813031Y-66574128D01*
X243799911Y-66642755D01*
X243794391Y-66651343D01*
X243794823Y-66651609D01*
X243702001Y-66802094D01*
X243701996Y-66802105D01*
X243648651Y-66963090D01*
X243638500Y-67062447D01*
X243638500Y-67659137D01*
X243638501Y-67659155D01*
X243648650Y-67758507D01*
X243648651Y-67758510D01*
X243701996Y-67919494D01*
X243702001Y-67919505D01*
X243791029Y-68063840D01*
X243791032Y-68063844D01*
X243910955Y-68183767D01*
X243910959Y-68183770D01*
X244055294Y-68272798D01*
X244055297Y-68272799D01*
X244055303Y-68272803D01*
X244216292Y-68326149D01*
X244315655Y-68336300D01*
X244862344Y-68336299D01*
X244862352Y-68336298D01*
X244862355Y-68336298D01*
X244916760Y-68330740D01*
X244961708Y-68326149D01*
X245122697Y-68272803D01*
X245267044Y-68183768D01*
X245267046Y-68183765D01*
X245272665Y-68180300D01*
X245340058Y-68161859D01*
X245406721Y-68182781D01*
X245451491Y-68236423D01*
X245460153Y-68305753D01*
X245429957Y-68368761D01*
X245425444Y-68373519D01*
X244077784Y-69721181D01*
X244016461Y-69754666D01*
X243990103Y-69757500D01*
X240518131Y-69757500D01*
X240451092Y-69737815D01*
X240405337Y-69685011D01*
X240395393Y-69615853D01*
X240401087Y-69592550D01*
X240440517Y-69479867D01*
X240441381Y-69472198D01*
X240458913Y-69316603D01*
X240458913Y-69316596D01*
X240440518Y-69153338D01*
X240440517Y-69153334D01*
X240416946Y-69085972D01*
X240386253Y-68998254D01*
X240298840Y-68859137D01*
X240182663Y-68742960D01*
X240158113Y-68727534D01*
X240043547Y-68655547D01*
X239888465Y-68601282D01*
X239888461Y-68601281D01*
X239725204Y-68582887D01*
X239725196Y-68582887D01*
X239561938Y-68601281D01*
X239561934Y-68601282D01*
X239406852Y-68655547D01*
X239267736Y-68742960D01*
X239151560Y-68859136D01*
X239064147Y-68998252D01*
X239009882Y-69153334D01*
X239009881Y-69153338D01*
X238991487Y-69316596D01*
X238991487Y-69316603D01*
X239009881Y-69479861D01*
X239009881Y-69479862D01*
X239009883Y-69479867D01*
X239049311Y-69592547D01*
X239052872Y-69662324D01*
X239018143Y-69722952D01*
X238956150Y-69755179D01*
X238932269Y-69757500D01*
X222329318Y-69757500D01*
X222262279Y-69737815D01*
X222216524Y-69685011D01*
X222206580Y-69615853D01*
X222235605Y-69552297D01*
X222241637Y-69545819D01*
X223207453Y-68580003D01*
X234317887Y-68580003D01*
X234336281Y-68743261D01*
X234336282Y-68743265D01*
X234390547Y-68898347D01*
X234477960Y-69037463D01*
X234594137Y-69153640D01*
X234733254Y-69241053D01*
X234888333Y-69295317D01*
X234888334Y-69295317D01*
X234888338Y-69295318D01*
X235051596Y-69313713D01*
X235051600Y-69313713D01*
X235051604Y-69313713D01*
X235214861Y-69295318D01*
X235214863Y-69295317D01*
X235214867Y-69295317D01*
X235369946Y-69241053D01*
X235509063Y-69153640D01*
X235625240Y-69037463D01*
X235712653Y-68898346D01*
X235766917Y-68743267D01*
X235770714Y-68709568D01*
X235785313Y-68580003D01*
X235785313Y-68579996D01*
X235766918Y-68416738D01*
X235766917Y-68416734D01*
X235762671Y-68404600D01*
X235712653Y-68261654D01*
X235682609Y-68213840D01*
X235656868Y-68172873D01*
X235625240Y-68122537D01*
X235509063Y-68006360D01*
X235456687Y-67973450D01*
X235369947Y-67918947D01*
X235214865Y-67864682D01*
X235214861Y-67864681D01*
X235051604Y-67846287D01*
X235051596Y-67846287D01*
X234888338Y-67864681D01*
X234888334Y-67864682D01*
X234733252Y-67918947D01*
X234594136Y-68006360D01*
X234477960Y-68122536D01*
X234390547Y-68261652D01*
X234336282Y-68416734D01*
X234336281Y-68416738D01*
X234317887Y-68579996D01*
X234317887Y-68580003D01*
X223207453Y-68580003D01*
X223387278Y-68400178D01*
X224545350Y-67242106D01*
X224617930Y-67116394D01*
X224655500Y-66976180D01*
X224655500Y-66831020D01*
X224655500Y-63754000D01*
X228653584Y-63754000D01*
X228672395Y-63932975D01*
X228672396Y-63932977D01*
X228726664Y-64100000D01*
X228728005Y-64104125D01*
X228817985Y-64259975D01*
X228938402Y-64393711D01*
X229059760Y-64481883D01*
X229081293Y-64497528D01*
X229123958Y-64552858D01*
X229129937Y-64622472D01*
X229097331Y-64684267D01*
X229074380Y-64702839D01*
X229031539Y-64729758D01*
X229031536Y-64729760D01*
X228915360Y-64845936D01*
X228827947Y-64985052D01*
X228773682Y-65140134D01*
X228773681Y-65140138D01*
X228755287Y-65303396D01*
X228755287Y-65303403D01*
X228773681Y-65466661D01*
X228773682Y-65466665D01*
X228827947Y-65621747D01*
X228899645Y-65735853D01*
X228915360Y-65760863D01*
X229031537Y-65877040D01*
X229170654Y-65964453D01*
X229325733Y-66018717D01*
X229325734Y-66018717D01*
X229325738Y-66018718D01*
X229488996Y-66037113D01*
X229489000Y-66037113D01*
X229489004Y-66037113D01*
X229652261Y-66018718D01*
X229652263Y-66018717D01*
X229652267Y-66018717D01*
X229807346Y-65964453D01*
X229946463Y-65877040D01*
X230062640Y-65760863D01*
X230150053Y-65621746D01*
X230204317Y-65466667D01*
X230205487Y-65456286D01*
X230222713Y-65303403D01*
X230222713Y-65303396D01*
X230204318Y-65140138D01*
X230204317Y-65140134D01*
X230200496Y-65129215D01*
X230150053Y-64985054D01*
X230143533Y-64974678D01*
X230100799Y-64906667D01*
X230094727Y-64897003D01*
X237111887Y-64897003D01*
X237130281Y-65060261D01*
X237130282Y-65060265D01*
X237184547Y-65215347D01*
X237231362Y-65289852D01*
X237271960Y-65354463D01*
X237388137Y-65470640D01*
X237527254Y-65558053D01*
X237682333Y-65612317D01*
X237682334Y-65612317D01*
X237682338Y-65612318D01*
X237845596Y-65630713D01*
X237845600Y-65630713D01*
X237845603Y-65630713D01*
X237943816Y-65619647D01*
X238012638Y-65631701D01*
X238064018Y-65679050D01*
X238081700Y-65742867D01*
X238081700Y-67416259D01*
X238062694Y-67482231D01*
X237971947Y-67626652D01*
X237917682Y-67781734D01*
X237917681Y-67781738D01*
X237899287Y-67944996D01*
X237899287Y-67945003D01*
X237917681Y-68108261D01*
X237917682Y-68108265D01*
X237971947Y-68263347D01*
X238039932Y-68371544D01*
X238059360Y-68402463D01*
X238175537Y-68518640D01*
X238231836Y-68554015D01*
X238307062Y-68601283D01*
X238314654Y-68606053D01*
X238469733Y-68660317D01*
X238469734Y-68660317D01*
X238469738Y-68660318D01*
X238632996Y-68678713D01*
X238633000Y-68678713D01*
X238633004Y-68678713D01*
X238796261Y-68660318D01*
X238796263Y-68660317D01*
X238796267Y-68660317D01*
X238951346Y-68606053D01*
X239090463Y-68518640D01*
X239206640Y-68402463D01*
X239294053Y-68263346D01*
X239348317Y-68108267D01*
X239348318Y-68108261D01*
X239366713Y-67945003D01*
X239366713Y-67944996D01*
X239348318Y-67781738D01*
X239348317Y-67781734D01*
X239311714Y-67677129D01*
X239294053Y-67626654D01*
X239288312Y-67617518D01*
X239203306Y-67482231D01*
X239184300Y-67416259D01*
X239184300Y-64638340D01*
X239203306Y-64572368D01*
X239206638Y-64567064D01*
X239206640Y-64567063D01*
X239294053Y-64427946D01*
X239348317Y-64272867D01*
X239348318Y-64272861D01*
X239366713Y-64109603D01*
X239366713Y-64109596D01*
X239348318Y-63946338D01*
X239348317Y-63946334D01*
X239347971Y-63945346D01*
X239294053Y-63791254D01*
X239206640Y-63652137D01*
X239090463Y-63535960D01*
X239073816Y-63525500D01*
X238951347Y-63448547D01*
X238796265Y-63394282D01*
X238796261Y-63394281D01*
X238633004Y-63375887D01*
X238632996Y-63375887D01*
X238469738Y-63394281D01*
X238469734Y-63394282D01*
X238314652Y-63448547D01*
X238175536Y-63535960D01*
X238059360Y-63652136D01*
X237971947Y-63791252D01*
X237917682Y-63946334D01*
X237917681Y-63946338D01*
X237904921Y-64059585D01*
X237877854Y-64123999D01*
X237820259Y-64163554D01*
X237795585Y-64168921D01*
X237682338Y-64181681D01*
X237682334Y-64181682D01*
X237527252Y-64235947D01*
X237388136Y-64323360D01*
X237271960Y-64439536D01*
X237184547Y-64578652D01*
X237130282Y-64733734D01*
X237130281Y-64733738D01*
X237111887Y-64896996D01*
X237111887Y-64897003D01*
X230094727Y-64897003D01*
X230062640Y-64845937D01*
X229946463Y-64729760D01*
X229928156Y-64718257D01*
X229881866Y-64665924D01*
X229871217Y-64596870D01*
X229899592Y-64533022D01*
X229939438Y-64503173D01*
X229939185Y-64502735D01*
X229942844Y-64500622D01*
X229943698Y-64499983D01*
X229944808Y-64499489D01*
X230090398Y-64393711D01*
X230210815Y-64259975D01*
X230300795Y-64104125D01*
X230356405Y-63932974D01*
X230375216Y-63754000D01*
X230369877Y-63703203D01*
X231117487Y-63703203D01*
X231135881Y-63866461D01*
X231135882Y-63866465D01*
X231190147Y-64021547D01*
X231254522Y-64123999D01*
X231277560Y-64160663D01*
X231393737Y-64276840D01*
X231452005Y-64313452D01*
X231497944Y-64342318D01*
X231532854Y-64364253D01*
X231687933Y-64418517D01*
X231687934Y-64418517D01*
X231687938Y-64418518D01*
X231851196Y-64436913D01*
X231851200Y-64436913D01*
X231851204Y-64436913D01*
X232014461Y-64418518D01*
X232014463Y-64418517D01*
X232014467Y-64418517D01*
X232169546Y-64364253D01*
X232308663Y-64276840D01*
X232424840Y-64160663D01*
X232512253Y-64021546D01*
X232566517Y-63866467D01*
X232566518Y-63866461D01*
X232584913Y-63703203D01*
X232584913Y-63703196D01*
X232566518Y-63539938D01*
X232566517Y-63539934D01*
X232565126Y-63535960D01*
X232512253Y-63384854D01*
X232501359Y-63367517D01*
X232426278Y-63248026D01*
X232424840Y-63245737D01*
X232308663Y-63129560D01*
X232296999Y-63122231D01*
X232169547Y-63042147D01*
X232014465Y-62987882D01*
X232014461Y-62987881D01*
X231851204Y-62969487D01*
X231851196Y-62969487D01*
X231687938Y-62987881D01*
X231687934Y-62987882D01*
X231532852Y-63042147D01*
X231393736Y-63129560D01*
X231277560Y-63245736D01*
X231190147Y-63384852D01*
X231135882Y-63539934D01*
X231135881Y-63539938D01*
X231117487Y-63703196D01*
X231117487Y-63703203D01*
X230369877Y-63703203D01*
X230356405Y-63575026D01*
X230300795Y-63403875D01*
X230210815Y-63248025D01*
X230090398Y-63114289D01*
X229944808Y-63008511D01*
X229780407Y-62935315D01*
X229780406Y-62935314D01*
X229780402Y-62935313D01*
X229604380Y-62897900D01*
X229424420Y-62897900D01*
X229248397Y-62935313D01*
X229083988Y-63008513D01*
X228938400Y-63114290D01*
X228817984Y-63248026D01*
X228728004Y-63403876D01*
X228672396Y-63575022D01*
X228672395Y-63575024D01*
X228653584Y-63754000D01*
X224655500Y-63754000D01*
X224655500Y-59283917D01*
X224675185Y-59216878D01*
X224691814Y-59196241D01*
X227535695Y-56352359D01*
X227597018Y-56318875D01*
X227666710Y-56323859D01*
X227711057Y-56352360D01*
X227736137Y-56377440D01*
X227771255Y-56399506D01*
X227871585Y-56462548D01*
X227875254Y-56464853D01*
X228030333Y-56519117D01*
X228030334Y-56519117D01*
X228030338Y-56519118D01*
X228193596Y-56537513D01*
X228193600Y-56537513D01*
X228193604Y-56537513D01*
X228356861Y-56519118D01*
X228356863Y-56519117D01*
X228356867Y-56519117D01*
X228511946Y-56464853D01*
X228615945Y-56399505D01*
X228681917Y-56380500D01*
X229854778Y-56380500D01*
X229854780Y-56380500D01*
X229994994Y-56342930D01*
X230120706Y-56270350D01*
X230986055Y-55405000D01*
X239062601Y-55405000D01*
X239062601Y-55654986D01*
X239073094Y-55757697D01*
X239128241Y-55924119D01*
X239128243Y-55924124D01*
X239220284Y-56073345D01*
X239344254Y-56197315D01*
X239493475Y-56289356D01*
X239493480Y-56289358D01*
X239659902Y-56344505D01*
X239659909Y-56344506D01*
X239762619Y-56354999D01*
X240112599Y-56354999D01*
X240112600Y-56354998D01*
X240112600Y-55405000D01*
X239062601Y-55405000D01*
X230986055Y-55405000D01*
X232084013Y-54307041D01*
X232145334Y-54273558D01*
X232211954Y-54277442D01*
X232295986Y-54306291D01*
X232518967Y-54343500D01*
X232518968Y-54343500D01*
X232745032Y-54343500D01*
X232745033Y-54343500D01*
X232968014Y-54306291D01*
X233181831Y-54232888D01*
X233380649Y-54125293D01*
X233559046Y-53986440D01*
X233692759Y-53841190D01*
X233712149Y-53820127D01*
X233712151Y-53820124D01*
X233712156Y-53820119D01*
X233835802Y-53630865D01*
X233926611Y-53423841D01*
X233982107Y-53204693D01*
X233992897Y-53074480D01*
X234000775Y-52979406D01*
X234000775Y-52979393D01*
X233985376Y-52793561D01*
X233982107Y-52754107D01*
X233926611Y-52534959D01*
X233835802Y-52327935D01*
X233834947Y-52326627D01*
X233746585Y-52191379D01*
X233712156Y-52138681D01*
X233712153Y-52138678D01*
X233712149Y-52138672D01*
X233559049Y-51972363D01*
X233559048Y-51972362D01*
X233559046Y-51972360D01*
X233380649Y-51833507D01*
X233354390Y-51819296D01*
X233181832Y-51725912D01*
X233181827Y-51725910D01*
X232968017Y-51652509D01*
X232774319Y-51620187D01*
X232745033Y-51615300D01*
X232518967Y-51615300D01*
X232489681Y-51620187D01*
X232295982Y-51652509D01*
X232082172Y-51725910D01*
X232082167Y-51725912D01*
X231883352Y-51833506D01*
X231704955Y-51972359D01*
X231704950Y-51972363D01*
X231551850Y-52138672D01*
X231551842Y-52138683D01*
X231465808Y-52270368D01*
X231412662Y-52315725D01*
X231343430Y-52325148D01*
X231280095Y-52295646D01*
X231258192Y-52270368D01*
X231173987Y-52141484D01*
X231172156Y-52138681D01*
X231172153Y-52138678D01*
X231172149Y-52138672D01*
X231019049Y-51972363D01*
X231019048Y-51972362D01*
X231019046Y-51972360D01*
X230840649Y-51833507D01*
X230814390Y-51819296D01*
X230641832Y-51725912D01*
X230641827Y-51725910D01*
X230428017Y-51652509D01*
X230234319Y-51620187D01*
X230205033Y-51615300D01*
X229978967Y-51615300D01*
X229949681Y-51620187D01*
X229755982Y-51652509D01*
X229542172Y-51725910D01*
X229542167Y-51725912D01*
X229343352Y-51833506D01*
X229164955Y-51972359D01*
X229164950Y-51972363D01*
X229011850Y-52138672D01*
X229011842Y-52138683D01*
X228925808Y-52270368D01*
X228872662Y-52315725D01*
X228803430Y-52325148D01*
X228740095Y-52295646D01*
X228718192Y-52270368D01*
X228633987Y-52141484D01*
X228632156Y-52138681D01*
X228632153Y-52138678D01*
X228632149Y-52138672D01*
X228479049Y-51972363D01*
X228479048Y-51972362D01*
X228479046Y-51972360D01*
X228300649Y-51833507D01*
X228274390Y-51819296D01*
X228101832Y-51725912D01*
X228101827Y-51725910D01*
X227888017Y-51652509D01*
X227694319Y-51620187D01*
X227665033Y-51615300D01*
X227438967Y-51615300D01*
X227409681Y-51620187D01*
X227215982Y-51652509D01*
X227002172Y-51725910D01*
X227002167Y-51725912D01*
X226803352Y-51833506D01*
X226624955Y-51972359D01*
X226624950Y-51972363D01*
X226471850Y-52138672D01*
X226471842Y-52138683D01*
X226385808Y-52270368D01*
X226332662Y-52315725D01*
X226263430Y-52325148D01*
X226200095Y-52295646D01*
X226178192Y-52270368D01*
X226093987Y-52141484D01*
X226092156Y-52138681D01*
X226092153Y-52138678D01*
X226092149Y-52138672D01*
X225939049Y-51972363D01*
X225939048Y-51972362D01*
X225939046Y-51972360D01*
X225760649Y-51833507D01*
X225734390Y-51819296D01*
X225561832Y-51725912D01*
X225561827Y-51725910D01*
X225348017Y-51652509D01*
X225154319Y-51620187D01*
X225125033Y-51615300D01*
X224898967Y-51615300D01*
X224869681Y-51620187D01*
X224675982Y-51652509D01*
X224462172Y-51725910D01*
X224462167Y-51725912D01*
X224263352Y-51833506D01*
X224084955Y-51972359D01*
X224084950Y-51972363D01*
X223931850Y-52138672D01*
X223931842Y-52138683D01*
X223845808Y-52270368D01*
X223792662Y-52315725D01*
X223723430Y-52325148D01*
X223660095Y-52295646D01*
X223638192Y-52270368D01*
X223553987Y-52141484D01*
X223552156Y-52138681D01*
X223552153Y-52138678D01*
X223552149Y-52138672D01*
X223399049Y-51972363D01*
X223399048Y-51972362D01*
X223399046Y-51972360D01*
X223220649Y-51833507D01*
X223194390Y-51819296D01*
X223021832Y-51725912D01*
X223021827Y-51725910D01*
X222808017Y-51652509D01*
X222614319Y-51620187D01*
X222585033Y-51615300D01*
X222358967Y-51615300D01*
X222329681Y-51620187D01*
X222135982Y-51652509D01*
X221922172Y-51725910D01*
X221922167Y-51725912D01*
X221723352Y-51833506D01*
X221544955Y-51972359D01*
X221544950Y-51972363D01*
X221391850Y-52138672D01*
X221391842Y-52138683D01*
X221305808Y-52270368D01*
X221252662Y-52315725D01*
X221183430Y-52325148D01*
X221120095Y-52295646D01*
X221098192Y-52270368D01*
X221013987Y-52141484D01*
X221012156Y-52138681D01*
X221012153Y-52138678D01*
X221012149Y-52138672D01*
X220859049Y-51972363D01*
X220859048Y-51972362D01*
X220859046Y-51972360D01*
X220680649Y-51833507D01*
X220654390Y-51819296D01*
X220481832Y-51725912D01*
X220481827Y-51725910D01*
X220268017Y-51652509D01*
X220074319Y-51620187D01*
X220045033Y-51615300D01*
X219818967Y-51615300D01*
X219789681Y-51620187D01*
X219595982Y-51652509D01*
X219382172Y-51725910D01*
X219382167Y-51725912D01*
X219183352Y-51833506D01*
X219004955Y-51972359D01*
X219004950Y-51972363D01*
X218851850Y-52138672D01*
X218851842Y-52138683D01*
X218765509Y-52270825D01*
X218712363Y-52316182D01*
X218643131Y-52325605D01*
X218579796Y-52296102D01*
X218557892Y-52270824D01*
X218471759Y-52138987D01*
X218318715Y-51972738D01*
X218318703Y-51972727D01*
X218140376Y-51833929D01*
X217941630Y-51726372D01*
X217941624Y-51726370D01*
X217727893Y-51652996D01*
X217642000Y-51638663D01*
X217642000Y-52537148D01*
X217588081Y-52506019D01*
X217458880Y-52471400D01*
X217325120Y-52471400D01*
X217195919Y-52506019D01*
X217142000Y-52537148D01*
X217142000Y-51638663D01*
X217141999Y-51638663D01*
X217056106Y-51652996D01*
X216842375Y-51726370D01*
X216842369Y-51726372D01*
X216643623Y-51833929D01*
X216465296Y-51972727D01*
X216465284Y-51972738D01*
X216312240Y-52138987D01*
X216188639Y-52328174D01*
X216097864Y-52535121D01*
X216048666Y-52729400D01*
X216949749Y-52729400D01*
X216918619Y-52783319D01*
X216884000Y-52912520D01*
X216884000Y-53046280D01*
X216918619Y-53175481D01*
X216949749Y-53229400D01*
X216048666Y-53229400D01*
X216097864Y-53423678D01*
X216188639Y-53630625D01*
X216312240Y-53819812D01*
X216465284Y-53986061D01*
X216465296Y-53986072D01*
X216643623Y-54124870D01*
X216842369Y-54232427D01*
X216842375Y-54232429D01*
X217056106Y-54305803D01*
X217142000Y-54320136D01*
X217142000Y-53421651D01*
X217195919Y-53452781D01*
X217325120Y-53487400D01*
X217458880Y-53487400D01*
X217588081Y-53452781D01*
X217642000Y-53421651D01*
X217642000Y-54320135D01*
X217727893Y-54305803D01*
X217941624Y-54232429D01*
X217941630Y-54232427D01*
X218140376Y-54124870D01*
X218318703Y-53986072D01*
X218318715Y-53986061D01*
X218471759Y-53819812D01*
X218557892Y-53687975D01*
X218611038Y-53642618D01*
X218680269Y-53633194D01*
X218743605Y-53662696D01*
X218765509Y-53687974D01*
X218851842Y-53820116D01*
X218851850Y-53820127D01*
X219003158Y-53984489D01*
X219004954Y-53986440D01*
X219117137Y-54073756D01*
X219157948Y-54130464D01*
X219161623Y-54200237D01*
X219128654Y-54259288D01*
X217517294Y-55870650D01*
X217414652Y-55973291D01*
X217414647Y-55973297D01*
X217342071Y-56099002D01*
X217342071Y-56099003D01*
X217304500Y-56239220D01*
X217304500Y-63039259D01*
X217284815Y-63106298D01*
X217272650Y-63122231D01*
X217159384Y-63248026D01*
X217069404Y-63403876D01*
X217013796Y-63575022D01*
X217013795Y-63575024D01*
X216994984Y-63754000D01*
X217013795Y-63932975D01*
X217013796Y-63932977D01*
X217068064Y-64100000D01*
X217069405Y-64104125D01*
X217159385Y-64259975D01*
X217279802Y-64393711D01*
X217425392Y-64499489D01*
X217589793Y-64572685D01*
X217589796Y-64572685D01*
X217589797Y-64572686D01*
X217617866Y-64578652D01*
X217765820Y-64610100D01*
X217945780Y-64610100D01*
X218121807Y-64572685D01*
X218286208Y-64499489D01*
X218431798Y-64393711D01*
X218552215Y-64259975D01*
X218642195Y-64104125D01*
X218697805Y-63932974D01*
X218716616Y-63754000D01*
X218697805Y-63575026D01*
X218642195Y-63403875D01*
X218552215Y-63248025D01*
X218497324Y-63187062D01*
X218438950Y-63122231D01*
X218408720Y-63059239D01*
X218407100Y-63039259D01*
X218407100Y-56591518D01*
X218426785Y-56524479D01*
X218443419Y-56503837D01*
X219306723Y-55640533D01*
X220373150Y-54574106D01*
X220445730Y-54448394D01*
X220483300Y-54308180D01*
X220483300Y-54305981D01*
X220483824Y-54304194D01*
X220484361Y-54300120D01*
X220484996Y-54300203D01*
X220502985Y-54238942D01*
X220548283Y-54196926D01*
X220600477Y-54168680D01*
X220680649Y-54125293D01*
X220859046Y-53986440D01*
X220992759Y-53841190D01*
X221012149Y-53820127D01*
X221012149Y-53820126D01*
X221012156Y-53820119D01*
X221098193Y-53688428D01*
X221151338Y-53643075D01*
X221220569Y-53633651D01*
X221283905Y-53663153D01*
X221305804Y-53688425D01*
X221391844Y-53820119D01*
X221391849Y-53820124D01*
X221391850Y-53820127D01*
X221543158Y-53984489D01*
X221544954Y-53986440D01*
X221723351Y-54125293D01*
X221723353Y-54125294D01*
X221723356Y-54125296D01*
X221855717Y-54196926D01*
X221905308Y-54246145D01*
X221920700Y-54305981D01*
X221920700Y-54956310D01*
X221901015Y-55023349D01*
X221848211Y-55069104D01*
X221810584Y-55079530D01*
X221731137Y-55088481D01*
X221731134Y-55088482D01*
X221576052Y-55142747D01*
X221465072Y-55212481D01*
X221397835Y-55231481D01*
X221333128Y-55212481D01*
X221222146Y-55142747D01*
X221222147Y-55142747D01*
X221067065Y-55088482D01*
X221067061Y-55088481D01*
X220903804Y-55070087D01*
X220903796Y-55070087D01*
X220740538Y-55088481D01*
X220740534Y-55088482D01*
X220585452Y-55142747D01*
X220446336Y-55230160D01*
X220330160Y-55346336D01*
X220242748Y-55485451D01*
X220188482Y-55640535D01*
X220184003Y-55680283D01*
X220156935Y-55744696D01*
X220148466Y-55754076D01*
X220132450Y-55770091D01*
X220059871Y-55895802D01*
X220059871Y-55895803D01*
X220059870Y-55895805D01*
X220059870Y-55895806D01*
X220033463Y-55994360D01*
X220022300Y-56036020D01*
X220022300Y-64439482D01*
X220002615Y-64506521D01*
X219985981Y-64527163D01*
X218875763Y-65637381D01*
X218814440Y-65670866D01*
X218788082Y-65673700D01*
X210930100Y-65673700D01*
X210863061Y-65654015D01*
X210817306Y-65601211D01*
X210806100Y-65549700D01*
X210806099Y-65200300D01*
X210825783Y-65133261D01*
X210878587Y-65087506D01*
X210930099Y-65076300D01*
X211061378Y-65076300D01*
X211061380Y-65076300D01*
X211201594Y-65038730D01*
X211327306Y-64966150D01*
X212073950Y-64219506D01*
X212146530Y-64093794D01*
X212184100Y-63953580D01*
X212184100Y-63808419D01*
X212184100Y-52708620D01*
X212146530Y-52568406D01*
X212142889Y-52562100D01*
X212073952Y-52442697D01*
X212073947Y-52442691D01*
X210821237Y-51189981D01*
X210787752Y-51128658D01*
X210792736Y-51058966D01*
X210834608Y-51003033D01*
X210900072Y-50978616D01*
X210908918Y-50978300D01*
X251409027Y-50978300D01*
X251476066Y-50997985D01*
G37*
%TD.AperFunction*%
%TA.AperFunction,Conductor*%
G36*
X230222851Y-80063073D02*
G01*
X230263380Y-80119987D01*
X230270200Y-80160544D01*
X230270200Y-80455100D01*
X230250515Y-80522139D01*
X230197711Y-80567894D01*
X230146200Y-80579100D01*
X229194200Y-80579100D01*
X229127161Y-80559415D01*
X229081406Y-80506611D01*
X229070200Y-80455100D01*
X229070200Y-80160544D01*
X229089885Y-80093505D01*
X229142689Y-80047750D01*
X229211847Y-80037806D01*
X229275403Y-80066831D01*
X229301587Y-80098544D01*
X229308430Y-80110396D01*
X229392604Y-80194570D01*
X229392605Y-80194571D01*
X229392607Y-80194572D01*
X229415531Y-80207807D01*
X229495696Y-80254090D01*
X229610680Y-80284900D01*
X229610683Y-80284900D01*
X229729717Y-80284900D01*
X229729720Y-80284900D01*
X229844704Y-80254090D01*
X229947796Y-80194570D01*
X230031970Y-80110396D01*
X230038812Y-80098544D01*
X230089379Y-80050329D01*
X230157986Y-80037105D01*
X230222851Y-80063073D01*
G37*
%TD.AperFunction*%
%TA.AperFunction,Conductor*%
G36*
X194456339Y-50997985D02*
G01*
X194502094Y-51050789D01*
X194513300Y-51102300D01*
X194513300Y-52081870D01*
X194513301Y-52081876D01*
X194519709Y-52141484D01*
X194538319Y-52191382D01*
X194543303Y-52261074D01*
X194538320Y-52278046D01*
X194520202Y-52326623D01*
X194520201Y-52326627D01*
X194513800Y-52386155D01*
X194513800Y-52709000D01*
X195839800Y-52709000D01*
X195906839Y-52728685D01*
X195952594Y-52781489D01*
X195963800Y-52833000D01*
X195963800Y-53984000D01*
X196461628Y-53984000D01*
X196461644Y-53983999D01*
X196521172Y-53977598D01*
X196521179Y-53977596D01*
X196655886Y-53927354D01*
X196655893Y-53927350D01*
X196770987Y-53841190D01*
X196770990Y-53841187D01*
X196857150Y-53726093D01*
X196857154Y-53726086D01*
X196907396Y-53591379D01*
X196907398Y-53591372D01*
X196913799Y-53531844D01*
X196913800Y-53531827D01*
X196913800Y-53461744D01*
X196933485Y-53394705D01*
X196986289Y-53348950D01*
X197055447Y-53339006D01*
X197119003Y-53368031D01*
X197145187Y-53399744D01*
X197152030Y-53411596D01*
X197236204Y-53495770D01*
X197339296Y-53555290D01*
X197454280Y-53586100D01*
X197454283Y-53586100D01*
X197573317Y-53586100D01*
X197573320Y-53586100D01*
X197688304Y-53555290D01*
X197791396Y-53495770D01*
X197875570Y-53411596D01*
X197882412Y-53399744D01*
X197932979Y-53351529D01*
X198001586Y-53338305D01*
X198066451Y-53364273D01*
X198106980Y-53421187D01*
X198113800Y-53461744D01*
X198113800Y-53531844D01*
X198120201Y-53591372D01*
X198120203Y-53591379D01*
X198170445Y-53726086D01*
X198170449Y-53726093D01*
X198256609Y-53841187D01*
X198256612Y-53841190D01*
X198371706Y-53927350D01*
X198371713Y-53927354D01*
X198506420Y-53977596D01*
X198506427Y-53977598D01*
X198565955Y-53983999D01*
X198565972Y-53984000D01*
X199063800Y-53984000D01*
X199063800Y-53209000D01*
X199563800Y-53209000D01*
X199563800Y-53984000D01*
X200061628Y-53984000D01*
X200061644Y-53983999D01*
X200121172Y-53977598D01*
X200121179Y-53977596D01*
X200255886Y-53927354D01*
X200255893Y-53927350D01*
X200370987Y-53841190D01*
X200370990Y-53841187D01*
X200457150Y-53726093D01*
X200457154Y-53726086D01*
X200507396Y-53591379D01*
X200507398Y-53591372D01*
X200513799Y-53531844D01*
X200513800Y-53531827D01*
X200513800Y-53209000D01*
X199563800Y-53209000D01*
X199063800Y-53209000D01*
X199063800Y-52833000D01*
X199083485Y-52765961D01*
X199136289Y-52720206D01*
X199187800Y-52709000D01*
X200513800Y-52709000D01*
X200513800Y-52386172D01*
X200513799Y-52386155D01*
X200507398Y-52326627D01*
X200489279Y-52278048D01*
X200484295Y-52208356D01*
X200489276Y-52191391D01*
X200507891Y-52141483D01*
X200507891Y-52141482D01*
X200508084Y-52140965D01*
X200549956Y-52085032D01*
X200615420Y-52060616D01*
X200624265Y-52060300D01*
X201190882Y-52060300D01*
X201257921Y-52079985D01*
X201278563Y-52096619D01*
X201443981Y-52262037D01*
X201477466Y-52323360D01*
X201480300Y-52349718D01*
X201480300Y-53978620D01*
X201480300Y-54123780D01*
X201514739Y-54252310D01*
X201517871Y-54263996D01*
X201517871Y-54263997D01*
X201590447Y-54389702D01*
X201590449Y-54389704D01*
X201590450Y-54389706D01*
X202328094Y-55127350D01*
X202453806Y-55199930D01*
X202594020Y-55237500D01*
X202739181Y-55237500D01*
X210474900Y-55237500D01*
X210541939Y-55257185D01*
X210587694Y-55309989D01*
X210598900Y-55361500D01*
X210598900Y-61622153D01*
X210579215Y-61689192D01*
X210526411Y-61734947D01*
X210457253Y-61744891D01*
X210431570Y-61738336D01*
X210412982Y-61731403D01*
X210412972Y-61731401D01*
X210353444Y-61725000D01*
X210155600Y-61725000D01*
X210155600Y-62751000D01*
X210135915Y-62818039D01*
X210083111Y-62863794D01*
X210031600Y-62875000D01*
X209779600Y-62875000D01*
X209712561Y-62855315D01*
X209666806Y-62802511D01*
X209655600Y-62751000D01*
X209655600Y-61725000D01*
X209457755Y-61725000D01*
X209398227Y-61731401D01*
X209398223Y-61731402D01*
X209324646Y-61758844D01*
X209254954Y-61763827D01*
X209237982Y-61758843D01*
X209163088Y-61730910D01*
X209163084Y-61730909D01*
X209163083Y-61730909D01*
X209103473Y-61724500D01*
X209103463Y-61724500D01*
X208607729Y-61724500D01*
X208607723Y-61724501D01*
X208548116Y-61730908D01*
X208473932Y-61758577D01*
X208404240Y-61763561D01*
X208387268Y-61758577D01*
X208313088Y-61730910D01*
X208313084Y-61730909D01*
X208313083Y-61730909D01*
X208253473Y-61724500D01*
X208253463Y-61724500D01*
X207757729Y-61724500D01*
X207757723Y-61724501D01*
X207698116Y-61730908D01*
X207623932Y-61758577D01*
X207554240Y-61763561D01*
X207537268Y-61758577D01*
X207463088Y-61730910D01*
X207463084Y-61730909D01*
X207463083Y-61730909D01*
X207403473Y-61724500D01*
X207403463Y-61724500D01*
X206907729Y-61724500D01*
X206907723Y-61724501D01*
X206848118Y-61730908D01*
X206773930Y-61758578D01*
X206704239Y-61763561D01*
X206687267Y-61758577D01*
X206605817Y-61728199D01*
X206606575Y-61726166D01*
X206557390Y-61698734D01*
X205283018Y-60424362D01*
X205249533Y-60363039D01*
X205246699Y-60336681D01*
X205246699Y-60297836D01*
X205231245Y-60180444D01*
X205231244Y-60180442D01*
X205231244Y-60180438D01*
X205231242Y-60180433D01*
X205230938Y-60179296D01*
X205230937Y-60178106D01*
X205230184Y-60172379D01*
X205230937Y-60172279D01*
X205230937Y-60122119D01*
X205230183Y-60122020D01*
X205230937Y-60116292D01*
X205230937Y-60115105D01*
X205231240Y-60113971D01*
X205231244Y-60113962D01*
X205246700Y-59996561D01*
X205246699Y-59657840D01*
X205246699Y-59657836D01*
X205231246Y-59540446D01*
X205231244Y-59540441D01*
X205231244Y-59540438D01*
X205170736Y-59394359D01*
X205170735Y-59394358D01*
X205170735Y-59394357D01*
X205123124Y-59332309D01*
X205098968Y-59269826D01*
X205098561Y-59269880D01*
X205098339Y-59268200D01*
X205097930Y-59267140D01*
X205097804Y-59264137D01*
X205097500Y-59261827D01*
X205097500Y-59261820D01*
X205059930Y-59121606D01*
X204999656Y-59017209D01*
X204987352Y-58995897D01*
X204987347Y-58995891D01*
X203944908Y-57953452D01*
X203944902Y-57953447D01*
X203819196Y-57880871D01*
X203819195Y-57880870D01*
X203819194Y-57880870D01*
X203678980Y-57843300D01*
X203678979Y-57843300D01*
X200319513Y-57843300D01*
X200254416Y-57824838D01*
X200130095Y-57748155D01*
X200130089Y-57748152D01*
X200130087Y-57748151D01*
X199970485Y-57695264D01*
X199970483Y-57695263D01*
X199871981Y-57685200D01*
X199871974Y-57685200D01*
X199263626Y-57685200D01*
X199263618Y-57685200D01*
X199165116Y-57695263D01*
X199165115Y-57695264D01*
X199086019Y-57721473D01*
X199005515Y-57748150D01*
X199005504Y-57748155D01*
X198862412Y-57836416D01*
X198862408Y-57836419D01*
X198743519Y-57955308D01*
X198743516Y-57955312D01*
X198655255Y-58098404D01*
X198655250Y-58098415D01*
X198654504Y-58100667D01*
X198602364Y-58258015D01*
X198602364Y-58258016D01*
X198602363Y-58258016D01*
X198592300Y-58356518D01*
X198592300Y-58709900D01*
X198572615Y-58776939D01*
X198519811Y-58822694D01*
X198468300Y-58833900D01*
X198076500Y-58833900D01*
X198009461Y-58814215D01*
X197963706Y-58761411D01*
X197952500Y-58709900D01*
X197952500Y-58356531D01*
X197952499Y-58356518D01*
X197942436Y-58258016D01*
X197941684Y-58255746D01*
X197889549Y-58098413D01*
X197889545Y-58098407D01*
X197889544Y-58098404D01*
X197801283Y-57955312D01*
X197801280Y-57955308D01*
X197682391Y-57836419D01*
X197682387Y-57836416D01*
X197539295Y-57748155D01*
X197539289Y-57748152D01*
X197539287Y-57748151D01*
X197379685Y-57695264D01*
X197379683Y-57695263D01*
X197281181Y-57685200D01*
X197281174Y-57685200D01*
X196672826Y-57685200D01*
X196672818Y-57685200D01*
X196574316Y-57695263D01*
X196574315Y-57695264D01*
X196495219Y-57721473D01*
X196414715Y-57748150D01*
X196414704Y-57748155D01*
X196271612Y-57836416D01*
X196271608Y-57836419D01*
X196152719Y-57955308D01*
X196152716Y-57955312D01*
X196064455Y-58098404D01*
X196064450Y-58098415D01*
X196063704Y-58100667D01*
X196011564Y-58258015D01*
X196011564Y-58258016D01*
X196011563Y-58258016D01*
X196001500Y-58356518D01*
X196001500Y-58889881D01*
X196011563Y-58988383D01*
X196064450Y-59147984D01*
X196064455Y-59147995D01*
X196152716Y-59291087D01*
X196152719Y-59291092D01*
X196185000Y-59323373D01*
X196218485Y-59384697D01*
X196213499Y-59454388D01*
X196185000Y-59498733D01*
X196153114Y-59530619D01*
X196064908Y-59673622D01*
X196064906Y-59673627D01*
X196012057Y-59833116D01*
X196002000Y-59931549D01*
X196002000Y-59948200D01*
X197972466Y-59948200D01*
X197988703Y-59939334D01*
X198015061Y-59936500D01*
X198529738Y-59936500D01*
X198569583Y-59948200D01*
X200542799Y-59948200D01*
X200542799Y-59931564D01*
X200542798Y-59931549D01*
X200533436Y-59839902D01*
X200546206Y-59771209D01*
X200594086Y-59720325D01*
X200656794Y-59703300D01*
X202553300Y-59703300D01*
X202620339Y-59722985D01*
X202666094Y-59775789D01*
X202677300Y-59827299D01*
X202677300Y-59996563D01*
X202692755Y-60113963D01*
X202693063Y-60115112D01*
X202693063Y-60116301D01*
X202693816Y-60122021D01*
X202693063Y-60122120D01*
X202693065Y-60172281D01*
X202693817Y-60172380D01*
X202693065Y-60178084D01*
X202693066Y-60179279D01*
X202692756Y-60180434D01*
X202677300Y-60297838D01*
X202677300Y-60636563D01*
X202692753Y-60753953D01*
X202692757Y-60753965D01*
X202753261Y-60900036D01*
X202753261Y-60900037D01*
X202753263Y-60900040D01*
X202753264Y-60900041D01*
X202800876Y-60962091D01*
X202826070Y-61027259D01*
X202826500Y-61037576D01*
X202826500Y-61083380D01*
X202862505Y-61217754D01*
X202864071Y-61223596D01*
X202864071Y-61223597D01*
X202936647Y-61349302D01*
X202936652Y-61349308D01*
X203100163Y-61512819D01*
X203133648Y-61574142D01*
X203128664Y-61643834D01*
X203086792Y-61699767D01*
X203021328Y-61724184D01*
X203012482Y-61724500D01*
X202657730Y-61724500D01*
X202657723Y-61724501D01*
X202598116Y-61730908D01*
X202523932Y-61758577D01*
X202454240Y-61763561D01*
X202437268Y-61758577D01*
X202363088Y-61730910D01*
X202363084Y-61730909D01*
X202363083Y-61730909D01*
X202303473Y-61724500D01*
X202303463Y-61724500D01*
X201807729Y-61724500D01*
X201807723Y-61724501D01*
X201748116Y-61730908D01*
X201673932Y-61758577D01*
X201604240Y-61763561D01*
X201587268Y-61758577D01*
X201513088Y-61730910D01*
X201513084Y-61730909D01*
X201513083Y-61730909D01*
X201453473Y-61724500D01*
X201453463Y-61724500D01*
X200957729Y-61724500D01*
X200957723Y-61724501D01*
X200898116Y-61730908D01*
X200823932Y-61758577D01*
X200754240Y-61763561D01*
X200737268Y-61758577D01*
X200663088Y-61730910D01*
X200663084Y-61730909D01*
X200663083Y-61730909D01*
X200603473Y-61724500D01*
X200603463Y-61724500D01*
X200107729Y-61724500D01*
X200107723Y-61724501D01*
X200048116Y-61730908D01*
X199973932Y-61758577D01*
X199904240Y-61763561D01*
X199887268Y-61758577D01*
X199813088Y-61730910D01*
X199813084Y-61730909D01*
X199813083Y-61730909D01*
X199753473Y-61724500D01*
X199753463Y-61724500D01*
X199257729Y-61724500D01*
X199257723Y-61724501D01*
X199198116Y-61730908D01*
X199123932Y-61758577D01*
X199054240Y-61763561D01*
X199037268Y-61758577D01*
X198963088Y-61730910D01*
X198963084Y-61730909D01*
X198963083Y-61730909D01*
X198903473Y-61724500D01*
X198903463Y-61724500D01*
X198407729Y-61724500D01*
X198407723Y-61724501D01*
X198348116Y-61730908D01*
X198273932Y-61758577D01*
X198204240Y-61763561D01*
X198187268Y-61758577D01*
X198113088Y-61730910D01*
X198113084Y-61730909D01*
X198113083Y-61730909D01*
X198053473Y-61724500D01*
X198053463Y-61724500D01*
X197557729Y-61724500D01*
X197557723Y-61724501D01*
X197498116Y-61730908D01*
X197423932Y-61758577D01*
X197354240Y-61763561D01*
X197337268Y-61758577D01*
X197263088Y-61730910D01*
X197263084Y-61730909D01*
X197263083Y-61730909D01*
X197203473Y-61724500D01*
X197203463Y-61724500D01*
X196707729Y-61724500D01*
X196707723Y-61724501D01*
X196648116Y-61730908D01*
X196573217Y-61758844D01*
X196503526Y-61763828D01*
X196486552Y-61758844D01*
X196412979Y-61731403D01*
X196412972Y-61731401D01*
X196353444Y-61725000D01*
X196155600Y-61725000D01*
X196155600Y-62751000D01*
X196135915Y-62818039D01*
X196083111Y-62863794D01*
X196031600Y-62875000D01*
X195005600Y-62875000D01*
X195005600Y-63072844D01*
X195012001Y-63132372D01*
X195012003Y-63132379D01*
X195039444Y-63205952D01*
X195044428Y-63275643D01*
X195039444Y-63292618D01*
X195011509Y-63367517D01*
X195005100Y-63427127D01*
X195005100Y-63427134D01*
X195005100Y-63427135D01*
X195005100Y-63922870D01*
X195005101Y-63922876D01*
X195011508Y-63982483D01*
X195039177Y-64056667D01*
X195044161Y-64126358D01*
X195039177Y-64143331D01*
X195011510Y-64217511D01*
X195011509Y-64217515D01*
X195011509Y-64217517D01*
X195005100Y-64277127D01*
X195005100Y-64277134D01*
X195005100Y-64277135D01*
X195005100Y-64772870D01*
X195005101Y-64772876D01*
X195011508Y-64832483D01*
X195039177Y-64906667D01*
X195044161Y-64976358D01*
X195039177Y-64993331D01*
X195011510Y-65067511D01*
X195011509Y-65067515D01*
X195011509Y-65067517D01*
X195005100Y-65127127D01*
X195005100Y-65127134D01*
X195005100Y-65127135D01*
X195005100Y-65622870D01*
X195005101Y-65622876D01*
X195011508Y-65682483D01*
X195039177Y-65756667D01*
X195044161Y-65826358D01*
X195039177Y-65843331D01*
X195011510Y-65917511D01*
X195011509Y-65917515D01*
X195011509Y-65917517D01*
X195005100Y-65977127D01*
X195005100Y-65977134D01*
X195005100Y-65977135D01*
X195005100Y-66472870D01*
X195005101Y-66472876D01*
X195011508Y-66532483D01*
X195039177Y-66606667D01*
X195044161Y-66676358D01*
X195039177Y-66693331D01*
X195011510Y-66767511D01*
X195011509Y-66767515D01*
X195011509Y-66767517D01*
X195005100Y-66827127D01*
X195005100Y-66827134D01*
X195005100Y-66827135D01*
X195005100Y-67322870D01*
X195005101Y-67322876D01*
X195011508Y-67382483D01*
X195039177Y-67456667D01*
X195044161Y-67526358D01*
X195039177Y-67543331D01*
X195011510Y-67617511D01*
X195011509Y-67617515D01*
X195011509Y-67617517D01*
X195005100Y-67677127D01*
X195005100Y-67677134D01*
X195005100Y-67677135D01*
X195005100Y-68172870D01*
X195005101Y-68172876D01*
X195011508Y-68232483D01*
X195039177Y-68306667D01*
X195044161Y-68376358D01*
X195039177Y-68393331D01*
X195011510Y-68467511D01*
X195011509Y-68467515D01*
X195011509Y-68467517D01*
X195005100Y-68527127D01*
X195005100Y-68527134D01*
X195005100Y-68527135D01*
X195005100Y-69022870D01*
X195005101Y-69022876D01*
X195011508Y-69082483D01*
X195039177Y-69156667D01*
X195044161Y-69226358D01*
X195039177Y-69243331D01*
X195011510Y-69317511D01*
X195011509Y-69317515D01*
X195011509Y-69317517D01*
X195005100Y-69377127D01*
X195005100Y-69377134D01*
X195005100Y-69377135D01*
X195005100Y-69872870D01*
X195005101Y-69872876D01*
X195011508Y-69932483D01*
X195039177Y-70006667D01*
X195044161Y-70076358D01*
X195039177Y-70093331D01*
X195011510Y-70167511D01*
X195011509Y-70167515D01*
X195011509Y-70167517D01*
X195005100Y-70227127D01*
X195005100Y-70227134D01*
X195005100Y-70227135D01*
X195005100Y-70722870D01*
X195005101Y-70722876D01*
X195011508Y-70782483D01*
X195039177Y-70856667D01*
X195044161Y-70926358D01*
X195039177Y-70943331D01*
X195011510Y-71017511D01*
X195011509Y-71017515D01*
X195011509Y-71017517D01*
X195005100Y-71077127D01*
X195005100Y-71077134D01*
X195005100Y-71077135D01*
X195005100Y-71572870D01*
X195005101Y-71572876D01*
X195011508Y-71632483D01*
X195039177Y-71706667D01*
X195044161Y-71776358D01*
X195039177Y-71793331D01*
X195011510Y-71867511D01*
X195011510Y-71867514D01*
X195011509Y-71867517D01*
X195005100Y-71927127D01*
X195005100Y-71927134D01*
X195005100Y-71927135D01*
X195005100Y-72422870D01*
X195005101Y-72422876D01*
X195011509Y-72482485D01*
X195039443Y-72557382D01*
X195044427Y-72627074D01*
X195039444Y-72644046D01*
X195012002Y-72717623D01*
X195012001Y-72717627D01*
X195005600Y-72777155D01*
X195005600Y-72825000D01*
X195257531Y-72825000D01*
X195300864Y-72832818D01*
X195398117Y-72869091D01*
X195398116Y-72869091D01*
X195405044Y-72869835D01*
X195457727Y-72875500D01*
X196353472Y-72875499D01*
X196413083Y-72869091D01*
X196510336Y-72832817D01*
X196553669Y-72825000D01*
X196805600Y-72825000D01*
X196805600Y-72777172D01*
X196805599Y-72777155D01*
X196799198Y-72717623D01*
X196771755Y-72644047D01*
X196766771Y-72574355D01*
X196771748Y-72557399D01*
X196799691Y-72482483D01*
X196806100Y-72422873D01*
X196806099Y-72164903D01*
X196825783Y-72097866D01*
X196878587Y-72052111D01*
X196947746Y-72042167D01*
X196971052Y-72047862D01*
X197016933Y-72063917D01*
X197016934Y-72063917D01*
X197016938Y-72063918D01*
X197180196Y-72082313D01*
X197180200Y-72082313D01*
X197180204Y-72082313D01*
X197343461Y-72063918D01*
X197343463Y-72063917D01*
X197343467Y-72063917D01*
X197498546Y-72009653D01*
X197637663Y-71922240D01*
X197753840Y-71806063D01*
X197841253Y-71666946D01*
X197890922Y-71525000D01*
X200155600Y-71525000D01*
X200155600Y-71922844D01*
X200162001Y-71982372D01*
X200162003Y-71982379D01*
X200212245Y-72117086D01*
X200212249Y-72117093D01*
X200298409Y-72232187D01*
X200298412Y-72232190D01*
X200413506Y-72318350D01*
X200413513Y-72318354D01*
X200548220Y-72368596D01*
X200548227Y-72368598D01*
X200607755Y-72374999D01*
X200607772Y-72375000D01*
X201005600Y-72375000D01*
X201005600Y-71525000D01*
X201505600Y-71525000D01*
X201505600Y-72375000D01*
X201903428Y-72375000D01*
X201903444Y-72374999D01*
X201962971Y-72368598D01*
X202037266Y-72340888D01*
X202106958Y-72335904D01*
X202123934Y-72340888D01*
X202198228Y-72368598D01*
X202198227Y-72368598D01*
X202257755Y-72374999D01*
X202257772Y-72375000D01*
X202655600Y-72375000D01*
X202655600Y-71525000D01*
X203155600Y-71525000D01*
X203155600Y-72375000D01*
X203553428Y-72375000D01*
X203553444Y-72374999D01*
X203612971Y-72368598D01*
X203687266Y-72340888D01*
X203756958Y-72335904D01*
X203773934Y-72340888D01*
X203848228Y-72368598D01*
X203848227Y-72368598D01*
X203907755Y-72374999D01*
X203907772Y-72375000D01*
X204305600Y-72375000D01*
X204305600Y-71525000D01*
X204805600Y-71525000D01*
X204805600Y-72374363D01*
X204884522Y-72364450D01*
X204884529Y-72364448D01*
X205017358Y-72309429D01*
X205084196Y-72257507D01*
X205084209Y-72257496D01*
X205538096Y-71803609D01*
X205538107Y-71803596D01*
X205590029Y-71736758D01*
X205590029Y-71736757D01*
X205645051Y-71603924D01*
X205654964Y-71525000D01*
X204805600Y-71525000D01*
X204305600Y-71525000D01*
X203155600Y-71525000D01*
X202655600Y-71525000D01*
X201505600Y-71525000D01*
X201005600Y-71525000D01*
X200155600Y-71525000D01*
X197890922Y-71525000D01*
X197895517Y-71511867D01*
X197896771Y-71500737D01*
X197913913Y-71348603D01*
X197913913Y-71348596D01*
X197895518Y-71185338D01*
X197895517Y-71185334D01*
X197876419Y-71130755D01*
X197841253Y-71030254D01*
X197790737Y-70949859D01*
X197771737Y-70882623D01*
X197790736Y-70817918D01*
X197815853Y-70777946D01*
X197870117Y-70622867D01*
X197872317Y-70603341D01*
X197888513Y-70459603D01*
X197888513Y-70459596D01*
X197870118Y-70296338D01*
X197870117Y-70296334D01*
X197858785Y-70263950D01*
X197815853Y-70141254D01*
X197728440Y-70002137D01*
X197612263Y-69885960D01*
X197594821Y-69875000D01*
X200155600Y-69875000D01*
X200155600Y-70272844D01*
X200162001Y-70332372D01*
X200162003Y-70332382D01*
X200189710Y-70406668D01*
X200194694Y-70476359D01*
X200189710Y-70493332D01*
X200162003Y-70567617D01*
X200162001Y-70567627D01*
X200155600Y-70627155D01*
X200155600Y-71025000D01*
X201005600Y-71025000D01*
X201005600Y-69875000D01*
X201505600Y-69875000D01*
X201505600Y-71025000D01*
X202655600Y-71025000D01*
X202655600Y-69875000D01*
X203155600Y-69875000D01*
X203155600Y-71025000D01*
X204305600Y-71025000D01*
X204305600Y-69875000D01*
X204805600Y-69875000D01*
X204805600Y-71025000D01*
X205655600Y-71025000D01*
X205655600Y-70627172D01*
X205655599Y-70627155D01*
X205649198Y-70567628D01*
X205621488Y-70493334D01*
X205616504Y-70423642D01*
X205621488Y-70406666D01*
X205649198Y-70332371D01*
X205655599Y-70272844D01*
X205655600Y-70272827D01*
X205655600Y-69875000D01*
X204805600Y-69875000D01*
X204305600Y-69875000D01*
X203155600Y-69875000D01*
X202655600Y-69875000D01*
X201505600Y-69875000D01*
X201005600Y-69875000D01*
X200155600Y-69875000D01*
X197594821Y-69875000D01*
X197591434Y-69872872D01*
X197473147Y-69798547D01*
X197318065Y-69744282D01*
X197318061Y-69744281D01*
X197154804Y-69725887D01*
X197154796Y-69725887D01*
X196991538Y-69744281D01*
X196991533Y-69744282D01*
X196971053Y-69751449D01*
X196901274Y-69755010D01*
X196840647Y-69720281D01*
X196808420Y-69658287D01*
X196806099Y-69634407D01*
X196806099Y-69377129D01*
X196806098Y-69377123D01*
X196801693Y-69336146D01*
X196799691Y-69317517D01*
X196772021Y-69243332D01*
X196767038Y-69173642D01*
X196772022Y-69156667D01*
X196799691Y-69082483D01*
X196806100Y-69022873D01*
X196806099Y-68527128D01*
X196799691Y-68467517D01*
X196772021Y-68393332D01*
X196767038Y-68323642D01*
X196772022Y-68306667D01*
X196799691Y-68232483D01*
X196800496Y-68225000D01*
X200155600Y-68225000D01*
X200155600Y-68622844D01*
X200162001Y-68682372D01*
X200162003Y-68682382D01*
X200189710Y-68756668D01*
X200194694Y-68826359D01*
X200189710Y-68843332D01*
X200162003Y-68917617D01*
X200162001Y-68917627D01*
X200155600Y-68977155D01*
X200155600Y-69375000D01*
X201005600Y-69375000D01*
X201005600Y-68225000D01*
X201505600Y-68225000D01*
X201505600Y-69375000D01*
X202655600Y-69375000D01*
X202655600Y-68225000D01*
X203155600Y-68225000D01*
X203155600Y-69375000D01*
X204305600Y-69375000D01*
X204305600Y-68225000D01*
X204805600Y-68225000D01*
X204805600Y-69375000D01*
X205655600Y-69375000D01*
X205655600Y-68977172D01*
X205655599Y-68977155D01*
X205649198Y-68917628D01*
X205621488Y-68843334D01*
X205616504Y-68773642D01*
X205621488Y-68756666D01*
X205649198Y-68682371D01*
X205655599Y-68622844D01*
X205655600Y-68622827D01*
X205655600Y-68225000D01*
X204805600Y-68225000D01*
X204305600Y-68225000D01*
X203155600Y-68225000D01*
X202655600Y-68225000D01*
X201505600Y-68225000D01*
X201005600Y-68225000D01*
X200155600Y-68225000D01*
X196800496Y-68225000D01*
X196806100Y-68172873D01*
X196806099Y-67725000D01*
X200155600Y-67725000D01*
X201005600Y-67725000D01*
X201005600Y-66875000D01*
X201505600Y-66875000D01*
X201505600Y-67725000D01*
X202655600Y-67725000D01*
X202655600Y-66875000D01*
X203155600Y-66875000D01*
X203155600Y-67725000D01*
X204305600Y-67725000D01*
X204305600Y-66875000D01*
X204805600Y-66875000D01*
X204805600Y-67725000D01*
X205655600Y-67725000D01*
X205655600Y-67327172D01*
X205655599Y-67327155D01*
X205649198Y-67267627D01*
X205649196Y-67267620D01*
X205598954Y-67132913D01*
X205598950Y-67132906D01*
X205512790Y-67017812D01*
X205512787Y-67017809D01*
X205397693Y-66931649D01*
X205397686Y-66931645D01*
X205262979Y-66881403D01*
X205262972Y-66881401D01*
X205203444Y-66875000D01*
X204805600Y-66875000D01*
X204305600Y-66875000D01*
X203907755Y-66875000D01*
X203848227Y-66881401D01*
X203848217Y-66881403D01*
X203773932Y-66909110D01*
X203704241Y-66914094D01*
X203687268Y-66909110D01*
X203612982Y-66881403D01*
X203612972Y-66881401D01*
X203553444Y-66875000D01*
X203155600Y-66875000D01*
X202655600Y-66875000D01*
X202257755Y-66875000D01*
X202198227Y-66881401D01*
X202198217Y-66881403D01*
X202123932Y-66909110D01*
X202054241Y-66914094D01*
X202037268Y-66909110D01*
X201962982Y-66881403D01*
X201962972Y-66881401D01*
X201903444Y-66875000D01*
X201505600Y-66875000D01*
X201005600Y-66875000D01*
X200607755Y-66875000D01*
X200548227Y-66881401D01*
X200548220Y-66881403D01*
X200413513Y-66931645D01*
X200413506Y-66931649D01*
X200298412Y-67017809D01*
X200298409Y-67017812D01*
X200212249Y-67132906D01*
X200212245Y-67132913D01*
X200162003Y-67267620D01*
X200162001Y-67267627D01*
X200155600Y-67327155D01*
X200155600Y-67725000D01*
X196806099Y-67725000D01*
X196806099Y-67677128D01*
X196799691Y-67617517D01*
X196772021Y-67543332D01*
X196767038Y-67473642D01*
X196772022Y-67456667D01*
X196799691Y-67382483D01*
X196806100Y-67322873D01*
X196806099Y-66827128D01*
X196799691Y-66767517D01*
X196772021Y-66693332D01*
X196767038Y-66623642D01*
X196772022Y-66606667D01*
X196799691Y-66532483D01*
X196806100Y-66472873D01*
X196806099Y-65977128D01*
X196799691Y-65917517D01*
X196772021Y-65843332D01*
X196767038Y-65773642D01*
X196772022Y-65756667D01*
X196799691Y-65682483D01*
X196806100Y-65622873D01*
X196806099Y-65127128D01*
X196799691Y-65067517D01*
X196772021Y-64993332D01*
X196767038Y-64923642D01*
X196772022Y-64906667D01*
X196799691Y-64832483D01*
X196806100Y-64772873D01*
X196806099Y-64277128D01*
X196799691Y-64217517D01*
X196772021Y-64143332D01*
X196767038Y-64073642D01*
X196772022Y-64056667D01*
X196799691Y-63982483D01*
X196806100Y-63922873D01*
X196806099Y-63649497D01*
X196825783Y-63582460D01*
X196878587Y-63536705D01*
X196930099Y-63525499D01*
X197203471Y-63525499D01*
X197203472Y-63525499D01*
X197263083Y-63519091D01*
X197337267Y-63491421D01*
X197406958Y-63486438D01*
X197423927Y-63491420D01*
X197498117Y-63519091D01*
X197557727Y-63525500D01*
X198053472Y-63525499D01*
X198113083Y-63519091D01*
X198187267Y-63491421D01*
X198256958Y-63486438D01*
X198273927Y-63491420D01*
X198348117Y-63519091D01*
X198407727Y-63525500D01*
X198903472Y-63525499D01*
X198963083Y-63519091D01*
X199037267Y-63491421D01*
X199106958Y-63486438D01*
X199123927Y-63491420D01*
X199198117Y-63519091D01*
X199257727Y-63525500D01*
X199753472Y-63525499D01*
X199813083Y-63519091D01*
X199887267Y-63491421D01*
X199956958Y-63486438D01*
X199973927Y-63491420D01*
X200048117Y-63519091D01*
X200107727Y-63525500D01*
X200603472Y-63525499D01*
X200663083Y-63519091D01*
X200737267Y-63491421D01*
X200806958Y-63486438D01*
X200823927Y-63491420D01*
X200898117Y-63519091D01*
X200957727Y-63525500D01*
X201201037Y-63525499D01*
X201268076Y-63545183D01*
X201313831Y-63597987D01*
X201324257Y-63635615D01*
X201341681Y-63790262D01*
X201341682Y-63790265D01*
X201395947Y-63945347D01*
X201471330Y-64065317D01*
X201483360Y-64084463D01*
X201599537Y-64200640D01*
X201639961Y-64226040D01*
X201721268Y-64277129D01*
X201738654Y-64288053D01*
X201893733Y-64342317D01*
X201893734Y-64342317D01*
X201893738Y-64342318D01*
X202056996Y-64360713D01*
X202057000Y-64360713D01*
X202057004Y-64360713D01*
X202220261Y-64342318D01*
X202220263Y-64342317D01*
X202220267Y-64342317D01*
X202375346Y-64288053D01*
X202392722Y-64277135D01*
X202402615Y-64270919D01*
X202469852Y-64251918D01*
X202534560Y-64270918D01*
X202561828Y-64288052D01*
X202602254Y-64313453D01*
X202757333Y-64367717D01*
X202757334Y-64367717D01*
X202757338Y-64367718D01*
X202920596Y-64386113D01*
X202920600Y-64386113D01*
X202920604Y-64386113D01*
X203083861Y-64367718D01*
X203083863Y-64367717D01*
X203083867Y-64367717D01*
X203238946Y-64313453D01*
X203378063Y-64226040D01*
X203494240Y-64109863D01*
X203581653Y-63970746D01*
X203635917Y-63815667D01*
X203635918Y-63815661D01*
X203654313Y-63652403D01*
X203654313Y-63649499D01*
X203654844Y-63647690D01*
X203655093Y-63645481D01*
X203655480Y-63645524D01*
X203673998Y-63582460D01*
X203726802Y-63536705D01*
X203778313Y-63525499D01*
X204003471Y-63525499D01*
X204003472Y-63525499D01*
X204063083Y-63519091D01*
X204137267Y-63491421D01*
X204206958Y-63486438D01*
X204223927Y-63491420D01*
X204298117Y-63519091D01*
X204357727Y-63525500D01*
X204853472Y-63525499D01*
X204913083Y-63519091D01*
X204987267Y-63491421D01*
X205056958Y-63486438D01*
X205073927Y-63491420D01*
X205148117Y-63519091D01*
X205207727Y-63525500D01*
X205703472Y-63525499D01*
X205763083Y-63519091D01*
X205837267Y-63491421D01*
X205906958Y-63486438D01*
X205923927Y-63491420D01*
X205998117Y-63519091D01*
X206057727Y-63525500D01*
X206480300Y-63525499D01*
X206547339Y-63545183D01*
X206593094Y-63597987D01*
X206604300Y-63649499D01*
X206604300Y-66316220D01*
X206604300Y-66461380D01*
X206637718Y-66586100D01*
X206641871Y-66601596D01*
X206641871Y-66601597D01*
X206714447Y-66727302D01*
X206714452Y-66727308D01*
X206937239Y-66950095D01*
X206970724Y-67011418D01*
X206972778Y-67023890D01*
X206980483Y-67092267D01*
X206994703Y-67132906D01*
X207034747Y-67247347D01*
X207084894Y-67327155D01*
X207122160Y-67386463D01*
X207238337Y-67502640D01*
X207377454Y-67590053D01*
X207532533Y-67644317D01*
X207532534Y-67644317D01*
X207532538Y-67644318D01*
X207695796Y-67662713D01*
X207695800Y-67662713D01*
X207695804Y-67662713D01*
X207859061Y-67644318D01*
X207859063Y-67644317D01*
X207859067Y-67644317D01*
X208014146Y-67590053D01*
X208153263Y-67502640D01*
X208269440Y-67386463D01*
X208356853Y-67247346D01*
X208411117Y-67092267D01*
X208411118Y-67092261D01*
X208429513Y-66929003D01*
X208429513Y-66928996D01*
X208411118Y-66765738D01*
X208411117Y-66765734D01*
X208397671Y-66727308D01*
X208356853Y-66610654D01*
X208351161Y-66601596D01*
X208303475Y-66525703D01*
X208269440Y-66471537D01*
X208153263Y-66355360D01*
X208102587Y-66323518D01*
X208014147Y-66267947D01*
X207936606Y-66240815D01*
X207859067Y-66213683D01*
X207847061Y-66212330D01*
X207817013Y-66208944D01*
X207752600Y-66181875D01*
X207713046Y-66124280D01*
X207706900Y-66085724D01*
X207706900Y-63649499D01*
X207726585Y-63582460D01*
X207779389Y-63536705D01*
X207830896Y-63525499D01*
X208253472Y-63525499D01*
X208313083Y-63519091D01*
X208387267Y-63491421D01*
X208456958Y-63486438D01*
X208473927Y-63491420D01*
X208548117Y-63519091D01*
X208607727Y-63525500D01*
X208881101Y-63525499D01*
X208948139Y-63545183D01*
X208993894Y-63597987D01*
X209005100Y-63649499D01*
X209005100Y-63922869D01*
X209005101Y-63922876D01*
X209011508Y-63982483D01*
X209039177Y-64056667D01*
X209044161Y-64126358D01*
X209039177Y-64143331D01*
X209011510Y-64217511D01*
X209011509Y-64217515D01*
X209011509Y-64217517D01*
X209005100Y-64277127D01*
X209005100Y-64277134D01*
X209005100Y-64277135D01*
X209005100Y-64772870D01*
X209005101Y-64772876D01*
X209011508Y-64832483D01*
X209039177Y-64906667D01*
X209044161Y-64976358D01*
X209039177Y-64993331D01*
X209011510Y-65067511D01*
X209011509Y-65067515D01*
X209011509Y-65067517D01*
X209005100Y-65127127D01*
X209005100Y-65127134D01*
X209005100Y-65127135D01*
X209005100Y-65622870D01*
X209005101Y-65622876D01*
X209011508Y-65682483D01*
X209039177Y-65756667D01*
X209044161Y-65826358D01*
X209039177Y-65843331D01*
X209011510Y-65917511D01*
X209011509Y-65917515D01*
X209011509Y-65917517D01*
X209005100Y-65977127D01*
X209005100Y-65977134D01*
X209005100Y-65977135D01*
X209005100Y-66472870D01*
X209005101Y-66472876D01*
X209011508Y-66532483D01*
X209039177Y-66606667D01*
X209044161Y-66676358D01*
X209039177Y-66693331D01*
X209011510Y-66767511D01*
X209011509Y-66767515D01*
X209011509Y-66767517D01*
X209005100Y-66827127D01*
X209005100Y-66827134D01*
X209005100Y-66827135D01*
X209005100Y-67322870D01*
X209005101Y-67322876D01*
X209011508Y-67382483D01*
X209039177Y-67456667D01*
X209044161Y-67526358D01*
X209039177Y-67543331D01*
X209011510Y-67617511D01*
X209011509Y-67617515D01*
X209011509Y-67617517D01*
X209005100Y-67677127D01*
X209005100Y-67677134D01*
X209005100Y-67677135D01*
X209005100Y-68172870D01*
X209005101Y-68172876D01*
X209011508Y-68232483D01*
X209039177Y-68306667D01*
X209044161Y-68376358D01*
X209039177Y-68393331D01*
X209011510Y-68467511D01*
X209011509Y-68467515D01*
X209011509Y-68467517D01*
X209005100Y-68527127D01*
X209005100Y-68527134D01*
X209005100Y-68527135D01*
X209005100Y-69022870D01*
X209005101Y-69022876D01*
X209011508Y-69082483D01*
X209039177Y-69156667D01*
X209044161Y-69226358D01*
X209039177Y-69243331D01*
X209011510Y-69317511D01*
X209011509Y-69317515D01*
X209011509Y-69317517D01*
X209005100Y-69377127D01*
X209005100Y-69377134D01*
X209005100Y-69377135D01*
X209005100Y-69872870D01*
X209005101Y-69872876D01*
X209011508Y-69932483D01*
X209039177Y-70006667D01*
X209044161Y-70076358D01*
X209039177Y-70093331D01*
X209011510Y-70167511D01*
X209011509Y-70167515D01*
X209011509Y-70167517D01*
X209005100Y-70227127D01*
X209005100Y-70227134D01*
X209005100Y-70227135D01*
X209005100Y-70722870D01*
X209005101Y-70722876D01*
X209011508Y-70782483D01*
X209039177Y-70856667D01*
X209044161Y-70926358D01*
X209039177Y-70943331D01*
X209011510Y-71017511D01*
X209011509Y-71017515D01*
X209011509Y-71017517D01*
X209005100Y-71077127D01*
X209005100Y-71077134D01*
X209005100Y-71077135D01*
X209005100Y-71572870D01*
X209005101Y-71572876D01*
X209011508Y-71632483D01*
X209039177Y-71706667D01*
X209044161Y-71776358D01*
X209039177Y-71793331D01*
X209011509Y-71867514D01*
X209011508Y-71867516D01*
X209005101Y-71927116D01*
X209005100Y-71927135D01*
X209005100Y-72171268D01*
X208985415Y-72238307D01*
X208932611Y-72284062D01*
X208867218Y-72294488D01*
X208838805Y-72291287D01*
X208838796Y-72291287D01*
X208675538Y-72309681D01*
X208675534Y-72309682D01*
X208520452Y-72363947D01*
X208381336Y-72451360D01*
X208265160Y-72567536D01*
X208177747Y-72706652D01*
X208123482Y-72861734D01*
X208123481Y-72861738D01*
X208105087Y-73024996D01*
X208105087Y-73025003D01*
X208123481Y-73188261D01*
X208123482Y-73188265D01*
X208177747Y-73343347D01*
X208265160Y-73482463D01*
X208269501Y-73487906D01*
X208268153Y-73488980D01*
X208297401Y-73542542D01*
X208292417Y-73612234D01*
X208250545Y-73668167D01*
X208185081Y-73692584D01*
X208176235Y-73692900D01*
X197163817Y-73692900D01*
X197125005Y-73703299D01*
X197125006Y-73703300D01*
X197023602Y-73730471D01*
X196991600Y-73748948D01*
X196923700Y-73765421D01*
X196857673Y-73742568D01*
X196814482Y-73687647D01*
X196805600Y-73641561D01*
X196805600Y-73627172D01*
X196805599Y-73627155D01*
X196799198Y-73567628D01*
X196771488Y-73493334D01*
X196766504Y-73423642D01*
X196771488Y-73406666D01*
X196799198Y-73332371D01*
X196805599Y-73272844D01*
X196805600Y-73272827D01*
X196805600Y-73225000D01*
X196105600Y-73225000D01*
X196105600Y-73900500D01*
X196085915Y-73967539D01*
X196033111Y-74013294D01*
X195981600Y-74024500D01*
X195457729Y-74024500D01*
X195457723Y-74024501D01*
X195398116Y-74030908D01*
X195300864Y-74067182D01*
X195257531Y-74075000D01*
X195005600Y-74075000D01*
X195005600Y-74122844D01*
X195012001Y-74182372D01*
X195012003Y-74182379D01*
X195039444Y-74255952D01*
X195044428Y-74325643D01*
X195039444Y-74342618D01*
X195011508Y-74417517D01*
X195005101Y-74477116D01*
X195005100Y-74477135D01*
X195005100Y-74677818D01*
X194985415Y-74744857D01*
X194932611Y-74790612D01*
X194863453Y-74800556D01*
X194854710Y-74798932D01*
X194691003Y-74780487D01*
X194690996Y-74780487D01*
X194527738Y-74798881D01*
X194527734Y-74798882D01*
X194372652Y-74853147D01*
X194233536Y-74940560D01*
X194117360Y-75056736D01*
X194029947Y-75195852D01*
X193975682Y-75350934D01*
X193975681Y-75350938D01*
X193957287Y-75514196D01*
X193957287Y-75514203D01*
X193975681Y-75677461D01*
X193975682Y-75677465D01*
X194029947Y-75832547D01*
X194093787Y-75934147D01*
X194117360Y-75971663D01*
X194233537Y-76087840D01*
X194294746Y-76126300D01*
X194371619Y-76174603D01*
X194372654Y-76175253D01*
X194527733Y-76229517D01*
X194527734Y-76229517D01*
X194527738Y-76229518D01*
X194690996Y-76247913D01*
X194691000Y-76247913D01*
X194691004Y-76247913D01*
X194861188Y-76228738D01*
X194861333Y-76230027D01*
X194923733Y-76233844D01*
X194980095Y-76275136D01*
X195005186Y-76340345D01*
X195005600Y-76350467D01*
X195005600Y-76375000D01*
X196755600Y-76375000D01*
X196755600Y-76023068D01*
X196763417Y-75979737D01*
X196799691Y-75882483D01*
X196806100Y-75822873D01*
X196806100Y-75725000D01*
X197155600Y-75725000D01*
X197155600Y-76425000D01*
X197605600Y-76425000D01*
X197605600Y-75725000D01*
X198005600Y-75725000D01*
X198005600Y-76425000D01*
X198455600Y-76425000D01*
X198455600Y-75725000D01*
X198855600Y-75725000D01*
X198855600Y-76425000D01*
X199305600Y-76425000D01*
X199305600Y-75725000D01*
X199705600Y-75725000D01*
X199705600Y-76425000D01*
X200155600Y-76425000D01*
X200155600Y-75725000D01*
X200555600Y-75725000D01*
X200555600Y-76425000D01*
X201005600Y-76425000D01*
X201005600Y-75725000D01*
X201405600Y-75725000D01*
X201405600Y-76425000D01*
X201855600Y-76425000D01*
X201855600Y-75725000D01*
X202255600Y-75725000D01*
X202255600Y-76425000D01*
X202705600Y-76425000D01*
X202705600Y-75725000D01*
X203105600Y-75725000D01*
X203105600Y-76425000D01*
X203555600Y-76425000D01*
X203555600Y-75725000D01*
X203955600Y-75725000D01*
X203955600Y-76425000D01*
X204405600Y-76425000D01*
X204405600Y-75725000D01*
X204805600Y-75725000D01*
X204805600Y-76425000D01*
X205255600Y-76425000D01*
X205255600Y-75725000D01*
X205655600Y-75725000D01*
X205655600Y-76425000D01*
X206105600Y-76425000D01*
X206105600Y-75725000D01*
X206505600Y-75725000D01*
X206505600Y-76425000D01*
X206955600Y-76425000D01*
X206955600Y-75725000D01*
X206907755Y-75725000D01*
X206848227Y-75731401D01*
X206848217Y-75731403D01*
X206773932Y-75759110D01*
X206704241Y-75764094D01*
X206687268Y-75759110D01*
X206612982Y-75731403D01*
X206612972Y-75731401D01*
X206553444Y-75725000D01*
X206505600Y-75725000D01*
X206105600Y-75725000D01*
X206057755Y-75725000D01*
X205998227Y-75731401D01*
X205998217Y-75731403D01*
X205923932Y-75759110D01*
X205854241Y-75764094D01*
X205837268Y-75759110D01*
X205762982Y-75731403D01*
X205762972Y-75731401D01*
X205703444Y-75725000D01*
X205655600Y-75725000D01*
X205255600Y-75725000D01*
X205207755Y-75725000D01*
X205148227Y-75731401D01*
X205148217Y-75731403D01*
X205073932Y-75759110D01*
X205004241Y-75764094D01*
X204987268Y-75759110D01*
X204912982Y-75731403D01*
X204912972Y-75731401D01*
X204853444Y-75725000D01*
X204805600Y-75725000D01*
X204405600Y-75725000D01*
X204357755Y-75725000D01*
X204298227Y-75731401D01*
X204298217Y-75731403D01*
X204223932Y-75759110D01*
X204154241Y-75764094D01*
X204137268Y-75759110D01*
X204062982Y-75731403D01*
X204062972Y-75731401D01*
X204003444Y-75725000D01*
X203955600Y-75725000D01*
X203555600Y-75725000D01*
X203507755Y-75725000D01*
X203448227Y-75731401D01*
X203448217Y-75731403D01*
X203373932Y-75759110D01*
X203304241Y-75764094D01*
X203287268Y-75759110D01*
X203212982Y-75731403D01*
X203212972Y-75731401D01*
X203153444Y-75725000D01*
X203105600Y-75725000D01*
X202705600Y-75725000D01*
X202657755Y-75725000D01*
X202598227Y-75731401D01*
X202598217Y-75731403D01*
X202523932Y-75759110D01*
X202454241Y-75764094D01*
X202437268Y-75759110D01*
X202362982Y-75731403D01*
X202362972Y-75731401D01*
X202303444Y-75725000D01*
X202255600Y-75725000D01*
X201855600Y-75725000D01*
X201807755Y-75725000D01*
X201748227Y-75731401D01*
X201748217Y-75731403D01*
X201673932Y-75759110D01*
X201604241Y-75764094D01*
X201587268Y-75759110D01*
X201512982Y-75731403D01*
X201512972Y-75731401D01*
X201453444Y-75725000D01*
X201405600Y-75725000D01*
X201005600Y-75725000D01*
X200957755Y-75725000D01*
X200898227Y-75731401D01*
X200898217Y-75731403D01*
X200823932Y-75759110D01*
X200754241Y-75764094D01*
X200737268Y-75759110D01*
X200662982Y-75731403D01*
X200662972Y-75731401D01*
X200603444Y-75725000D01*
X200555600Y-75725000D01*
X200155600Y-75725000D01*
X200107755Y-75725000D01*
X200048227Y-75731401D01*
X200048217Y-75731403D01*
X199973932Y-75759110D01*
X199904241Y-75764094D01*
X199887268Y-75759110D01*
X199812982Y-75731403D01*
X199812972Y-75731401D01*
X199753444Y-75725000D01*
X199705600Y-75725000D01*
X199305600Y-75725000D01*
X199257755Y-75725000D01*
X199198227Y-75731401D01*
X199198217Y-75731403D01*
X199123932Y-75759110D01*
X199054241Y-75764094D01*
X199037268Y-75759110D01*
X198962982Y-75731403D01*
X198962972Y-75731401D01*
X198903444Y-75725000D01*
X198855600Y-75725000D01*
X198455600Y-75725000D01*
X198407755Y-75725000D01*
X198348227Y-75731401D01*
X198348217Y-75731403D01*
X198273932Y-75759110D01*
X198204241Y-75764094D01*
X198187268Y-75759110D01*
X198112982Y-75731403D01*
X198112972Y-75731401D01*
X198053444Y-75725000D01*
X198005600Y-75725000D01*
X197605600Y-75725000D01*
X197557755Y-75725000D01*
X197498227Y-75731401D01*
X197498217Y-75731403D01*
X197423932Y-75759110D01*
X197354241Y-75764094D01*
X197337268Y-75759110D01*
X197262982Y-75731403D01*
X197262972Y-75731401D01*
X197203444Y-75725000D01*
X197155600Y-75725000D01*
X196806100Y-75725000D01*
X196806099Y-75505516D01*
X196825783Y-75438478D01*
X196842413Y-75417841D01*
X197428436Y-74831819D01*
X197489759Y-74798334D01*
X197516117Y-74795500D01*
X206844705Y-74795500D01*
X206911744Y-74815185D01*
X206957499Y-74867989D01*
X206967925Y-74905617D01*
X206980481Y-75017061D01*
X206980482Y-75017065D01*
X207034747Y-75172147D01*
X207122160Y-75311263D01*
X207238336Y-75427439D01*
X207238342Y-75427444D01*
X207361430Y-75504786D01*
X207407721Y-75557120D01*
X207418369Y-75626174D01*
X207389994Y-75690022D01*
X207383140Y-75697460D01*
X207355600Y-75725000D01*
X207355600Y-76425000D01*
X207805600Y-76425000D01*
X207805600Y-75725000D01*
X208205600Y-75725000D01*
X208205600Y-76425000D01*
X208655600Y-76425000D01*
X208655600Y-75775000D01*
X209055600Y-75775000D01*
X209055600Y-76375000D01*
X209655600Y-76375000D01*
X209655600Y-75775000D01*
X210155600Y-75775000D01*
X210155600Y-76375000D01*
X210805600Y-76375000D01*
X210805600Y-76177172D01*
X210805599Y-76177155D01*
X210799198Y-76117628D01*
X210771488Y-76043334D01*
X210766504Y-75973642D01*
X210771488Y-75956666D01*
X210799198Y-75882371D01*
X210805599Y-75822844D01*
X210805600Y-75822827D01*
X210805600Y-75775000D01*
X210155600Y-75775000D01*
X209655600Y-75775000D01*
X209055600Y-75775000D01*
X208655600Y-75775000D01*
X208655600Y-75725000D01*
X208607755Y-75725000D01*
X208548227Y-75731401D01*
X208548217Y-75731403D01*
X208473932Y-75759110D01*
X208404241Y-75764094D01*
X208387268Y-75759110D01*
X208312982Y-75731403D01*
X208312972Y-75731401D01*
X208253444Y-75725000D01*
X208205600Y-75725000D01*
X207805600Y-75725000D01*
X207805600Y-75675808D01*
X207825285Y-75608769D01*
X207878089Y-75563014D01*
X207888627Y-75558773D01*
X208014146Y-75514853D01*
X208153263Y-75427440D01*
X208269440Y-75311263D01*
X208356853Y-75172146D01*
X208411117Y-75017067D01*
X208412961Y-75000703D01*
X208423675Y-74905617D01*
X208450741Y-74841203D01*
X208508336Y-74801647D01*
X208546895Y-74795500D01*
X208881600Y-74795500D01*
X208948639Y-74815185D01*
X208994394Y-74867989D01*
X209005600Y-74919500D01*
X209005600Y-74972844D01*
X209012001Y-75032372D01*
X209012003Y-75032382D01*
X209039710Y-75106668D01*
X209044694Y-75176359D01*
X209039710Y-75193332D01*
X209012003Y-75267617D01*
X209012001Y-75267627D01*
X209005600Y-75327155D01*
X209005600Y-75375000D01*
X209705600Y-75375000D01*
X209705600Y-74919500D01*
X209725285Y-74852461D01*
X209778089Y-74806706D01*
X209829600Y-74795500D01*
X209981600Y-74795500D01*
X210048639Y-74815185D01*
X210094394Y-74867989D01*
X210105600Y-74919500D01*
X210105600Y-75375000D01*
X210805600Y-75375000D01*
X210805600Y-75327172D01*
X210805599Y-75327155D01*
X210799198Y-75267628D01*
X210771488Y-75193334D01*
X210766504Y-75123642D01*
X210771488Y-75106666D01*
X210799198Y-75032371D01*
X210805599Y-74972844D01*
X210805600Y-74972827D01*
X210805600Y-74919500D01*
X210825285Y-74852461D01*
X210878089Y-74806706D01*
X210929600Y-74795500D01*
X211543881Y-74795500D01*
X211610920Y-74815185D01*
X211656675Y-74867989D01*
X211666619Y-74937147D01*
X211637594Y-75000703D01*
X211609854Y-75024492D01*
X211598077Y-75031892D01*
X211581736Y-75042160D01*
X211465560Y-75158336D01*
X211378147Y-75297452D01*
X211323882Y-75452534D01*
X211323881Y-75452538D01*
X211305487Y-75615796D01*
X211305487Y-75615803D01*
X211323881Y-75779061D01*
X211323882Y-75779065D01*
X211378147Y-75934147D01*
X211434020Y-76023068D01*
X211465560Y-76073263D01*
X211581737Y-76189440D01*
X211645519Y-76229517D01*
X211718700Y-76275500D01*
X211720854Y-76276853D01*
X211875933Y-76331117D01*
X211916392Y-76335675D01*
X211944306Y-76338821D01*
X212008720Y-76365887D01*
X212018104Y-76374360D01*
X212518744Y-76875000D01*
X212698864Y-77055119D01*
X212732349Y-77116442D01*
X212727365Y-77186133D01*
X212685494Y-77242067D01*
X212620029Y-77266484D01*
X212611183Y-77266800D01*
X211523522Y-77266800D01*
X211456483Y-77247115D01*
X211416135Y-77204800D01*
X211404678Y-77184956D01*
X211404674Y-77184951D01*
X211333648Y-77113925D01*
X211333647Y-77113924D01*
X211246654Y-77063699D01*
X211246655Y-77063699D01*
X211214633Y-77055119D01*
X211149625Y-77037700D01*
X210929600Y-77037700D01*
X210862561Y-77018015D01*
X210816806Y-76965211D01*
X210805600Y-76913700D01*
X210805600Y-76875000D01*
X209063962Y-76875000D01*
X208996923Y-76855315D01*
X208976281Y-76838681D01*
X208962600Y-76825000D01*
X196848600Y-76825000D01*
X196834919Y-76838681D01*
X196773596Y-76872166D01*
X196747238Y-76875000D01*
X195005600Y-76875000D01*
X195005600Y-76919662D01*
X194985915Y-76986701D01*
X194933111Y-77032456D01*
X194913698Y-77039435D01*
X194858894Y-77054120D01*
X194823145Y-77063699D01*
X194736154Y-77113923D01*
X194736151Y-77113925D01*
X194665125Y-77184951D01*
X194665121Y-77184956D01*
X194653665Y-77204800D01*
X194603098Y-77253015D01*
X194546278Y-77266800D01*
X189886500Y-77266800D01*
X189819461Y-77247115D01*
X189773706Y-77194311D01*
X189762500Y-77142800D01*
X189762500Y-74276201D01*
X189782185Y-74209162D01*
X189834989Y-74163407D01*
X189904147Y-74153463D01*
X189952471Y-74171207D01*
X190029254Y-74219453D01*
X190184333Y-74273717D01*
X190184334Y-74273717D01*
X190184338Y-74273718D01*
X190347596Y-74292113D01*
X190347600Y-74292113D01*
X190347604Y-74292113D01*
X190510861Y-74273718D01*
X190510863Y-74273717D01*
X190510867Y-74273717D01*
X190665946Y-74219453D01*
X190805063Y-74132040D01*
X190921240Y-74015863D01*
X191008653Y-73876746D01*
X191062917Y-73721667D01*
X191062918Y-73721661D01*
X191081313Y-73558403D01*
X191081313Y-73558396D01*
X191062918Y-73395138D01*
X191062916Y-73395128D01*
X191007845Y-73237745D01*
X191007194Y-73225000D01*
X195005600Y-73225000D01*
X195005600Y-73272844D01*
X195012001Y-73332372D01*
X195012003Y-73332382D01*
X195039710Y-73406668D01*
X195044694Y-73476359D01*
X195039710Y-73493332D01*
X195012003Y-73567617D01*
X195012001Y-73567627D01*
X195005600Y-73627155D01*
X195005600Y-73675000D01*
X195705600Y-73675000D01*
X195705600Y-73225000D01*
X195005600Y-73225000D01*
X191007194Y-73225000D01*
X191004283Y-73167966D01*
X191039011Y-73107339D01*
X191101005Y-73075111D01*
X191138143Y-73073501D01*
X191185557Y-73078599D01*
X191185572Y-73078600D01*
X191508400Y-73078600D01*
X191508400Y-72128600D01*
X192008400Y-72128600D01*
X192008400Y-73078600D01*
X192331228Y-73078600D01*
X192331244Y-73078599D01*
X192390772Y-73072198D01*
X192390779Y-73072196D01*
X192525486Y-73021954D01*
X192525493Y-73021950D01*
X192640587Y-72935790D01*
X192640590Y-72935787D01*
X192726750Y-72820693D01*
X192726754Y-72820686D01*
X192776996Y-72685979D01*
X192776998Y-72685972D01*
X192783399Y-72626444D01*
X192783400Y-72626427D01*
X192783400Y-72128600D01*
X192008400Y-72128600D01*
X191508400Y-72128600D01*
X191508400Y-71752600D01*
X191528085Y-71685561D01*
X191580889Y-71639806D01*
X191632400Y-71628600D01*
X192783400Y-71628600D01*
X192783400Y-71130772D01*
X192783399Y-71130755D01*
X192776998Y-71071227D01*
X192776996Y-71071220D01*
X192726754Y-70936513D01*
X192726750Y-70936506D01*
X192640590Y-70821412D01*
X192640587Y-70821409D01*
X192525493Y-70735249D01*
X192525486Y-70735245D01*
X192390779Y-70685003D01*
X192390772Y-70685001D01*
X192331244Y-70678600D01*
X192261144Y-70678600D01*
X192194105Y-70658915D01*
X192148350Y-70606111D01*
X192138406Y-70536953D01*
X192167431Y-70473397D01*
X192199145Y-70447212D01*
X192210996Y-70440370D01*
X192295170Y-70356196D01*
X192354690Y-70253104D01*
X192385500Y-70138120D01*
X192385500Y-70019080D01*
X192354690Y-69904096D01*
X192295170Y-69801004D01*
X192210996Y-69716830D01*
X192199144Y-69709987D01*
X192150929Y-69659421D01*
X192137705Y-69590814D01*
X192163673Y-69525949D01*
X192220587Y-69485420D01*
X192261144Y-69478600D01*
X192331228Y-69478600D01*
X192331244Y-69478599D01*
X192390772Y-69472198D01*
X192390779Y-69472196D01*
X192525486Y-69421954D01*
X192525493Y-69421950D01*
X192640587Y-69335790D01*
X192640590Y-69335787D01*
X192726750Y-69220693D01*
X192726754Y-69220686D01*
X192776996Y-69085979D01*
X192776998Y-69085972D01*
X192783399Y-69026444D01*
X192783400Y-69026427D01*
X192783400Y-68528600D01*
X191632400Y-68528600D01*
X191565361Y-68508915D01*
X191519606Y-68456111D01*
X191508400Y-68404600D01*
X191508400Y-67078600D01*
X192008400Y-67078600D01*
X192008400Y-68028600D01*
X192783400Y-68028600D01*
X192783400Y-67530772D01*
X192783399Y-67530755D01*
X192776998Y-67471227D01*
X192776996Y-67471220D01*
X192726754Y-67336513D01*
X192726750Y-67336506D01*
X192640590Y-67221412D01*
X192640587Y-67221409D01*
X192525493Y-67135249D01*
X192525486Y-67135245D01*
X192390779Y-67085003D01*
X192390772Y-67085001D01*
X192331244Y-67078600D01*
X192008400Y-67078600D01*
X191508400Y-67078600D01*
X191185555Y-67078600D01*
X191126027Y-67085001D01*
X191126023Y-67085002D01*
X191077446Y-67103120D01*
X191007754Y-67108103D01*
X190990782Y-67103119D01*
X190940885Y-67084509D01*
X190940883Y-67084508D01*
X190881283Y-67078101D01*
X190881281Y-67078100D01*
X190881273Y-67078100D01*
X190881265Y-67078100D01*
X189886500Y-67078100D01*
X189819461Y-67058415D01*
X189773706Y-67005611D01*
X189762500Y-66954100D01*
X189762500Y-65824521D01*
X189782185Y-65757482D01*
X189834989Y-65711727D01*
X189904147Y-65701783D01*
X189952471Y-65719527D01*
X189978454Y-65735853D01*
X190133533Y-65790117D01*
X190133534Y-65790117D01*
X190133538Y-65790118D01*
X190296796Y-65808513D01*
X190296800Y-65808513D01*
X190296804Y-65808513D01*
X190460061Y-65790118D01*
X190460063Y-65790117D01*
X190460067Y-65790117D01*
X190615146Y-65735853D01*
X190754263Y-65648440D01*
X190870440Y-65532263D01*
X190957853Y-65393146D01*
X191012117Y-65238067D01*
X191014677Y-65215346D01*
X191030513Y-65074803D01*
X191030513Y-65074797D01*
X191023074Y-65008775D01*
X191035128Y-64939953D01*
X191082477Y-64888573D01*
X191150088Y-64870949D01*
X191159554Y-64871602D01*
X191185565Y-64874399D01*
X191185572Y-64874400D01*
X191508400Y-64874400D01*
X191508400Y-63924400D01*
X192008400Y-63924400D01*
X192008400Y-64874400D01*
X192331228Y-64874400D01*
X192331244Y-64874399D01*
X192390772Y-64867998D01*
X192390779Y-64867996D01*
X192525486Y-64817754D01*
X192525493Y-64817750D01*
X192640587Y-64731590D01*
X192640590Y-64731587D01*
X192726750Y-64616493D01*
X192726754Y-64616486D01*
X192776996Y-64481779D01*
X192776998Y-64481772D01*
X192783399Y-64422244D01*
X192783400Y-64422227D01*
X192783400Y-63924400D01*
X192008400Y-63924400D01*
X191508400Y-63924400D01*
X191508400Y-63548400D01*
X191528085Y-63481361D01*
X191580889Y-63435606D01*
X191632400Y-63424400D01*
X192783400Y-63424400D01*
X192783400Y-62926572D01*
X192783399Y-62926555D01*
X192776998Y-62867027D01*
X192776996Y-62867020D01*
X192726754Y-62732313D01*
X192726750Y-62732306D01*
X192640590Y-62617212D01*
X192640587Y-62617209D01*
X192525493Y-62531049D01*
X192525486Y-62531045D01*
X192390779Y-62480803D01*
X192390772Y-62480801D01*
X192331244Y-62474400D01*
X192261144Y-62474400D01*
X192194105Y-62454715D01*
X192148350Y-62401911D01*
X192144481Y-62375000D01*
X195005600Y-62375000D01*
X195655600Y-62375000D01*
X195655600Y-61725000D01*
X195457755Y-61725000D01*
X195398227Y-61731401D01*
X195398220Y-61731403D01*
X195263513Y-61781645D01*
X195263506Y-61781649D01*
X195148412Y-61867809D01*
X195148409Y-61867812D01*
X195062249Y-61982906D01*
X195062245Y-61982913D01*
X195012003Y-62117620D01*
X195012001Y-62117627D01*
X195005600Y-62177155D01*
X195005600Y-62375000D01*
X192144481Y-62375000D01*
X192138406Y-62332753D01*
X192167431Y-62269197D01*
X192199145Y-62243012D01*
X192210996Y-62236170D01*
X192295170Y-62151996D01*
X192354690Y-62048904D01*
X192385500Y-61933920D01*
X192385500Y-61814880D01*
X192354690Y-61699896D01*
X192295170Y-61596804D01*
X192210996Y-61512630D01*
X192199144Y-61505787D01*
X192150929Y-61455221D01*
X192137705Y-61386614D01*
X192163673Y-61321749D01*
X192220587Y-61281220D01*
X192261144Y-61274400D01*
X192331228Y-61274400D01*
X192331244Y-61274399D01*
X192390772Y-61267998D01*
X192390779Y-61267996D01*
X192525486Y-61217754D01*
X192525493Y-61217750D01*
X192640587Y-61131590D01*
X192640590Y-61131587D01*
X192726750Y-61016493D01*
X192726754Y-61016486D01*
X192776996Y-60881779D01*
X192776998Y-60881772D01*
X192783399Y-60822244D01*
X192783400Y-60822227D01*
X192783400Y-60448200D01*
X196002001Y-60448200D01*
X196002001Y-60464852D01*
X196012056Y-60563283D01*
X196064906Y-60722772D01*
X196064908Y-60722777D01*
X196153114Y-60865780D01*
X196271919Y-60984585D01*
X196414922Y-61072791D01*
X196414927Y-61072793D01*
X196574416Y-61125642D01*
X196672855Y-61135699D01*
X196726999Y-61135698D01*
X196727000Y-61135698D01*
X196727000Y-60448200D01*
X197227000Y-60448200D01*
X197227000Y-61135699D01*
X197281136Y-61135699D01*
X197281152Y-61135698D01*
X197379583Y-61125643D01*
X197539072Y-61072793D01*
X197539077Y-61072791D01*
X197682080Y-60984585D01*
X197800885Y-60865780D01*
X197889091Y-60722777D01*
X197889093Y-60722772D01*
X197941942Y-60563283D01*
X197951999Y-60464850D01*
X197952000Y-60464837D01*
X197952000Y-60448200D01*
X198592801Y-60448200D01*
X198592801Y-60464852D01*
X198602856Y-60563283D01*
X198655706Y-60722772D01*
X198655708Y-60722777D01*
X198743914Y-60865780D01*
X198862719Y-60984585D01*
X199005722Y-61072791D01*
X199005727Y-61072793D01*
X199165216Y-61125642D01*
X199263655Y-61135699D01*
X199317799Y-61135698D01*
X199317800Y-61135698D01*
X199317800Y-60448200D01*
X199817800Y-60448200D01*
X199817800Y-61135699D01*
X199871936Y-61135699D01*
X199871952Y-61135698D01*
X199970383Y-61125643D01*
X200129872Y-61072793D01*
X200129877Y-61072791D01*
X200272880Y-60984585D01*
X200391685Y-60865780D01*
X200479891Y-60722777D01*
X200479893Y-60722772D01*
X200532742Y-60563283D01*
X200542799Y-60464850D01*
X200542800Y-60464837D01*
X200542800Y-60448200D01*
X199817800Y-60448200D01*
X199317800Y-60448200D01*
X198592801Y-60448200D01*
X197952000Y-60448200D01*
X197227000Y-60448200D01*
X196727000Y-60448200D01*
X196002001Y-60448200D01*
X192783400Y-60448200D01*
X192783400Y-60324400D01*
X191632400Y-60324400D01*
X191565361Y-60304715D01*
X191519606Y-60251911D01*
X191508400Y-60200400D01*
X191508400Y-58874400D01*
X192008400Y-58874400D01*
X192008400Y-59824400D01*
X192783400Y-59824400D01*
X192783400Y-59326572D01*
X192783399Y-59326555D01*
X192776998Y-59267027D01*
X192776996Y-59267020D01*
X192726754Y-59132313D01*
X192726750Y-59132306D01*
X192640590Y-59017212D01*
X192640587Y-59017209D01*
X192525493Y-58931049D01*
X192525486Y-58931045D01*
X192390779Y-58880803D01*
X192390772Y-58880801D01*
X192331244Y-58874400D01*
X192008400Y-58874400D01*
X191508400Y-58874400D01*
X191185555Y-58874400D01*
X191126027Y-58880801D01*
X191126023Y-58880802D01*
X191077446Y-58898920D01*
X191007754Y-58903903D01*
X190990782Y-58898919D01*
X190940885Y-58880309D01*
X190940883Y-58880308D01*
X190881283Y-58873901D01*
X190881281Y-58873900D01*
X190881273Y-58873900D01*
X190881265Y-58873900D01*
X189886500Y-58873900D01*
X189819461Y-58854215D01*
X189773706Y-58801411D01*
X189762500Y-58749900D01*
X189762500Y-53541973D01*
X189782185Y-53474934D01*
X189834989Y-53429179D01*
X189904147Y-53419235D01*
X189967703Y-53448260D01*
X189974181Y-53454292D01*
X190116702Y-53596813D01*
X190320717Y-53745039D01*
X190391505Y-53781107D01*
X190545402Y-53859522D01*
X190545404Y-53859522D01*
X190545407Y-53859524D01*
X190785241Y-53937451D01*
X191034312Y-53976900D01*
X191034313Y-53976900D01*
X191286487Y-53976900D01*
X191286488Y-53976900D01*
X191535559Y-53937451D01*
X191775393Y-53859524D01*
X192000083Y-53745039D01*
X192204098Y-53596813D01*
X192382413Y-53418498D01*
X192530639Y-53214483D01*
X192533433Y-53209000D01*
X194513800Y-53209000D01*
X194513800Y-53531844D01*
X194520201Y-53591372D01*
X194520203Y-53591379D01*
X194570445Y-53726086D01*
X194570449Y-53726093D01*
X194656609Y-53841187D01*
X194656612Y-53841190D01*
X194771706Y-53927350D01*
X194771713Y-53927354D01*
X194906420Y-53977596D01*
X194906427Y-53977598D01*
X194965955Y-53983999D01*
X194965972Y-53984000D01*
X195463800Y-53984000D01*
X195463800Y-53209000D01*
X194513800Y-53209000D01*
X192533433Y-53209000D01*
X192645124Y-52989793D01*
X192723051Y-52749959D01*
X192762500Y-52500888D01*
X192762500Y-52248712D01*
X192723051Y-51999641D01*
X192645124Y-51759807D01*
X192645122Y-51759804D01*
X192645122Y-51759802D01*
X192571494Y-51615300D01*
X192530639Y-51535117D01*
X192382413Y-51331102D01*
X192241292Y-51189981D01*
X192207807Y-51128658D01*
X192212791Y-51058966D01*
X192254663Y-51003033D01*
X192320127Y-50978616D01*
X192328973Y-50978300D01*
X194389300Y-50978300D01*
X194456339Y-50997985D01*
G37*
%TD.AperFunction*%
%TA.AperFunction,Conductor*%
G36*
X210175521Y-52107585D02*
G01*
X210196163Y-52124219D01*
X211045181Y-52973237D01*
X211078666Y-53034560D01*
X211081500Y-53060918D01*
X211081500Y-54010900D01*
X211061815Y-54077939D01*
X211009011Y-54123694D01*
X210957500Y-54134900D01*
X208414467Y-54134900D01*
X208347428Y-54115215D01*
X208301673Y-54062411D01*
X208291729Y-53993253D01*
X208320754Y-53929697D01*
X208340156Y-53911633D01*
X208397390Y-53868786D01*
X208483550Y-53753693D01*
X208483554Y-53753686D01*
X208533796Y-53618979D01*
X208533798Y-53618972D01*
X208540199Y-53559444D01*
X208540200Y-53559427D01*
X208540200Y-53236600D01*
X207214200Y-53236600D01*
X207147161Y-53216915D01*
X207101406Y-53164111D01*
X207090200Y-53112600D01*
X207090200Y-52860600D01*
X207109885Y-52793561D01*
X207162689Y-52747806D01*
X207214200Y-52736600D01*
X208540200Y-52736600D01*
X208540200Y-52413772D01*
X208540199Y-52413755D01*
X208533798Y-52354227D01*
X208515679Y-52305648D01*
X208510695Y-52235956D01*
X208515676Y-52218991D01*
X208534291Y-52169083D01*
X208534291Y-52169082D01*
X208534484Y-52168565D01*
X208576356Y-52112632D01*
X208641820Y-52088216D01*
X208650665Y-52087900D01*
X210108482Y-52087900D01*
X210175521Y-52107585D01*
G37*
%TD.AperFunction*%
%TA.AperFunction,Conductor*%
G36*
X206083239Y-52434985D02*
G01*
X206128994Y-52487789D01*
X206140200Y-52539300D01*
X206140200Y-52833855D01*
X206120515Y-52900894D01*
X206067711Y-52946649D01*
X205998553Y-52956593D01*
X205934997Y-52927568D01*
X205908814Y-52895857D01*
X205901972Y-52884007D01*
X205901968Y-52884002D01*
X205817797Y-52799831D01*
X205817792Y-52799827D01*
X205714706Y-52740311D01*
X205714705Y-52740310D01*
X205671319Y-52728685D01*
X205599720Y-52709500D01*
X205480680Y-52709500D01*
X205411689Y-52727986D01*
X205365694Y-52740310D01*
X205365693Y-52740311D01*
X205262607Y-52799827D01*
X205262602Y-52799831D01*
X205178431Y-52884002D01*
X205178427Y-52884007D01*
X205171586Y-52895857D01*
X205121018Y-52944072D01*
X205052411Y-52957293D01*
X204987547Y-52931324D01*
X204947019Y-52874409D01*
X204940200Y-52833855D01*
X204940200Y-52539300D01*
X204959885Y-52472261D01*
X205012689Y-52426506D01*
X205064200Y-52415300D01*
X206016200Y-52415300D01*
X206083239Y-52434985D01*
G37*
%TD.AperFunction*%
%TD*%
M02*
