%TF.GenerationSoftware,KiCad,Pcbnew,8.0.1*%
%TF.CreationDate,2024-09-08T05:47:06-06:00*%
%TF.ProjectId,USBHIDKey,55534248-4944-44b6-9579-2e6b69636164,rev?*%
%TF.SameCoordinates,Original*%
%TF.FileFunction,Copper,L2,Inr*%
%TF.FilePolarity,Positive*%
%FSLAX46Y46*%
G04 Gerber Fmt 4.6, Leading zero omitted, Abs format (unit mm)*
G04 Created by KiCad (PCBNEW 8.0.1) date 2024-09-08 05:47:06*
%MOMM*%
%LPD*%
G01*
G04 APERTURE LIST*
%TA.AperFunction,ComponentPad*%
%ADD10O,0.900000X1.600000*%
%TD*%
%TA.AperFunction,ComponentPad*%
%ADD11O,1.727200X1.727200*%
%TD*%
%TA.AperFunction,ComponentPad*%
%ADD12O,3.200000X1.300000*%
%TD*%
%TA.AperFunction,ViaPad*%
%ADD13C,0.457200*%
%TD*%
%TA.AperFunction,ViaPad*%
%ADD14C,0.711200*%
%TD*%
G04 APERTURE END LIST*
D10*
%TO.N,GND*%
%TO.C,J2*%
X246862600Y-52705000D03*
X240262600Y-52705000D03*
%TD*%
D11*
%TO.N,/ESP32/OLED_CS*%
%TO.C,U6*%
X232632000Y-52979400D03*
%TO.N,/ESP32/OLED_DC*%
X230092000Y-52979400D03*
%TO.N,/ESP32/OLED_RST*%
X227552000Y-52979400D03*
%TO.N,/ESP32/OLED_SDA*%
X225012000Y-52979400D03*
%TO.N,/ESP32/OLED_SCK*%
X222472000Y-52979400D03*
%TO.N,+3V3*%
X219932000Y-52979400D03*
%TO.N,GND*%
X217392000Y-52979400D03*
%TD*%
D12*
%TO.N,GND*%
%TO.C,J1*%
X251624000Y-60774200D03*
X251624000Y-72474200D03*
%TD*%
D13*
%TO.N,GND*%
X236321600Y-65614600D03*
X245668800Y-64770000D03*
X235000800Y-65862200D03*
X208584800Y-53035200D03*
X236829600Y-65614600D03*
X235813600Y-65614600D03*
X201015600Y-52425600D03*
X235000800Y-65252600D03*
X234315000Y-66522600D03*
X247751600Y-72212200D03*
X233146600Y-80035400D03*
X234975400Y-66522600D03*
%TO.N,+3V3*%
X235051600Y-68580000D03*
X245567200Y-58191400D03*
D14*
X217855800Y-63754000D03*
X229514400Y-63754000D03*
D13*
X248412000Y-73075800D03*
X244944900Y-64528700D03*
D14*
X213842600Y-74803000D03*
D13*
X231851200Y-63703200D03*
%TO.N,+5V*%
X238633000Y-67945000D03*
X238633000Y-64109600D03*
%TO.N,VBUS*%
X248996200Y-61747400D03*
%TO.N,VBUS_UART*%
X247446800Y-57937400D03*
X244856529Y-63728600D03*
%TO.N,USB_D+*%
X202057000Y-63627000D03*
X250596400Y-67640200D03*
X214858600Y-70916800D03*
%TO.N,USB_D-*%
X214833200Y-70332600D03*
X250850400Y-65608200D03*
X202920600Y-63652400D03*
%TO.N,/USB + UART/USB_UART_D+*%
X243560600Y-57886600D03*
X243560600Y-64338200D03*
%TO.N,/USB + UART/USB_UART_D-*%
X244221000Y-57886600D03*
X244195600Y-64363600D03*
%TO.N,EN*%
X194691000Y-75514200D03*
X240182400Y-78689200D03*
X242112800Y-74752200D03*
X190296800Y-65074800D03*
%TO.N,GPIO0*%
X208838800Y-73025000D03*
X240715800Y-78155800D03*
X244627400Y-74726800D03*
X190347600Y-73558400D03*
%TO.N,Net-(Q2-E)*%
X248208800Y-76174600D03*
X236956600Y-74320400D03*
X239725200Y-69316600D03*
%TO.N,Net-(U2-~{RTS})*%
X236956600Y-75336400D03*
X239395000Y-71399400D03*
%TO.N,/ESP32/OLED_SDA*%
X223012000Y-55803800D03*
X221894400Y-55803800D03*
%TO.N,/ESP32/OLED_RST*%
X220903800Y-55803800D03*
X224790000Y-55803800D03*
%TO.N,/ESP32/OLED_CS*%
X228193600Y-55803800D03*
X226288600Y-55803800D03*
%TO.N,/Power/PG*%
X237845600Y-64897000D03*
X229489000Y-65303400D03*
%TO.N,/ESP32/BTN_OK*%
X212039200Y-75615800D03*
X207695800Y-66929000D03*
X207695800Y-74853800D03*
%TO.N,TXD*%
X197154800Y-70459600D03*
X214884000Y-71958200D03*
X238734600Y-71958200D03*
%TO.N,RXD*%
X197180200Y-71348600D03*
X238099600Y-72644000D03*
X214884000Y-72644000D03*
%TD*%
%TA.AperFunction,Conductor*%
%TO.N,GND*%
G36*
X197049388Y-50997985D02*
G01*
X197095143Y-51050789D01*
X197105087Y-51119947D01*
X197094203Y-51151398D01*
X197095621Y-51151986D01*
X197092510Y-51159494D01*
X197077105Y-51216988D01*
X197061700Y-51274480D01*
X197061700Y-51393520D01*
X197073114Y-51436116D01*
X197092510Y-51508505D01*
X197092511Y-51508506D01*
X197152027Y-51611592D01*
X197152029Y-51611595D01*
X197152030Y-51611596D01*
X197236204Y-51695770D01*
X197339296Y-51755290D01*
X197454280Y-51786100D01*
X197454283Y-51786100D01*
X197573317Y-51786100D01*
X197573320Y-51786100D01*
X197688304Y-51755290D01*
X197791396Y-51695770D01*
X197875570Y-51611596D01*
X197935090Y-51508504D01*
X197965900Y-51393520D01*
X197965900Y-51274480D01*
X197935090Y-51159496D01*
X197935089Y-51159494D01*
X197931979Y-51151986D01*
X197934609Y-51150896D01*
X197921392Y-51096384D01*
X197944253Y-51030360D01*
X197999179Y-50987177D01*
X198045251Y-50978300D01*
X205024684Y-50978300D01*
X205091723Y-50997985D01*
X205137478Y-51050789D01*
X205147422Y-51119947D01*
X205132072Y-51164299D01*
X205118910Y-51187095D01*
X205118910Y-51187096D01*
X205088100Y-51302080D01*
X205088100Y-51421120D01*
X205093563Y-51441507D01*
X205118910Y-51536105D01*
X205118911Y-51536106D01*
X205178427Y-51639192D01*
X205178429Y-51639195D01*
X205178430Y-51639196D01*
X205262604Y-51723370D01*
X205262605Y-51723371D01*
X205262607Y-51723372D01*
X205307700Y-51749406D01*
X205365696Y-51782890D01*
X205480680Y-51813700D01*
X205480683Y-51813700D01*
X205599717Y-51813700D01*
X205599720Y-51813700D01*
X205714704Y-51782890D01*
X205817796Y-51723370D01*
X205901970Y-51639196D01*
X205961490Y-51536104D01*
X205992300Y-51421120D01*
X205992300Y-51302080D01*
X205961490Y-51187096D01*
X205948327Y-51164298D01*
X205931856Y-51096399D01*
X205954709Y-51030372D01*
X206009631Y-50987182D01*
X206055716Y-50978300D01*
X251409027Y-50978300D01*
X251476066Y-50997985D01*
X251521821Y-51050789D01*
X251531765Y-51119947D01*
X251502740Y-51183503D01*
X251496708Y-51189981D01*
X251355589Y-51331099D01*
X251355589Y-51331100D01*
X251355587Y-51331102D01*
X251310240Y-51393517D01*
X251207361Y-51535116D01*
X251092877Y-51759802D01*
X251068929Y-51833507D01*
X251014949Y-51999641D01*
X250975500Y-52248712D01*
X250975500Y-52500888D01*
X251011693Y-52729400D01*
X251014949Y-52749959D01*
X251092877Y-52989797D01*
X251196678Y-53193517D01*
X251207361Y-53214483D01*
X251355587Y-53418498D01*
X251533902Y-53596813D01*
X251737917Y-53745039D01*
X251831869Y-53792910D01*
X251962602Y-53859522D01*
X251962604Y-53859522D01*
X251962607Y-53859524D01*
X252202441Y-53937451D01*
X252451512Y-53976900D01*
X252451513Y-53976900D01*
X252703687Y-53976900D01*
X252703688Y-53976900D01*
X252952759Y-53937451D01*
X253192593Y-53859524D01*
X253417283Y-53745039D01*
X253621298Y-53596813D01*
X253787819Y-53430292D01*
X253849142Y-53396807D01*
X253918834Y-53401791D01*
X253974767Y-53443663D01*
X253999184Y-53509127D01*
X253999500Y-53517973D01*
X253999500Y-79679627D01*
X253979815Y-79746666D01*
X253927011Y-79792421D01*
X253857853Y-79802365D01*
X253794297Y-79773340D01*
X253787819Y-79767308D01*
X253621300Y-79600789D01*
X253621298Y-79600787D01*
X253417283Y-79452561D01*
X253399033Y-79443262D01*
X253192597Y-79338077D01*
X252952759Y-79260149D01*
X252703688Y-79220700D01*
X252451512Y-79220700D01*
X252326976Y-79240424D01*
X252202440Y-79260149D01*
X251962602Y-79338077D01*
X251737916Y-79452561D01*
X251712495Y-79471031D01*
X251533902Y-79600787D01*
X251533900Y-79600789D01*
X251533899Y-79600789D01*
X251355589Y-79779099D01*
X251355589Y-79779100D01*
X251355587Y-79779102D01*
X251291929Y-79866718D01*
X251207361Y-79983116D01*
X251092877Y-80207802D01*
X251014949Y-80447640D01*
X250975500Y-80696712D01*
X250975500Y-80948887D01*
X251014949Y-81197959D01*
X251092877Y-81437797D01*
X251161911Y-81573282D01*
X251207361Y-81662483D01*
X251355587Y-81866498D01*
X251355589Y-81866500D01*
X251492708Y-82003619D01*
X251526193Y-82064942D01*
X251521209Y-82134634D01*
X251479337Y-82190567D01*
X251413873Y-82214984D01*
X251405027Y-82215300D01*
X230025427Y-82215300D01*
X229958388Y-82195615D01*
X229912633Y-82142811D01*
X229902689Y-82073653D01*
X229931714Y-82010097D01*
X229942070Y-82000338D01*
X229942049Y-82000317D01*
X229947796Y-81994570D01*
X230031970Y-81910396D01*
X230091490Y-81807304D01*
X230122300Y-81692320D01*
X230122300Y-81573280D01*
X230091490Y-81458296D01*
X230031970Y-81355204D01*
X229947796Y-81271030D01*
X229947795Y-81271029D01*
X229947792Y-81271027D01*
X229844706Y-81211511D01*
X229844705Y-81211510D01*
X229815958Y-81203807D01*
X229729720Y-81180700D01*
X229610680Y-81180700D01*
X229546269Y-81197959D01*
X229495694Y-81211510D01*
X229495693Y-81211511D01*
X229392607Y-81271027D01*
X229392602Y-81271031D01*
X229308431Y-81355202D01*
X229308427Y-81355207D01*
X229248911Y-81458293D01*
X229248910Y-81458294D01*
X229237544Y-81500715D01*
X229218100Y-81573280D01*
X229218100Y-81692320D01*
X229241207Y-81778558D01*
X229248910Y-81807305D01*
X229248911Y-81807306D01*
X229308427Y-81910392D01*
X229308431Y-81910397D01*
X229398351Y-82000317D01*
X229396910Y-82001757D01*
X229431663Y-82049355D01*
X229435816Y-82119101D01*
X229401602Y-82180021D01*
X229339884Y-82212772D01*
X229314973Y-82215300D01*
X225729600Y-82215300D01*
X225662561Y-82195615D01*
X225616806Y-82142811D01*
X225605600Y-82091300D01*
X225605600Y-79892320D01*
X229218100Y-79892320D01*
X229241207Y-79978558D01*
X229248910Y-80007305D01*
X229248911Y-80007306D01*
X229308427Y-80110392D01*
X229308429Y-80110395D01*
X229308430Y-80110396D01*
X229392604Y-80194570D01*
X229392605Y-80194571D01*
X229392607Y-80194572D01*
X229415531Y-80207807D01*
X229495696Y-80254090D01*
X229610680Y-80284900D01*
X229610683Y-80284900D01*
X229729717Y-80284900D01*
X229729720Y-80284900D01*
X229783864Y-80270392D01*
X235254300Y-80270392D01*
X235288084Y-80483701D01*
X235354826Y-80689108D01*
X235452875Y-80881537D01*
X235579821Y-81056263D01*
X235732537Y-81208979D01*
X235907263Y-81335925D01*
X235945106Y-81355207D01*
X236099691Y-81433973D01*
X236099693Y-81433973D01*
X236099696Y-81433975D01*
X236174539Y-81458293D01*
X236305098Y-81500715D01*
X236518408Y-81534500D01*
X236518413Y-81534500D01*
X236734392Y-81534500D01*
X236947701Y-81500715D01*
X237153104Y-81433975D01*
X237345537Y-81335925D01*
X237520263Y-81208979D01*
X237672979Y-81056263D01*
X237799925Y-80881537D01*
X237897975Y-80689104D01*
X237964715Y-80483701D01*
X237970426Y-80447641D01*
X237998500Y-80270392D01*
X237998500Y-80054407D01*
X237964715Y-79841098D01*
X237905318Y-79658296D01*
X237897975Y-79635696D01*
X237897973Y-79635693D01*
X237897973Y-79635691D01*
X237846248Y-79534178D01*
X237799925Y-79443263D01*
X237672979Y-79268537D01*
X237520263Y-79115821D01*
X237345537Y-78988875D01*
X237153108Y-78890826D01*
X236947701Y-78824084D01*
X236734392Y-78790300D01*
X236734387Y-78790300D01*
X236518413Y-78790300D01*
X236518408Y-78790300D01*
X236305098Y-78824084D01*
X236099691Y-78890826D01*
X235907262Y-78988875D01*
X235807575Y-79061302D01*
X235732537Y-79115821D01*
X235732535Y-79115823D01*
X235732534Y-79115823D01*
X235579823Y-79268534D01*
X235579823Y-79268535D01*
X235579821Y-79268537D01*
X235529298Y-79338076D01*
X235452875Y-79443262D01*
X235354826Y-79635691D01*
X235288084Y-79841098D01*
X235254300Y-80054407D01*
X235254300Y-80270392D01*
X229783864Y-80270392D01*
X229844704Y-80254090D01*
X229947796Y-80194570D01*
X230031970Y-80110396D01*
X230091490Y-80007304D01*
X230122300Y-79892320D01*
X230122300Y-79773280D01*
X230091490Y-79658296D01*
X230031970Y-79555204D01*
X229947796Y-79471030D01*
X229947795Y-79471029D01*
X229947792Y-79471027D01*
X229844706Y-79411511D01*
X229844705Y-79411510D01*
X229815958Y-79403807D01*
X229729720Y-79380700D01*
X229610680Y-79380700D01*
X229541689Y-79399186D01*
X229495694Y-79411510D01*
X229495693Y-79411511D01*
X229392607Y-79471027D01*
X229392602Y-79471031D01*
X229308431Y-79555202D01*
X229308427Y-79555207D01*
X229248911Y-79658293D01*
X229248910Y-79658294D01*
X229243194Y-79679627D01*
X229218100Y-79773280D01*
X229218100Y-79892320D01*
X225605600Y-79892320D01*
X225605600Y-78689203D01*
X239448687Y-78689203D01*
X239467081Y-78852461D01*
X239467082Y-78852465D01*
X239521347Y-79007547D01*
X239589381Y-79115821D01*
X239608760Y-79146663D01*
X239724937Y-79262840D01*
X239864054Y-79350253D01*
X240019133Y-79404517D01*
X240019134Y-79404517D01*
X240019138Y-79404518D01*
X240182396Y-79422913D01*
X240182400Y-79422913D01*
X240182404Y-79422913D01*
X240345661Y-79404518D01*
X240345663Y-79404517D01*
X240345667Y-79404517D01*
X240500746Y-79350253D01*
X240639863Y-79262840D01*
X240756040Y-79146663D01*
X240843453Y-79007546D01*
X240873159Y-78922647D01*
X240913880Y-78865871D01*
X240949246Y-78846559D01*
X241034146Y-78816853D01*
X241173263Y-78729440D01*
X241289440Y-78613263D01*
X241376853Y-78474146D01*
X241431117Y-78319067D01*
X241449513Y-78155800D01*
X241431782Y-77998438D01*
X241431118Y-77992538D01*
X241431117Y-77992534D01*
X241426426Y-77979129D01*
X241376853Y-77837454D01*
X241289440Y-77698337D01*
X241173263Y-77582160D01*
X241034147Y-77494747D01*
X240879065Y-77440482D01*
X240879061Y-77440481D01*
X240715804Y-77422087D01*
X240715796Y-77422087D01*
X240552538Y-77440481D01*
X240552534Y-77440482D01*
X240397452Y-77494747D01*
X240258336Y-77582160D01*
X240142160Y-77698336D01*
X240054746Y-77837453D01*
X240054746Y-77837455D01*
X240025038Y-77922353D01*
X239984316Y-77979129D01*
X239948953Y-77998438D01*
X239864055Y-78028146D01*
X239864053Y-78028146D01*
X239724936Y-78115560D01*
X239608760Y-78231736D01*
X239521347Y-78370852D01*
X239467082Y-78525934D01*
X239467081Y-78525938D01*
X239448687Y-78689196D01*
X239448687Y-78689203D01*
X225605600Y-78689203D01*
X225605600Y-77425000D01*
X211591060Y-77425000D01*
X211524021Y-77405315D01*
X211478266Y-77352511D01*
X211471287Y-77333101D01*
X211454901Y-77271946D01*
X211404676Y-77184953D01*
X211333647Y-77113924D01*
X211246654Y-77063699D01*
X211246655Y-77063699D01*
X211222396Y-77057199D01*
X211149625Y-77037700D01*
X195020625Y-77037700D01*
X194920175Y-77037700D01*
X194847403Y-77057199D01*
X194823145Y-77063699D01*
X194736154Y-77113923D01*
X194736151Y-77113925D01*
X194665125Y-77184951D01*
X194665123Y-77184954D01*
X194614899Y-77271945D01*
X194614899Y-77271946D01*
X194598513Y-77333095D01*
X194562150Y-77392754D01*
X194499303Y-77423283D01*
X194478740Y-77425000D01*
X189886500Y-77425000D01*
X189819461Y-77405315D01*
X189773706Y-77352511D01*
X189762500Y-77301000D01*
X189762500Y-75514203D01*
X193957287Y-75514203D01*
X193975681Y-75677461D01*
X193975682Y-75677465D01*
X194029947Y-75832547D01*
X194093787Y-75934147D01*
X194117360Y-75971663D01*
X194233537Y-76087840D01*
X194315821Y-76139543D01*
X194371619Y-76174603D01*
X194372654Y-76175253D01*
X194527733Y-76229517D01*
X194527734Y-76229517D01*
X194527738Y-76229518D01*
X194690996Y-76247913D01*
X194691000Y-76247913D01*
X194691004Y-76247913D01*
X194854261Y-76229518D01*
X194854263Y-76229517D01*
X194854267Y-76229517D01*
X195009346Y-76175253D01*
X195148463Y-76087840D01*
X195264640Y-75971663D01*
X195352053Y-75832546D01*
X195406317Y-75677467D01*
X195406318Y-75677461D01*
X195413265Y-75615803D01*
X211305487Y-75615803D01*
X211323881Y-75779061D01*
X211323882Y-75779065D01*
X211378147Y-75934147D01*
X211417925Y-75997453D01*
X211465560Y-76073263D01*
X211581737Y-76189440D01*
X211720854Y-76276853D01*
X211875933Y-76331117D01*
X211875934Y-76331117D01*
X211875938Y-76331118D01*
X212039196Y-76349513D01*
X212039200Y-76349513D01*
X212039204Y-76349513D01*
X212202461Y-76331118D01*
X212202463Y-76331117D01*
X212202467Y-76331117D01*
X212357546Y-76276853D01*
X212496663Y-76189440D01*
X212511500Y-76174603D01*
X247475087Y-76174603D01*
X247493481Y-76337861D01*
X247493482Y-76337865D01*
X247547747Y-76492947D01*
X247635160Y-76632063D01*
X247751337Y-76748240D01*
X247890454Y-76835653D01*
X248045533Y-76889917D01*
X248045534Y-76889917D01*
X248045538Y-76889918D01*
X248208796Y-76908313D01*
X248208800Y-76908313D01*
X248208804Y-76908313D01*
X248372061Y-76889918D01*
X248372063Y-76889917D01*
X248372067Y-76889917D01*
X248527146Y-76835653D01*
X248666263Y-76748240D01*
X248782440Y-76632063D01*
X248869853Y-76492946D01*
X248924117Y-76337867D01*
X248924118Y-76337861D01*
X248942513Y-76174603D01*
X248942513Y-76174596D01*
X248924118Y-76011338D01*
X248924116Y-76011329D01*
X248869852Y-75856252D01*
X248782439Y-75717136D01*
X248666263Y-75600960D01*
X248527147Y-75513547D01*
X248372065Y-75459282D01*
X248372061Y-75459281D01*
X248208804Y-75440887D01*
X248208796Y-75440887D01*
X248045538Y-75459281D01*
X248045534Y-75459282D01*
X247890452Y-75513547D01*
X247751336Y-75600960D01*
X247635160Y-75717136D01*
X247547747Y-75856252D01*
X247493484Y-76011329D01*
X247493481Y-76011338D01*
X247475087Y-76174596D01*
X247475087Y-76174603D01*
X212511500Y-76174603D01*
X212612840Y-76073263D01*
X212700253Y-75934146D01*
X212754517Y-75779067D01*
X212765965Y-75677465D01*
X212772913Y-75615803D01*
X212772913Y-75615796D01*
X212754518Y-75452538D01*
X212754517Y-75452534D01*
X212750872Y-75442118D01*
X212700253Y-75297454D01*
X212612840Y-75158337D01*
X212496663Y-75042160D01*
X212458299Y-75018054D01*
X212357547Y-74954747D01*
X212202465Y-74900482D01*
X212202461Y-74900481D01*
X212039204Y-74882087D01*
X212039196Y-74882087D01*
X211875938Y-74900481D01*
X211875934Y-74900482D01*
X211720852Y-74954747D01*
X211581736Y-75042160D01*
X211465560Y-75158336D01*
X211378147Y-75297452D01*
X211323882Y-75452534D01*
X211323881Y-75452538D01*
X211305487Y-75615796D01*
X211305487Y-75615803D01*
X195413265Y-75615803D01*
X195424713Y-75514203D01*
X195424713Y-75514196D01*
X195406318Y-75350938D01*
X195406317Y-75350934D01*
X195401232Y-75336403D01*
X195352053Y-75195854D01*
X195337776Y-75173133D01*
X195273317Y-75070547D01*
X195264640Y-75056737D01*
X195148463Y-74940560D01*
X195084681Y-74900483D01*
X195010391Y-74853803D01*
X206962087Y-74853803D01*
X206980481Y-75017061D01*
X206980482Y-75017065D01*
X207034747Y-75172147D01*
X207058320Y-75209663D01*
X207122160Y-75311263D01*
X207238337Y-75427440D01*
X207302119Y-75467517D01*
X207376419Y-75514203D01*
X207377454Y-75514853D01*
X207532533Y-75569117D01*
X207532534Y-75569117D01*
X207532538Y-75569118D01*
X207695796Y-75587513D01*
X207695800Y-75587513D01*
X207695804Y-75587513D01*
X207859061Y-75569118D01*
X207859063Y-75569117D01*
X207859067Y-75569117D01*
X208014146Y-75514853D01*
X208153263Y-75427440D01*
X208269440Y-75311263D01*
X208356853Y-75172146D01*
X208411117Y-75017067D01*
X208418139Y-74954747D01*
X208429513Y-74853803D01*
X208429513Y-74853796D01*
X208423790Y-74803000D01*
X212981784Y-74803000D01*
X213000595Y-74981975D01*
X213000596Y-74981977D01*
X213029373Y-75070546D01*
X213056205Y-75153125D01*
X213146185Y-75308975D01*
X213240077Y-75413252D01*
X213264959Y-75440887D01*
X213266602Y-75442711D01*
X213412192Y-75548489D01*
X213576593Y-75621685D01*
X213576596Y-75621685D01*
X213576597Y-75621686D01*
X213604728Y-75627665D01*
X213752620Y-75659100D01*
X213932580Y-75659100D01*
X214108607Y-75621685D01*
X214273008Y-75548489D01*
X214418598Y-75442711D01*
X214514319Y-75336403D01*
X236222887Y-75336403D01*
X236241281Y-75499661D01*
X236241282Y-75499665D01*
X236295547Y-75654747D01*
X236334749Y-75717136D01*
X236382960Y-75793863D01*
X236499137Y-75910040D01*
X236638254Y-75997453D01*
X236793333Y-76051717D01*
X236793334Y-76051717D01*
X236793338Y-76051718D01*
X236956596Y-76070113D01*
X236956600Y-76070113D01*
X236956604Y-76070113D01*
X237119861Y-76051718D01*
X237119863Y-76051717D01*
X237119867Y-76051717D01*
X237274946Y-75997453D01*
X237414063Y-75910040D01*
X237530240Y-75793863D01*
X237617653Y-75654746D01*
X237671917Y-75499667D01*
X237673467Y-75485913D01*
X237690313Y-75336403D01*
X237690313Y-75336396D01*
X237671918Y-75173138D01*
X237671917Y-75173134D01*
X237671571Y-75172146D01*
X237617653Y-75018054D01*
X237539937Y-74894370D01*
X237520938Y-74827136D01*
X237539938Y-74762428D01*
X237546364Y-74752203D01*
X241379087Y-74752203D01*
X241397481Y-74915461D01*
X241397482Y-74915465D01*
X241451747Y-75070547D01*
X241515587Y-75172147D01*
X241539160Y-75209663D01*
X241655337Y-75325840D01*
X241737621Y-75377543D01*
X241754028Y-75387852D01*
X241794454Y-75413253D01*
X241949533Y-75467517D01*
X241949534Y-75467517D01*
X241949538Y-75467518D01*
X242112796Y-75485913D01*
X242112800Y-75485913D01*
X242112804Y-75485913D01*
X242276061Y-75467518D01*
X242276063Y-75467517D01*
X242276067Y-75467517D01*
X242431146Y-75413253D01*
X242570263Y-75325840D01*
X242686440Y-75209663D01*
X242773853Y-75070546D01*
X242828117Y-74915467D01*
X242828118Y-74915461D01*
X242846513Y-74752203D01*
X242846513Y-74752196D01*
X242843652Y-74726803D01*
X243893687Y-74726803D01*
X243912081Y-74890061D01*
X243912082Y-74890065D01*
X243966347Y-75045147D01*
X244046146Y-75172146D01*
X244053760Y-75184263D01*
X244169937Y-75300440D01*
X244309054Y-75387853D01*
X244464133Y-75442117D01*
X244464134Y-75442117D01*
X244464138Y-75442118D01*
X244627396Y-75460513D01*
X244627400Y-75460513D01*
X244627404Y-75460513D01*
X244790661Y-75442118D01*
X244790663Y-75442117D01*
X244790667Y-75442117D01*
X244945746Y-75387853D01*
X245084863Y-75300440D01*
X245201040Y-75184263D01*
X245288453Y-75045146D01*
X245342717Y-74890067D01*
X245346803Y-74853803D01*
X245361113Y-74726803D01*
X245361113Y-74726796D01*
X245342718Y-74563538D01*
X245342717Y-74563534D01*
X245332891Y-74535454D01*
X245288453Y-74408454D01*
X245280839Y-74396337D01*
X245218438Y-74297026D01*
X245201040Y-74269337D01*
X245084863Y-74153160D01*
X245032228Y-74120087D01*
X244945747Y-74065747D01*
X244790665Y-74011482D01*
X244790661Y-74011481D01*
X244627404Y-73993087D01*
X244627396Y-73993087D01*
X244464138Y-74011481D01*
X244464134Y-74011482D01*
X244309052Y-74065747D01*
X244169936Y-74153160D01*
X244053760Y-74269336D01*
X243966347Y-74408452D01*
X243912082Y-74563534D01*
X243912081Y-74563538D01*
X243893687Y-74726796D01*
X243893687Y-74726803D01*
X242843652Y-74726803D01*
X242828118Y-74588938D01*
X242828117Y-74588934D01*
X242819229Y-74563534D01*
X242773853Y-74433854D01*
X242686440Y-74294737D01*
X242570263Y-74178560D01*
X242545961Y-74163290D01*
X242431147Y-74091147D01*
X242276065Y-74036882D01*
X242276061Y-74036881D01*
X242112804Y-74018487D01*
X242112796Y-74018487D01*
X241949538Y-74036881D01*
X241949534Y-74036882D01*
X241794452Y-74091147D01*
X241655336Y-74178560D01*
X241539160Y-74294736D01*
X241451747Y-74433852D01*
X241397482Y-74588934D01*
X241397481Y-74588938D01*
X241379087Y-74752196D01*
X241379087Y-74752203D01*
X237546364Y-74752203D01*
X237546368Y-74752196D01*
X237617653Y-74638746D01*
X237671917Y-74483667D01*
X237671918Y-74483661D01*
X237690313Y-74320403D01*
X237690313Y-74320396D01*
X237671918Y-74157138D01*
X237671917Y-74157134D01*
X237670632Y-74153463D01*
X237617653Y-74002054D01*
X237614869Y-73997624D01*
X237538917Y-73876747D01*
X237530240Y-73862937D01*
X237414063Y-73746760D01*
X237374118Y-73721661D01*
X237274947Y-73659347D01*
X237119865Y-73605082D01*
X237119861Y-73605081D01*
X236956604Y-73586687D01*
X236956596Y-73586687D01*
X236793338Y-73605081D01*
X236793334Y-73605082D01*
X236638252Y-73659347D01*
X236499136Y-73746760D01*
X236382960Y-73862936D01*
X236295547Y-74002052D01*
X236241282Y-74157134D01*
X236241281Y-74157138D01*
X236222887Y-74320396D01*
X236222887Y-74320403D01*
X236241281Y-74483661D01*
X236241282Y-74483665D01*
X236295547Y-74638747D01*
X236373261Y-74762428D01*
X236392261Y-74829665D01*
X236373261Y-74894372D01*
X236295547Y-75018052D01*
X236241282Y-75173134D01*
X236241281Y-75173138D01*
X236222887Y-75336396D01*
X236222887Y-75336403D01*
X214514319Y-75336403D01*
X214539015Y-75308975D01*
X214628995Y-75153125D01*
X214684605Y-74981974D01*
X214703416Y-74803000D01*
X214684605Y-74624026D01*
X214628995Y-74452875D01*
X214539015Y-74297025D01*
X214418598Y-74163289D01*
X214273008Y-74057511D01*
X214108607Y-73984315D01*
X214108606Y-73984314D01*
X214108602Y-73984313D01*
X213932580Y-73946900D01*
X213752620Y-73946900D01*
X213576597Y-73984313D01*
X213412188Y-74057513D01*
X213266600Y-74163290D01*
X213146184Y-74297026D01*
X213056204Y-74452876D01*
X213000596Y-74624022D01*
X213000595Y-74624024D01*
X212981784Y-74803000D01*
X208423790Y-74803000D01*
X208411118Y-74690538D01*
X208411117Y-74690534D01*
X208387844Y-74624024D01*
X208356853Y-74535454D01*
X208269440Y-74396337D01*
X208153263Y-74280160D01*
X208136037Y-74269336D01*
X208014147Y-74192747D01*
X207859065Y-74138482D01*
X207859061Y-74138481D01*
X207695804Y-74120087D01*
X207695796Y-74120087D01*
X207532538Y-74138481D01*
X207532534Y-74138482D01*
X207377452Y-74192747D01*
X207238336Y-74280160D01*
X207122160Y-74396336D01*
X207034747Y-74535452D01*
X206980482Y-74690534D01*
X206980481Y-74690538D01*
X206962087Y-74853796D01*
X206962087Y-74853803D01*
X195010391Y-74853803D01*
X195009347Y-74853147D01*
X194854265Y-74798882D01*
X194854261Y-74798881D01*
X194691004Y-74780487D01*
X194690996Y-74780487D01*
X194527738Y-74798881D01*
X194527734Y-74798882D01*
X194372652Y-74853147D01*
X194233536Y-74940560D01*
X194117360Y-75056736D01*
X194029947Y-75195852D01*
X193975682Y-75350934D01*
X193975681Y-75350938D01*
X193957287Y-75514196D01*
X193957287Y-75514203D01*
X189762500Y-75514203D01*
X189762500Y-74276201D01*
X189782185Y-74209162D01*
X189834989Y-74163407D01*
X189904147Y-74153463D01*
X189952471Y-74171207D01*
X190029254Y-74219453D01*
X190184333Y-74273717D01*
X190184334Y-74273717D01*
X190184338Y-74273718D01*
X190347596Y-74292113D01*
X190347600Y-74292113D01*
X190347604Y-74292113D01*
X190510861Y-74273718D01*
X190510863Y-74273717D01*
X190510867Y-74273717D01*
X190665946Y-74219453D01*
X190805063Y-74132040D01*
X190921240Y-74015863D01*
X191008653Y-73876746D01*
X191062917Y-73721667D01*
X191071055Y-73649440D01*
X191081313Y-73558403D01*
X191081313Y-73558396D01*
X191062918Y-73395138D01*
X191062917Y-73395134D01*
X191062571Y-73394146D01*
X191008653Y-73240054D01*
X190994569Y-73217640D01*
X190972943Y-73183221D01*
X190921240Y-73100937D01*
X190845306Y-73025003D01*
X208105087Y-73025003D01*
X208123481Y-73188261D01*
X208123482Y-73188265D01*
X208177747Y-73343347D01*
X208210290Y-73395138D01*
X208265160Y-73482463D01*
X208381337Y-73598640D01*
X208520454Y-73686053D01*
X208675533Y-73740317D01*
X208675534Y-73740317D01*
X208675538Y-73740318D01*
X208838796Y-73758713D01*
X208838800Y-73758713D01*
X208838804Y-73758713D01*
X209002061Y-73740318D01*
X209002063Y-73740317D01*
X209002067Y-73740317D01*
X209157146Y-73686053D01*
X209296263Y-73598640D01*
X209412440Y-73482463D01*
X209499853Y-73343346D01*
X209554117Y-73188267D01*
X209563957Y-73100936D01*
X209572513Y-73025003D01*
X209572513Y-73024996D01*
X209554118Y-72861738D01*
X209554117Y-72861734D01*
X209547590Y-72843082D01*
X209499853Y-72706654D01*
X209412440Y-72567537D01*
X209296263Y-72451360D01*
X209237994Y-72414747D01*
X209157147Y-72363947D01*
X209002065Y-72309682D01*
X209002061Y-72309681D01*
X208838804Y-72291287D01*
X208838796Y-72291287D01*
X208675538Y-72309681D01*
X208675534Y-72309682D01*
X208520452Y-72363947D01*
X208381336Y-72451360D01*
X208265160Y-72567536D01*
X208177747Y-72706652D01*
X208123482Y-72861734D01*
X208123481Y-72861738D01*
X208105087Y-73024996D01*
X208105087Y-73025003D01*
X190845306Y-73025003D01*
X190805063Y-72984760D01*
X190769393Y-72962347D01*
X190665947Y-72897347D01*
X190510865Y-72843082D01*
X190510861Y-72843081D01*
X190347604Y-72824687D01*
X190347596Y-72824687D01*
X190184338Y-72843081D01*
X190184334Y-72843082D01*
X190029252Y-72897347D01*
X189952472Y-72945592D01*
X189885235Y-72964592D01*
X189818400Y-72944224D01*
X189773186Y-72890956D01*
X189762500Y-72840598D01*
X189762500Y-70601274D01*
X189782185Y-70534235D01*
X189834989Y-70488480D01*
X189904147Y-70478536D01*
X189948498Y-70493887D01*
X189958896Y-70499890D01*
X190073880Y-70530700D01*
X190073883Y-70530700D01*
X190192917Y-70530700D01*
X190192920Y-70530700D01*
X190307904Y-70499890D01*
X190410996Y-70440370D01*
X190495170Y-70356196D01*
X190554690Y-70253104D01*
X190585500Y-70138120D01*
X191481300Y-70138120D01*
X191489664Y-70169333D01*
X191512110Y-70253105D01*
X191512111Y-70253106D01*
X191571627Y-70356192D01*
X191571629Y-70356195D01*
X191571630Y-70356196D01*
X191655804Y-70440370D01*
X191655805Y-70440371D01*
X191655807Y-70440372D01*
X191707350Y-70470130D01*
X191758896Y-70499890D01*
X191873880Y-70530700D01*
X191873883Y-70530700D01*
X191992917Y-70530700D01*
X191992920Y-70530700D01*
X192107904Y-70499890D01*
X192177683Y-70459603D01*
X196421087Y-70459603D01*
X196439481Y-70622861D01*
X196439482Y-70622865D01*
X196493747Y-70777947D01*
X196544261Y-70858339D01*
X196563261Y-70925576D01*
X196544263Y-70990280D01*
X196519146Y-71030254D01*
X196464882Y-71185334D01*
X196464881Y-71185338D01*
X196446487Y-71348596D01*
X196446487Y-71348603D01*
X196464881Y-71511861D01*
X196464882Y-71511865D01*
X196519147Y-71666947D01*
X196599567Y-71794933D01*
X196606560Y-71806063D01*
X196722737Y-71922240D01*
X196861854Y-72009653D01*
X197016933Y-72063917D01*
X197016934Y-72063917D01*
X197016938Y-72063918D01*
X197180196Y-72082313D01*
X197180200Y-72082313D01*
X197180204Y-72082313D01*
X197343461Y-72063918D01*
X197343463Y-72063917D01*
X197343467Y-72063917D01*
X197498546Y-72009653D01*
X197637663Y-71922240D01*
X197753840Y-71806063D01*
X197841253Y-71666946D01*
X197895517Y-71511867D01*
X197895518Y-71511861D01*
X197913913Y-71348603D01*
X197913913Y-71348596D01*
X197895518Y-71185338D01*
X197895517Y-71185334D01*
X197859028Y-71081054D01*
X197841253Y-71030254D01*
X197790737Y-70949859D01*
X197771737Y-70882623D01*
X197790736Y-70817918D01*
X197815853Y-70777946D01*
X197870117Y-70622867D01*
X197880502Y-70530700D01*
X197888513Y-70459603D01*
X197888513Y-70459596D01*
X197874204Y-70332603D01*
X214099487Y-70332603D01*
X214117881Y-70495861D01*
X214117882Y-70495866D01*
X214161332Y-70620039D01*
X214164893Y-70689818D01*
X214161333Y-70701944D01*
X214143283Y-70753532D01*
X214143281Y-70753538D01*
X214124887Y-70916797D01*
X214124887Y-70916803D01*
X214143281Y-71080061D01*
X214143282Y-71080065D01*
X214197547Y-71235147D01*
X214284958Y-71374260D01*
X214288754Y-71379019D01*
X214315166Y-71443704D01*
X214302414Y-71512400D01*
X214296805Y-71522309D01*
X214222947Y-71639852D01*
X214168682Y-71794934D01*
X214168681Y-71794938D01*
X214150287Y-71958196D01*
X214150287Y-71958203D01*
X214168681Y-72121461D01*
X214168682Y-72121466D01*
X214217208Y-72260146D01*
X214220769Y-72329925D01*
X214217208Y-72342054D01*
X214168682Y-72480733D01*
X214168681Y-72480738D01*
X214150287Y-72643996D01*
X214150287Y-72644003D01*
X214168681Y-72807261D01*
X214168682Y-72807265D01*
X214222947Y-72962347D01*
X214262315Y-73025000D01*
X214310360Y-73101463D01*
X214426537Y-73217640D01*
X214565654Y-73305053D01*
X214720733Y-73359317D01*
X214720734Y-73359317D01*
X214720738Y-73359318D01*
X214883996Y-73377713D01*
X214884000Y-73377713D01*
X214884004Y-73377713D01*
X215047261Y-73359318D01*
X215047263Y-73359317D01*
X215047267Y-73359317D01*
X215202346Y-73305053D01*
X215341463Y-73217640D01*
X215457640Y-73101463D01*
X215545053Y-72962346D01*
X215599317Y-72807267D01*
X215604930Y-72757452D01*
X215617713Y-72644003D01*
X237365887Y-72644003D01*
X237384281Y-72807261D01*
X237384282Y-72807265D01*
X237438547Y-72962347D01*
X237477915Y-73025000D01*
X237525960Y-73101463D01*
X237642137Y-73217640D01*
X237781254Y-73305053D01*
X237936333Y-73359317D01*
X237936334Y-73359317D01*
X237936338Y-73359318D01*
X238099596Y-73377713D01*
X238099600Y-73377713D01*
X238099604Y-73377713D01*
X238262861Y-73359318D01*
X238262863Y-73359317D01*
X238262867Y-73359317D01*
X238417946Y-73305053D01*
X238557063Y-73217640D01*
X238673240Y-73101463D01*
X238689363Y-73075803D01*
X247678287Y-73075803D01*
X247696681Y-73239061D01*
X247696682Y-73239065D01*
X247750947Y-73394147D01*
X247751570Y-73395138D01*
X247838360Y-73533263D01*
X247954537Y-73649440D01*
X247970304Y-73659347D01*
X248069485Y-73721667D01*
X248093654Y-73736853D01*
X248248733Y-73791117D01*
X248248734Y-73791117D01*
X248248738Y-73791118D01*
X248411996Y-73809513D01*
X248412000Y-73809513D01*
X248412004Y-73809513D01*
X248575261Y-73791118D01*
X248575263Y-73791117D01*
X248575267Y-73791117D01*
X248730346Y-73736853D01*
X248869463Y-73649440D01*
X248985640Y-73533263D01*
X249073053Y-73394146D01*
X249127317Y-73239067D01*
X249129086Y-73223369D01*
X249145713Y-73075803D01*
X249145713Y-73075796D01*
X249127318Y-72912538D01*
X249127317Y-72912534D01*
X249109541Y-72861734D01*
X249073053Y-72757454D01*
X249071052Y-72754270D01*
X249052158Y-72724200D01*
X249549261Y-72724200D01*
X249552315Y-72743485D01*
X249552318Y-72743495D01*
X249608250Y-72915641D01*
X249608252Y-72915647D01*
X249690434Y-73076934D01*
X249796823Y-73223369D01*
X249924830Y-73351376D01*
X250071265Y-73457765D01*
X250232552Y-73539947D01*
X250232555Y-73539948D01*
X250404706Y-73595882D01*
X250583494Y-73624200D01*
X251374000Y-73624200D01*
X251374000Y-72824200D01*
X251874000Y-72824200D01*
X251874000Y-73624200D01*
X252664506Y-73624200D01*
X252843293Y-73595882D01*
X253015444Y-73539948D01*
X253015447Y-73539947D01*
X253176734Y-73457765D01*
X253323169Y-73351376D01*
X253451176Y-73223369D01*
X253557565Y-73076934D01*
X253639747Y-72915647D01*
X253639749Y-72915641D01*
X253695681Y-72743495D01*
X253695684Y-72743485D01*
X253698739Y-72724200D01*
X252768975Y-72724200D01*
X252804070Y-72689105D01*
X252850148Y-72609295D01*
X252874000Y-72520278D01*
X252874000Y-72428122D01*
X252850148Y-72339105D01*
X252804070Y-72259295D01*
X252768975Y-72224200D01*
X253698739Y-72224200D01*
X253695684Y-72204914D01*
X253695681Y-72204904D01*
X253639749Y-72032758D01*
X253639747Y-72032752D01*
X253557565Y-71871465D01*
X253451176Y-71725030D01*
X253323169Y-71597023D01*
X253176734Y-71490634D01*
X253015447Y-71408452D01*
X253015444Y-71408451D01*
X252843293Y-71352517D01*
X252664506Y-71324200D01*
X251874000Y-71324200D01*
X251874000Y-72124200D01*
X251374000Y-72124200D01*
X251374000Y-71324200D01*
X250583494Y-71324200D01*
X250404706Y-71352517D01*
X250232555Y-71408451D01*
X250232552Y-71408452D01*
X250071265Y-71490634D01*
X249924830Y-71597023D01*
X249796823Y-71725030D01*
X249690434Y-71871465D01*
X249608252Y-72032752D01*
X249608250Y-72032758D01*
X249552318Y-72204904D01*
X249552315Y-72204914D01*
X249549261Y-72224200D01*
X250479025Y-72224200D01*
X250443930Y-72259295D01*
X250397852Y-72339105D01*
X250374000Y-72428122D01*
X250374000Y-72520278D01*
X250397852Y-72609295D01*
X250443930Y-72689105D01*
X250479025Y-72724200D01*
X249549261Y-72724200D01*
X249052158Y-72724200D01*
X249001765Y-72644000D01*
X248985640Y-72618337D01*
X248869463Y-72502160D01*
X248835356Y-72480729D01*
X248730347Y-72414747D01*
X248575265Y-72360482D01*
X248575261Y-72360481D01*
X248412004Y-72342087D01*
X248411996Y-72342087D01*
X248248738Y-72360481D01*
X248248734Y-72360482D01*
X248093652Y-72414747D01*
X247954536Y-72502160D01*
X247838360Y-72618336D01*
X247750947Y-72757452D01*
X247696682Y-72912534D01*
X247696681Y-72912538D01*
X247678287Y-73075796D01*
X247678287Y-73075803D01*
X238689363Y-73075803D01*
X238760653Y-72962346D01*
X238814917Y-72807267D01*
X238818477Y-72775667D01*
X238845542Y-72711257D01*
X238900741Y-72672511D01*
X239052946Y-72619253D01*
X239192063Y-72531840D01*
X239308240Y-72415663D01*
X239395653Y-72276546D01*
X239422194Y-72200691D01*
X239462914Y-72143916D01*
X239525352Y-72118425D01*
X239558267Y-72114717D01*
X239713346Y-72060453D01*
X239852463Y-71973040D01*
X239968640Y-71856863D01*
X240056053Y-71717746D01*
X240110317Y-71562667D01*
X240110318Y-71562661D01*
X240128713Y-71399403D01*
X240128713Y-71399396D01*
X240110318Y-71236138D01*
X240110317Y-71236134D01*
X240109971Y-71235146D01*
X240056053Y-71081054D01*
X239968640Y-70941937D01*
X239852463Y-70825760D01*
X239839975Y-70817913D01*
X239713347Y-70738347D01*
X239558265Y-70684082D01*
X239558261Y-70684081D01*
X239395004Y-70665687D01*
X239394996Y-70665687D01*
X239231738Y-70684081D01*
X239231734Y-70684082D01*
X239076652Y-70738347D01*
X238937536Y-70825760D01*
X238821360Y-70941936D01*
X238733945Y-71081055D01*
X238707402Y-71156910D01*
X238666680Y-71213686D01*
X238604248Y-71239174D01*
X238571333Y-71242883D01*
X238416252Y-71297147D01*
X238277136Y-71384560D01*
X238160960Y-71500736D01*
X238073547Y-71639852D01*
X238019281Y-71794937D01*
X238015721Y-71826535D01*
X237988653Y-71890948D01*
X237933455Y-71929690D01*
X237781252Y-71982947D01*
X237642136Y-72070360D01*
X237525960Y-72186536D01*
X237438547Y-72325652D01*
X237384282Y-72480734D01*
X237384281Y-72480738D01*
X237365887Y-72643996D01*
X237365887Y-72644003D01*
X215617713Y-72644003D01*
X215617713Y-72643996D01*
X215599318Y-72480738D01*
X215599316Y-72480729D01*
X215576548Y-72415663D01*
X215550790Y-72342051D01*
X215547228Y-72272277D01*
X215550786Y-72260161D01*
X215599317Y-72121467D01*
X215603729Y-72082313D01*
X215617713Y-71958203D01*
X215617713Y-71958196D01*
X215599318Y-71794938D01*
X215599317Y-71794934D01*
X215572308Y-71717747D01*
X215545053Y-71639854D01*
X215457640Y-71500737D01*
X215457632Y-71500729D01*
X215453846Y-71495982D01*
X215427433Y-71431297D01*
X215440185Y-71362601D01*
X215445787Y-71352702D01*
X215519653Y-71235146D01*
X215573917Y-71080067D01*
X215589481Y-70941936D01*
X215592313Y-70916803D01*
X215592313Y-70916796D01*
X215573918Y-70753538D01*
X215573917Y-70753534D01*
X215573916Y-70753532D01*
X215530466Y-70629358D01*
X215526906Y-70559580D01*
X215530468Y-70547450D01*
X215548517Y-70495868D01*
X215548517Y-70495866D01*
X215566913Y-70332603D01*
X215566913Y-70332596D01*
X215548518Y-70169338D01*
X215548517Y-70169334D01*
X215538691Y-70141254D01*
X215494253Y-70014254D01*
X215486639Y-70002137D01*
X215416329Y-69890239D01*
X215406840Y-69875137D01*
X215290663Y-69758960D01*
X215238028Y-69725887D01*
X215151547Y-69671547D01*
X214996465Y-69617282D01*
X214996461Y-69617281D01*
X214833204Y-69598887D01*
X214833196Y-69598887D01*
X214669938Y-69617281D01*
X214669934Y-69617282D01*
X214514852Y-69671547D01*
X214375736Y-69758960D01*
X214259560Y-69875136D01*
X214172147Y-70014252D01*
X214117882Y-70169334D01*
X214117881Y-70169338D01*
X214099487Y-70332596D01*
X214099487Y-70332603D01*
X197874204Y-70332603D01*
X197870118Y-70296338D01*
X197870117Y-70296334D01*
X197854990Y-70253104D01*
X197815853Y-70141254D01*
X197728440Y-70002137D01*
X197612263Y-69885960D01*
X197502223Y-69816817D01*
X197473147Y-69798547D01*
X197318065Y-69744282D01*
X197318061Y-69744281D01*
X197154804Y-69725887D01*
X197154796Y-69725887D01*
X196991538Y-69744281D01*
X196991534Y-69744282D01*
X196836452Y-69798547D01*
X196697336Y-69885960D01*
X196581160Y-70002136D01*
X196493747Y-70141252D01*
X196439482Y-70296334D01*
X196439481Y-70296338D01*
X196421087Y-70459596D01*
X196421087Y-70459603D01*
X192177683Y-70459603D01*
X192210996Y-70440370D01*
X192295170Y-70356196D01*
X192354690Y-70253104D01*
X192385500Y-70138120D01*
X192385500Y-70019080D01*
X192354690Y-69904096D01*
X192295170Y-69801004D01*
X192210996Y-69716830D01*
X192210995Y-69716829D01*
X192210992Y-69716827D01*
X192107906Y-69657311D01*
X192107905Y-69657310D01*
X192079158Y-69649607D01*
X191992920Y-69626500D01*
X191873880Y-69626500D01*
X191804889Y-69644986D01*
X191758894Y-69657310D01*
X191758893Y-69657311D01*
X191655807Y-69716827D01*
X191655802Y-69716831D01*
X191571631Y-69801002D01*
X191571627Y-69801007D01*
X191512111Y-69904093D01*
X191512110Y-69904094D01*
X191496705Y-69961588D01*
X191481300Y-70019080D01*
X191481300Y-70138120D01*
X190585500Y-70138120D01*
X190585500Y-70019080D01*
X190554690Y-69904096D01*
X190495170Y-69801004D01*
X190410996Y-69716830D01*
X190410995Y-69716829D01*
X190410992Y-69716827D01*
X190307906Y-69657311D01*
X190307905Y-69657310D01*
X190279158Y-69649607D01*
X190192920Y-69626500D01*
X190073880Y-69626500D01*
X190004889Y-69644986D01*
X189958894Y-69657310D01*
X189958893Y-69657311D01*
X189948500Y-69663312D01*
X189880599Y-69679785D01*
X189814573Y-69656932D01*
X189771382Y-69602011D01*
X189762500Y-69555925D01*
X189762500Y-69316603D01*
X238991487Y-69316603D01*
X239009881Y-69479861D01*
X239009882Y-69479865D01*
X239064147Y-69634947D01*
X239121289Y-69725887D01*
X239151560Y-69774063D01*
X239267737Y-69890240D01*
X239406854Y-69977653D01*
X239561933Y-70031917D01*
X239561934Y-70031917D01*
X239561938Y-70031918D01*
X239725196Y-70050313D01*
X239725200Y-70050313D01*
X239725204Y-70050313D01*
X239888461Y-70031918D01*
X239888463Y-70031917D01*
X239888467Y-70031917D01*
X240043546Y-69977653D01*
X240182663Y-69890240D01*
X240298840Y-69774063D01*
X240386253Y-69634946D01*
X240440517Y-69479867D01*
X240440518Y-69479861D01*
X240458913Y-69316603D01*
X240458913Y-69316596D01*
X240440518Y-69153338D01*
X240440517Y-69153334D01*
X240409401Y-69064410D01*
X240386253Y-68998254D01*
X240298840Y-68859137D01*
X240182663Y-68742960D01*
X240088813Y-68683990D01*
X240043547Y-68655547D01*
X239888465Y-68601282D01*
X239888461Y-68601281D01*
X239725204Y-68582887D01*
X239725196Y-68582887D01*
X239561938Y-68601281D01*
X239561934Y-68601282D01*
X239406852Y-68655547D01*
X239267736Y-68742960D01*
X239151560Y-68859136D01*
X239064147Y-68998252D01*
X239009882Y-69153334D01*
X239009881Y-69153338D01*
X238991487Y-69316596D01*
X238991487Y-69316603D01*
X189762500Y-69316603D01*
X189762500Y-68580003D01*
X234317887Y-68580003D01*
X234336281Y-68743261D01*
X234336282Y-68743265D01*
X234390547Y-68898347D01*
X234415732Y-68938428D01*
X234477960Y-69037463D01*
X234594137Y-69153640D01*
X234733254Y-69241053D01*
X234888333Y-69295317D01*
X234888334Y-69295317D01*
X234888338Y-69295318D01*
X235051596Y-69313713D01*
X235051600Y-69313713D01*
X235051604Y-69313713D01*
X235214861Y-69295318D01*
X235214863Y-69295317D01*
X235214867Y-69295317D01*
X235369946Y-69241053D01*
X235509063Y-69153640D01*
X235625240Y-69037463D01*
X235712653Y-68898346D01*
X235766917Y-68743267D01*
X235766952Y-68742960D01*
X235785313Y-68580003D01*
X235785313Y-68579996D01*
X235766918Y-68416738D01*
X235766917Y-68416734D01*
X235761923Y-68402463D01*
X235712653Y-68261654D01*
X235682609Y-68213840D01*
X235625239Y-68122536D01*
X235509063Y-68006360D01*
X235411415Y-67945003D01*
X237899287Y-67945003D01*
X237917681Y-68108261D01*
X237917682Y-68108265D01*
X237971947Y-68263347D01*
X238037504Y-68367680D01*
X238059360Y-68402463D01*
X238175537Y-68518640D01*
X238249809Y-68565308D01*
X238307062Y-68601283D01*
X238314654Y-68606053D01*
X238469733Y-68660317D01*
X238469734Y-68660317D01*
X238469738Y-68660318D01*
X238632996Y-68678713D01*
X238633000Y-68678713D01*
X238633004Y-68678713D01*
X238796261Y-68660318D01*
X238796263Y-68660317D01*
X238796267Y-68660317D01*
X238951346Y-68606053D01*
X239090463Y-68518640D01*
X239206640Y-68402463D01*
X239294053Y-68263346D01*
X239348317Y-68108267D01*
X239349512Y-68097661D01*
X239366713Y-67945003D01*
X239366713Y-67944996D01*
X239348318Y-67781738D01*
X239348317Y-67781734D01*
X239298793Y-67640203D01*
X249862687Y-67640203D01*
X249881081Y-67803461D01*
X249881082Y-67803465D01*
X249935347Y-67958547D01*
X250022759Y-68097661D01*
X250022760Y-68097663D01*
X250138937Y-68213840D01*
X250208084Y-68257288D01*
X250278050Y-68301251D01*
X250278054Y-68301253D01*
X250433133Y-68355517D01*
X250433134Y-68355517D01*
X250433138Y-68355518D01*
X250596396Y-68373913D01*
X250596400Y-68373913D01*
X250596404Y-68373913D01*
X250759661Y-68355518D01*
X250759663Y-68355517D01*
X250759667Y-68355517D01*
X250914746Y-68301253D01*
X250914748Y-68301251D01*
X250914750Y-68301251D01*
X250941660Y-68284341D01*
X250954474Y-68276289D01*
X251021710Y-68257288D01*
X251088546Y-68277654D01*
X251133761Y-68330921D01*
X251143000Y-68400178D01*
X251119591Y-68452595D01*
X251120865Y-68453446D01*
X251046120Y-68565308D01*
X251046115Y-68565317D01*
X250996960Y-68683989D01*
X250996958Y-68683995D01*
X250971900Y-68809971D01*
X250971900Y-68809974D01*
X250971900Y-68938426D01*
X250971900Y-68938428D01*
X250971899Y-68938428D01*
X250996958Y-69064404D01*
X250996960Y-69064410D01*
X251046115Y-69183082D01*
X251046120Y-69183091D01*
X251117480Y-69289888D01*
X251117483Y-69289892D01*
X251208307Y-69380716D01*
X251208311Y-69380719D01*
X251315108Y-69452079D01*
X251315114Y-69452082D01*
X251315115Y-69452083D01*
X251433790Y-69501240D01*
X251433794Y-69501240D01*
X251433795Y-69501241D01*
X251559771Y-69526300D01*
X251559774Y-69526300D01*
X251688228Y-69526300D01*
X251772983Y-69509440D01*
X251814210Y-69501240D01*
X251932885Y-69452083D01*
X252039689Y-69380719D01*
X252130519Y-69289889D01*
X252201883Y-69183085D01*
X252251040Y-69064410D01*
X252276100Y-68938426D01*
X252276100Y-68809974D01*
X252276100Y-68809971D01*
X252251041Y-68683995D01*
X252251040Y-68683994D01*
X252251040Y-68683990D01*
X252201883Y-68565315D01*
X252201882Y-68565314D01*
X252201879Y-68565308D01*
X252130519Y-68458511D01*
X252130516Y-68458507D01*
X252039692Y-68367683D01*
X252039688Y-68367680D01*
X251932891Y-68296320D01*
X251932882Y-68296315D01*
X251814210Y-68247160D01*
X251814204Y-68247158D01*
X251688228Y-68222100D01*
X251688226Y-68222100D01*
X251559774Y-68222100D01*
X251559772Y-68222100D01*
X251433795Y-68247158D01*
X251433789Y-68247160D01*
X251315108Y-68296319D01*
X251313908Y-68296961D01*
X251313208Y-68297106D01*
X251309487Y-68298648D01*
X251309194Y-68297941D01*
X251245504Y-68311194D01*
X251180263Y-68286185D01*
X251138900Y-68229875D01*
X251134546Y-68160141D01*
X251165927Y-68103288D01*
X251165699Y-68103106D01*
X251166770Y-68101762D01*
X251167792Y-68099910D01*
X251170040Y-68097663D01*
X251257453Y-67958546D01*
X251311717Y-67803467D01*
X251311718Y-67803461D01*
X251330113Y-67640203D01*
X251330113Y-67640196D01*
X251311718Y-67476938D01*
X251311717Y-67476934D01*
X251274775Y-67371360D01*
X251257453Y-67321854D01*
X251233634Y-67283947D01*
X251210637Y-67247347D01*
X251170040Y-67182737D01*
X251053863Y-67066560D01*
X250914747Y-66979147D01*
X250759665Y-66924882D01*
X250759661Y-66924881D01*
X250596404Y-66906487D01*
X250596396Y-66906487D01*
X250433138Y-66924881D01*
X250433134Y-66924882D01*
X250278052Y-66979147D01*
X250138936Y-67066560D01*
X250022760Y-67182736D01*
X249935347Y-67321852D01*
X249881082Y-67476934D01*
X249881081Y-67476938D01*
X249862687Y-67640196D01*
X249862687Y-67640203D01*
X239298793Y-67640203D01*
X239298791Y-67640196D01*
X239294053Y-67626654D01*
X239271054Y-67590052D01*
X239206639Y-67487536D01*
X239090463Y-67371360D01*
X238951347Y-67283947D01*
X238796265Y-67229682D01*
X238796261Y-67229681D01*
X238633004Y-67211287D01*
X238632996Y-67211287D01*
X238469738Y-67229681D01*
X238469734Y-67229682D01*
X238314652Y-67283947D01*
X238175536Y-67371360D01*
X238059360Y-67487536D01*
X237971947Y-67626652D01*
X237917682Y-67781734D01*
X237917681Y-67781738D01*
X237899287Y-67944996D01*
X237899287Y-67945003D01*
X235411415Y-67945003D01*
X235369947Y-67918947D01*
X235214865Y-67864682D01*
X235214861Y-67864681D01*
X235051604Y-67846287D01*
X235051596Y-67846287D01*
X234888338Y-67864681D01*
X234888334Y-67864682D01*
X234733252Y-67918947D01*
X234594136Y-68006360D01*
X234477960Y-68122536D01*
X234390547Y-68261652D01*
X234336282Y-68416734D01*
X234336281Y-68416738D01*
X234317887Y-68579996D01*
X234317887Y-68580003D01*
X189762500Y-68580003D01*
X189762500Y-66929003D01*
X206962087Y-66929003D01*
X206980481Y-67092261D01*
X206980482Y-67092265D01*
X207034747Y-67247347D01*
X207081562Y-67321852D01*
X207122160Y-67386463D01*
X207238337Y-67502640D01*
X207377454Y-67590053D01*
X207532533Y-67644317D01*
X207532534Y-67644317D01*
X207532538Y-67644318D01*
X207695796Y-67662713D01*
X207695800Y-67662713D01*
X207695804Y-67662713D01*
X207859061Y-67644318D01*
X207859063Y-67644317D01*
X207859067Y-67644317D01*
X208014146Y-67590053D01*
X208153263Y-67502640D01*
X208269440Y-67386463D01*
X208356853Y-67247346D01*
X208411117Y-67092267D01*
X208429513Y-66929000D01*
X208429049Y-66924883D01*
X208411118Y-66765738D01*
X208411117Y-66765734D01*
X208356852Y-66610652D01*
X208269439Y-66471536D01*
X208153263Y-66355360D01*
X208014147Y-66267947D01*
X207859065Y-66213682D01*
X207859061Y-66213681D01*
X207695804Y-66195287D01*
X207695796Y-66195287D01*
X207532538Y-66213681D01*
X207532534Y-66213682D01*
X207377452Y-66267947D01*
X207238336Y-66355360D01*
X207122160Y-66471536D01*
X207034747Y-66610652D01*
X206980482Y-66765734D01*
X206980481Y-66765738D01*
X206962087Y-66928996D01*
X206962087Y-66929003D01*
X189762500Y-66929003D01*
X189762500Y-65824521D01*
X189782185Y-65757482D01*
X189834989Y-65711727D01*
X189904147Y-65701783D01*
X189952471Y-65719527D01*
X189978454Y-65735853D01*
X190133533Y-65790117D01*
X190133534Y-65790117D01*
X190133538Y-65790118D01*
X190296796Y-65808513D01*
X190296800Y-65808513D01*
X190296804Y-65808513D01*
X190460061Y-65790118D01*
X190460063Y-65790117D01*
X190460067Y-65790117D01*
X190615146Y-65735853D01*
X190754263Y-65648440D01*
X190870440Y-65532263D01*
X190957853Y-65393146D01*
X191012117Y-65238067D01*
X191027899Y-65097999D01*
X191030513Y-65074803D01*
X191030513Y-65074796D01*
X191012118Y-64911538D01*
X191012117Y-64911534D01*
X191007032Y-64897003D01*
X190957853Y-64756454D01*
X190943576Y-64733733D01*
X190895077Y-64656547D01*
X190870440Y-64617337D01*
X190754263Y-64501160D01*
X190748483Y-64497528D01*
X190615147Y-64413747D01*
X190460065Y-64359482D01*
X190460061Y-64359481D01*
X190296804Y-64341087D01*
X190296796Y-64341087D01*
X190133538Y-64359481D01*
X190133534Y-64359482D01*
X189978452Y-64413747D01*
X189978448Y-64413749D01*
X189952471Y-64430072D01*
X189885234Y-64449072D01*
X189818399Y-64428704D01*
X189773186Y-64375436D01*
X189762500Y-64325078D01*
X189762500Y-63627003D01*
X201323287Y-63627003D01*
X201341681Y-63790261D01*
X201341682Y-63790265D01*
X201395947Y-63945347D01*
X201483360Y-64084463D01*
X201599537Y-64200640D01*
X201639961Y-64226040D01*
X201720808Y-64276840D01*
X201738654Y-64288053D01*
X201893733Y-64342317D01*
X201893734Y-64342317D01*
X201893738Y-64342318D01*
X202056996Y-64360713D01*
X202057000Y-64360713D01*
X202057004Y-64360713D01*
X202220261Y-64342318D01*
X202220263Y-64342317D01*
X202220267Y-64342317D01*
X202375346Y-64288053D01*
X202375348Y-64288052D01*
X202402615Y-64270919D01*
X202469852Y-64251918D01*
X202534560Y-64270918D01*
X202561828Y-64288052D01*
X202602254Y-64313453D01*
X202757333Y-64367717D01*
X202757334Y-64367717D01*
X202757338Y-64367718D01*
X202920596Y-64386113D01*
X202920600Y-64386113D01*
X202920604Y-64386113D01*
X203083861Y-64367718D01*
X203083863Y-64367717D01*
X203083867Y-64367717D01*
X203238946Y-64313453D01*
X203378063Y-64226040D01*
X203494240Y-64109863D01*
X203581653Y-63970746D01*
X203635917Y-63815667D01*
X203638097Y-63796320D01*
X203642865Y-63754000D01*
X216994984Y-63754000D01*
X217013795Y-63932975D01*
X217013796Y-63932977D01*
X217056795Y-64065317D01*
X217069405Y-64104125D01*
X217159385Y-64259975D01*
X217279802Y-64393711D01*
X217425392Y-64499489D01*
X217589793Y-64572685D01*
X217589796Y-64572685D01*
X217589797Y-64572686D01*
X217614784Y-64577997D01*
X217765820Y-64610100D01*
X217945780Y-64610100D01*
X218121807Y-64572685D01*
X218286208Y-64499489D01*
X218431798Y-64393711D01*
X218552215Y-64259975D01*
X218642195Y-64104125D01*
X218697805Y-63932974D01*
X218716616Y-63754000D01*
X228653584Y-63754000D01*
X228672395Y-63932975D01*
X228672396Y-63932977D01*
X228715395Y-64065317D01*
X228728005Y-64104125D01*
X228817985Y-64259975D01*
X228938402Y-64393711D01*
X229081293Y-64497528D01*
X229123958Y-64552858D01*
X229129937Y-64622472D01*
X229097331Y-64684267D01*
X229074380Y-64702839D01*
X229031539Y-64729758D01*
X229031536Y-64729760D01*
X228915360Y-64845936D01*
X228827947Y-64985052D01*
X228773682Y-65140134D01*
X228773681Y-65140138D01*
X228755287Y-65303396D01*
X228755287Y-65303403D01*
X228773681Y-65466661D01*
X228773682Y-65466665D01*
X228827947Y-65621747D01*
X228899645Y-65735853D01*
X228915360Y-65760863D01*
X229031537Y-65877040D01*
X229170654Y-65964453D01*
X229325733Y-66018717D01*
X229325734Y-66018717D01*
X229325738Y-66018718D01*
X229488996Y-66037113D01*
X229489000Y-66037113D01*
X229489004Y-66037113D01*
X229652261Y-66018718D01*
X229652263Y-66018717D01*
X229652267Y-66018717D01*
X229807346Y-65964453D01*
X229946463Y-65877040D01*
X230062640Y-65760863D01*
X230150053Y-65621746D01*
X230204317Y-65466667D01*
X230204318Y-65466661D01*
X230222713Y-65303403D01*
X230222713Y-65303396D01*
X230204318Y-65140138D01*
X230204317Y-65140134D01*
X230191092Y-65102340D01*
X230150053Y-64985054D01*
X230129333Y-64952079D01*
X230094727Y-64897003D01*
X237111887Y-64897003D01*
X237130281Y-65060261D01*
X237130282Y-65060265D01*
X237184547Y-65215347D01*
X237231362Y-65289852D01*
X237271960Y-65354463D01*
X237388137Y-65470640D01*
X237527254Y-65558053D01*
X237682333Y-65612317D01*
X237682334Y-65612317D01*
X237682338Y-65612318D01*
X237845596Y-65630713D01*
X237845600Y-65630713D01*
X237845604Y-65630713D01*
X238008861Y-65612318D01*
X238008863Y-65612317D01*
X238008867Y-65612317D01*
X238020624Y-65608203D01*
X250116687Y-65608203D01*
X250135081Y-65771461D01*
X250135082Y-65771465D01*
X250189347Y-65926547D01*
X250258821Y-66037113D01*
X250276760Y-66065663D01*
X250392937Y-66181840D01*
X250414338Y-66195287D01*
X250529975Y-66267947D01*
X250532054Y-66269253D01*
X250687133Y-66323517D01*
X250687134Y-66323517D01*
X250687138Y-66323518D01*
X250850396Y-66341913D01*
X250850400Y-66341913D01*
X250850404Y-66341913D01*
X251013661Y-66323518D01*
X251013663Y-66323517D01*
X251013667Y-66323517D01*
X251168746Y-66269253D01*
X251307863Y-66181840D01*
X251424040Y-66065663D01*
X251511453Y-65926546D01*
X251565717Y-65771467D01*
X251569730Y-65735852D01*
X251584113Y-65608203D01*
X251584113Y-65608196D01*
X251565718Y-65444938D01*
X251565717Y-65444934D01*
X251516191Y-65303396D01*
X251511453Y-65289854D01*
X251465219Y-65216273D01*
X251446218Y-65149036D01*
X251466585Y-65082201D01*
X251519853Y-65036986D01*
X251570212Y-65026300D01*
X251688228Y-65026300D01*
X251776616Y-65008718D01*
X251814210Y-65001240D01*
X251932885Y-64952083D01*
X252039689Y-64880719D01*
X252130519Y-64789889D01*
X252201883Y-64683085D01*
X252251040Y-64564410D01*
X252263561Y-64501465D01*
X252276100Y-64438428D01*
X252276100Y-64309971D01*
X252251041Y-64183995D01*
X252251040Y-64183994D01*
X252251040Y-64183990D01*
X252201883Y-64065315D01*
X252201882Y-64065314D01*
X252201879Y-64065308D01*
X252130519Y-63958511D01*
X252130516Y-63958507D01*
X252039692Y-63867683D01*
X252039688Y-63867680D01*
X251932891Y-63796320D01*
X251932882Y-63796315D01*
X251814210Y-63747160D01*
X251814204Y-63747158D01*
X251688228Y-63722100D01*
X251688226Y-63722100D01*
X251559774Y-63722100D01*
X251559772Y-63722100D01*
X251433795Y-63747158D01*
X251433789Y-63747160D01*
X251315117Y-63796315D01*
X251315108Y-63796320D01*
X251208311Y-63867680D01*
X251208307Y-63867683D01*
X251117483Y-63958507D01*
X251117480Y-63958511D01*
X251046120Y-64065308D01*
X251046115Y-64065317D01*
X250996960Y-64183989D01*
X250996958Y-64183995D01*
X250971900Y-64309971D01*
X250971900Y-64309974D01*
X250971900Y-64438426D01*
X250971900Y-64438428D01*
X250971899Y-64438428D01*
X250996958Y-64564404D01*
X250996960Y-64564410D01*
X251046115Y-64683082D01*
X251046120Y-64683091D01*
X251052013Y-64691910D01*
X251072891Y-64758588D01*
X251054406Y-64825968D01*
X251002428Y-64872658D01*
X250935029Y-64884021D01*
X250850405Y-64874487D01*
X250850396Y-64874487D01*
X250687138Y-64892881D01*
X250687134Y-64892882D01*
X250532052Y-64947147D01*
X250392936Y-65034560D01*
X250276760Y-65150736D01*
X250189347Y-65289852D01*
X250135082Y-65444934D01*
X250135081Y-65444938D01*
X250116687Y-65608196D01*
X250116687Y-65608203D01*
X238020624Y-65608203D01*
X238163946Y-65558053D01*
X238303063Y-65470640D01*
X238419240Y-65354463D01*
X238506653Y-65215346D01*
X238560917Y-65060267D01*
X238560918Y-65060261D01*
X238573678Y-64947015D01*
X238600744Y-64882601D01*
X238658339Y-64843045D01*
X238683015Y-64837678D01*
X238796261Y-64824918D01*
X238796263Y-64824917D01*
X238796267Y-64824917D01*
X238951346Y-64770653D01*
X239090463Y-64683240D01*
X239206640Y-64567063D01*
X239294053Y-64427946D01*
X239325455Y-64338203D01*
X242826887Y-64338203D01*
X242845281Y-64501461D01*
X242845282Y-64501465D01*
X242899547Y-64656547D01*
X242971245Y-64770653D01*
X242986960Y-64795663D01*
X243103137Y-64911840D01*
X243242254Y-64999253D01*
X243397333Y-65053517D01*
X243397334Y-65053517D01*
X243397338Y-65053518D01*
X243560596Y-65071913D01*
X243560600Y-65071913D01*
X243560604Y-65071913D01*
X243723861Y-65053518D01*
X243723862Y-65053517D01*
X243723867Y-65053517D01*
X243800851Y-65026578D01*
X243870626Y-65023016D01*
X243882741Y-65026573D01*
X244032333Y-65078917D01*
X244032334Y-65078917D01*
X244032337Y-65078918D01*
X244195596Y-65097313D01*
X244195600Y-65097313D01*
X244195604Y-65097313D01*
X244358859Y-65078918D01*
X244358861Y-65078918D01*
X244358862Y-65078917D01*
X244358867Y-65078917D01*
X244363214Y-65077395D01*
X244432990Y-65073831D01*
X244480206Y-65100240D01*
X244481994Y-65097999D01*
X244487436Y-65102339D01*
X244487437Y-65102340D01*
X244626554Y-65189753D01*
X244781633Y-65244017D01*
X244781634Y-65244017D01*
X244781638Y-65244018D01*
X244944896Y-65262413D01*
X244944900Y-65262413D01*
X244944904Y-65262413D01*
X245108161Y-65244018D01*
X245108163Y-65244017D01*
X245108167Y-65244017D01*
X245263246Y-65189753D01*
X245402363Y-65102340D01*
X245518540Y-64986163D01*
X245605953Y-64847046D01*
X245660217Y-64691967D01*
X245660218Y-64691961D01*
X245678613Y-64528703D01*
X245678613Y-64528696D01*
X245660218Y-64365438D01*
X245660217Y-64365434D01*
X245659803Y-64364252D01*
X245605953Y-64210354D01*
X245599849Y-64200640D01*
X245544235Y-64112130D01*
X245525235Y-64044893D01*
X245532188Y-64005203D01*
X245571845Y-63891870D01*
X245571847Y-63891861D01*
X245590242Y-63728603D01*
X245590242Y-63728596D01*
X245571847Y-63565338D01*
X245571846Y-63565334D01*
X245562958Y-63539934D01*
X245517582Y-63410254D01*
X245513574Y-63403876D01*
X245430168Y-63271136D01*
X245313992Y-63154960D01*
X245174876Y-63067547D01*
X245019794Y-63013282D01*
X245019790Y-63013281D01*
X244856533Y-62994887D01*
X244856525Y-62994887D01*
X244693267Y-63013281D01*
X244693263Y-63013282D01*
X244538181Y-63067547D01*
X244399065Y-63154960D01*
X244282889Y-63271136D01*
X244195476Y-63410252D01*
X244141198Y-63565373D01*
X244100476Y-63622149D01*
X244038043Y-63647639D01*
X244032333Y-63648282D01*
X243955347Y-63675220D01*
X243885568Y-63678781D01*
X243873440Y-63675220D01*
X243723866Y-63622882D01*
X243723861Y-63622881D01*
X243560604Y-63604487D01*
X243560596Y-63604487D01*
X243397338Y-63622881D01*
X243397334Y-63622882D01*
X243242252Y-63677147D01*
X243103136Y-63764560D01*
X242986960Y-63880736D01*
X242899547Y-64019852D01*
X242845282Y-64174934D01*
X242845281Y-64174938D01*
X242826887Y-64338196D01*
X242826887Y-64338203D01*
X239325455Y-64338203D01*
X239348317Y-64272867D01*
X239348318Y-64272861D01*
X239366713Y-64109603D01*
X239366713Y-64109596D01*
X239348318Y-63946338D01*
X239348317Y-63946334D01*
X239347971Y-63945346D01*
X239294053Y-63791254D01*
X239206640Y-63652137D01*
X239090463Y-63535960D01*
X238951347Y-63448547D01*
X238796265Y-63394282D01*
X238796261Y-63394281D01*
X238633004Y-63375887D01*
X238632996Y-63375887D01*
X238469738Y-63394281D01*
X238469734Y-63394282D01*
X238314652Y-63448547D01*
X238175536Y-63535960D01*
X238059360Y-63652136D01*
X237971947Y-63791252D01*
X237917682Y-63946334D01*
X237917681Y-63946338D01*
X237904921Y-64059585D01*
X237877854Y-64123999D01*
X237820259Y-64163554D01*
X237795585Y-64168921D01*
X237682338Y-64181681D01*
X237682334Y-64181682D01*
X237527252Y-64235947D01*
X237388136Y-64323360D01*
X237271960Y-64439536D01*
X237184547Y-64578652D01*
X237130282Y-64733734D01*
X237130281Y-64733738D01*
X237111887Y-64896996D01*
X237111887Y-64897003D01*
X230094727Y-64897003D01*
X230086570Y-64884021D01*
X230062640Y-64845937D01*
X229946463Y-64729760D01*
X229928156Y-64718257D01*
X229881866Y-64665924D01*
X229871217Y-64596870D01*
X229899592Y-64533022D01*
X229939438Y-64503173D01*
X229939185Y-64502735D01*
X229942844Y-64500622D01*
X229943698Y-64499983D01*
X229944808Y-64499489D01*
X230090398Y-64393711D01*
X230210815Y-64259975D01*
X230300795Y-64104125D01*
X230356405Y-63932974D01*
X230375216Y-63754000D01*
X230369877Y-63703203D01*
X231117487Y-63703203D01*
X231135881Y-63866461D01*
X231135882Y-63866465D01*
X231190147Y-64021547D01*
X231254522Y-64123999D01*
X231277560Y-64160663D01*
X231393737Y-64276840D01*
X231452005Y-64313452D01*
X231525262Y-64359483D01*
X231532854Y-64364253D01*
X231687933Y-64418517D01*
X231687934Y-64418517D01*
X231687938Y-64418518D01*
X231851196Y-64436913D01*
X231851200Y-64436913D01*
X231851204Y-64436913D01*
X232014461Y-64418518D01*
X232014463Y-64418517D01*
X232014467Y-64418517D01*
X232169546Y-64364253D01*
X232308663Y-64276840D01*
X232424840Y-64160663D01*
X232512253Y-64021546D01*
X232566517Y-63866467D01*
X232574421Y-63796317D01*
X232584913Y-63703203D01*
X232584913Y-63703196D01*
X232566518Y-63539938D01*
X232566517Y-63539934D01*
X232565126Y-63535960D01*
X232512253Y-63384854D01*
X232424840Y-63245737D01*
X232308663Y-63129560D01*
X232284361Y-63114290D01*
X232169547Y-63042147D01*
X232014465Y-62987882D01*
X232014461Y-62987881D01*
X231851204Y-62969487D01*
X231851196Y-62969487D01*
X231687938Y-62987881D01*
X231687934Y-62987882D01*
X231532852Y-63042147D01*
X231393736Y-63129560D01*
X231277560Y-63245736D01*
X231190147Y-63384852D01*
X231135882Y-63539934D01*
X231135881Y-63539938D01*
X231117487Y-63703196D01*
X231117487Y-63703203D01*
X230369877Y-63703203D01*
X230356405Y-63575026D01*
X230300795Y-63403875D01*
X230210815Y-63248025D01*
X230090398Y-63114289D01*
X229991104Y-63042147D01*
X229944811Y-63008513D01*
X229944810Y-63008512D01*
X229944808Y-63008511D01*
X229780407Y-62935315D01*
X229780406Y-62935314D01*
X229780402Y-62935313D01*
X229604380Y-62897900D01*
X229424420Y-62897900D01*
X229248397Y-62935313D01*
X229248393Y-62935315D01*
X229084060Y-63008481D01*
X229083988Y-63008513D01*
X228938400Y-63114290D01*
X228817984Y-63248026D01*
X228728004Y-63403876D01*
X228672396Y-63575022D01*
X228672395Y-63575024D01*
X228653584Y-63754000D01*
X218716616Y-63754000D01*
X218697805Y-63575026D01*
X218642195Y-63403875D01*
X218552215Y-63248025D01*
X218431798Y-63114289D01*
X218332504Y-63042147D01*
X218286211Y-63008513D01*
X218286210Y-63008512D01*
X218286208Y-63008511D01*
X218121807Y-62935315D01*
X218121806Y-62935314D01*
X218121802Y-62935313D01*
X217945780Y-62897900D01*
X217765820Y-62897900D01*
X217589797Y-62935313D01*
X217589793Y-62935315D01*
X217425460Y-63008481D01*
X217425388Y-63008513D01*
X217279800Y-63114290D01*
X217159384Y-63248026D01*
X217069404Y-63403876D01*
X217013796Y-63575022D01*
X217013795Y-63575024D01*
X216994984Y-63754000D01*
X203642865Y-63754000D01*
X203654313Y-63652403D01*
X203654313Y-63652396D01*
X203635918Y-63489138D01*
X203635917Y-63489134D01*
X203627029Y-63463734D01*
X203581653Y-63334054D01*
X203494240Y-63194937D01*
X203378063Y-63078760D01*
X203319794Y-63042147D01*
X203238947Y-62991347D01*
X203083865Y-62937082D01*
X203083861Y-62937081D01*
X202920604Y-62918687D01*
X202920596Y-62918687D01*
X202757338Y-62937081D01*
X202757334Y-62937082D01*
X202602252Y-62991347D01*
X202574979Y-63008483D01*
X202507741Y-63027480D01*
X202443040Y-63008481D01*
X202375347Y-62965947D01*
X202220265Y-62911682D01*
X202220261Y-62911681D01*
X202057004Y-62893287D01*
X202056996Y-62893287D01*
X201893738Y-62911681D01*
X201893734Y-62911682D01*
X201738652Y-62965947D01*
X201599536Y-63053360D01*
X201483360Y-63169536D01*
X201395947Y-63308652D01*
X201341682Y-63463734D01*
X201341681Y-63463738D01*
X201323287Y-63626996D01*
X201323287Y-63627003D01*
X189762500Y-63627003D01*
X189762500Y-62397074D01*
X189782185Y-62330035D01*
X189834989Y-62284280D01*
X189904147Y-62274336D01*
X189948498Y-62289687D01*
X189958896Y-62295690D01*
X190073880Y-62326500D01*
X190073883Y-62326500D01*
X190192917Y-62326500D01*
X190192920Y-62326500D01*
X190307904Y-62295690D01*
X190410996Y-62236170D01*
X190495170Y-62151996D01*
X190554690Y-62048904D01*
X190585500Y-61933920D01*
X191481300Y-61933920D01*
X191504407Y-62020158D01*
X191512110Y-62048905D01*
X191512111Y-62048906D01*
X191571627Y-62151992D01*
X191571629Y-62151995D01*
X191571630Y-62151996D01*
X191655804Y-62236170D01*
X191758896Y-62295690D01*
X191873880Y-62326500D01*
X191873883Y-62326500D01*
X191992917Y-62326500D01*
X191992920Y-62326500D01*
X192107904Y-62295690D01*
X192210996Y-62236170D01*
X192295170Y-62151996D01*
X192354690Y-62048904D01*
X192385500Y-61933920D01*
X192385500Y-61814880D01*
X192367420Y-61747403D01*
X248262487Y-61747403D01*
X248280881Y-61910661D01*
X248280882Y-61910665D01*
X248335147Y-62065747D01*
X248379405Y-62136182D01*
X248422560Y-62204863D01*
X248538737Y-62321040D01*
X248677854Y-62408453D01*
X248832933Y-62462717D01*
X248832934Y-62462717D01*
X248832938Y-62462718D01*
X248996196Y-62481113D01*
X248996200Y-62481113D01*
X248996204Y-62481113D01*
X249159461Y-62462718D01*
X249159463Y-62462717D01*
X249159467Y-62462717D01*
X249314546Y-62408453D01*
X249453663Y-62321040D01*
X249569840Y-62204863D01*
X249657253Y-62065746D01*
X249711517Y-61910667D01*
X249713183Y-61895882D01*
X249730693Y-61740481D01*
X249733531Y-61740800D01*
X249749598Y-61686084D01*
X249802402Y-61640329D01*
X249871560Y-61630385D01*
X249926798Y-61652805D01*
X250071265Y-61757765D01*
X250232552Y-61839947D01*
X250232555Y-61839948D01*
X250404706Y-61895882D01*
X250583494Y-61924200D01*
X251374000Y-61924200D01*
X251374000Y-61124200D01*
X251874000Y-61124200D01*
X251874000Y-61924200D01*
X252664506Y-61924200D01*
X252843293Y-61895882D01*
X253015444Y-61839948D01*
X253015447Y-61839947D01*
X253176734Y-61757765D01*
X253323169Y-61651376D01*
X253451176Y-61523369D01*
X253557565Y-61376934D01*
X253639747Y-61215647D01*
X253639749Y-61215641D01*
X253695681Y-61043495D01*
X253695684Y-61043485D01*
X253698739Y-61024200D01*
X252768975Y-61024200D01*
X252804070Y-60989105D01*
X252850148Y-60909295D01*
X252874000Y-60820278D01*
X252874000Y-60728122D01*
X252850148Y-60639105D01*
X252804070Y-60559295D01*
X252768975Y-60524200D01*
X253698739Y-60524200D01*
X253695684Y-60504914D01*
X253695681Y-60504904D01*
X253639749Y-60332758D01*
X253639747Y-60332752D01*
X253557565Y-60171465D01*
X253451176Y-60025030D01*
X253323169Y-59897023D01*
X253176734Y-59790634D01*
X253015447Y-59708452D01*
X253015444Y-59708451D01*
X252843293Y-59652517D01*
X252664506Y-59624200D01*
X251874000Y-59624200D01*
X251874000Y-60424200D01*
X251374000Y-60424200D01*
X251374000Y-59624200D01*
X250583494Y-59624200D01*
X250404706Y-59652517D01*
X250232555Y-59708451D01*
X250232552Y-59708452D01*
X250071265Y-59790634D01*
X249924830Y-59897023D01*
X249796823Y-60025030D01*
X249690434Y-60171465D01*
X249608252Y-60332752D01*
X249608250Y-60332758D01*
X249552318Y-60504904D01*
X249552315Y-60504914D01*
X249549261Y-60524200D01*
X250479025Y-60524200D01*
X250443930Y-60559295D01*
X250397852Y-60639105D01*
X250374000Y-60728122D01*
X250374000Y-60820278D01*
X250397852Y-60909295D01*
X250443930Y-60989105D01*
X250479025Y-61024200D01*
X249549260Y-61024200D01*
X249536773Y-61038820D01*
X249534468Y-61056657D01*
X249489471Y-61110108D01*
X249422719Y-61130746D01*
X249355405Y-61112019D01*
X249354978Y-61111752D01*
X249314548Y-61086348D01*
X249314547Y-61086347D01*
X249159465Y-61032082D01*
X249159461Y-61032081D01*
X248996204Y-61013687D01*
X248996196Y-61013687D01*
X248832938Y-61032081D01*
X248832934Y-61032082D01*
X248677852Y-61086347D01*
X248538736Y-61173760D01*
X248422560Y-61289936D01*
X248335147Y-61429052D01*
X248280882Y-61584134D01*
X248280881Y-61584138D01*
X248262487Y-61747396D01*
X248262487Y-61747403D01*
X192367420Y-61747403D01*
X192354690Y-61699896D01*
X192295170Y-61596804D01*
X192210996Y-61512630D01*
X192210995Y-61512629D01*
X192210992Y-61512627D01*
X192107906Y-61453111D01*
X192107905Y-61453110D01*
X192079158Y-61445407D01*
X191992920Y-61422300D01*
X191873880Y-61422300D01*
X191804889Y-61440786D01*
X191758894Y-61453110D01*
X191758893Y-61453111D01*
X191655807Y-61512627D01*
X191655802Y-61512631D01*
X191571631Y-61596802D01*
X191571627Y-61596807D01*
X191512111Y-61699893D01*
X191512110Y-61699894D01*
X191501235Y-61740481D01*
X191481300Y-61814880D01*
X191481300Y-61933920D01*
X190585500Y-61933920D01*
X190585500Y-61814880D01*
X190554690Y-61699896D01*
X190495170Y-61596804D01*
X190410996Y-61512630D01*
X190410995Y-61512629D01*
X190410992Y-61512627D01*
X190307906Y-61453111D01*
X190307905Y-61453110D01*
X190279158Y-61445407D01*
X190192920Y-61422300D01*
X190073880Y-61422300D01*
X190004889Y-61440786D01*
X189958894Y-61453110D01*
X189958893Y-61453111D01*
X189948500Y-61459112D01*
X189880599Y-61475585D01*
X189814573Y-61452732D01*
X189771382Y-61397811D01*
X189762500Y-61351725D01*
X189762500Y-57886603D01*
X242826887Y-57886603D01*
X242845281Y-58049861D01*
X242845282Y-58049865D01*
X242899547Y-58204947D01*
X242931467Y-58255747D01*
X242986960Y-58344063D01*
X243103137Y-58460240D01*
X243242254Y-58547653D01*
X243397333Y-58601917D01*
X243397334Y-58601917D01*
X243397338Y-58601918D01*
X243560596Y-58620313D01*
X243560600Y-58620313D01*
X243560604Y-58620313D01*
X243723861Y-58601918D01*
X243723863Y-58601917D01*
X243723867Y-58601917D01*
X243849847Y-58557834D01*
X243919623Y-58554272D01*
X243931740Y-58557830D01*
X244015357Y-58587089D01*
X244057729Y-58601916D01*
X244057732Y-58601916D01*
X244057733Y-58601917D01*
X244057734Y-58601917D01*
X244057738Y-58601918D01*
X244220996Y-58620313D01*
X244221000Y-58620313D01*
X244221004Y-58620313D01*
X244384261Y-58601918D01*
X244384263Y-58601917D01*
X244384267Y-58601917D01*
X244539346Y-58547653D01*
X244678463Y-58460240D01*
X244694751Y-58443951D01*
X244756071Y-58410466D01*
X244825763Y-58415449D01*
X244881697Y-58457319D01*
X244899472Y-58490674D01*
X244906144Y-58509741D01*
X244906146Y-58509746D01*
X244975621Y-58620313D01*
X244993560Y-58648863D01*
X245109737Y-58765040D01*
X245248854Y-58852453D01*
X245403933Y-58906717D01*
X245403934Y-58906717D01*
X245403938Y-58906718D01*
X245567196Y-58925113D01*
X245567200Y-58925113D01*
X245567204Y-58925113D01*
X245730461Y-58906718D01*
X245730463Y-58906717D01*
X245730467Y-58906717D01*
X245885546Y-58852453D01*
X246024663Y-58765040D01*
X246140840Y-58648863D01*
X246228253Y-58509746D01*
X246282517Y-58354667D01*
X246300913Y-58191400D01*
X246290689Y-58100665D01*
X246282518Y-58028138D01*
X246282517Y-58028134D01*
X246250769Y-57937403D01*
X246713087Y-57937403D01*
X246731481Y-58100661D01*
X246731482Y-58100665D01*
X246785747Y-58255747D01*
X246793714Y-58268426D01*
X246873160Y-58394863D01*
X246989337Y-58511040D01*
X247128454Y-58598453D01*
X247283533Y-58652717D01*
X247283534Y-58652717D01*
X247283538Y-58652718D01*
X247446796Y-58671113D01*
X247446800Y-58671113D01*
X247446804Y-58671113D01*
X247610061Y-58652718D01*
X247610063Y-58652717D01*
X247610067Y-58652717D01*
X247765146Y-58598453D01*
X247904263Y-58511040D01*
X248020440Y-58394863D01*
X248107853Y-58255746D01*
X248162117Y-58100667D01*
X248180513Y-57937400D01*
X248174789Y-57886603D01*
X248162118Y-57774138D01*
X248162117Y-57774134D01*
X248148051Y-57733936D01*
X248107853Y-57619054D01*
X248087914Y-57587322D01*
X248020439Y-57479936D01*
X247904263Y-57363760D01*
X247765147Y-57276347D01*
X247610065Y-57222082D01*
X247610061Y-57222081D01*
X247446804Y-57203687D01*
X247446796Y-57203687D01*
X247283538Y-57222081D01*
X247283534Y-57222082D01*
X247128452Y-57276347D01*
X246989336Y-57363760D01*
X246873160Y-57479936D01*
X246785747Y-57619052D01*
X246731482Y-57774134D01*
X246731481Y-57774138D01*
X246713087Y-57937396D01*
X246713087Y-57937403D01*
X246250769Y-57937403D01*
X246232991Y-57886596D01*
X246228253Y-57873054D01*
X246140840Y-57733937D01*
X246024663Y-57617760D01*
X245885547Y-57530347D01*
X245730465Y-57476082D01*
X245730461Y-57476081D01*
X245567204Y-57457687D01*
X245567196Y-57457687D01*
X245403938Y-57476081D01*
X245403934Y-57476082D01*
X245248852Y-57530347D01*
X245109736Y-57617760D01*
X245109734Y-57617761D01*
X245093446Y-57634050D01*
X245032122Y-57667534D01*
X244962431Y-57662548D01*
X244906498Y-57620675D01*
X244888726Y-57587322D01*
X244882054Y-57568257D01*
X244882053Y-57568253D01*
X244794639Y-57429136D01*
X244678463Y-57312960D01*
X244539347Y-57225547D01*
X244384265Y-57171282D01*
X244384261Y-57171281D01*
X244221004Y-57152887D01*
X244220996Y-57152887D01*
X244057738Y-57171281D01*
X244057733Y-57171282D01*
X243931754Y-57215364D01*
X243861975Y-57218925D01*
X243849846Y-57215364D01*
X243723866Y-57171282D01*
X243723861Y-57171281D01*
X243560604Y-57152887D01*
X243560596Y-57152887D01*
X243397338Y-57171281D01*
X243397334Y-57171282D01*
X243242252Y-57225547D01*
X243103136Y-57312960D01*
X242986960Y-57429136D01*
X242899547Y-57568252D01*
X242845282Y-57723334D01*
X242845281Y-57723338D01*
X242826887Y-57886596D01*
X242826887Y-57886603D01*
X189762500Y-57886603D01*
X189762500Y-55803803D01*
X220170087Y-55803803D01*
X220188481Y-55967061D01*
X220188482Y-55967065D01*
X220242747Y-56122147D01*
X220330160Y-56261263D01*
X220446337Y-56377440D01*
X220585454Y-56464853D01*
X220740533Y-56519117D01*
X220740534Y-56519117D01*
X220740538Y-56519118D01*
X220903796Y-56537513D01*
X220903800Y-56537513D01*
X220903804Y-56537513D01*
X221067061Y-56519118D01*
X221067063Y-56519117D01*
X221067067Y-56519117D01*
X221222146Y-56464853D01*
X221333129Y-56395117D01*
X221400364Y-56376118D01*
X221465070Y-56395117D01*
X221576054Y-56464853D01*
X221731133Y-56519117D01*
X221731134Y-56519117D01*
X221731138Y-56519118D01*
X221894396Y-56537513D01*
X221894400Y-56537513D01*
X221894404Y-56537513D01*
X222057661Y-56519118D01*
X222057663Y-56519117D01*
X222057667Y-56519117D01*
X222212746Y-56464853D01*
X222351863Y-56377440D01*
X222365519Y-56363784D01*
X222426842Y-56330299D01*
X222496534Y-56335283D01*
X222540881Y-56363784D01*
X222554537Y-56377440D01*
X222693654Y-56464853D01*
X222848733Y-56519117D01*
X222848734Y-56519117D01*
X222848738Y-56519118D01*
X223011996Y-56537513D01*
X223012000Y-56537513D01*
X223012004Y-56537513D01*
X223175261Y-56519118D01*
X223175263Y-56519117D01*
X223175267Y-56519117D01*
X223330346Y-56464853D01*
X223469463Y-56377440D01*
X223585640Y-56261263D01*
X223673053Y-56122146D01*
X223727317Y-55967067D01*
X223745713Y-55803803D01*
X224056287Y-55803803D01*
X224074681Y-55967061D01*
X224074682Y-55967065D01*
X224128947Y-56122147D01*
X224216360Y-56261263D01*
X224332537Y-56377440D01*
X224471654Y-56464853D01*
X224626733Y-56519117D01*
X224626734Y-56519117D01*
X224626738Y-56519118D01*
X224789996Y-56537513D01*
X224790000Y-56537513D01*
X224790004Y-56537513D01*
X224953261Y-56519118D01*
X224953263Y-56519117D01*
X224953267Y-56519117D01*
X225108346Y-56464853D01*
X225247463Y-56377440D01*
X225363640Y-56261263D01*
X225434306Y-56148797D01*
X225486641Y-56102507D01*
X225555694Y-56091859D01*
X225619543Y-56120234D01*
X225644292Y-56148796D01*
X225714960Y-56261263D01*
X225831137Y-56377440D01*
X225970254Y-56464853D01*
X226125333Y-56519117D01*
X226125334Y-56519117D01*
X226125338Y-56519118D01*
X226288596Y-56537513D01*
X226288600Y-56537513D01*
X226288604Y-56537513D01*
X226451861Y-56519118D01*
X226451863Y-56519117D01*
X226451867Y-56519117D01*
X226606946Y-56464853D01*
X226746063Y-56377440D01*
X226862240Y-56261263D01*
X226949653Y-56122146D01*
X227003917Y-55967067D01*
X227022313Y-55803803D01*
X227459887Y-55803803D01*
X227478281Y-55967061D01*
X227478282Y-55967065D01*
X227532547Y-56122147D01*
X227619960Y-56261263D01*
X227736137Y-56377440D01*
X227875254Y-56464853D01*
X228030333Y-56519117D01*
X228030334Y-56519117D01*
X228030338Y-56519118D01*
X228193596Y-56537513D01*
X228193600Y-56537513D01*
X228193604Y-56537513D01*
X228356861Y-56519118D01*
X228356863Y-56519117D01*
X228356867Y-56519117D01*
X228511946Y-56464853D01*
X228651063Y-56377440D01*
X228767240Y-56261263D01*
X228854653Y-56122146D01*
X228908917Y-55967067D01*
X228927313Y-55803800D01*
X228908917Y-55640533D01*
X228854653Y-55485454D01*
X228767240Y-55346337D01*
X228651063Y-55230160D01*
X228622927Y-55212481D01*
X228511947Y-55142747D01*
X228356865Y-55088482D01*
X228356861Y-55088481D01*
X228193604Y-55070087D01*
X228193596Y-55070087D01*
X228030338Y-55088481D01*
X228030334Y-55088482D01*
X227875252Y-55142747D01*
X227736136Y-55230160D01*
X227619960Y-55346336D01*
X227532547Y-55485452D01*
X227478282Y-55640534D01*
X227478281Y-55640538D01*
X227459887Y-55803796D01*
X227459887Y-55803803D01*
X227022313Y-55803803D01*
X227022313Y-55803800D01*
X227003917Y-55640533D01*
X226949653Y-55485454D01*
X226862240Y-55346337D01*
X226746063Y-55230160D01*
X226717927Y-55212481D01*
X226606947Y-55142747D01*
X226451865Y-55088482D01*
X226451861Y-55088481D01*
X226288604Y-55070087D01*
X226288596Y-55070087D01*
X226125338Y-55088481D01*
X226125334Y-55088482D01*
X225970252Y-55142747D01*
X225831136Y-55230160D01*
X225714960Y-55346336D01*
X225644294Y-55458801D01*
X225591959Y-55505092D01*
X225522905Y-55515740D01*
X225459057Y-55487365D01*
X225434306Y-55458801D01*
X225363639Y-55346336D01*
X225247463Y-55230160D01*
X225108347Y-55142747D01*
X224953265Y-55088482D01*
X224953261Y-55088481D01*
X224790004Y-55070087D01*
X224789996Y-55070087D01*
X224626738Y-55088481D01*
X224626734Y-55088482D01*
X224471652Y-55142747D01*
X224332536Y-55230160D01*
X224216360Y-55346336D01*
X224128947Y-55485452D01*
X224074682Y-55640534D01*
X224074681Y-55640538D01*
X224056287Y-55803796D01*
X224056287Y-55803803D01*
X223745713Y-55803803D01*
X223745713Y-55803800D01*
X223727317Y-55640533D01*
X223673053Y-55485454D01*
X223585640Y-55346337D01*
X223469463Y-55230160D01*
X223441327Y-55212481D01*
X223330347Y-55142747D01*
X223175265Y-55088482D01*
X223175261Y-55088481D01*
X223012004Y-55070087D01*
X223011996Y-55070087D01*
X222848738Y-55088481D01*
X222848734Y-55088482D01*
X222693652Y-55142747D01*
X222554536Y-55230160D01*
X222540881Y-55243816D01*
X222479558Y-55277301D01*
X222409866Y-55272317D01*
X222365519Y-55243816D01*
X222351863Y-55230160D01*
X222212747Y-55142747D01*
X222057665Y-55088482D01*
X222057661Y-55088481D01*
X221894404Y-55070087D01*
X221894396Y-55070087D01*
X221731138Y-55088481D01*
X221731134Y-55088482D01*
X221576052Y-55142747D01*
X221465072Y-55212481D01*
X221397835Y-55231481D01*
X221333128Y-55212481D01*
X221222146Y-55142747D01*
X221222147Y-55142747D01*
X221067065Y-55088482D01*
X221067061Y-55088481D01*
X220903804Y-55070087D01*
X220903796Y-55070087D01*
X220740538Y-55088481D01*
X220740534Y-55088482D01*
X220585452Y-55142747D01*
X220446336Y-55230160D01*
X220330160Y-55346336D01*
X220242747Y-55485452D01*
X220188482Y-55640534D01*
X220188481Y-55640538D01*
X220170087Y-55803796D01*
X220170087Y-55803803D01*
X189762500Y-55803803D01*
X189762500Y-53541973D01*
X189782185Y-53474934D01*
X189834989Y-53429179D01*
X189904147Y-53419235D01*
X189967703Y-53448260D01*
X189974181Y-53454292D01*
X190116702Y-53596813D01*
X190320717Y-53745039D01*
X190414669Y-53792910D01*
X190545402Y-53859522D01*
X190545404Y-53859522D01*
X190545407Y-53859524D01*
X190785241Y-53937451D01*
X191034312Y-53976900D01*
X191034313Y-53976900D01*
X191286487Y-53976900D01*
X191286488Y-53976900D01*
X191535559Y-53937451D01*
X191775393Y-53859524D01*
X192000083Y-53745039D01*
X192204098Y-53596813D01*
X192382413Y-53418498D01*
X192530639Y-53214483D01*
X192541320Y-53193520D01*
X197061700Y-53193520D01*
X197081373Y-53266940D01*
X197092510Y-53308505D01*
X197092511Y-53308506D01*
X197152027Y-53411592D01*
X197152029Y-53411595D01*
X197152030Y-53411596D01*
X197236204Y-53495770D01*
X197339296Y-53555290D01*
X197454280Y-53586100D01*
X197454283Y-53586100D01*
X197573317Y-53586100D01*
X197573320Y-53586100D01*
X197688304Y-53555290D01*
X197791396Y-53495770D01*
X197875570Y-53411596D01*
X197935090Y-53308504D01*
X197958505Y-53221120D01*
X205088100Y-53221120D01*
X205106910Y-53291320D01*
X205118910Y-53336105D01*
X205118911Y-53336106D01*
X205178427Y-53439192D01*
X205178429Y-53439195D01*
X205178430Y-53439196D01*
X205262604Y-53523370D01*
X205365696Y-53582890D01*
X205480680Y-53613700D01*
X205480683Y-53613700D01*
X205599717Y-53613700D01*
X205599720Y-53613700D01*
X205714704Y-53582890D01*
X205817796Y-53523370D01*
X205901970Y-53439196D01*
X205961490Y-53336104D01*
X205990081Y-53229400D01*
X216048666Y-53229400D01*
X216097864Y-53423678D01*
X216188639Y-53630625D01*
X216312240Y-53819812D01*
X216465284Y-53986061D01*
X216465296Y-53986072D01*
X216643623Y-54124870D01*
X216842369Y-54232427D01*
X216842375Y-54232429D01*
X217056106Y-54305803D01*
X217142000Y-54320136D01*
X217142000Y-53421651D01*
X217195919Y-53452781D01*
X217325120Y-53487400D01*
X217458880Y-53487400D01*
X217588081Y-53452781D01*
X217642000Y-53421651D01*
X217642000Y-54320135D01*
X217727893Y-54305803D01*
X217941624Y-54232429D01*
X217941630Y-54232427D01*
X218140376Y-54124870D01*
X218318703Y-53986072D01*
X218318715Y-53986061D01*
X218471759Y-53819812D01*
X218557892Y-53687975D01*
X218611038Y-53642618D01*
X218680269Y-53633194D01*
X218743605Y-53662696D01*
X218765509Y-53687974D01*
X218851842Y-53820116D01*
X218851850Y-53820127D01*
X219004605Y-53986061D01*
X219004954Y-53986440D01*
X219183351Y-54125293D01*
X219382169Y-54232888D01*
X219382172Y-54232889D01*
X219595982Y-54306290D01*
X219595984Y-54306290D01*
X219595986Y-54306291D01*
X219818967Y-54343500D01*
X219818968Y-54343500D01*
X220045032Y-54343500D01*
X220045033Y-54343500D01*
X220268014Y-54306291D01*
X220481831Y-54232888D01*
X220680649Y-54125293D01*
X220859046Y-53986440D01*
X221012156Y-53820119D01*
X221098193Y-53688428D01*
X221151338Y-53643075D01*
X221220569Y-53633651D01*
X221283905Y-53663153D01*
X221305804Y-53688425D01*
X221391844Y-53820119D01*
X221391849Y-53820124D01*
X221391850Y-53820127D01*
X221544605Y-53986061D01*
X221544954Y-53986440D01*
X221723351Y-54125293D01*
X221922169Y-54232888D01*
X221922172Y-54232889D01*
X222135982Y-54306290D01*
X222135984Y-54306290D01*
X222135986Y-54306291D01*
X222358967Y-54343500D01*
X222358968Y-54343500D01*
X222585032Y-54343500D01*
X222585033Y-54343500D01*
X222808014Y-54306291D01*
X223021831Y-54232888D01*
X223220649Y-54125293D01*
X223399046Y-53986440D01*
X223552156Y-53820119D01*
X223638193Y-53688428D01*
X223691338Y-53643075D01*
X223760569Y-53633651D01*
X223823905Y-53663153D01*
X223845804Y-53688425D01*
X223931844Y-53820119D01*
X223931849Y-53820124D01*
X223931850Y-53820127D01*
X224084605Y-53986061D01*
X224084954Y-53986440D01*
X224263351Y-54125293D01*
X224462169Y-54232888D01*
X224462172Y-54232889D01*
X224675982Y-54306290D01*
X224675984Y-54306290D01*
X224675986Y-54306291D01*
X224898967Y-54343500D01*
X224898968Y-54343500D01*
X225125032Y-54343500D01*
X225125033Y-54343500D01*
X225348014Y-54306291D01*
X225561831Y-54232888D01*
X225760649Y-54125293D01*
X225939046Y-53986440D01*
X226092156Y-53820119D01*
X226178193Y-53688428D01*
X226231338Y-53643075D01*
X226300569Y-53633651D01*
X226363905Y-53663153D01*
X226385804Y-53688425D01*
X226471844Y-53820119D01*
X226471849Y-53820124D01*
X226471850Y-53820127D01*
X226624605Y-53986061D01*
X226624954Y-53986440D01*
X226803351Y-54125293D01*
X227002169Y-54232888D01*
X227002172Y-54232889D01*
X227215982Y-54306290D01*
X227215984Y-54306290D01*
X227215986Y-54306291D01*
X227438967Y-54343500D01*
X227438968Y-54343500D01*
X227665032Y-54343500D01*
X227665033Y-54343500D01*
X227888014Y-54306291D01*
X228101831Y-54232888D01*
X228300649Y-54125293D01*
X228479046Y-53986440D01*
X228632156Y-53820119D01*
X228718193Y-53688428D01*
X228771338Y-53643075D01*
X228840569Y-53633651D01*
X228903905Y-53663153D01*
X228925804Y-53688425D01*
X229011844Y-53820119D01*
X229011849Y-53820124D01*
X229011850Y-53820127D01*
X229164605Y-53986061D01*
X229164954Y-53986440D01*
X229343351Y-54125293D01*
X229542169Y-54232888D01*
X229542172Y-54232889D01*
X229755982Y-54306290D01*
X229755984Y-54306290D01*
X229755986Y-54306291D01*
X229978967Y-54343500D01*
X229978968Y-54343500D01*
X230205032Y-54343500D01*
X230205033Y-54343500D01*
X230428014Y-54306291D01*
X230641831Y-54232888D01*
X230840649Y-54125293D01*
X231019046Y-53986440D01*
X231172156Y-53820119D01*
X231258193Y-53688428D01*
X231311338Y-53643075D01*
X231380569Y-53633651D01*
X231443905Y-53663153D01*
X231465804Y-53688425D01*
X231551844Y-53820119D01*
X231551849Y-53820124D01*
X231551850Y-53820127D01*
X231704605Y-53986061D01*
X231704954Y-53986440D01*
X231883351Y-54125293D01*
X232082169Y-54232888D01*
X232082172Y-54232889D01*
X232295982Y-54306290D01*
X232295984Y-54306290D01*
X232295986Y-54306291D01*
X232518967Y-54343500D01*
X232518968Y-54343500D01*
X232745032Y-54343500D01*
X232745033Y-54343500D01*
X232968014Y-54306291D01*
X233181831Y-54232888D01*
X233380649Y-54125293D01*
X233559046Y-53986440D01*
X233712156Y-53820119D01*
X233835802Y-53630865D01*
X233926611Y-53423841D01*
X233982107Y-53204693D01*
X233986758Y-53148571D01*
X239312600Y-53148571D01*
X239349106Y-53332097D01*
X239349108Y-53332105D01*
X239420719Y-53504991D01*
X239420724Y-53505000D01*
X239524686Y-53660589D01*
X239524689Y-53660593D01*
X239657006Y-53792910D01*
X239657010Y-53792913D01*
X239812599Y-53896875D01*
X239812612Y-53896882D01*
X239985489Y-53968489D01*
X239985496Y-53968491D01*
X240012600Y-53973882D01*
X240012600Y-53104728D01*
X240050660Y-53196614D01*
X240120986Y-53266940D01*
X240212872Y-53305000D01*
X240312328Y-53305000D01*
X240404214Y-53266940D01*
X240474540Y-53196614D01*
X240512600Y-53104728D01*
X240512600Y-53973881D01*
X240539703Y-53968491D01*
X240539710Y-53968489D01*
X240712587Y-53896882D01*
X240712600Y-53896875D01*
X240868189Y-53792913D01*
X240868193Y-53792910D01*
X241000510Y-53660593D01*
X241000513Y-53660589D01*
X241104475Y-53505000D01*
X241104480Y-53504991D01*
X241176091Y-53332105D01*
X241176093Y-53332097D01*
X241212599Y-53148571D01*
X245912600Y-53148571D01*
X245949106Y-53332097D01*
X245949108Y-53332105D01*
X246020719Y-53504991D01*
X246020724Y-53505000D01*
X246124686Y-53660589D01*
X246124689Y-53660593D01*
X246257006Y-53792910D01*
X246257010Y-53792913D01*
X246412599Y-53896875D01*
X246412612Y-53896882D01*
X246585489Y-53968489D01*
X246585496Y-53968491D01*
X246612600Y-53973882D01*
X246612600Y-53104728D01*
X246650660Y-53196614D01*
X246720986Y-53266940D01*
X246812872Y-53305000D01*
X246912328Y-53305000D01*
X247004214Y-53266940D01*
X247074540Y-53196614D01*
X247112600Y-53104728D01*
X247112600Y-53973881D01*
X247139703Y-53968491D01*
X247139710Y-53968489D01*
X247312587Y-53896882D01*
X247312600Y-53896875D01*
X247468189Y-53792913D01*
X247468193Y-53792910D01*
X247600510Y-53660593D01*
X247600513Y-53660589D01*
X247704475Y-53505000D01*
X247704480Y-53504991D01*
X247776091Y-53332105D01*
X247776093Y-53332097D01*
X247812599Y-53148571D01*
X247812600Y-53148569D01*
X247812600Y-52955000D01*
X247112600Y-52955000D01*
X247112600Y-52455000D01*
X247812600Y-52455000D01*
X247812600Y-52261430D01*
X247812599Y-52261428D01*
X247776093Y-52077902D01*
X247776091Y-52077894D01*
X247704480Y-51905008D01*
X247704475Y-51904999D01*
X247600513Y-51749410D01*
X247600510Y-51749406D01*
X247468193Y-51617089D01*
X247468189Y-51617086D01*
X247312600Y-51513124D01*
X247312591Y-51513119D01*
X247139703Y-51441507D01*
X247139700Y-51441506D01*
X247112600Y-51436115D01*
X247112600Y-52305272D01*
X247074540Y-52213386D01*
X247004214Y-52143060D01*
X246912328Y-52105000D01*
X246812872Y-52105000D01*
X246720986Y-52143060D01*
X246650660Y-52213386D01*
X246612600Y-52305272D01*
X246612600Y-51436116D01*
X246612599Y-51436115D01*
X246585499Y-51441506D01*
X246585496Y-51441507D01*
X246412608Y-51513119D01*
X246412599Y-51513124D01*
X246257010Y-51617086D01*
X246257006Y-51617089D01*
X246124689Y-51749406D01*
X246124686Y-51749410D01*
X246020724Y-51904999D01*
X246020719Y-51905008D01*
X245949108Y-52077894D01*
X245949106Y-52077902D01*
X245912600Y-52261428D01*
X245912600Y-52455000D01*
X246612600Y-52455000D01*
X246612600Y-52955000D01*
X245912600Y-52955000D01*
X245912600Y-53148571D01*
X241212599Y-53148571D01*
X241212600Y-53148569D01*
X241212600Y-52955000D01*
X240512600Y-52955000D01*
X240512600Y-52455000D01*
X241212600Y-52455000D01*
X241212600Y-52261430D01*
X241212599Y-52261428D01*
X241176093Y-52077902D01*
X241176091Y-52077894D01*
X241104480Y-51905008D01*
X241104475Y-51904999D01*
X241000513Y-51749410D01*
X241000510Y-51749406D01*
X240868193Y-51617089D01*
X240868189Y-51617086D01*
X240712600Y-51513124D01*
X240712591Y-51513119D01*
X240539703Y-51441507D01*
X240539700Y-51441506D01*
X240512600Y-51436115D01*
X240512600Y-52305272D01*
X240474540Y-52213386D01*
X240404214Y-52143060D01*
X240312328Y-52105000D01*
X240212872Y-52105000D01*
X240120986Y-52143060D01*
X240050660Y-52213386D01*
X240012600Y-52305272D01*
X240012600Y-51436116D01*
X240012599Y-51436115D01*
X239985499Y-51441506D01*
X239985496Y-51441507D01*
X239812608Y-51513119D01*
X239812599Y-51513124D01*
X239657010Y-51617086D01*
X239657006Y-51617089D01*
X239524689Y-51749406D01*
X239524686Y-51749410D01*
X239420724Y-51904999D01*
X239420719Y-51905008D01*
X239349108Y-52077894D01*
X239349106Y-52077902D01*
X239312600Y-52261428D01*
X239312600Y-52455000D01*
X240012600Y-52455000D01*
X240012600Y-52955000D01*
X239312600Y-52955000D01*
X239312600Y-53148571D01*
X233986758Y-53148571D01*
X233990610Y-53102080D01*
X234000775Y-52979406D01*
X234000775Y-52979393D01*
X233985895Y-52799827D01*
X233982107Y-52754107D01*
X233926611Y-52534959D01*
X233835802Y-52327935D01*
X233828123Y-52316182D01*
X233712157Y-52138683D01*
X233712149Y-52138672D01*
X233559049Y-51972363D01*
X233559048Y-51972362D01*
X233559046Y-51972360D01*
X233380649Y-51833507D01*
X233287117Y-51782890D01*
X233181832Y-51725912D01*
X233181827Y-51725910D01*
X232968017Y-51652509D01*
X232800778Y-51624602D01*
X232745033Y-51615300D01*
X232518967Y-51615300D01*
X232474370Y-51622741D01*
X232295982Y-51652509D01*
X232082172Y-51725910D01*
X232082167Y-51725912D01*
X231883352Y-51833506D01*
X231704955Y-51972359D01*
X231704950Y-51972363D01*
X231551850Y-52138672D01*
X231551842Y-52138683D01*
X231465808Y-52270368D01*
X231412662Y-52315725D01*
X231343430Y-52325148D01*
X231280095Y-52295646D01*
X231258192Y-52270368D01*
X231172157Y-52138683D01*
X231172149Y-52138672D01*
X231019049Y-51972363D01*
X231019048Y-51972362D01*
X231019046Y-51972360D01*
X230840649Y-51833507D01*
X230747117Y-51782890D01*
X230641832Y-51725912D01*
X230641827Y-51725910D01*
X230428017Y-51652509D01*
X230260778Y-51624602D01*
X230205033Y-51615300D01*
X229978967Y-51615300D01*
X229934370Y-51622741D01*
X229755982Y-51652509D01*
X229542172Y-51725910D01*
X229542167Y-51725912D01*
X229343352Y-51833506D01*
X229164955Y-51972359D01*
X229164950Y-51972363D01*
X229011850Y-52138672D01*
X229011842Y-52138683D01*
X228925808Y-52270368D01*
X228872662Y-52315725D01*
X228803430Y-52325148D01*
X228740095Y-52295646D01*
X228718192Y-52270368D01*
X228632157Y-52138683D01*
X228632149Y-52138672D01*
X228479049Y-51972363D01*
X228479048Y-51972362D01*
X228479046Y-51972360D01*
X228300649Y-51833507D01*
X228207117Y-51782890D01*
X228101832Y-51725912D01*
X228101827Y-51725910D01*
X227888017Y-51652509D01*
X227720778Y-51624602D01*
X227665033Y-51615300D01*
X227438967Y-51615300D01*
X227394370Y-51622741D01*
X227215982Y-51652509D01*
X227002172Y-51725910D01*
X227002167Y-51725912D01*
X226803352Y-51833506D01*
X226624955Y-51972359D01*
X226624950Y-51972363D01*
X226471850Y-52138672D01*
X226471842Y-52138683D01*
X226385808Y-52270368D01*
X226332662Y-52315725D01*
X226263430Y-52325148D01*
X226200095Y-52295646D01*
X226178192Y-52270368D01*
X226092157Y-52138683D01*
X226092149Y-52138672D01*
X225939049Y-51972363D01*
X225939048Y-51972362D01*
X225939046Y-51972360D01*
X225760649Y-51833507D01*
X225667117Y-51782890D01*
X225561832Y-51725912D01*
X225561827Y-51725910D01*
X225348017Y-51652509D01*
X225180778Y-51624602D01*
X225125033Y-51615300D01*
X224898967Y-51615300D01*
X224854370Y-51622741D01*
X224675982Y-51652509D01*
X224462172Y-51725910D01*
X224462167Y-51725912D01*
X224263352Y-51833506D01*
X224084955Y-51972359D01*
X224084950Y-51972363D01*
X223931850Y-52138672D01*
X223931842Y-52138683D01*
X223845808Y-52270368D01*
X223792662Y-52315725D01*
X223723430Y-52325148D01*
X223660095Y-52295646D01*
X223638192Y-52270368D01*
X223552157Y-52138683D01*
X223552149Y-52138672D01*
X223399049Y-51972363D01*
X223399048Y-51972362D01*
X223399046Y-51972360D01*
X223220649Y-51833507D01*
X223127117Y-51782890D01*
X223021832Y-51725912D01*
X223021827Y-51725910D01*
X222808017Y-51652509D01*
X222640778Y-51624602D01*
X222585033Y-51615300D01*
X222358967Y-51615300D01*
X222314370Y-51622741D01*
X222135982Y-51652509D01*
X221922172Y-51725910D01*
X221922167Y-51725912D01*
X221723352Y-51833506D01*
X221544955Y-51972359D01*
X221544950Y-51972363D01*
X221391850Y-52138672D01*
X221391842Y-52138683D01*
X221305808Y-52270368D01*
X221252662Y-52315725D01*
X221183430Y-52325148D01*
X221120095Y-52295646D01*
X221098192Y-52270368D01*
X221012157Y-52138683D01*
X221012149Y-52138672D01*
X220859049Y-51972363D01*
X220859048Y-51972362D01*
X220859046Y-51972360D01*
X220680649Y-51833507D01*
X220587117Y-51782890D01*
X220481832Y-51725912D01*
X220481827Y-51725910D01*
X220268017Y-51652509D01*
X220100778Y-51624602D01*
X220045033Y-51615300D01*
X219818967Y-51615300D01*
X219774370Y-51622741D01*
X219595982Y-51652509D01*
X219382172Y-51725910D01*
X219382167Y-51725912D01*
X219183352Y-51833506D01*
X219004955Y-51972359D01*
X219004950Y-51972363D01*
X218851850Y-52138672D01*
X218851842Y-52138683D01*
X218765509Y-52270825D01*
X218712363Y-52316182D01*
X218643131Y-52325605D01*
X218579796Y-52296102D01*
X218557892Y-52270824D01*
X218471759Y-52138987D01*
X218318715Y-51972738D01*
X218318703Y-51972727D01*
X218140376Y-51833929D01*
X217941630Y-51726372D01*
X217941624Y-51726370D01*
X217727893Y-51652996D01*
X217642000Y-51638663D01*
X217642000Y-52537148D01*
X217588081Y-52506019D01*
X217458880Y-52471400D01*
X217325120Y-52471400D01*
X217195919Y-52506019D01*
X217142000Y-52537148D01*
X217142000Y-51638663D01*
X217141999Y-51638663D01*
X217056106Y-51652996D01*
X216842375Y-51726370D01*
X216842369Y-51726372D01*
X216643623Y-51833929D01*
X216465296Y-51972727D01*
X216465284Y-51972738D01*
X216312240Y-52138987D01*
X216188639Y-52328174D01*
X216097864Y-52535121D01*
X216048666Y-52729400D01*
X216949749Y-52729400D01*
X216918619Y-52783319D01*
X216884000Y-52912520D01*
X216884000Y-53046280D01*
X216918619Y-53175481D01*
X216949749Y-53229400D01*
X216048666Y-53229400D01*
X205990081Y-53229400D01*
X205992300Y-53221120D01*
X205992300Y-53102080D01*
X205961490Y-52987096D01*
X205901970Y-52884004D01*
X205817796Y-52799830D01*
X205817795Y-52799829D01*
X205817792Y-52799827D01*
X205714706Y-52740311D01*
X205714705Y-52740310D01*
X205673987Y-52729400D01*
X205599720Y-52709500D01*
X205480680Y-52709500D01*
X205411689Y-52727986D01*
X205365694Y-52740310D01*
X205365693Y-52740311D01*
X205262607Y-52799827D01*
X205262602Y-52799831D01*
X205178431Y-52884002D01*
X205178427Y-52884007D01*
X205118911Y-52987093D01*
X205118910Y-52987094D01*
X205118187Y-52989793D01*
X205088100Y-53102080D01*
X205088100Y-53221120D01*
X197958505Y-53221120D01*
X197965900Y-53193520D01*
X197965900Y-53074480D01*
X197935090Y-52959496D01*
X197875570Y-52856404D01*
X197791396Y-52772230D01*
X197791395Y-52772229D01*
X197791392Y-52772227D01*
X197688306Y-52712711D01*
X197688305Y-52712710D01*
X197659558Y-52705007D01*
X197573320Y-52681900D01*
X197454280Y-52681900D01*
X197385289Y-52700386D01*
X197339294Y-52712710D01*
X197339293Y-52712711D01*
X197236207Y-52772227D01*
X197236202Y-52772231D01*
X197152031Y-52856402D01*
X197152027Y-52856407D01*
X197092511Y-52959493D01*
X197092510Y-52959494D01*
X197084392Y-52989793D01*
X197061700Y-53074480D01*
X197061700Y-53193520D01*
X192541320Y-53193520D01*
X192645124Y-52989793D01*
X192723051Y-52749959D01*
X192762500Y-52500888D01*
X192762500Y-52248712D01*
X192723051Y-51999641D01*
X192645124Y-51759807D01*
X192645122Y-51759804D01*
X192645122Y-51759802D01*
X192569605Y-51611592D01*
X192530639Y-51535117D01*
X192382413Y-51331102D01*
X192241292Y-51189981D01*
X192207807Y-51128658D01*
X192212791Y-51058966D01*
X192254663Y-51003033D01*
X192320127Y-50978616D01*
X192328973Y-50978300D01*
X196982349Y-50978300D01*
X197049388Y-50997985D01*
G37*
%TD.AperFunction*%
%TD*%
M02*
