%TF.GenerationSoftware,KiCad,Pcbnew,8.0.1*%
%TF.CreationDate,2024-09-08T05:12:41-06:00*%
%TF.ProjectId,USBHIDKey,55534248-4944-44b6-9579-2e6b69636164,rev?*%
%TF.SameCoordinates,Original*%
%TF.FileFunction,Paste,Top*%
%TF.FilePolarity,Positive*%
%FSLAX46Y46*%
G04 Gerber Fmt 4.6, Leading zero omitted, Abs format (unit mm)*
G04 Created by KiCad (PCBNEW 8.0.1) date 2024-09-08 05:12:41*
%MOMM*%
%LPD*%
G01*
G04 APERTURE LIST*
G04 Aperture macros list*
%AMRoundRect*
0 Rectangle with rounded corners*
0 $1 Rounding radius*
0 $2 $3 $4 $5 $6 $7 $8 $9 X,Y pos of 4 corners*
0 Add a 4 corners polygon primitive as box body*
4,1,4,$2,$3,$4,$5,$6,$7,$8,$9,$2,$3,0*
0 Add four circle primitives for the rounded corners*
1,1,$1+$1,$2,$3*
1,1,$1+$1,$4,$5*
1,1,$1+$1,$6,$7*
1,1,$1+$1,$8,$9*
0 Add four rect primitives between the rounded corners*
20,1,$1+$1,$2,$3,$4,$5,0*
20,1,$1+$1,$4,$5,$6,$7,0*
20,1,$1+$1,$6,$7,$8,$9,0*
20,1,$1+$1,$8,$9,$2,$3,0*%
%AMOutline5P*
0 Free polygon, 5 corners , with rotation*
0 The origin of the aperture is its center*
0 number of corners: always 5*
0 $1 to $10 corner X, Y*
0 $11 Rotation angle, in degrees counterclockwise*
0 create outline with 5 corners*
4,1,5,$1,$2,$3,$4,$5,$6,$7,$8,$9,$10,$1,$2,$11*%
%AMOutline6P*
0 Free polygon, 6 corners , with rotation*
0 The origin of the aperture is its center*
0 number of corners: always 6*
0 $1 to $12 corner X, Y*
0 $13 Rotation angle, in degrees counterclockwise*
0 create outline with 6 corners*
4,1,6,$1,$2,$3,$4,$5,$6,$7,$8,$9,$10,$11,$12,$1,$2,$13*%
%AMOutline7P*
0 Free polygon, 7 corners , with rotation*
0 The origin of the aperture is its center*
0 number of corners: always 7*
0 $1 to $14 corner X, Y*
0 $15 Rotation angle, in degrees counterclockwise*
0 create outline with 7 corners*
4,1,7,$1,$2,$3,$4,$5,$6,$7,$8,$9,$10,$11,$12,$13,$14,$1,$2,$15*%
%AMOutline8P*
0 Free polygon, 8 corners , with rotation*
0 The origin of the aperture is its center*
0 number of corners: always 8*
0 $1 to $16 corner X, Y*
0 $17 Rotation angle, in degrees counterclockwise*
0 create outline with 8 corners*
4,1,8,$1,$2,$3,$4,$5,$6,$7,$8,$9,$10,$11,$12,$13,$14,$15,$16,$1,$2,$17*%
G04 Aperture macros list end*
%ADD10RoundRect,0.218750X0.256250X-0.218750X0.256250X0.218750X-0.256250X0.218750X-0.256250X-0.218750X0*%
%ADD11RoundRect,0.100000X0.100000X0.575000X-0.100000X0.575000X-0.100000X-0.575000X0.100000X-0.575000X0*%
%ADD12O,0.900000X1.600000*%
%ADD13RoundRect,0.250000X0.550000X0.450000X-0.550000X0.450000X-0.550000X-0.450000X0.550000X-0.450000X0*%
%ADD14RoundRect,0.250000X0.700000X0.700000X-0.700000X0.700000X-0.700000X-0.700000X0.700000X-0.700000X0*%
%ADD15RoundRect,0.200000X0.200000X-0.250000X0.200000X0.250000X-0.200000X0.250000X-0.200000X-0.250000X0*%
%ADD16R,1.050000X1.400000*%
%ADD17RoundRect,0.079500X-0.079500X-0.100500X0.079500X-0.100500X0.079500X0.100500X-0.079500X0.100500X0*%
%ADD18R,1.400000X1.050000*%
%ADD19RoundRect,0.300000X-0.700000X-0.300000X0.700000X-0.300000X0.700000X0.300000X-0.700000X0.300000X0*%
%ADD20RoundRect,0.079500X-0.100500X0.079500X-0.100500X-0.079500X0.100500X-0.079500X0.100500X0.079500X0*%
%ADD21RoundRect,0.225000X-0.225000X-0.250000X0.225000X-0.250000X0.225000X0.250000X-0.225000X0.250000X0*%
%ADD22R,0.800000X0.400000*%
%ADD23R,0.400000X0.800000*%
%ADD24Outline5P,-0.600000X0.204000X-0.204000X0.600000X0.600000X0.600000X0.600000X-0.600000X-0.600000X-0.600000X180.000000*%
%ADD25R,1.200000X1.200000*%
%ADD26R,0.800000X0.800000*%
%ADD27R,0.600000X1.550000*%
%ADD28R,1.200000X1.800000*%
G04 APERTURE END LIST*
D10*
%TO.C,D9*%
X199567800Y-60198200D03*
X199567800Y-58623200D03*
%TD*%
D11*
%TO.C,J2*%
X244862600Y-55380000D03*
X244212600Y-55380000D03*
X243562600Y-55380000D03*
X242912600Y-55380000D03*
X242262600Y-55380000D03*
D12*
X246862600Y-52705000D03*
D13*
X246762600Y-55155000D03*
D14*
X244762600Y-52705000D03*
X242362600Y-52705000D03*
D13*
X240362600Y-55155000D03*
D12*
X240262600Y-52705000D03*
%TD*%
D15*
%TO.C,Q1*%
X241198400Y-75768200D03*
X243098400Y-75768200D03*
X242148400Y-73768200D03*
%TD*%
D16*
%TO.C,S2*%
X191758400Y-68278600D03*
X191758400Y-71878600D03*
X190308400Y-68278600D03*
X190308400Y-71878600D03*
%TD*%
D10*
%TO.C,D8*%
X196977000Y-60198200D03*
X196977000Y-58623200D03*
%TD*%
D17*
%TO.C,R2*%
X237689000Y-75336400D03*
X238379000Y-75336400D03*
%TD*%
%TO.C,R4*%
X214843800Y-75717400D03*
X215533800Y-75717400D03*
%TD*%
D18*
%TO.C,S4*%
X207340200Y-52986600D03*
X203740200Y-52986600D03*
X207340200Y-51536600D03*
X203740200Y-51536600D03*
%TD*%
D19*
%TO.C,J1*%
X249024000Y-63124200D03*
X249024000Y-65624200D03*
X249024000Y-67624200D03*
X249024000Y-70124200D03*
%TD*%
D18*
%TO.C,S3*%
X199313800Y-52959000D03*
X195713800Y-52959000D03*
X199313800Y-51509000D03*
X195713800Y-51509000D03*
%TD*%
D20*
%TO.C,R16*%
X203377800Y-59802200D03*
X203377800Y-60492200D03*
%TD*%
D17*
%TO.C,R1*%
X237689000Y-74320400D03*
X238379000Y-74320400D03*
%TD*%
D21*
%TO.C,C7*%
X244589000Y-67360800D03*
X246139000Y-67360800D03*
%TD*%
D22*
%TO.C,U1*%
X209905600Y-75575000D03*
X209905600Y-74725000D03*
X209905600Y-73875000D03*
X209905600Y-73025000D03*
X209905600Y-72175000D03*
X209905600Y-71325000D03*
X209905600Y-70475000D03*
X209905600Y-69625000D03*
X209905600Y-68775000D03*
X209905600Y-67925000D03*
X209905600Y-67075000D03*
X209905600Y-66225000D03*
X209905600Y-65375000D03*
X209905600Y-64525000D03*
X209905600Y-63675000D03*
D23*
X208855600Y-62625000D03*
X208005600Y-62625000D03*
X207155600Y-62625000D03*
X206305600Y-62625000D03*
X205455600Y-62625000D03*
X204605600Y-62625000D03*
X203755600Y-62625000D03*
X202905600Y-62625000D03*
X202055600Y-62625000D03*
X201205600Y-62625000D03*
X200355600Y-62625000D03*
X199505600Y-62625000D03*
X198655600Y-62625000D03*
X197805600Y-62625000D03*
X196955600Y-62625000D03*
D22*
X195905600Y-63675000D03*
X195905600Y-64525000D03*
X195905600Y-65375000D03*
X195905600Y-66225000D03*
X195905600Y-67075000D03*
X195905600Y-67925000D03*
X195905600Y-68775000D03*
X195905600Y-69625000D03*
X195905600Y-70475000D03*
X195905600Y-71325000D03*
X195905600Y-72175000D03*
X195905600Y-73025000D03*
X195905600Y-73875000D03*
X195905600Y-74725000D03*
X195905600Y-75575000D03*
D23*
X196955600Y-76625000D03*
X197805600Y-76625000D03*
X198655600Y-76625000D03*
X199505600Y-76625000D03*
X200355600Y-76625000D03*
X201205600Y-76625000D03*
X202055600Y-76625000D03*
X202905600Y-76625000D03*
X203755600Y-76625000D03*
X204605600Y-76625000D03*
X205455600Y-76625000D03*
X206305600Y-76625000D03*
X207155600Y-76625000D03*
X208005600Y-76625000D03*
X208855600Y-76625000D03*
D24*
X204555600Y-71275000D03*
D25*
X204555600Y-69625000D03*
X204555600Y-67975000D03*
X202905600Y-71275000D03*
X202905600Y-69625000D03*
X202905600Y-67975000D03*
X201255600Y-71275000D03*
X201255600Y-69625000D03*
X201255600Y-67975000D03*
D26*
X209905600Y-76625000D03*
X209905600Y-62625000D03*
X195905600Y-62625000D03*
X195905600Y-76625000D03*
%TD*%
D15*
%TO.C,Q2*%
X244957600Y-75768200D03*
X246857600Y-75768200D03*
X245907600Y-73768200D03*
%TD*%
D16*
%TO.C,S1*%
X191758400Y-60074400D03*
X191758400Y-63674400D03*
X190308400Y-60074400D03*
X190308400Y-63674400D03*
%TD*%
D18*
%TO.C,S5*%
X227870200Y-80007800D03*
X231470200Y-80007800D03*
X227870200Y-81457800D03*
X231470200Y-81457800D03*
%TD*%
D20*
%TO.C,R17*%
X204546200Y-59802200D03*
X204546200Y-60492200D03*
%TD*%
D21*
%TO.C,C8*%
X244589000Y-65811400D03*
X246139000Y-65811400D03*
%TD*%
D27*
%TO.C,J3*%
X245516400Y-78435200D03*
X244516400Y-78435200D03*
X243516400Y-78435200D03*
X242516400Y-78435200D03*
D28*
X246816400Y-80960200D03*
X241216400Y-80960200D03*
%TD*%
M02*
