%TF.GenerationSoftware,KiCad,Pcbnew,8.0.1*%
%TF.CreationDate,2024-09-08T05:12:41-06:00*%
%TF.ProjectId,USBHIDKey,55534248-4944-44b6-9579-2e6b69636164,rev?*%
%TF.SameCoordinates,Original*%
%TF.FileFunction,Copper,L3,Inr*%
%TF.FilePolarity,Positive*%
%FSLAX46Y46*%
G04 Gerber Fmt 4.6, Leading zero omitted, Abs format (unit mm)*
G04 Created by KiCad (PCBNEW 8.0.1) date 2024-09-08 05:12:41*
%MOMM*%
%LPD*%
G01*
G04 APERTURE LIST*
%TA.AperFunction,ComponentPad*%
%ADD10O,0.900000X1.600000*%
%TD*%
%TA.AperFunction,ComponentPad*%
%ADD11O,1.727200X1.727200*%
%TD*%
%TA.AperFunction,ComponentPad*%
%ADD12O,3.200000X1.300000*%
%TD*%
%TA.AperFunction,ViaPad*%
%ADD13C,0.457200*%
%TD*%
%TA.AperFunction,ViaPad*%
%ADD14C,0.711200*%
%TD*%
%TA.AperFunction,Conductor*%
%ADD15C,0.609600*%
%TD*%
%TA.AperFunction,Conductor*%
%ADD16C,0.101600*%
%TD*%
G04 APERTURE END LIST*
D10*
%TO.N,GND*%
%TO.C,J2*%
X246862600Y-52705000D03*
X240262600Y-52705000D03*
%TD*%
D11*
%TO.N,/ESP32/OLED_CS*%
%TO.C,U6*%
X232632000Y-52979400D03*
%TO.N,/ESP32/OLED_DC*%
X230092000Y-52979400D03*
%TO.N,/ESP32/OLED_RST*%
X227552000Y-52979400D03*
%TO.N,/ESP32/OLED_SDA*%
X225012000Y-52979400D03*
%TO.N,/ESP32/OLED_SCK*%
X222472000Y-52979400D03*
%TO.N,+3V3*%
X219932000Y-52979400D03*
%TO.N,GND*%
X217392000Y-52979400D03*
%TD*%
D12*
%TO.N,GND*%
%TO.C,J1*%
X251624000Y-60774200D03*
X251624000Y-72474200D03*
%TD*%
D13*
%TO.N,GND*%
X236321600Y-65614600D03*
X245668800Y-64770000D03*
X235000800Y-65862200D03*
X208584800Y-53035200D03*
X236829600Y-65614600D03*
X235813600Y-65614600D03*
X201015600Y-52425600D03*
X235000800Y-65252600D03*
X234315000Y-66522600D03*
X247751600Y-72212200D03*
X233146600Y-80035400D03*
X234975400Y-66522600D03*
%TO.N,+3V3*%
X235051600Y-68580000D03*
X245567200Y-58191400D03*
D14*
X217855800Y-63754000D03*
X229514400Y-63754000D03*
D13*
X248412000Y-73075800D03*
X244944900Y-64528700D03*
D14*
X213842600Y-74803000D03*
D13*
X231851200Y-63703200D03*
%TO.N,+5V*%
X238633000Y-67945000D03*
X238633000Y-64109600D03*
%TO.N,VBUS*%
X248996200Y-61747400D03*
%TO.N,VBUS_UART*%
X247446800Y-57937400D03*
X244856529Y-63728600D03*
%TO.N,USB_D+*%
X202057000Y-63627000D03*
X250596400Y-67640200D03*
X214858600Y-70916800D03*
%TO.N,USB_D-*%
X214833200Y-70332600D03*
X250850400Y-65608200D03*
X202920600Y-63652400D03*
%TO.N,/USB + UART/USB_UART_D+*%
X243560600Y-57886600D03*
X243560600Y-64338200D03*
%TO.N,/USB + UART/USB_UART_D-*%
X244221000Y-57886600D03*
X244195600Y-64363600D03*
%TO.N,EN*%
X194691000Y-75514200D03*
X240182400Y-78689200D03*
X242112800Y-74752200D03*
X190296800Y-65074800D03*
%TO.N,GPIO0*%
X208838800Y-73025000D03*
X240715800Y-78155800D03*
X244627400Y-74726800D03*
X190347600Y-73558400D03*
%TO.N,Net-(Q2-E)*%
X248208800Y-76174600D03*
X236956600Y-74320400D03*
X239725200Y-69316600D03*
%TO.N,Net-(U2-~{RTS})*%
X236956600Y-75336400D03*
X239395000Y-71399400D03*
%TO.N,/ESP32/OLED_SDA*%
X223012000Y-55803800D03*
X221894400Y-55803800D03*
%TO.N,/ESP32/OLED_RST*%
X220903800Y-55803800D03*
X224790000Y-55803800D03*
%TO.N,/ESP32/OLED_CS*%
X228193600Y-55803800D03*
X226288600Y-55803800D03*
%TO.N,/Power/PG*%
X237845600Y-64897000D03*
X229489000Y-65303400D03*
%TO.N,/ESP32/BTN_OK*%
X212039200Y-75615800D03*
X207695800Y-66929000D03*
X207695800Y-74853800D03*
%TO.N,TXD*%
X197154800Y-70459600D03*
X214884000Y-71958200D03*
X238734600Y-71958200D03*
%TO.N,RXD*%
X197180200Y-71348600D03*
X238099600Y-72644000D03*
X214884000Y-72644000D03*
%TD*%
D15*
%TO.N,+3V3*%
X217855800Y-63754000D02*
X217855800Y-70891400D01*
D16*
X244944900Y-64528700D02*
X245237000Y-64820800D01*
X247396000Y-73075800D02*
X248412000Y-73075800D01*
X245237000Y-70916800D02*
X247396000Y-73075800D01*
D15*
X217855800Y-70891400D02*
X213944200Y-74803000D01*
X229514400Y-63754000D02*
X217855800Y-63754000D01*
D16*
X235051600Y-68580000D02*
X231851200Y-65379600D01*
X245237000Y-64820800D02*
X245237000Y-70916800D01*
X231851200Y-65379600D02*
X231851200Y-63703200D01*
D15*
X213944200Y-74803000D02*
X213842600Y-74803000D01*
D16*
%TO.N,EN*%
X240182400Y-78689200D02*
X240182400Y-76682600D01*
X190296800Y-69088000D02*
X191058800Y-69850000D01*
X191058800Y-74498200D02*
X192074800Y-75514200D01*
X190296800Y-65074800D02*
X190296800Y-69088000D01*
X240182400Y-76682600D02*
X242112800Y-74752200D01*
X191058800Y-69850000D02*
X191058800Y-74498200D01*
X192074800Y-75514200D02*
X194691000Y-75514200D01*
%TO.N,GPIO0*%
X208838800Y-74726800D02*
X208838800Y-73025000D01*
X243433600Y-74726800D02*
X244627400Y-74726800D01*
X191922400Y-76631800D02*
X206933800Y-76631800D01*
X240715800Y-77444600D02*
X243433600Y-74726800D01*
X240715800Y-78155800D02*
X240715800Y-77444600D01*
X190347600Y-75057000D02*
X191922400Y-76631800D01*
X190347600Y-73558400D02*
X190347600Y-75057000D01*
X206933800Y-76631800D02*
X208838800Y-74726800D01*
%TO.N,Net-(Q2-E)*%
X241350800Y-69316600D02*
X239725200Y-69316600D01*
X236956600Y-74320400D02*
X237718600Y-73558400D01*
X237718600Y-73558400D02*
X237718600Y-71323200D01*
X248208800Y-76174600D02*
X241350800Y-69316600D01*
X237718600Y-71323200D02*
X239725200Y-69316600D01*
%TO.N,Net-(U2-~{RTS})*%
X236956600Y-74853800D02*
X237109000Y-74701400D01*
X237109000Y-74701400D02*
X237114416Y-74701400D01*
X237114416Y-74701400D02*
X238048800Y-73767016D01*
X238048800Y-73253600D02*
X239395000Y-71907400D01*
X236956600Y-75336400D02*
X236956600Y-74853800D01*
X239395000Y-71907400D02*
X239395000Y-71399400D01*
X238048800Y-73767016D02*
X238048800Y-73253600D01*
%TO.N,/ESP32/OLED_SDA*%
X221894400Y-55803800D02*
X223012000Y-55803800D01*
X223012000Y-55803800D02*
X222986600Y-55803800D01*
%TO.N,/ESP32/OLED_RST*%
X224840800Y-55829200D02*
X224815400Y-55803800D01*
X221386400Y-55321200D02*
X224332800Y-55321200D01*
X220903800Y-55803800D02*
X221386400Y-55321200D01*
X224790000Y-55829200D02*
X224840800Y-55829200D01*
X224790000Y-55778400D02*
X224790000Y-55829200D01*
X224332800Y-55321200D02*
X224790000Y-55778400D01*
%TO.N,/ESP32/OLED_CS*%
X226288600Y-55803800D02*
X228193600Y-55803800D01*
%TO.N,/Power/PG*%
X238734600Y-68961000D02*
X232841800Y-68961000D01*
X239115600Y-66167000D02*
X239115600Y-68580000D01*
X238302800Y-65354200D02*
X239115600Y-66167000D01*
X229514400Y-65633600D02*
X229489000Y-65303400D01*
X232841800Y-68961000D02*
X229514400Y-65633600D01*
X239115600Y-68580000D02*
X238734600Y-68961000D01*
X237845600Y-64897000D02*
X238302800Y-65354200D01*
%TO.N,/ESP32/BTN_OK*%
X207695800Y-66929000D02*
X207695800Y-67030600D01*
X207695800Y-74853800D02*
X207695800Y-66929000D01*
%TD*%
M02*
