%TF.GenerationSoftware,KiCad,Pcbnew,8.0.1*%
%TF.CreationDate,2024-09-08T05:47:06-06:00*%
%TF.ProjectId,USBHIDKey,55534248-4944-44b6-9579-2e6b69636164,rev?*%
%TF.SameCoordinates,Original*%
%TF.FileFunction,Legend,Bot*%
%TF.FilePolarity,Positive*%
%FSLAX46Y46*%
G04 Gerber Fmt 4.6, Leading zero omitted, Abs format (unit mm)*
G04 Created by KiCad (PCBNEW 8.0.1) date 2024-09-08 05:47:06*
%MOMM*%
%LPD*%
G01*
G04 APERTURE LIST*
%ADD10C,0.100000*%
%ADD11C,0.152400*%
%ADD12C,0.150000*%
%ADD13C,0.120000*%
G04 APERTURE END LIST*
D10*
X250494800Y-70180200D02*
X250164600Y-70510400D01*
X250164600Y-70510400D02*
X249021600Y-70510400D01*
X252095000Y-70180200D02*
X250494800Y-70180200D01*
X249199400Y-71577200D02*
X249021600Y-71577200D01*
X249631200Y-71145400D02*
X249199400Y-71577200D01*
X251612400Y-71145400D02*
X249631200Y-71145400D01*
X252285500Y-67945000D02*
X250494800Y-67945000D01*
D11*
X233164619Y-66548000D02*
X233200905Y-66511714D01*
X233200905Y-66511714D02*
X233237190Y-66402857D01*
X233237190Y-66402857D02*
X233237190Y-66330285D01*
X233237190Y-66330285D02*
X233200905Y-66221428D01*
X233200905Y-66221428D02*
X233128333Y-66148857D01*
X233128333Y-66148857D02*
X233055762Y-66112571D01*
X233055762Y-66112571D02*
X232910619Y-66076285D01*
X232910619Y-66076285D02*
X232801762Y-66076285D01*
X232801762Y-66076285D02*
X232656619Y-66112571D01*
X232656619Y-66112571D02*
X232584047Y-66148857D01*
X232584047Y-66148857D02*
X232511476Y-66221428D01*
X232511476Y-66221428D02*
X232475190Y-66330285D01*
X232475190Y-66330285D02*
X232475190Y-66402857D01*
X232475190Y-66402857D02*
X232511476Y-66511714D01*
X232511476Y-66511714D02*
X232547762Y-66548000D01*
X232475190Y-66802000D02*
X232475190Y-67273714D01*
X232475190Y-67273714D02*
X232765476Y-67019714D01*
X232765476Y-67019714D02*
X232765476Y-67128571D01*
X232765476Y-67128571D02*
X232801762Y-67201143D01*
X232801762Y-67201143D02*
X232838047Y-67237428D01*
X232838047Y-67237428D02*
X232910619Y-67273714D01*
X232910619Y-67273714D02*
X233092047Y-67273714D01*
X233092047Y-67273714D02*
X233164619Y-67237428D01*
X233164619Y-67237428D02*
X233200905Y-67201143D01*
X233200905Y-67201143D02*
X233237190Y-67128571D01*
X233237190Y-67128571D02*
X233237190Y-66910857D01*
X233237190Y-66910857D02*
X233200905Y-66838285D01*
X233200905Y-66838285D02*
X233164619Y-66802000D01*
X231158019Y-66548000D02*
X231194305Y-66511714D01*
X231194305Y-66511714D02*
X231230590Y-66402857D01*
X231230590Y-66402857D02*
X231230590Y-66330285D01*
X231230590Y-66330285D02*
X231194305Y-66221428D01*
X231194305Y-66221428D02*
X231121733Y-66148857D01*
X231121733Y-66148857D02*
X231049162Y-66112571D01*
X231049162Y-66112571D02*
X230904019Y-66076285D01*
X230904019Y-66076285D02*
X230795162Y-66076285D01*
X230795162Y-66076285D02*
X230650019Y-66112571D01*
X230650019Y-66112571D02*
X230577447Y-66148857D01*
X230577447Y-66148857D02*
X230504876Y-66221428D01*
X230504876Y-66221428D02*
X230468590Y-66330285D01*
X230468590Y-66330285D02*
X230468590Y-66402857D01*
X230468590Y-66402857D02*
X230504876Y-66511714D01*
X230504876Y-66511714D02*
X230541162Y-66548000D01*
X230722590Y-67201143D02*
X231230590Y-67201143D01*
X230432305Y-67019714D02*
X230976590Y-66838285D01*
X230976590Y-66838285D02*
X230976590Y-67310000D01*
X237667799Y-61736390D02*
X238030656Y-61736390D01*
X238030656Y-61736390D02*
X238030656Y-60974390D01*
X237014656Y-61736390D02*
X237450085Y-61736390D01*
X237232370Y-61736390D02*
X237232370Y-60974390D01*
X237232370Y-60974390D02*
X237304942Y-61083247D01*
X237304942Y-61083247D02*
X237377513Y-61155819D01*
X237377513Y-61155819D02*
X237450085Y-61192105D01*
X249797990Y-58416371D02*
X249035990Y-58416371D01*
X249035990Y-58416371D02*
X249035990Y-58597800D01*
X249035990Y-58597800D02*
X249072276Y-58706657D01*
X249072276Y-58706657D02*
X249144847Y-58779228D01*
X249144847Y-58779228D02*
X249217419Y-58815514D01*
X249217419Y-58815514D02*
X249362562Y-58851800D01*
X249362562Y-58851800D02*
X249471419Y-58851800D01*
X249471419Y-58851800D02*
X249616562Y-58815514D01*
X249616562Y-58815514D02*
X249689133Y-58779228D01*
X249689133Y-58779228D02*
X249761705Y-58706657D01*
X249761705Y-58706657D02*
X249797990Y-58597800D01*
X249797990Y-58597800D02*
X249797990Y-58416371D01*
X249289990Y-59504943D02*
X249797990Y-59504943D01*
X248999705Y-59323514D02*
X249543990Y-59142085D01*
X249543990Y-59142085D02*
X249543990Y-59613800D01*
X250629056Y-74182390D02*
X250883056Y-73819533D01*
X251064485Y-74182390D02*
X251064485Y-73420390D01*
X251064485Y-73420390D02*
X250774199Y-73420390D01*
X250774199Y-73420390D02*
X250701628Y-73456676D01*
X250701628Y-73456676D02*
X250665342Y-73492962D01*
X250665342Y-73492962D02*
X250629056Y-73565533D01*
X250629056Y-73565533D02*
X250629056Y-73674390D01*
X250629056Y-73674390D02*
X250665342Y-73746962D01*
X250665342Y-73746962D02*
X250701628Y-73783247D01*
X250701628Y-73783247D02*
X250774199Y-73819533D01*
X250774199Y-73819533D02*
X251064485Y-73819533D01*
X249903342Y-74182390D02*
X250338771Y-74182390D01*
X250121056Y-74182390D02*
X250121056Y-73420390D01*
X250121056Y-73420390D02*
X250193628Y-73529247D01*
X250193628Y-73529247D02*
X250266199Y-73601819D01*
X250266199Y-73601819D02*
X250338771Y-73638105D01*
X249613057Y-73492962D02*
X249576771Y-73456676D01*
X249576771Y-73456676D02*
X249504200Y-73420390D01*
X249504200Y-73420390D02*
X249322771Y-73420390D01*
X249322771Y-73420390D02*
X249250200Y-73456676D01*
X249250200Y-73456676D02*
X249213914Y-73492962D01*
X249213914Y-73492962D02*
X249177628Y-73565533D01*
X249177628Y-73565533D02*
X249177628Y-73638105D01*
X249177628Y-73638105D02*
X249213914Y-73746962D01*
X249213914Y-73746962D02*
X249649342Y-74182390D01*
X249649342Y-74182390D02*
X249177628Y-74182390D01*
X248411999Y-65952790D02*
X248665999Y-65589933D01*
X248847428Y-65952790D02*
X248847428Y-65190790D01*
X248847428Y-65190790D02*
X248557142Y-65190790D01*
X248557142Y-65190790D02*
X248484571Y-65227076D01*
X248484571Y-65227076D02*
X248448285Y-65263362D01*
X248448285Y-65263362D02*
X248411999Y-65335933D01*
X248411999Y-65335933D02*
X248411999Y-65444790D01*
X248411999Y-65444790D02*
X248448285Y-65517362D01*
X248448285Y-65517362D02*
X248484571Y-65553647D01*
X248484571Y-65553647D02*
X248557142Y-65589933D01*
X248557142Y-65589933D02*
X248847428Y-65589933D01*
X247722571Y-65190790D02*
X248085428Y-65190790D01*
X248085428Y-65190790D02*
X248121714Y-65553647D01*
X248121714Y-65553647D02*
X248085428Y-65517362D01*
X248085428Y-65517362D02*
X248012857Y-65481076D01*
X248012857Y-65481076D02*
X247831428Y-65481076D01*
X247831428Y-65481076D02*
X247758857Y-65517362D01*
X247758857Y-65517362D02*
X247722571Y-65553647D01*
X247722571Y-65553647D02*
X247686285Y-65626219D01*
X247686285Y-65626219D02*
X247686285Y-65807647D01*
X247686285Y-65807647D02*
X247722571Y-65880219D01*
X247722571Y-65880219D02*
X247758857Y-65916505D01*
X247758857Y-65916505D02*
X247831428Y-65952790D01*
X247831428Y-65952790D02*
X248012857Y-65952790D01*
X248012857Y-65952790D02*
X248085428Y-65916505D01*
X248085428Y-65916505D02*
X248121714Y-65880219D01*
X253143656Y-71616990D02*
X253397656Y-71254133D01*
X253579085Y-71616990D02*
X253579085Y-70854990D01*
X253579085Y-70854990D02*
X253288799Y-70854990D01*
X253288799Y-70854990D02*
X253216228Y-70891276D01*
X253216228Y-70891276D02*
X253179942Y-70927562D01*
X253179942Y-70927562D02*
X253143656Y-71000133D01*
X253143656Y-71000133D02*
X253143656Y-71108990D01*
X253143656Y-71108990D02*
X253179942Y-71181562D01*
X253179942Y-71181562D02*
X253216228Y-71217847D01*
X253216228Y-71217847D02*
X253288799Y-71254133D01*
X253288799Y-71254133D02*
X253579085Y-71254133D01*
X252417942Y-71616990D02*
X252853371Y-71616990D01*
X252635656Y-71616990D02*
X252635656Y-70854990D01*
X252635656Y-70854990D02*
X252708228Y-70963847D01*
X252708228Y-70963847D02*
X252780799Y-71036419D01*
X252780799Y-71036419D02*
X252853371Y-71072705D01*
X251692228Y-71616990D02*
X252127657Y-71616990D01*
X251909942Y-71616990D02*
X251909942Y-70854990D01*
X251909942Y-70854990D02*
X251982514Y-70963847D01*
X251982514Y-70963847D02*
X252055085Y-71036419D01*
X252055085Y-71036419D02*
X252127657Y-71072705D01*
X248411999Y-64860590D02*
X248665999Y-64497733D01*
X248847428Y-64860590D02*
X248847428Y-64098590D01*
X248847428Y-64098590D02*
X248557142Y-64098590D01*
X248557142Y-64098590D02*
X248484571Y-64134876D01*
X248484571Y-64134876D02*
X248448285Y-64171162D01*
X248448285Y-64171162D02*
X248411999Y-64243733D01*
X248411999Y-64243733D02*
X248411999Y-64352590D01*
X248411999Y-64352590D02*
X248448285Y-64425162D01*
X248448285Y-64425162D02*
X248484571Y-64461447D01*
X248484571Y-64461447D02*
X248557142Y-64497733D01*
X248557142Y-64497733D02*
X248847428Y-64497733D01*
X247758857Y-64098590D02*
X247903999Y-64098590D01*
X247903999Y-64098590D02*
X247976571Y-64134876D01*
X247976571Y-64134876D02*
X248012857Y-64171162D01*
X248012857Y-64171162D02*
X248085428Y-64280019D01*
X248085428Y-64280019D02*
X248121714Y-64425162D01*
X248121714Y-64425162D02*
X248121714Y-64715447D01*
X248121714Y-64715447D02*
X248085428Y-64788019D01*
X248085428Y-64788019D02*
X248049142Y-64824305D01*
X248049142Y-64824305D02*
X247976571Y-64860590D01*
X247976571Y-64860590D02*
X247831428Y-64860590D01*
X247831428Y-64860590D02*
X247758857Y-64824305D01*
X247758857Y-64824305D02*
X247722571Y-64788019D01*
X247722571Y-64788019D02*
X247686285Y-64715447D01*
X247686285Y-64715447D02*
X247686285Y-64534019D01*
X247686285Y-64534019D02*
X247722571Y-64461447D01*
X247722571Y-64461447D02*
X247758857Y-64425162D01*
X247758857Y-64425162D02*
X247831428Y-64388876D01*
X247831428Y-64388876D02*
X247976571Y-64388876D01*
X247976571Y-64388876D02*
X248049142Y-64425162D01*
X248049142Y-64425162D02*
X248085428Y-64461447D01*
X248085428Y-64461447D02*
X248121714Y-64534019D01*
X249772590Y-60245171D02*
X249010590Y-60245171D01*
X249010590Y-60245171D02*
X249010590Y-60426600D01*
X249010590Y-60426600D02*
X249046876Y-60535457D01*
X249046876Y-60535457D02*
X249119447Y-60608028D01*
X249119447Y-60608028D02*
X249192019Y-60644314D01*
X249192019Y-60644314D02*
X249337162Y-60680600D01*
X249337162Y-60680600D02*
X249446019Y-60680600D01*
X249446019Y-60680600D02*
X249591162Y-60644314D01*
X249591162Y-60644314D02*
X249663733Y-60608028D01*
X249663733Y-60608028D02*
X249736305Y-60535457D01*
X249736305Y-60535457D02*
X249772590Y-60426600D01*
X249772590Y-60426600D02*
X249772590Y-60245171D01*
X249010590Y-60934600D02*
X249010590Y-61406314D01*
X249010590Y-61406314D02*
X249300876Y-61152314D01*
X249300876Y-61152314D02*
X249300876Y-61261171D01*
X249300876Y-61261171D02*
X249337162Y-61333743D01*
X249337162Y-61333743D02*
X249373447Y-61370028D01*
X249373447Y-61370028D02*
X249446019Y-61406314D01*
X249446019Y-61406314D02*
X249627447Y-61406314D01*
X249627447Y-61406314D02*
X249700019Y-61370028D01*
X249700019Y-61370028D02*
X249736305Y-61333743D01*
X249736305Y-61333743D02*
X249772590Y-61261171D01*
X249772590Y-61261171D02*
X249772590Y-61043457D01*
X249772590Y-61043457D02*
X249736305Y-60970885D01*
X249736305Y-60970885D02*
X249700019Y-60934600D01*
X238531399Y-69842619D02*
X238567685Y-69878905D01*
X238567685Y-69878905D02*
X238676542Y-69915190D01*
X238676542Y-69915190D02*
X238749114Y-69915190D01*
X238749114Y-69915190D02*
X238857971Y-69878905D01*
X238857971Y-69878905D02*
X238930542Y-69806333D01*
X238930542Y-69806333D02*
X238966828Y-69733762D01*
X238966828Y-69733762D02*
X239003114Y-69588619D01*
X239003114Y-69588619D02*
X239003114Y-69479762D01*
X239003114Y-69479762D02*
X238966828Y-69334619D01*
X238966828Y-69334619D02*
X238930542Y-69262047D01*
X238930542Y-69262047D02*
X238857971Y-69189476D01*
X238857971Y-69189476D02*
X238749114Y-69153190D01*
X238749114Y-69153190D02*
X238676542Y-69153190D01*
X238676542Y-69153190D02*
X238567685Y-69189476D01*
X238567685Y-69189476D02*
X238531399Y-69225762D01*
X237878257Y-69153190D02*
X238023399Y-69153190D01*
X238023399Y-69153190D02*
X238095971Y-69189476D01*
X238095971Y-69189476D02*
X238132257Y-69225762D01*
X238132257Y-69225762D02*
X238204828Y-69334619D01*
X238204828Y-69334619D02*
X238241114Y-69479762D01*
X238241114Y-69479762D02*
X238241114Y-69770047D01*
X238241114Y-69770047D02*
X238204828Y-69842619D01*
X238204828Y-69842619D02*
X238168542Y-69878905D01*
X238168542Y-69878905D02*
X238095971Y-69915190D01*
X238095971Y-69915190D02*
X237950828Y-69915190D01*
X237950828Y-69915190D02*
X237878257Y-69878905D01*
X237878257Y-69878905D02*
X237841971Y-69842619D01*
X237841971Y-69842619D02*
X237805685Y-69770047D01*
X237805685Y-69770047D02*
X237805685Y-69588619D01*
X237805685Y-69588619D02*
X237841971Y-69516047D01*
X237841971Y-69516047D02*
X237878257Y-69479762D01*
X237878257Y-69479762D02*
X237950828Y-69443476D01*
X237950828Y-69443476D02*
X238095971Y-69443476D01*
X238095971Y-69443476D02*
X238168542Y-69479762D01*
X238168542Y-69479762D02*
X238204828Y-69516047D01*
X238204828Y-69516047D02*
X238241114Y-69588619D01*
X253110999Y-70626390D02*
X253364999Y-70263533D01*
X253546428Y-70626390D02*
X253546428Y-69864390D01*
X253546428Y-69864390D02*
X253256142Y-69864390D01*
X253256142Y-69864390D02*
X253183571Y-69900676D01*
X253183571Y-69900676D02*
X253147285Y-69936962D01*
X253147285Y-69936962D02*
X253110999Y-70009533D01*
X253110999Y-70009533D02*
X253110999Y-70118390D01*
X253110999Y-70118390D02*
X253147285Y-70190962D01*
X253147285Y-70190962D02*
X253183571Y-70227247D01*
X253183571Y-70227247D02*
X253256142Y-70263533D01*
X253256142Y-70263533D02*
X253546428Y-70263533D01*
X252856999Y-69864390D02*
X252385285Y-69864390D01*
X252385285Y-69864390D02*
X252639285Y-70154676D01*
X252639285Y-70154676D02*
X252530428Y-70154676D01*
X252530428Y-70154676D02*
X252457857Y-70190962D01*
X252457857Y-70190962D02*
X252421571Y-70227247D01*
X252421571Y-70227247D02*
X252385285Y-70299819D01*
X252385285Y-70299819D02*
X252385285Y-70481247D01*
X252385285Y-70481247D02*
X252421571Y-70553819D01*
X252421571Y-70553819D02*
X252457857Y-70590105D01*
X252457857Y-70590105D02*
X252530428Y-70626390D01*
X252530428Y-70626390D02*
X252748142Y-70626390D01*
X252748142Y-70626390D02*
X252820714Y-70590105D01*
X252820714Y-70590105D02*
X252856999Y-70553819D01*
X245581590Y-62327971D02*
X244819590Y-62327971D01*
X244819590Y-62327971D02*
X244819590Y-62509400D01*
X244819590Y-62509400D02*
X244855876Y-62618257D01*
X244855876Y-62618257D02*
X244928447Y-62690828D01*
X244928447Y-62690828D02*
X245001019Y-62727114D01*
X245001019Y-62727114D02*
X245146162Y-62763400D01*
X245146162Y-62763400D02*
X245255019Y-62763400D01*
X245255019Y-62763400D02*
X245400162Y-62727114D01*
X245400162Y-62727114D02*
X245472733Y-62690828D01*
X245472733Y-62690828D02*
X245545305Y-62618257D01*
X245545305Y-62618257D02*
X245581590Y-62509400D01*
X245581590Y-62509400D02*
X245581590Y-62327971D01*
X245581590Y-63489114D02*
X245581590Y-63053685D01*
X245581590Y-63271400D02*
X244819590Y-63271400D01*
X244819590Y-63271400D02*
X244928447Y-63198828D01*
X244928447Y-63198828D02*
X245001019Y-63126257D01*
X245001019Y-63126257D02*
X245037305Y-63053685D01*
X244471371Y-56757990D02*
X244471371Y-57374847D01*
X244471371Y-57374847D02*
X244435085Y-57447419D01*
X244435085Y-57447419D02*
X244398800Y-57483705D01*
X244398800Y-57483705D02*
X244326228Y-57519990D01*
X244326228Y-57519990D02*
X244181085Y-57519990D01*
X244181085Y-57519990D02*
X244108514Y-57483705D01*
X244108514Y-57483705D02*
X244072228Y-57447419D01*
X244072228Y-57447419D02*
X244035942Y-57374847D01*
X244035942Y-57374847D02*
X244035942Y-56757990D01*
X243346514Y-57011990D02*
X243346514Y-57519990D01*
X243527942Y-56721705D02*
X243709371Y-57265990D01*
X243709371Y-57265990D02*
X243237656Y-57265990D01*
X253110999Y-68140819D02*
X253147285Y-68177105D01*
X253147285Y-68177105D02*
X253256142Y-68213390D01*
X253256142Y-68213390D02*
X253328714Y-68213390D01*
X253328714Y-68213390D02*
X253437571Y-68177105D01*
X253437571Y-68177105D02*
X253510142Y-68104533D01*
X253510142Y-68104533D02*
X253546428Y-68031962D01*
X253546428Y-68031962D02*
X253582714Y-67886819D01*
X253582714Y-67886819D02*
X253582714Y-67777962D01*
X253582714Y-67777962D02*
X253546428Y-67632819D01*
X253546428Y-67632819D02*
X253510142Y-67560247D01*
X253510142Y-67560247D02*
X253437571Y-67487676D01*
X253437571Y-67487676D02*
X253328714Y-67451390D01*
X253328714Y-67451390D02*
X253256142Y-67451390D01*
X253256142Y-67451390D02*
X253147285Y-67487676D01*
X253147285Y-67487676D02*
X253110999Y-67523962D01*
X252385285Y-68213390D02*
X252820714Y-68213390D01*
X252602999Y-68213390D02*
X252602999Y-67451390D01*
X252602999Y-67451390D02*
X252675571Y-67560247D01*
X252675571Y-67560247D02*
X252748142Y-67632819D01*
X252748142Y-67632819D02*
X252820714Y-67669105D01*
X238480599Y-67959390D02*
X238734599Y-67596533D01*
X238916028Y-67959390D02*
X238916028Y-67197390D01*
X238916028Y-67197390D02*
X238625742Y-67197390D01*
X238625742Y-67197390D02*
X238553171Y-67233676D01*
X238553171Y-67233676D02*
X238516885Y-67269962D01*
X238516885Y-67269962D02*
X238480599Y-67342533D01*
X238480599Y-67342533D02*
X238480599Y-67451390D01*
X238480599Y-67451390D02*
X238516885Y-67523962D01*
X238516885Y-67523962D02*
X238553171Y-67560247D01*
X238553171Y-67560247D02*
X238625742Y-67596533D01*
X238625742Y-67596533D02*
X238916028Y-67596533D01*
X238045171Y-67523962D02*
X238117742Y-67487676D01*
X238117742Y-67487676D02*
X238154028Y-67451390D01*
X238154028Y-67451390D02*
X238190314Y-67378819D01*
X238190314Y-67378819D02*
X238190314Y-67342533D01*
X238190314Y-67342533D02*
X238154028Y-67269962D01*
X238154028Y-67269962D02*
X238117742Y-67233676D01*
X238117742Y-67233676D02*
X238045171Y-67197390D01*
X238045171Y-67197390D02*
X237900028Y-67197390D01*
X237900028Y-67197390D02*
X237827457Y-67233676D01*
X237827457Y-67233676D02*
X237791171Y-67269962D01*
X237791171Y-67269962D02*
X237754885Y-67342533D01*
X237754885Y-67342533D02*
X237754885Y-67378819D01*
X237754885Y-67378819D02*
X237791171Y-67451390D01*
X237791171Y-67451390D02*
X237827457Y-67487676D01*
X237827457Y-67487676D02*
X237900028Y-67523962D01*
X237900028Y-67523962D02*
X238045171Y-67523962D01*
X238045171Y-67523962D02*
X238117742Y-67560247D01*
X238117742Y-67560247D02*
X238154028Y-67596533D01*
X238154028Y-67596533D02*
X238190314Y-67669105D01*
X238190314Y-67669105D02*
X238190314Y-67814247D01*
X238190314Y-67814247D02*
X238154028Y-67886819D01*
X238154028Y-67886819D02*
X238117742Y-67923105D01*
X238117742Y-67923105D02*
X238045171Y-67959390D01*
X238045171Y-67959390D02*
X237900028Y-67959390D01*
X237900028Y-67959390D02*
X237827457Y-67923105D01*
X237827457Y-67923105D02*
X237791171Y-67886819D01*
X237791171Y-67886819D02*
X237754885Y-67814247D01*
X237754885Y-67814247D02*
X237754885Y-67669105D01*
X237754885Y-67669105D02*
X237791171Y-67596533D01*
X237791171Y-67596533D02*
X237827457Y-67560247D01*
X237827457Y-67560247D02*
X237900028Y-67523962D01*
D12*
X241088704Y-58509819D02*
X240517276Y-58509819D01*
X240802990Y-59509819D02*
X240802990Y-58509819D01*
X240183942Y-59509819D02*
X240183942Y-58509819D01*
X240183942Y-58509819D02*
X239802990Y-58509819D01*
X239802990Y-58509819D02*
X239707752Y-58557438D01*
X239707752Y-58557438D02*
X239660133Y-58605057D01*
X239660133Y-58605057D02*
X239612514Y-58700295D01*
X239612514Y-58700295D02*
X239612514Y-58843152D01*
X239612514Y-58843152D02*
X239660133Y-58938390D01*
X239660133Y-58938390D02*
X239707752Y-58986009D01*
X239707752Y-58986009D02*
X239802990Y-59033628D01*
X239802990Y-59033628D02*
X240183942Y-59033628D01*
X239279180Y-58509819D02*
X238660133Y-58509819D01*
X238660133Y-58509819D02*
X238993466Y-58890771D01*
X238993466Y-58890771D02*
X238850609Y-58890771D01*
X238850609Y-58890771D02*
X238755371Y-58938390D01*
X238755371Y-58938390D02*
X238707752Y-58986009D01*
X238707752Y-58986009D02*
X238660133Y-59081247D01*
X238660133Y-59081247D02*
X238660133Y-59319342D01*
X238660133Y-59319342D02*
X238707752Y-59414580D01*
X238707752Y-59414580D02*
X238755371Y-59462200D01*
X238755371Y-59462200D02*
X238850609Y-59509819D01*
X238850609Y-59509819D02*
X239136323Y-59509819D01*
X239136323Y-59509819D02*
X239231561Y-59462200D01*
X239231561Y-59462200D02*
X239279180Y-59414580D01*
D11*
X238480599Y-63670419D02*
X238516885Y-63706705D01*
X238516885Y-63706705D02*
X238625742Y-63742990D01*
X238625742Y-63742990D02*
X238698314Y-63742990D01*
X238698314Y-63742990D02*
X238807171Y-63706705D01*
X238807171Y-63706705D02*
X238879742Y-63634133D01*
X238879742Y-63634133D02*
X238916028Y-63561562D01*
X238916028Y-63561562D02*
X238952314Y-63416419D01*
X238952314Y-63416419D02*
X238952314Y-63307562D01*
X238952314Y-63307562D02*
X238916028Y-63162419D01*
X238916028Y-63162419D02*
X238879742Y-63089847D01*
X238879742Y-63089847D02*
X238807171Y-63017276D01*
X238807171Y-63017276D02*
X238698314Y-62980990D01*
X238698314Y-62980990D02*
X238625742Y-62980990D01*
X238625742Y-62980990D02*
X238516885Y-63017276D01*
X238516885Y-63017276D02*
X238480599Y-63053562D01*
X237791171Y-62980990D02*
X238154028Y-62980990D01*
X238154028Y-62980990D02*
X238190314Y-63343847D01*
X238190314Y-63343847D02*
X238154028Y-63307562D01*
X238154028Y-63307562D02*
X238081457Y-63271276D01*
X238081457Y-63271276D02*
X237900028Y-63271276D01*
X237900028Y-63271276D02*
X237827457Y-63307562D01*
X237827457Y-63307562D02*
X237791171Y-63343847D01*
X237791171Y-63343847D02*
X237754885Y-63416419D01*
X237754885Y-63416419D02*
X237754885Y-63597847D01*
X237754885Y-63597847D02*
X237791171Y-63670419D01*
X237791171Y-63670419D02*
X237827457Y-63706705D01*
X237827457Y-63706705D02*
X237900028Y-63742990D01*
X237900028Y-63742990D02*
X238081457Y-63742990D01*
X238081457Y-63742990D02*
X238154028Y-63706705D01*
X238154028Y-63706705D02*
X238190314Y-63670419D01*
D12*
X221632304Y-58535219D02*
X221060876Y-58535219D01*
X221346590Y-59535219D02*
X221346590Y-58535219D01*
X220727542Y-59535219D02*
X220727542Y-58535219D01*
X220727542Y-58535219D02*
X220346590Y-58535219D01*
X220346590Y-58535219D02*
X220251352Y-58582838D01*
X220251352Y-58582838D02*
X220203733Y-58630457D01*
X220203733Y-58630457D02*
X220156114Y-58725695D01*
X220156114Y-58725695D02*
X220156114Y-58868552D01*
X220156114Y-58868552D02*
X220203733Y-58963790D01*
X220203733Y-58963790D02*
X220251352Y-59011409D01*
X220251352Y-59011409D02*
X220346590Y-59059028D01*
X220346590Y-59059028D02*
X220727542Y-59059028D01*
X219203733Y-59535219D02*
X219775161Y-59535219D01*
X219489447Y-59535219D02*
X219489447Y-58535219D01*
X219489447Y-58535219D02*
X219584685Y-58678076D01*
X219584685Y-58678076D02*
X219679923Y-58773314D01*
X219679923Y-58773314D02*
X219775161Y-58820933D01*
D11*
X238480599Y-68975390D02*
X238734599Y-68612533D01*
X238916028Y-68975390D02*
X238916028Y-68213390D01*
X238916028Y-68213390D02*
X238625742Y-68213390D01*
X238625742Y-68213390D02*
X238553171Y-68249676D01*
X238553171Y-68249676D02*
X238516885Y-68285962D01*
X238516885Y-68285962D02*
X238480599Y-68358533D01*
X238480599Y-68358533D02*
X238480599Y-68467390D01*
X238480599Y-68467390D02*
X238516885Y-68539962D01*
X238516885Y-68539962D02*
X238553171Y-68576247D01*
X238553171Y-68576247D02*
X238625742Y-68612533D01*
X238625742Y-68612533D02*
X238916028Y-68612533D01*
X238226599Y-68213390D02*
X237718599Y-68213390D01*
X237718599Y-68213390D02*
X238045171Y-68975390D01*
X225120199Y-63387390D02*
X225374199Y-63024533D01*
X225555628Y-63387390D02*
X225555628Y-62625390D01*
X225555628Y-62625390D02*
X225265342Y-62625390D01*
X225265342Y-62625390D02*
X225192771Y-62661676D01*
X225192771Y-62661676D02*
X225156485Y-62697962D01*
X225156485Y-62697962D02*
X225120199Y-62770533D01*
X225120199Y-62770533D02*
X225120199Y-62879390D01*
X225120199Y-62879390D02*
X225156485Y-62951962D01*
X225156485Y-62951962D02*
X225192771Y-62988247D01*
X225192771Y-62988247D02*
X225265342Y-63024533D01*
X225265342Y-63024533D02*
X225555628Y-63024533D01*
X224757342Y-63387390D02*
X224612199Y-63387390D01*
X224612199Y-63387390D02*
X224539628Y-63351105D01*
X224539628Y-63351105D02*
X224503342Y-63314819D01*
X224503342Y-63314819D02*
X224430771Y-63205962D01*
X224430771Y-63205962D02*
X224394485Y-63060819D01*
X224394485Y-63060819D02*
X224394485Y-62770533D01*
X224394485Y-62770533D02*
X224430771Y-62697962D01*
X224430771Y-62697962D02*
X224467057Y-62661676D01*
X224467057Y-62661676D02*
X224539628Y-62625390D01*
X224539628Y-62625390D02*
X224684771Y-62625390D01*
X224684771Y-62625390D02*
X224757342Y-62661676D01*
X224757342Y-62661676D02*
X224793628Y-62697962D01*
X224793628Y-62697962D02*
X224829914Y-62770533D01*
X224829914Y-62770533D02*
X224829914Y-62951962D01*
X224829914Y-62951962D02*
X224793628Y-63024533D01*
X224793628Y-63024533D02*
X224757342Y-63060819D01*
X224757342Y-63060819D02*
X224684771Y-63097105D01*
X224684771Y-63097105D02*
X224539628Y-63097105D01*
X224539628Y-63097105D02*
X224467057Y-63060819D01*
X224467057Y-63060819D02*
X224430771Y-63024533D01*
X224430771Y-63024533D02*
X224394485Y-62951962D01*
X253136399Y-69436219D02*
X253172685Y-69472505D01*
X253172685Y-69472505D02*
X253281542Y-69508790D01*
X253281542Y-69508790D02*
X253354114Y-69508790D01*
X253354114Y-69508790D02*
X253462971Y-69472505D01*
X253462971Y-69472505D02*
X253535542Y-69399933D01*
X253535542Y-69399933D02*
X253571828Y-69327362D01*
X253571828Y-69327362D02*
X253608114Y-69182219D01*
X253608114Y-69182219D02*
X253608114Y-69073362D01*
X253608114Y-69073362D02*
X253571828Y-68928219D01*
X253571828Y-68928219D02*
X253535542Y-68855647D01*
X253535542Y-68855647D02*
X253462971Y-68783076D01*
X253462971Y-68783076D02*
X253354114Y-68746790D01*
X253354114Y-68746790D02*
X253281542Y-68746790D01*
X253281542Y-68746790D02*
X253172685Y-68783076D01*
X253172685Y-68783076D02*
X253136399Y-68819362D01*
X252846114Y-68819362D02*
X252809828Y-68783076D01*
X252809828Y-68783076D02*
X252737257Y-68746790D01*
X252737257Y-68746790D02*
X252555828Y-68746790D01*
X252555828Y-68746790D02*
X252483257Y-68783076D01*
X252483257Y-68783076D02*
X252446971Y-68819362D01*
X252446971Y-68819362D02*
X252410685Y-68891933D01*
X252410685Y-68891933D02*
X252410685Y-68964505D01*
X252410685Y-68964505D02*
X252446971Y-69073362D01*
X252446971Y-69073362D02*
X252882399Y-69508790D01*
X252882399Y-69508790D02*
X252410685Y-69508790D01*
D12*
X232630504Y-58535219D02*
X232059076Y-58535219D01*
X232344790Y-59535219D02*
X232344790Y-58535219D01*
X231725742Y-59535219D02*
X231725742Y-58535219D01*
X231725742Y-58535219D02*
X231344790Y-58535219D01*
X231344790Y-58535219D02*
X231249552Y-58582838D01*
X231249552Y-58582838D02*
X231201933Y-58630457D01*
X231201933Y-58630457D02*
X231154314Y-58725695D01*
X231154314Y-58725695D02*
X231154314Y-58868552D01*
X231154314Y-58868552D02*
X231201933Y-58963790D01*
X231201933Y-58963790D02*
X231249552Y-59011409D01*
X231249552Y-59011409D02*
X231344790Y-59059028D01*
X231344790Y-59059028D02*
X231725742Y-59059028D01*
X230773361Y-58630457D02*
X230725742Y-58582838D01*
X230725742Y-58582838D02*
X230630504Y-58535219D01*
X230630504Y-58535219D02*
X230392409Y-58535219D01*
X230392409Y-58535219D02*
X230297171Y-58582838D01*
X230297171Y-58582838D02*
X230249552Y-58630457D01*
X230249552Y-58630457D02*
X230201933Y-58725695D01*
X230201933Y-58725695D02*
X230201933Y-58820933D01*
X230201933Y-58820933D02*
X230249552Y-58963790D01*
X230249552Y-58963790D02*
X230820980Y-59535219D01*
X230820980Y-59535219D02*
X230201933Y-59535219D01*
D11*
X225102056Y-60440990D02*
X225356056Y-60078133D01*
X225537485Y-60440990D02*
X225537485Y-59678990D01*
X225537485Y-59678990D02*
X225247199Y-59678990D01*
X225247199Y-59678990D02*
X225174628Y-59715276D01*
X225174628Y-59715276D02*
X225138342Y-59751562D01*
X225138342Y-59751562D02*
X225102056Y-59824133D01*
X225102056Y-59824133D02*
X225102056Y-59932990D01*
X225102056Y-59932990D02*
X225138342Y-60005562D01*
X225138342Y-60005562D02*
X225174628Y-60041847D01*
X225174628Y-60041847D02*
X225247199Y-60078133D01*
X225247199Y-60078133D02*
X225537485Y-60078133D01*
X224376342Y-60440990D02*
X224811771Y-60440990D01*
X224594056Y-60440990D02*
X224594056Y-59678990D01*
X224594056Y-59678990D02*
X224666628Y-59787847D01*
X224666628Y-59787847D02*
X224739199Y-59860419D01*
X224739199Y-59860419D02*
X224811771Y-59896705D01*
X223904628Y-59678990D02*
X223832057Y-59678990D01*
X223832057Y-59678990D02*
X223759485Y-59715276D01*
X223759485Y-59715276D02*
X223723200Y-59751562D01*
X223723200Y-59751562D02*
X223686914Y-59824133D01*
X223686914Y-59824133D02*
X223650628Y-59969276D01*
X223650628Y-59969276D02*
X223650628Y-60150705D01*
X223650628Y-60150705D02*
X223686914Y-60295847D01*
X223686914Y-60295847D02*
X223723200Y-60368419D01*
X223723200Y-60368419D02*
X223759485Y-60404705D01*
X223759485Y-60404705D02*
X223832057Y-60440990D01*
X223832057Y-60440990D02*
X223904628Y-60440990D01*
X223904628Y-60440990D02*
X223977200Y-60404705D01*
X223977200Y-60404705D02*
X224013485Y-60368419D01*
X224013485Y-60368419D02*
X224049771Y-60295847D01*
X224049771Y-60295847D02*
X224086057Y-60150705D01*
X224086057Y-60150705D02*
X224086057Y-59969276D01*
X224086057Y-59969276D02*
X224049771Y-59824133D01*
X224049771Y-59824133D02*
X224013485Y-59751562D01*
X224013485Y-59751562D02*
X223977200Y-59715276D01*
X223977200Y-59715276D02*
X223904628Y-59678990D01*
D12*
X243688094Y-79044819D02*
X243688094Y-78044819D01*
X243688094Y-78044819D02*
X243449999Y-78044819D01*
X243449999Y-78044819D02*
X243307142Y-78092438D01*
X243307142Y-78092438D02*
X243211904Y-78187676D01*
X243211904Y-78187676D02*
X243164285Y-78282914D01*
X243164285Y-78282914D02*
X243116666Y-78473390D01*
X243116666Y-78473390D02*
X243116666Y-78616247D01*
X243116666Y-78616247D02*
X243164285Y-78806723D01*
X243164285Y-78806723D02*
X243211904Y-78901961D01*
X243211904Y-78901961D02*
X243307142Y-78997200D01*
X243307142Y-78997200D02*
X243449999Y-79044819D01*
X243449999Y-79044819D02*
X243688094Y-79044819D01*
X242783332Y-78044819D02*
X242116666Y-78044819D01*
X242116666Y-78044819D02*
X242545237Y-79044819D01*
D11*
X244090371Y-65851190D02*
X244090371Y-66468047D01*
X244090371Y-66468047D02*
X244054085Y-66540619D01*
X244054085Y-66540619D02*
X244017800Y-66576905D01*
X244017800Y-66576905D02*
X243945228Y-66613190D01*
X243945228Y-66613190D02*
X243800085Y-66613190D01*
X243800085Y-66613190D02*
X243727514Y-66576905D01*
X243727514Y-66576905D02*
X243691228Y-66540619D01*
X243691228Y-66540619D02*
X243654942Y-66468047D01*
X243654942Y-66468047D02*
X243654942Y-65851190D01*
X243328371Y-65923762D02*
X243292085Y-65887476D01*
X243292085Y-65887476D02*
X243219514Y-65851190D01*
X243219514Y-65851190D02*
X243038085Y-65851190D01*
X243038085Y-65851190D02*
X242965514Y-65887476D01*
X242965514Y-65887476D02*
X242929228Y-65923762D01*
X242929228Y-65923762D02*
X242892942Y-65996333D01*
X242892942Y-65996333D02*
X242892942Y-66068905D01*
X242892942Y-66068905D02*
X242929228Y-66177762D01*
X242929228Y-66177762D02*
X243364656Y-66613190D01*
X243364656Y-66613190D02*
X242892942Y-66613190D01*
X254021771Y-66028990D02*
X254021771Y-66645847D01*
X254021771Y-66645847D02*
X253985485Y-66718419D01*
X253985485Y-66718419D02*
X253949200Y-66754705D01*
X253949200Y-66754705D02*
X253876628Y-66790990D01*
X253876628Y-66790990D02*
X253731485Y-66790990D01*
X253731485Y-66790990D02*
X253658914Y-66754705D01*
X253658914Y-66754705D02*
X253622628Y-66718419D01*
X253622628Y-66718419D02*
X253586342Y-66645847D01*
X253586342Y-66645847D02*
X253586342Y-66028990D01*
X253296056Y-66028990D02*
X252824342Y-66028990D01*
X252824342Y-66028990D02*
X253078342Y-66319276D01*
X253078342Y-66319276D02*
X252969485Y-66319276D01*
X252969485Y-66319276D02*
X252896914Y-66355562D01*
X252896914Y-66355562D02*
X252860628Y-66391847D01*
X252860628Y-66391847D02*
X252824342Y-66464419D01*
X252824342Y-66464419D02*
X252824342Y-66645847D01*
X252824342Y-66645847D02*
X252860628Y-66718419D01*
X252860628Y-66718419D02*
X252896914Y-66754705D01*
X252896914Y-66754705D02*
X252969485Y-66790990D01*
X252969485Y-66790990D02*
X253187199Y-66790990D01*
X253187199Y-66790990D02*
X253259771Y-66754705D01*
X253259771Y-66754705D02*
X253296056Y-66718419D01*
D12*
X243690594Y-77224819D02*
X243690594Y-76224819D01*
X243690594Y-76224819D02*
X243452499Y-76224819D01*
X243452499Y-76224819D02*
X243309642Y-76272438D01*
X243309642Y-76272438D02*
X243214404Y-76367676D01*
X243214404Y-76367676D02*
X243166785Y-76462914D01*
X243166785Y-76462914D02*
X243119166Y-76653390D01*
X243119166Y-76653390D02*
X243119166Y-76796247D01*
X243119166Y-76796247D02*
X243166785Y-76986723D01*
X243166785Y-76986723D02*
X243214404Y-77081961D01*
X243214404Y-77081961D02*
X243309642Y-77177200D01*
X243309642Y-77177200D02*
X243452499Y-77224819D01*
X243452499Y-77224819D02*
X243690594Y-77224819D01*
X242262023Y-76224819D02*
X242452499Y-76224819D01*
X242452499Y-76224819D02*
X242547737Y-76272438D01*
X242547737Y-76272438D02*
X242595356Y-76320057D01*
X242595356Y-76320057D02*
X242690594Y-76462914D01*
X242690594Y-76462914D02*
X242738213Y-76653390D01*
X242738213Y-76653390D02*
X242738213Y-77034342D01*
X242738213Y-77034342D02*
X242690594Y-77129580D01*
X242690594Y-77129580D02*
X242642975Y-77177200D01*
X242642975Y-77177200D02*
X242547737Y-77224819D01*
X242547737Y-77224819D02*
X242357261Y-77224819D01*
X242357261Y-77224819D02*
X242262023Y-77177200D01*
X242262023Y-77177200D02*
X242214404Y-77129580D01*
X242214404Y-77129580D02*
X242166785Y-77034342D01*
X242166785Y-77034342D02*
X242166785Y-76796247D01*
X242166785Y-76796247D02*
X242214404Y-76701009D01*
X242214404Y-76701009D02*
X242262023Y-76653390D01*
X242262023Y-76653390D02*
X242357261Y-76605771D01*
X242357261Y-76605771D02*
X242547737Y-76605771D01*
X242547737Y-76605771D02*
X242642975Y-76653390D01*
X242642975Y-76653390D02*
X242690594Y-76701009D01*
X242690594Y-76701009D02*
X242738213Y-76796247D01*
D11*
X245606990Y-60041971D02*
X244844990Y-60041971D01*
X244844990Y-60041971D02*
X244844990Y-60223400D01*
X244844990Y-60223400D02*
X244881276Y-60332257D01*
X244881276Y-60332257D02*
X244953847Y-60404828D01*
X244953847Y-60404828D02*
X245026419Y-60441114D01*
X245026419Y-60441114D02*
X245171562Y-60477400D01*
X245171562Y-60477400D02*
X245280419Y-60477400D01*
X245280419Y-60477400D02*
X245425562Y-60441114D01*
X245425562Y-60441114D02*
X245498133Y-60404828D01*
X245498133Y-60404828D02*
X245570705Y-60332257D01*
X245570705Y-60332257D02*
X245606990Y-60223400D01*
X245606990Y-60223400D02*
X245606990Y-60041971D01*
X244917562Y-60767685D02*
X244881276Y-60803971D01*
X244881276Y-60803971D02*
X244844990Y-60876543D01*
X244844990Y-60876543D02*
X244844990Y-61057971D01*
X244844990Y-61057971D02*
X244881276Y-61130543D01*
X244881276Y-61130543D02*
X244917562Y-61166828D01*
X244917562Y-61166828D02*
X244990133Y-61203114D01*
X244990133Y-61203114D02*
X245062705Y-61203114D01*
X245062705Y-61203114D02*
X245171562Y-61166828D01*
X245171562Y-61166828D02*
X245606990Y-60731400D01*
X245606990Y-60731400D02*
X245606990Y-61203114D01*
X239137371Y-65317790D02*
X239137371Y-65934647D01*
X239137371Y-65934647D02*
X239101085Y-66007219D01*
X239101085Y-66007219D02*
X239064800Y-66043505D01*
X239064800Y-66043505D02*
X238992228Y-66079790D01*
X238992228Y-66079790D02*
X238847085Y-66079790D01*
X238847085Y-66079790D02*
X238774514Y-66043505D01*
X238774514Y-66043505D02*
X238738228Y-66007219D01*
X238738228Y-66007219D02*
X238701942Y-65934647D01*
X238701942Y-65934647D02*
X238701942Y-65317790D01*
X237976228Y-65317790D02*
X238339085Y-65317790D01*
X238339085Y-65317790D02*
X238375371Y-65680647D01*
X238375371Y-65680647D02*
X238339085Y-65644362D01*
X238339085Y-65644362D02*
X238266514Y-65608076D01*
X238266514Y-65608076D02*
X238085085Y-65608076D01*
X238085085Y-65608076D02*
X238012514Y-65644362D01*
X238012514Y-65644362D02*
X237976228Y-65680647D01*
X237976228Y-65680647D02*
X237939942Y-65753219D01*
X237939942Y-65753219D02*
X237939942Y-65934647D01*
X237939942Y-65934647D02*
X237976228Y-66007219D01*
X237976228Y-66007219D02*
X238012514Y-66043505D01*
X238012514Y-66043505D02*
X238085085Y-66079790D01*
X238085085Y-66079790D02*
X238266514Y-66079790D01*
X238266514Y-66079790D02*
X238339085Y-66043505D01*
X238339085Y-66043505D02*
X238375371Y-66007219D01*
X225555628Y-61888790D02*
X225555628Y-61126790D01*
X225555628Y-61126790D02*
X225374199Y-61126790D01*
X225374199Y-61126790D02*
X225265342Y-61163076D01*
X225265342Y-61163076D02*
X225192771Y-61235647D01*
X225192771Y-61235647D02*
X225156485Y-61308219D01*
X225156485Y-61308219D02*
X225120199Y-61453362D01*
X225120199Y-61453362D02*
X225120199Y-61562219D01*
X225120199Y-61562219D02*
X225156485Y-61707362D01*
X225156485Y-61707362D02*
X225192771Y-61779933D01*
X225192771Y-61779933D02*
X225265342Y-61852505D01*
X225265342Y-61852505D02*
X225374199Y-61888790D01*
X225374199Y-61888790D02*
X225555628Y-61888790D01*
X224430771Y-61126790D02*
X224793628Y-61126790D01*
X224793628Y-61126790D02*
X224829914Y-61489647D01*
X224829914Y-61489647D02*
X224793628Y-61453362D01*
X224793628Y-61453362D02*
X224721057Y-61417076D01*
X224721057Y-61417076D02*
X224539628Y-61417076D01*
X224539628Y-61417076D02*
X224467057Y-61453362D01*
X224467057Y-61453362D02*
X224430771Y-61489647D01*
X224430771Y-61489647D02*
X224394485Y-61562219D01*
X224394485Y-61562219D02*
X224394485Y-61743647D01*
X224394485Y-61743647D02*
X224430771Y-61816219D01*
X224430771Y-61816219D02*
X224467057Y-61852505D01*
X224467057Y-61852505D02*
X224539628Y-61888790D01*
X224539628Y-61888790D02*
X224721057Y-61888790D01*
X224721057Y-61888790D02*
X224793628Y-61852505D01*
X224793628Y-61852505D02*
X224829914Y-61816219D01*
X250603656Y-75452390D02*
X250857656Y-75089533D01*
X251039085Y-75452390D02*
X251039085Y-74690390D01*
X251039085Y-74690390D02*
X250748799Y-74690390D01*
X250748799Y-74690390D02*
X250676228Y-74726676D01*
X250676228Y-74726676D02*
X250639942Y-74762962D01*
X250639942Y-74762962D02*
X250603656Y-74835533D01*
X250603656Y-74835533D02*
X250603656Y-74944390D01*
X250603656Y-74944390D02*
X250639942Y-75016962D01*
X250639942Y-75016962D02*
X250676228Y-75053247D01*
X250676228Y-75053247D02*
X250748799Y-75089533D01*
X250748799Y-75089533D02*
X251039085Y-75089533D01*
X249877942Y-75452390D02*
X250313371Y-75452390D01*
X250095656Y-75452390D02*
X250095656Y-74690390D01*
X250095656Y-74690390D02*
X250168228Y-74799247D01*
X250168228Y-74799247D02*
X250240799Y-74871819D01*
X250240799Y-74871819D02*
X250313371Y-74908105D01*
X249623942Y-74690390D02*
X249152228Y-74690390D01*
X249152228Y-74690390D02*
X249406228Y-74980676D01*
X249406228Y-74980676D02*
X249297371Y-74980676D01*
X249297371Y-74980676D02*
X249224800Y-75016962D01*
X249224800Y-75016962D02*
X249188514Y-75053247D01*
X249188514Y-75053247D02*
X249152228Y-75125819D01*
X249152228Y-75125819D02*
X249152228Y-75307247D01*
X249152228Y-75307247D02*
X249188514Y-75379819D01*
X249188514Y-75379819D02*
X249224800Y-75416105D01*
X249224800Y-75416105D02*
X249297371Y-75452390D01*
X249297371Y-75452390D02*
X249515085Y-75452390D01*
X249515085Y-75452390D02*
X249587657Y-75416105D01*
X249587657Y-75416105D02*
X249623942Y-75379819D01*
X227250171Y-68514562D02*
X227322742Y-68478276D01*
X227322742Y-68478276D02*
X227395314Y-68405705D01*
X227395314Y-68405705D02*
X227504171Y-68296847D01*
X227504171Y-68296847D02*
X227576742Y-68260562D01*
X227576742Y-68260562D02*
X227649314Y-68260562D01*
X227613028Y-68441990D02*
X227685600Y-68405705D01*
X227685600Y-68405705D02*
X227758171Y-68333133D01*
X227758171Y-68333133D02*
X227794457Y-68187990D01*
X227794457Y-68187990D02*
X227794457Y-67933990D01*
X227794457Y-67933990D02*
X227758171Y-67788847D01*
X227758171Y-67788847D02*
X227685600Y-67716276D01*
X227685600Y-67716276D02*
X227613028Y-67679990D01*
X227613028Y-67679990D02*
X227467885Y-67679990D01*
X227467885Y-67679990D02*
X227395314Y-67716276D01*
X227395314Y-67716276D02*
X227322742Y-67788847D01*
X227322742Y-67788847D02*
X227286457Y-67933990D01*
X227286457Y-67933990D02*
X227286457Y-68187990D01*
X227286457Y-68187990D02*
X227322742Y-68333133D01*
X227322742Y-68333133D02*
X227395314Y-68405705D01*
X227395314Y-68405705D02*
X227467885Y-68441990D01*
X227467885Y-68441990D02*
X227613028Y-68441990D01*
X227032456Y-67679990D02*
X226560742Y-67679990D01*
X226560742Y-67679990D02*
X226814742Y-67970276D01*
X226814742Y-67970276D02*
X226705885Y-67970276D01*
X226705885Y-67970276D02*
X226633314Y-68006562D01*
X226633314Y-68006562D02*
X226597028Y-68042847D01*
X226597028Y-68042847D02*
X226560742Y-68115419D01*
X226560742Y-68115419D02*
X226560742Y-68296847D01*
X226560742Y-68296847D02*
X226597028Y-68369419D01*
X226597028Y-68369419D02*
X226633314Y-68405705D01*
X226633314Y-68405705D02*
X226705885Y-68441990D01*
X226705885Y-68441990D02*
X226923599Y-68441990D01*
X226923599Y-68441990D02*
X226996171Y-68405705D01*
X226996171Y-68405705D02*
X227032456Y-68369419D01*
D13*
%TO.C,C3*%
X232357200Y-64580380D02*
X232357200Y-64299220D01*
X233377200Y-64580380D02*
X233377200Y-64299220D01*
%TO.C,C4*%
X230337600Y-64580380D02*
X230337600Y-64299220D01*
X231357600Y-64580380D02*
X231357600Y-64299220D01*
%TO.C,D4*%
X248721000Y-58378800D02*
X246761000Y-58378800D01*
X248721000Y-59578800D02*
X246761000Y-59578800D01*
X248721000Y-59578800D02*
X248721000Y-58378800D01*
D10*
%TO.C,R12*%
X247342400Y-73488600D02*
X247342400Y-74288600D01*
X247342400Y-74288600D02*
X248842400Y-74288600D01*
X248842400Y-73488600D02*
X247342400Y-73488600D01*
X248842400Y-74288600D02*
X248842400Y-73488600D01*
%TO.C,R5*%
X245950000Y-64141400D02*
X245950000Y-64941400D01*
X245950000Y-64941400D02*
X247450000Y-64941400D01*
X247450000Y-64141400D02*
X245950000Y-64141400D01*
X247450000Y-64941400D02*
X247450000Y-64141400D01*
%TO.C,R11*%
X247342400Y-71126400D02*
X247342400Y-71926400D01*
X247342400Y-71926400D02*
X248842400Y-71926400D01*
X248842400Y-71126400D02*
X247342400Y-71126400D01*
X248842400Y-71926400D02*
X248842400Y-71126400D01*
%TO.C,R6*%
X245950000Y-65132000D02*
X245950000Y-65932000D01*
X245950000Y-65932000D02*
X247450000Y-65932000D01*
X247450000Y-65132000D02*
X245950000Y-65132000D01*
X247450000Y-65932000D02*
X247450000Y-65132000D01*
D13*
%TO.C,D3*%
X248721000Y-60258400D02*
X246761000Y-60258400D01*
X248721000Y-61458400D02*
X246761000Y-61458400D01*
X248721000Y-61458400D02*
X248721000Y-60258400D01*
D10*
%TO.C,R3*%
X247331800Y-70135800D02*
X247331800Y-70935800D01*
X247331800Y-70935800D02*
X248831800Y-70935800D01*
X248831800Y-70135800D02*
X247331800Y-70135800D01*
X248831800Y-70935800D02*
X248831800Y-70135800D01*
D13*
%TO.C,D1*%
X241434000Y-61964200D02*
X241434000Y-63664200D01*
X244094000Y-61964200D02*
X241434000Y-61964200D01*
X244094000Y-63664200D02*
X241434000Y-63664200D01*
%TO.C,U4*%
X243235200Y-59420400D02*
X243235200Y-58870400D01*
X243435200Y-59420400D02*
X243235200Y-59420400D01*
X244335200Y-59420400D02*
X244535200Y-59420400D01*
X244535200Y-59420400D02*
X244535200Y-58870400D01*
X243125200Y-58440400D02*
X242845200Y-58440400D01*
X243125200Y-58160400D01*
X243125200Y-58440400D01*
G36*
X243125200Y-58440400D02*
G01*
X242845200Y-58440400D01*
X243125200Y-58160400D01*
X243125200Y-58440400D01*
G37*
%TO.C,C1*%
X248933580Y-67134800D02*
X248652420Y-67134800D01*
X248933580Y-68154800D02*
X248652420Y-68154800D01*
D10*
%TO.C,R8*%
X235480600Y-67189400D02*
X235480600Y-67989400D01*
X235480600Y-67989400D02*
X236980600Y-67989400D01*
X236980600Y-67189400D02*
X235480600Y-67189400D01*
X236980600Y-67989400D02*
X236980600Y-67189400D01*
D13*
%TO.C,TP3*%
X238626800Y-59937800D02*
X241026800Y-59937800D01*
X238626800Y-62337800D02*
X238626800Y-59937800D01*
X241026800Y-59937800D02*
X241026800Y-62337800D01*
X241026800Y-62337800D02*
X238626800Y-62337800D01*
%TO.C,C5*%
X235914620Y-62786800D02*
X236195780Y-62786800D01*
X235914620Y-63806800D02*
X236195780Y-63806800D01*
%TO.C,TP1*%
X219221200Y-59937800D02*
X221621200Y-59937800D01*
X219221200Y-62337800D02*
X219221200Y-59937800D01*
X221621200Y-59937800D02*
X221621200Y-62337800D01*
X221621200Y-62337800D02*
X219221200Y-62337800D01*
D10*
%TO.C,R7*%
X235485200Y-68180000D02*
X235485200Y-68980000D01*
X235485200Y-68980000D02*
X236985200Y-68980000D01*
X236985200Y-68180000D02*
X235485200Y-68180000D01*
X236985200Y-68980000D02*
X236985200Y-68180000D01*
%TO.C,R9*%
X227418200Y-62642800D02*
X227418200Y-63442800D01*
X227418200Y-63442800D02*
X228918200Y-63442800D01*
X228918200Y-62642800D02*
X227418200Y-62642800D01*
X228918200Y-63442800D02*
X228918200Y-62642800D01*
D13*
%TO.C,C2*%
X248933580Y-68705000D02*
X248652420Y-68705000D01*
X248933580Y-69725000D02*
X248652420Y-69725000D01*
%TO.C,TP2*%
X230168600Y-59937800D02*
X232568600Y-59937800D01*
X230168600Y-62337800D02*
X230168600Y-59937800D01*
X232568600Y-59937800D02*
X232568600Y-62337800D01*
X232568600Y-62337800D02*
X230168600Y-62337800D01*
D10*
%TO.C,R10*%
X227418200Y-59671000D02*
X227418200Y-60471000D01*
X227418200Y-60471000D02*
X228918200Y-60471000D01*
X228918200Y-59671000D02*
X227418200Y-59671000D01*
X228918200Y-60471000D02*
X228918200Y-59671000D01*
D13*
%TO.C,D7*%
X243972500Y-77795000D02*
X243972500Y-79265000D01*
X243972500Y-79265000D02*
X246257500Y-79265000D01*
X246257500Y-77795000D02*
X243972500Y-77795000D01*
%TO.C,U2*%
X241105400Y-67514600D02*
X241105400Y-67939600D01*
X241105400Y-72434600D02*
X241105400Y-71709600D01*
X241345400Y-67214600D02*
X241830400Y-67214600D01*
X241830400Y-72434600D02*
X241105400Y-72434600D01*
X245600400Y-67214600D02*
X246325400Y-67214600D01*
X245600400Y-72434600D02*
X246325400Y-72434600D01*
X246325400Y-67214600D02*
X246325400Y-67939600D01*
X246325400Y-72434600D02*
X246325400Y-71709600D01*
X241105400Y-67214600D02*
X240775400Y-67454600D01*
X240775400Y-66974600D01*
X241105400Y-67214600D01*
G36*
X241105400Y-67214600D02*
G01*
X240775400Y-67454600D01*
X240775400Y-66974600D01*
X241105400Y-67214600D01*
G37*
%TO.C,U3*%
X252409600Y-65790800D02*
X251859600Y-65790800D01*
X252409600Y-65990800D02*
X252409600Y-65790800D01*
X252409600Y-66890800D02*
X252409600Y-67090800D01*
X252409600Y-67090800D02*
X251859600Y-67090800D01*
X251429600Y-67480800D02*
X251149600Y-67200800D01*
X251429600Y-67200800D01*
X251429600Y-67480800D01*
G36*
X251429600Y-67480800D02*
G01*
X251149600Y-67200800D01*
X251429600Y-67200800D01*
X251429600Y-67480800D01*
G37*
%TO.C,D6*%
X243975000Y-76055000D02*
X243975000Y-77525000D01*
X243975000Y-77525000D02*
X246260000Y-77525000D01*
X246260000Y-76055000D02*
X243975000Y-76055000D01*
%TO.C,D2*%
X241484800Y-59754400D02*
X241484800Y-61454400D01*
X244144800Y-59754400D02*
X241484800Y-59754400D01*
X244144800Y-61454400D02*
X241484800Y-61454400D01*
%TO.C,U5*%
X235173200Y-64869800D02*
X235173200Y-66369800D01*
X237443200Y-64869800D02*
X237443200Y-66369800D01*
X237358200Y-67199800D02*
X237358200Y-66919800D01*
X237638200Y-66919800D01*
X237358200Y-67199800D01*
G36*
X237358200Y-67199800D02*
G01*
X237358200Y-66919800D01*
X237638200Y-66919800D01*
X237358200Y-67199800D01*
G37*
%TO.C,D5*%
X226631700Y-62228400D02*
X228916700Y-62228400D01*
X228916700Y-60758400D02*
X226631700Y-60758400D01*
X228916700Y-62228400D02*
X228916700Y-60758400D01*
D10*
%TO.C,R13*%
X247342400Y-74682400D02*
X247342400Y-75482400D01*
X247342400Y-75482400D02*
X248842400Y-75482400D01*
X248842400Y-74682400D02*
X247342400Y-74682400D01*
X248842400Y-75482400D02*
X248842400Y-74682400D01*
D13*
%TO.C,Q3*%
X226402900Y-63931400D02*
X227052900Y-63931400D01*
X226402900Y-67051400D02*
X227052900Y-67051400D01*
X227702900Y-63931400D02*
X227052900Y-63931400D01*
X227702900Y-67051400D02*
X227052900Y-67051400D01*
X228215400Y-63981400D02*
X227975400Y-63651400D01*
X228455400Y-63651400D01*
X228215400Y-63981400D01*
G36*
X228215400Y-63981400D02*
G01*
X227975400Y-63651400D01*
X228455400Y-63651400D01*
X228215400Y-63981400D01*
G37*
%TD*%
M02*
