M48
; DRILL file {KiCad 8.0.1} date 2024-09-08T05:47:11-0600
; FORMAT={-:-/ absolute / inch / decimal}
; #@! TF.CreationDate,2024-09-08T05:47:11-06:00
; #@! TF.GenerationSoftware,Kicad,Pcbnew,8.0.1
; #@! TF.FileFunction,Plated,1,4,PTH
FMAT,2
INCH
; #@! TA.AperFunction,Plated,PTH,ViaDrill
T1C0.0100
; #@! TA.AperFunction,Plated,PTH,ComponentDrill
T2C0.0197
; #@! TA.AperFunction,Plated,PTH,ViaDrill
T3C0.0200
; #@! TA.AperFunction,Plated,PTH,ComponentDrill
T4C0.0276
; #@! TA.AperFunction,Plated,PTH,ComponentDrill
T5C0.0400
%
G90
G05
T1
X7.492Y-2.562
X7.494Y-2.896
X7.665Y-2.973
X7.762Y-2.774
X7.763Y-2.809
X7.914Y-2.064
X7.955Y-2.505
X7.989Y-2.506
X8.177Y-2.635
X8.177Y-2.947
X8.212Y-2.088
X8.222Y-2.875
X8.348Y-2.977
X8.458Y-2.769
X8.459Y-2.792
X8.46Y-2.833
X8.46Y-2.86
X8.697Y-2.197
X8.736Y-2.197
X8.78Y-2.197
X8.85Y-2.197
X8.909Y-2.197
X8.984Y-2.197
X9.035Y-2.571
X9.128Y-2.508
X9.179Y-3.151
X9.225Y-2.619
X9.251Y-2.619
X9.252Y-2.569
X9.252Y-2.593
X9.254Y-2.7
X9.284Y-2.5833
X9.304Y-2.5833
X9.324Y-2.5833
X9.329Y-2.926
X9.329Y-2.966
X9.364Y-2.555
X9.374Y-2.86
X9.395Y-2.524
X9.395Y-2.675
X9.399Y-2.833
X9.425Y-2.811
X9.438Y-2.729
X9.456Y-3.098
X9.477Y-3.077
X9.532Y-2.943
X9.589Y-2.279
X9.589Y-2.533
X9.614Y-2.534
X9.615Y-2.279
X9.631Y-2.942
X9.64Y-2.509
X9.6435Y-2.5405
X9.668Y-2.291
X9.672Y-2.55
X9.742Y-2.281
X9.754Y-2.843
X9.772Y-2.999
X9.78Y-2.877
X9.803Y-2.431
X9.866Y-2.663
X9.876Y-2.583
T3
X8.419Y-2.945
X8.577Y-2.51
X9.036Y-2.51
T5
X8.5587Y-2.0858
X8.6587Y-2.0858
X8.7587Y-2.0858
X8.8587Y-2.0858
X8.9587Y-2.0858
X9.0587Y-2.0858
X9.1587Y-2.0858
T2
G00X9.4592Y-2.0612
M15
G01X9.4592Y-2.0888
M16
G05
G00X9.719Y-2.0612
M15
G01X9.719Y-2.0888
M16
G05
T4
G00X9.871Y-2.3927
M15
G01X9.9419Y-2.3927
M16
G05
G00X9.871Y-2.8533
M15
G01X9.9419Y-2.8533
M16
G05
M30
